{"asset":{"generator":"Khronos glTF Blender I/O v5.2.40","version":"2.0"},"scene":0,"scenes":[{"name":"Scene","nodes":[0]}],"nodes":[{"mesh":0,"name":"barrel"}],"materials":[{"doubleSided":true,"name":"roof_tiles","pbrMetallicRoughness":{"baseColorTexture":{"index":0},"metallicFactor":0.0,"roughnessFactor":1.0}},{"doubleSided":true,"name":"stone_wall","pbrMetallicRoughness":{"baseColorTexture":{"index":1},"metallicFactor":0.0,"roughnessFactor":1.0}},{"doubleSided":true,"name":"wood","pbrMetallicRoughness":{"baseColorTexture":{"index":2},"metallicFactor":0.0,"roughnessFactor":1.0}}],"meshes":[{"name":"barrel","primitives":[{"attributes":{"POSITION":0,"NORMAL":1,"TEXCOORD_0":2,"COLOR_0":3},"indices":4,"material":0},{"attributes":{"POSITION":5,"NORMAL":6,"TEXCOORD_0":7,"COLOR_0":8},"indices":9,"material":1},{"attributes":{"POSITION":10,"NORMAL":11,"TEXCOORD_0":12,"COLOR_0":13},"indices":14,"material":2}]}],"textures":[{"sampler":0,"source":0},{"sampler":0,"source":1},{"sampler":0,"source":2}],"images":[{"mimeType":"image/png","name":"roof_tiles.png","uri":"../../textures/roof_tiles.png"},{"mimeType":"image/png","name":"stone_wall.png","uri":"../../textures/stone_wall.png"},{"mimeType":"image/png","name":"wood.png","uri":"../../textures/wood.png"}],"accessors":[{"bufferView":0,"componentType":5126,"count":313,"max":[0.09475135058164597,0.21000000834465027,0.09475135058164597],"min":[-0.09475135058164597,-1.0430813546236095e-08,-0.09475135058164597],"type":"VEC3"},{"bufferView":1,"componentType":5126,"count":313,"type":"VEC3"},{"bufferView":2,"componentType":5126,"count":313,"type":"VEC2"},{"bufferView":3,"componentType":5123,"count":313,"normalized":true,"type":"VEC4"},{"bufferView":4,"componentType":5123,"count":360,"type":"SCALAR"},{"bufferView":5,"componentType":5126,"count":270,"max":[0.1007370799779892,0.1796124130487442,0.10073811560869217],"min":[-0.10073928534984589,0.030380435287952423,-0.10073825716972351],"type":"VEC3"},{"bufferView":6,"componentType":5126,"count":270,"type":"VEC3"},{"bufferView":7,"componentType":5126,"count":270,"type":"VEC2"},{"bufferView":8,"componentType":5123,"count":270,"normalized":true,"type":"VEC4"},{"bufferView":9,"componentType":5123,"count":288,"type":"SCALAR"},{"bufferView":10,"componentType":5126,"count":51,"max":[0.06925006955862045,0.2117120623588562,0.06925006955862045],"min":[-0.06925006955862045,0.1830167919397354,-0.06925006955862045],"type":"VEC3"},{"bufferView":11,"componentType":5126,"count":51,"type":"VEC3"},{"bufferView":12,"componentType":5126,"count":51,"type":"VEC2"},{"bufferView":13,"componentType":5123,"count":51,"normalized":true,"type":"VEC4"},{"bufferView":14,"componentType":5123,"count":72,"type":"SCALAR"}],"bufferViews":[{"buffer":0,"byteLength":3756,"byteOffset":0,"target":34962},{"buffer":0,"byteLength":3756,"byteOffset":3756,"target":34962},{"buffer":0,"byteLength":2504,"byteOffset":7512,"target":34962},{"buffer":0,"byteLength":2504,"byteOffset":10016,"target":34962},{"buffer":0,"byteLength":720,"byteOffset":12520,"target":34963},{"buffer":0,"byteLength":3240,"byteOffset":13240,"target":34962},{"buffer":0,"byteLength":3240,"byteOffset":16480,"target":34962},{"buffer":0,"byteLength":2160,"byteOffset":19720,"target":34962},{"buffer":0,"byteLength":2160,"byteOffset":21880,"target":34962},{"buffer":0,"byteLength":576,"byteOffset":24040,"target":34963},{"buffer":0,"byteLength":612,"byteOffset":24616,"target":34962},{"buffer":0,"byteLength":612,"byteOffset":25228,"target":34962},{"buffer":0,"byteLength":408,"byteOffset":25840,"target":34962},{"buffer":0,"byteLength":408,"byteOffset":26248,"target":34962},{"buffer":0,"byteLength":144,"byteOffset":26656,"target":34963}],"samplers":[{"magFilter":9729,"minFilter":9987}],"buffers":[{"byteLength":26800,"uri":"barrel.bin"}]}