{"asset":{"generator":"Khronos glTF Blender I/O v5.2.40","version":"2.0"},"scene":0,"scenes":[{"name":"Scene","nodes":[0]}],"nodes":[{"mesh":0,"name":"building_tavern_red"}],"materials":[{"doubleSided":true,"name":"stone_wall","pbrMetallicRoughness":{"baseColorTexture":{"index":0},"metallicFactor":0.0,"roughnessFactor":1.0}},{"doubleSided":true,"name":"roof_tiles","pbrMetallicRoughness":{"baseColorTexture":{"index":1},"metallicFactor":0.0,"roughnessFactor":1.0}},{"doubleSided":true,"name":"plaster","pbrMetallicRoughness":{"baseColorTexture":{"index":2},"metallicFactor":0.0,"roughnessFactor":1.0}},{"doubleSided":true,"name":"wood","pbrMetallicRoughness":{"baseColorTexture":{"index":3},"metallicFactor":0.0,"roughnessFactor":1.0}},{"doubleSided":true,"name":"flat_e0b885","pbrMetallicRoughness":{"baseColorFactor":[0.7516351938247681,0.48325350880622864,0.23727808892726898,1],"metallicFactor":0.0,"roughnessFactor":1.0}},{"doubleSided":true,"name":"flat_d6ad84","pbrMetallicRoughness":{"baseColorFactor":[0.6726041436195374,0.4207005202770233,0.23193088173866272,1],"metallicFactor":0.0,"roughnessFactor":1.0}},{"doubleSided":true,"name":"flat_e1c39a","pbrMetallicRoughness":{"baseColorFactor":[0.7585448622703552,0.5485752820968628,0.3235218822956085,1],"metallicFactor":0.0,"roughnessFactor":1.0}},{"doubleSided":true,"name":"flat_ebc39a","pbrMetallicRoughness":{"baseColorFactor":[0.8345807194709778,0.5512584447860718,0.3254987895488739,1],"metallicFactor":0.0,"roughnessFactor":1.0}},{"doubleSided":true,"name":"flat_d4a26f","pbrMetallicRoughness":{"baseColorFactor":[0.6648367047309875,0.3627910912036896,0.16019588708877563,1],"metallicFactor":0.0,"roughnessFactor":1.0}}],"meshes":[{"name":"building_tavern_red","primitives":[{"attributes":{"POSITION":0,"NORMAL":1,"TEXCOORD_0":2,"COLOR_0":3},"indices":4,"material":0},{"attributes":{"POSITION":5,"NORMAL":6,"TEXCOORD_0":7,"COLOR_0":8},"indices":9,"material":1},{"attributes":{"POSITION":10,"NORMAL":11,"TEXCOORD_0":12,"COLOR_0":13},"indices":14,"material":2},{"attributes":{"POSITION":15,"NORMAL":16,"TEXCOORD_0":17,"COLOR_0":18},"indices":19,"material":3},{"attributes":{"POSITION":20,"NORMAL":21,"TEXCOORD_0":22,"COLOR_0":23},"indices":24,"material":4},{"attributes":{"POSITION":25,"NORMAL":26,"TEXCOORD_0":27,"COLOR_0":28},"indices":29,"material":5},{"attributes":{"POSITION":30,"NORMAL":31,"TEXCOORD_0":32,"COLOR_0":33},"indices":34,"material":6},{"attributes":{"POSITION":35,"NORMAL":36,"TEXCOORD_0":37,"COLOR_0":38},"indices":39,"material":7},{"attributes":{"POSITION":40,"NORMAL":41,"TEXCOORD_0":42,"COLOR_0":43},"indices":44,"material":8}]}],"textures":[{"sampler":0,"source":0},{"sampler":0,"source":1},{"sampler":0,"source":2},{"sampler":0,"source":3}],"images":[{"mimeType":"image/png","name":"stone_wall.png","uri":"../../textures/stone_wall.png"},{"mimeType":"image/png","name":"roof_tiles.png","uri":"../../textures/roof_tiles.png"},{"mimeType":"image/png","name":"plaster.png","uri":"../../textures/plaster.png"},{"mimeType":"image/png","name":"wood.png","uri":"../../textures/wood.png"}],"accessors":[{"bufferView":0,"componentType":5126,"count":1883,"max":[0.5767492055892944,1.3966469764709473,0.6300007104873657],"min":[-0.5949788689613342,-3.0875205538904993e-06,-0.6690888404846191],"type":"VEC3"},{"bufferView":1,"componentType":5126,"count":1883,"type":"VEC3"},{"bufferView":2,"componentType":5126,"count":1883,"type":"VEC2"},{"bufferView":3,"componentType":5123,"count":1883,"normalized":true,"type":"VEC4"},{"bufferView":4,"componentType":5123,"count":2118,"type":"SCALAR"},{"bufferView":5,"componentType":5126,"count":3932,"max":[0.5626641511917114,1.3294637203216553,0.6023837327957153],"min":[-0.5563961267471313,0,-0.7005446553230286],"type":"VEC3"},{"bufferView":6,"componentType":5126,"count":3932,"type":"VEC3"},{"bufferView":7,"componentType":5126,"count":3932,"type":"VEC2"},{"bufferView":8,"componentType":5123,"count":3932,"normalized":true,"type":"VEC4"},{"bufferView":9,"componentType":5123,"count":4758,"type":"SCALAR"},{"bufferView":10,"componentType":5126,"count":928,"max":[0.4245816171169281,1.3900153636932373,0.2945956587791443],"min":[-0.5949788689613342,0.23798289895057678,-0.6690888404846191],"type":"VEC3"},{"bufferView":11,"componentType":5126,"count":928,"type":"VEC3"},{"bufferView":12,"componentType":5126,"count":928,"type":"VEC2"},{"bufferView":13,"componentType":5123,"count":928,"normalized":true,"type":"VEC4"},{"bufferView":14,"componentType":5123,"count":1116,"type":"SCALAR"},{"bufferView":15,"componentType":5126,"count":464,"max":[0.49824249744415283,1.322454571723938,0.5976870059967041],"min":[-0.4500042200088501,0.030853502452373505,-0.7023168802261353],"type":"VEC3"},{"bufferView":16,"componentType":5126,"count":464,"type":"VEC3"},{"bufferView":17,"componentType":5126,"count":464,"type":"VEC2"},{"bufferView":18,"componentType":5123,"count":464,"normalized":true,"type":"VEC4"},{"bufferView":19,"componentType":5123,"count":600,"type":"SCALAR"},{"bufferView":20,"componentType":5126,"count":68,"max":[0.4083847105503082,0.3043909966945648,-0.32994115352630615],"min":[0.23395377397537231,0.21925033628940582,-0.4659426212310791],"type":"VEC3"},{"bufferView":21,"componentType":5126,"count":68,"type":"VEC3"},{"bufferView":22,"componentType":5126,"count":68,"type":"VEC2"},{"bufferView":23,"componentType":5123,"count":68,"normalized":true,"type":"VEC4"},{"bufferView":24,"componentType":5123,"count":72,"type":"SCALAR"},{"bufferView":25,"componentType":5126,"count":66,"max":[0.4083847105503082,0.3043909966945648,-0.32994115352630615],"min":[0.23395377397537231,0.21925033628940582,-0.4659426212310791],"type":"VEC3"},{"bufferView":26,"componentType":5126,"count":66,"type":"VEC3"},{"bufferView":27,"componentType":5126,"count":66,"type":"VEC2"},{"bufferView":28,"componentType":5123,"count":66,"normalized":true,"type":"VEC4"},{"bufferView":29,"componentType":5123,"count":72,"type":"SCALAR"},{"bufferView":30,"componentType":5126,"count":112,"max":[0.4083847105503082,0.31069260835647583,-0.32994115352630615],"min":[0.23407387733459473,0.25112661719322205,-0.4659426212310791],"type":"VEC3"},{"bufferView":31,"componentType":5126,"count":112,"type":"VEC3"},{"bufferView":32,"componentType":5126,"count":112,"type":"VEC2"},{"bufferView":33,"componentType":5123,"count":112,"normalized":true,"type":"VEC4"},{"bufferView":34,"componentType":5123,"count":132,"type":"SCALAR"},{"bufferView":35,"componentType":5126,"count":24,"max":[0.4083847105503082,0.31069260835647583,-0.34029969573020935],"min":[0.23407387733459473,0.26156747341156006,-0.4592965543270111],"type":"VEC3"},{"bufferView":36,"componentType":5126,"count":24,"type":"VEC3"},{"bufferView":37,"componentType":5126,"count":24,"type":"VEC2"},{"bufferView":38,"componentType":5123,"count":24,"normalized":true,"type":"VEC4"},{"bufferView":39,"componentType":5123,"count":24,"type":"SCALAR"},{"bufferView":40,"componentType":5126,"count":76,"max":[0.4082646071910858,0.27850574254989624,-0.32994115352630615],"min":[0.23395377397537231,0.20863381028175354,-0.465899795293808],"type":"VEC3"},{"bufferView":41,"componentType":5126,"count":76,"type":"VEC3"},{"bufferView":42,"componentType":5126,"count":76,"type":"VEC2"},{"bufferView":43,"componentType":5123,"count":76,"normalized":true,"type":"VEC4"},{"bufferView":44,"componentType":5123,"count":84,"type":"SCALAR"}],"bufferViews":[{"buffer":0,"byteLength":22596,"byteOffset":0,"target":34962},{"buffer":0,"byteLength":22596,"byteOffset":22596,"target":34962},{"buffer":0,"byteLength":15064,"byteOffset":45192,"target":34962},{"buffer":0,"byteLength":15064,"byteOffset":60256,"target":34962},{"buffer":0,"byteLength":4236,"byteOffset":75320,"target":34963},{"buffer":0,"byteLength":47184,"byteOffset":79556,"target":34962},{"buffer":0,"byteLength":47184,"byteOffset":126740,"target":34962},{"buffer":0,"byteLength":31456,"byteOffset":173924,"target":34962},{"buffer":0,"byteLength":31456,"byteOffset":205380,"target":34962},{"buffer":0,"byteLength":9516,"byteOffset":236836,"target":34963},{"buffer":0,"byteLength":11136,"byteOffset":246352,"target":34962},{"buffer":0,"byteLength":11136,"byteOffset":257488,"target":34962},{"buffer":0,"byteLength":7424,"byteOffset":268624,"target":34962},{"buffer":0,"byteLength":7424,"byteOffset":276048,"target":34962},{"buffer":0,"byteLength":2232,"byteOffset":283472,"target":34963},{"buffer":0,"byteLength":5568,"byteOffset":285704,"target":34962},{"buffer":0,"byteLength":5568,"byteOffset":291272,"target":34962},{"buffer":0,"byteLength":3712,"byteOffset":296840,"target":34962},{"buffer":0,"byteLength":3712,"byteOffset":300552,"target":34962},{"buffer":0,"byteLength":1200,"byteOffset":304264,"target":34963},{"buffer":0,"byteLength":816,"byteOffset":305464,"target":34962},{"buffer":0,"byteLength":816,"byteOffset":306280,"target":34962},{"buffer":0,"byteLength":544,"byteOffset":307096,"target":34962},{"buffer":0,"byteLength":544,"byteOffset":307640,"target":34962},{"buffer":0,"byteLength":144,"byteOffset":308184,"target":34963},{"buffer":0,"byteLength":792,"byteOffset":308328,"target":34962},{"buffer":0,"byteLength":792,"byteOffset":309120,"target":34962},{"buffer":0,"byteLength":528,"byteOffset":309912,"target":34962},{"buffer":0,"byteLength":528,"byteOffset":310440,"target":34962},{"buffer":0,"byteLength":144,"byteOffset":310968,"target":34963},{"buffer":0,"byteLength":1344,"byteOffset":311112,"target":34962},{"buffer":0,"byteLength":1344,"byteOffset":312456,"target":34962},{"buffer":0,"byteLength":896,"byteOffset":313800,"target":34962},{"buffer":0,"byteLength":896,"byteOffset":314696,"target":34962},{"buffer":0,"byteLength":264,"byteOffset":315592,"target":34963},{"buffer":0,"byteLength":288,"byteOffset":315856,"target":34962},{"buffer":0,"byteLength":288,"byteOffset":316144,"target":34962},{"buffer":0,"byteLength":192,"byteOffset":316432,"target":34962},{"buffer":0,"byteLength":192,"byteOffset":316624,"target":34962},{"buffer":0,"byteLength":48,"byteOffset":316816,"target":34963},{"buffer":0,"byteLength":912,"byteOffset":316864,"target":34962},{"buffer":0,"byteLength":912,"byteOffset":317776,"target":34962},{"buffer":0,"byteLength":608,"byteOffset":318688,"target":34962},{"buffer":0,"byteLength":608,"byteOffset":319296,"target":34962},{"buffer":0,"byteLength":168,"byteOffset":319904,"target":34963}],"samplers":[{"magFilter":9729,"minFilter":9987}],"buffers":[{"byteLength":320072,"uri":"building_tavern_red.bin"}]}