{"asset":{"generator":"Khronos glTF Blender I/O v5.2.40","version":"2.0"},"scene":0,"scenes":[{"name":"Scene","nodes":[0]}],"nodes":[{"mesh":0,"name":"building_well_red"}],"materials":[{"doubleSided":true,"name":"stone_wall","pbrMetallicRoughness":{"baseColorTexture":{"index":0},"metallicFactor":0.0,"roughnessFactor":1.0}},{"doubleSided":true,"name":"plaster","pbrMetallicRoughness":{"baseColorTexture":{"index":1},"metallicFactor":0.0,"roughnessFactor":1.0}},{"doubleSided":true,"name":"flat_6faad1","pbrMetallicRoughness":{"baseColorFactor":[0.16021190583705902,0.4025861620903015,0.639703094959259,1],"metallicFactor":0.0,"roughnessFactor":1.0}},{"doubleSided":true,"name":"roof_tiles","pbrMetallicRoughness":{"baseColorTexture":{"index":2},"metallicFactor":0.0,"roughnessFactor":1.0}},{"doubleSided":true,"name":"wood","pbrMetallicRoughness":{"baseColorTexture":{"index":3},"metallicFactor":0.0,"roughnessFactor":1.0}}],"meshes":[{"name":"building_well_red","primitives":[{"attributes":{"POSITION":0,"NORMAL":1,"TEXCOORD_0":2,"COLOR_0":3},"indices":4,"material":0},{"attributes":{"POSITION":5,"NORMAL":6,"TEXCOORD_0":7,"COLOR_0":8},"indices":9,"material":1},{"attributes":{"POSITION":10,"NORMAL":11,"TEXCOORD_0":12,"COLOR_0":13},"indices":14,"material":2},{"attributes":{"POSITION":15,"NORMAL":16,"TEXCOORD_0":17,"COLOR_0":18},"indices":19,"material":3},{"attributes":{"POSITION":20,"NORMAL":21,"TEXCOORD_0":22,"COLOR_0":23},"indices":24,"material":4}]}],"textures":[{"sampler":0,"source":0},{"sampler":0,"source":1},{"sampler":0,"source":2},{"sampler":0,"source":3}],"images":[{"mimeType":"image/png","name":"stone_wall.png","uri":"../../textures/stone_wall.png"},{"mimeType":"image/png","name":"plaster.png","uri":"../../textures/plaster.png"},{"mimeType":"image/png","name":"roof_tiles.png","uri":"../../textures/roof_tiles.png"},{"mimeType":"image/png","name":"wood.png","uri":"../../textures/wood.png"}],"accessors":[{"bufferView":0,"componentType":5126,"count":528,"max":[0.2550044059753418,0.3841784596443176,0.25497618317604065],"min":[-0.25494882464408875,-1.611560833225667e-06,-0.2549770474433899],"type":"VEC3"},{"bufferView":1,"componentType":5126,"count":528,"type":"VEC3"},{"bufferView":2,"componentType":5126,"count":528,"type":"VEC2"},{"bufferView":3,"componentType":5123,"count":528,"normalized":true,"type":"VEC4"},{"bufferView":4,"componentType":5123,"count":612,"type":"SCALAR"},{"bufferView":5,"componentType":5126,"count":263,"max":[0.2550044059753418,0.3841784596443176,0.25497618317604065],"min":[-0.25494882464408875,0.1399983912706375,-0.2549770474433899],"type":"VEC3"},{"bufferView":6,"componentType":5126,"count":263,"type":"VEC3"},{"bufferView":7,"componentType":5126,"count":263,"type":"VEC2"},{"bufferView":8,"componentType":5123,"count":263,"normalized":true,"type":"VEC4"},{"bufferView":9,"componentType":5123,"count":288,"type":"SCALAR"},{"bufferView":10,"componentType":5126,"count":33,"max":[0.18725062906742096,0.2870039641857147,0.18025125563144684],"min":[-0.13434992730617523,0.1399986296892166,-0.1343773901462555],"type":"VEC3"},{"bufferView":11,"componentType":5126,"count":33,"type":"VEC3"},{"bufferView":12,"componentType":5126,"count":33,"type":"VEC2"},{"bufferView":13,"componentType":5123,"count":33,"normalized":true,"type":"VEC4"},{"bufferView":14,"componentType":5123,"count":60,"type":"SCALAR"},{"bufferView":15,"componentType":5126,"count":896,"max":[0.3368363678455353,0.8260108828544617,0.3753618001937866],"min":[-0.31495729088783264,0.2100021243095398,-0.3753618001937866],"type":"VEC3"},{"bufferView":16,"componentType":5126,"count":896,"type":"VEC3"},{"bufferView":17,"componentType":5126,"count":896,"type":"VEC2"},{"bufferView":18,"componentType":5123,"count":896,"normalized":true,"type":"VEC4"},{"bufferView":19,"componentType":5123,"count":1176,"type":"SCALAR"},{"bufferView":20,"componentType":5126,"count":30,"max":[0.007042739540338516,0.3638162314891815,0.01966317929327488],"min":[-0.31495729088783264,0.12492799013853073,-0.027807900682091713],"type":"VEC3"},{"bufferView":21,"componentType":5126,"count":30,"type":"VEC3"},{"bufferView":22,"componentType":5126,"count":30,"type":"VEC2"},{"bufferView":23,"componentType":5123,"count":30,"normalized":true,"type":"VEC4"},{"bufferView":24,"componentType":5123,"count":42,"type":"SCALAR"}],"bufferViews":[{"buffer":0,"byteLength":6336,"byteOffset":0,"target":34962},{"buffer":0,"byteLength":6336,"byteOffset":6336,"target":34962},{"buffer":0,"byteLength":4224,"byteOffset":12672,"target":34962},{"buffer":0,"byteLength":4224,"byteOffset":16896,"target":34962},{"buffer":0,"byteLength":1224,"byteOffset":21120,"target":34963},{"buffer":0,"byteLength":3156,"byteOffset":22344,"target":34962},{"buffer":0,"byteLength":3156,"byteOffset":25500,"target":34962},{"buffer":0,"byteLength":2104,"byteOffset":28656,"target":34962},{"buffer":0,"byteLength":2104,"byteOffset":30760,"target":34962},{"buffer":0,"byteLength":576,"byteOffset":32864,"target":34963},{"buffer":0,"byteLength":396,"byteOffset":33440,"target":34962},{"buffer":0,"byteLength":396,"byteOffset":33836,"target":34962},{"buffer":0,"byteLength":264,"byteOffset":34232,"target":34962},{"buffer":0,"byteLength":264,"byteOffset":34496,"target":34962},{"buffer":0,"byteLength":120,"byteOffset":34760,"target":34963},{"buffer":0,"byteLength":10752,"byteOffset":34880,"target":34962},{"buffer":0,"byteLength":10752,"byteOffset":45632,"target":34962},{"buffer":0,"byteLength":7168,"byteOffset":56384,"target":34962},{"buffer":0,"byteLength":7168,"byteOffset":63552,"target":34962},{"buffer":0,"byteLength":2352,"byteOffset":70720,"target":34963},{"buffer":0,"byteLength":360,"byteOffset":73072,"target":34962},{"buffer":0,"byteLength":360,"byteOffset":73432,"target":34962},{"buffer":0,"byteLength":240,"byteOffset":73792,"target":34962},{"buffer":0,"byteLength":240,"byteOffset":74032,"target":34962},{"buffer":0,"byteLength":84,"byteOffset":74272,"target":34963}],"samplers":[{"magFilter":9729,"minFilter":9987}],"buffers":[{"byteLength":74356,"uri":"building_well_red.bin"}]}