{"asset":{"generator":"Khronos glTF Blender I/O v5.2.40","version":"2.0"},"scene":0,"scenes":[{"name":"Scene","nodes":[0]}],"nodes":[{"mesh":0,"name":"building_barracks_red"}],"materials":[{"doubleSided":true,"name":"stone_wall","pbrMetallicRoughness":{"baseColorTexture":{"index":0},"metallicFactor":0.0,"roughnessFactor":1.0}},{"doubleSided":true,"name":"plaster","pbrMetallicRoughness":{"baseColorTexture":{"index":1},"metallicFactor":0.0,"roughnessFactor":1.0}},{"doubleSided":true,"name":"roof_tiles","pbrMetallicRoughness":{"baseColorTexture":{"index":2},"metallicFactor":0.0,"roughnessFactor":1.0}},{"doubleSided":true,"name":"wood","pbrMetallicRoughness":{"baseColorTexture":{"index":3},"metallicFactor":0.0,"roughnessFactor":1.0}},{"doubleSided":true,"name":"flat_dfad52","pbrMetallicRoughness":{"baseColorFactor":[0.7414365410804749,0.41826918721199036,0.0862014964222908,1],"metallicFactor":0.0,"roughnessFactor":1.0}},{"doubleSided":true,"name":"flat_d4a151","pbrMetallicRoughness":{"baseColorFactor":[0.6615080833435059,0.3598761558532715,0.0826169103384018,1],"metallicFactor":0.0,"roughnessFactor":1.0}},{"doubleSided":true,"name":"flat_d39650","pbrMetallicRoughness":{"baseColorFactor":[0.6556603312492371,0.30837565660476685,0.0806020051240921,1],"metallicFactor":0.0,"roughnessFactor":1.0}}],"meshes":[{"name":"building_barracks_red","primitives":[{"attributes":{"POSITION":0,"NORMAL":1,"TEXCOORD_0":2,"COLOR_0":3},"indices":4,"material":0},{"attributes":{"POSITION":5,"NORMAL":6,"TEXCOORD_0":7,"COLOR_0":8},"indices":9,"material":1},{"attributes":{"POSITION":10,"NORMAL":11,"TEXCOORD_0":12,"COLOR_0":13},"indices":14,"material":2},{"attributes":{"POSITION":15,"NORMAL":16,"TEXCOORD_0":17,"COLOR_0":18},"indices":19,"material":3},{"attributes":{"POSITION":20,"NORMAL":21,"TEXCOORD_0":22,"COLOR_0":23},"indices":24,"material":4},{"attributes":{"POSITION":25,"NORMAL":26,"TEXCOORD_0":27,"COLOR_0":28},"indices":29,"material":5},{"attributes":{"POSITION":30,"NORMAL":31,"TEXCOORD_0":32,"COLOR_0":33},"indices":34,"material":6}]}],"textures":[{"sampler":0,"source":0},{"sampler":0,"source":1},{"sampler":0,"source":2},{"sampler":0,"source":3}],"images":[{"mimeType":"image/png","name":"stone_wall.png","uri":"../../textures/stone_wall.png"},{"mimeType":"image/png","name":"plaster.png","uri":"../../textures/plaster.png"},{"mimeType":"image/png","name":"roof_tiles.png","uri":"../../textures/roof_tiles.png"},{"mimeType":"image/png","name":"wood.png","uri":"../../textures/wood.png"}],"accessors":[{"bufferView":0,"componentType":5126,"count":3187,"max":[0.7200025916099548,1.4350016117095947,0.815752387046814],"min":[-0.7200023531913757,0,-0.7200022339820862],"type":"VEC3"},{"bufferView":1,"componentType":5126,"count":3187,"type":"VEC3"},{"bufferView":2,"componentType":5126,"count":3187,"type":"VEC2"},{"bufferView":3,"componentType":5123,"count":3187,"normalized":true,"type":"VEC4"},{"bufferView":4,"componentType":5123,"count":4056,"type":"SCALAR"},{"bufferView":5,"componentType":5126,"count":3888,"max":[0.7200025916099548,1.4350016117095947,0.7300000190734863],"min":[-0.7200023531913757,0.21000012755393982,-0.7200022339820862],"type":"VEC3"},{"bufferView":6,"componentType":5126,"count":3888,"type":"VEC3"},{"bufferView":7,"componentType":5126,"count":3888,"type":"VEC2"},{"bufferView":8,"componentType":5123,"count":3888,"normalized":true,"type":"VEC4"},{"bufferView":9,"componentType":5123,"count":5475,"type":"SCALAR"},{"bufferView":10,"componentType":5126,"count":944,"max":[0.6400079131126404,1.640052318572998,0.8460729122161865],"min":[-0.6400077939033508,0,-0.6789566874504089],"type":"VEC3"},{"bufferView":11,"componentType":5126,"count":944,"type":"VEC3"},{"bufferView":12,"componentType":5126,"count":944,"type":"VEC2"},{"bufferView":13,"componentType":5123,"count":944,"normalized":true,"type":"VEC4"},{"bufferView":14,"componentType":5123,"count":1197,"type":"SCALAR"},{"bufferView":15,"componentType":5126,"count":960,"max":[0.17823854088783264,0.9461300373077393,0.8034065961837769],"min":[-0.37448301911354065,0.04999999701976776,0.637277364730835],"type":"VEC3"},{"bufferView":16,"componentType":5126,"count":960,"type":"VEC3"},{"bufferView":17,"componentType":5126,"count":960,"type":"VEC2"},{"bufferView":18,"componentType":5123,"count":960,"normalized":true,"type":"VEC4"},{"bufferView":19,"componentType":5123,"count":1017,"type":"SCALAR"},{"bufferView":20,"componentType":5126,"count":38,"max":[0.12362326681613922,0.737925112247467,0.7065541744232178],"min":[-0.12332583963871002,0.6456224322319031,0.6502407789230347],"type":"VEC3"},{"bufferView":21,"componentType":5126,"count":38,"type":"VEC3"},{"bufferView":22,"componentType":5126,"count":38,"type":"VEC2"},{"bufferView":23,"componentType":5123,"count":38,"normalized":true,"type":"VEC4"},{"bufferView":24,"componentType":5123,"count":54,"type":"SCALAR"},{"bufferView":25,"componentType":5126,"count":161,"max":[0.16702304780483246,0.7582836747169495,0.7092020511627197],"min":[-0.1667841672897339,0.6115411520004272,0.637277364730835],"type":"VEC3"},{"bufferView":26,"componentType":5126,"count":161,"type":"VEC3"},{"bufferView":27,"componentType":5126,"count":161,"type":"VEC2"},{"bufferView":28,"componentType":5123,"count":161,"normalized":true,"type":"VEC4"},{"bufferView":29,"componentType":5123,"count":210,"type":"SCALAR"},{"bufferView":30,"componentType":5126,"count":12,"max":[0.1722230315208435,0.6490747928619385,0.7043266892433167],"min":[-0.1747257113456726,0.6055557727813721,0.637277364730835],"type":"VEC3"},{"bufferView":31,"componentType":5126,"count":12,"type":"VEC3"},{"bufferView":32,"componentType":5126,"count":12,"type":"VEC2"},{"bufferView":33,"componentType":5123,"count":12,"normalized":true,"type":"VEC4"},{"bufferView":34,"componentType":5123,"count":12,"type":"SCALAR"}],"bufferViews":[{"buffer":0,"byteLength":38244,"byteOffset":0,"target":34962},{"buffer":0,"byteLength":38244,"byteOffset":38244,"target":34962},{"buffer":0,"byteLength":25496,"byteOffset":76488,"target":34962},{"buffer":0,"byteLength":25496,"byteOffset":101984,"target":34962},{"buffer":0,"byteLength":8112,"byteOffset":127480,"target":34963},{"buffer":0,"byteLength":46656,"byteOffset":135592,"target":34962},{"buffer":0,"byteLength":46656,"byteOffset":182248,"target":34962},{"buffer":0,"byteLength":31104,"byteOffset":228904,"target":34962},{"buffer":0,"byteLength":31104,"byteOffset":260008,"target":34962},{"buffer":0,"byteLength":10950,"byteOffset":291112,"target":34963},{"buffer":0,"byteLength":11328,"byteOffset":302064,"target":34962},{"buffer":0,"byteLength":11328,"byteOffset":313392,"target":34962},{"buffer":0,"byteLength":7552,"byteOffset":324720,"target":34962},{"buffer":0,"byteLength":7552,"byteOffset":332272,"target":34962},{"buffer":0,"byteLength":2394,"byteOffset":339824,"target":34963},{"buffer":0,"byteLength":11520,"byteOffset":342220,"target":34962},{"buffer":0,"byteLength":11520,"byteOffset":353740,"target":34962},{"buffer":0,"byteLength":7680,"byteOffset":365260,"target":34962},{"buffer":0,"byteLength":7680,"byteOffset":372940,"target":34962},{"buffer":0,"byteLength":2034,"byteOffset":380620,"target":34963},{"buffer":0,"byteLength":456,"byteOffset":382656,"target":34962},{"buffer":0,"byteLength":456,"byteOffset":383112,"target":34962},{"buffer":0,"byteLength":304,"byteOffset":383568,"target":34962},{"buffer":0,"byteLength":304,"byteOffset":383872,"target":34962},{"buffer":0,"byteLength":108,"byteOffset":384176,"target":34963},{"buffer":0,"byteLength":1932,"byteOffset":384284,"target":34962},{"buffer":0,"byteLength":1932,"byteOffset":386216,"target":34962},{"buffer":0,"byteLength":1288,"byteOffset":388148,"target":34962},{"buffer":0,"byteLength":1288,"byteOffset":389436,"target":34962},{"buffer":0,"byteLength":420,"byteOffset":390724,"target":34963},{"buffer":0,"byteLength":144,"byteOffset":391144,"target":34962},{"buffer":0,"byteLength":144,"byteOffset":391288,"target":34962},{"buffer":0,"byteLength":96,"byteOffset":391432,"target":34962},{"buffer":0,"byteLength":96,"byteOffset":391528,"target":34962},{"buffer":0,"byteLength":24,"byteOffset":391624,"target":34963}],"samplers":[{"magFilter":9729,"minFilter":9987}],"buffers":[{"byteLength":391648,"uri":"building_barracks_red.bin"}]}