{"asset":{"generator":"Khronos glTF Blender I/O v5.2.40","version":"2.0"},"scene":0,"scenes":[{"name":"Scene","nodes":[2]}],"nodes":[{"mesh":0,"name":"building_windmill_top_fan_red","translation":[-7.62939453125e-06,0.271655797958374,0.3321404457092285]},{"children":[0],"mesh":1,"name":"building_windmill_top_red","translation":[0,0.685367226600647,0]},{"children":[1],"mesh":2,"name":"building_windmill_red"}],"materials":[{"doubleSided":true,"name":"roof_tiles","pbrMetallicRoughness":{"baseColorTexture":{"index":0},"metallicFactor":0.0,"roughnessFactor":1.0}},{"doubleSided":true,"name":"wood","pbrMetallicRoughness":{"baseColorTexture":{"index":1},"metallicFactor":0.0,"roughnessFactor":1.0}},{"doubleSided":true,"name":"flat_e0b885","pbrMetallicRoughness":{"baseColorFactor":[0.7516351938247681,0.48325350880622864,0.23727808892726898,1],"metallicFactor":0.0,"roughnessFactor":1.0}},{"doubleSided":true,"name":"flat_d5ad7a","pbrMetallicRoughness":{"baseColorFactor":[0.6715279221534729,0.4196738004684448,0.19583523273468018,1],"metallicFactor":0.0,"roughnessFactor":1.0}},{"doubleSided":true,"name":"plaster","pbrMetallicRoughness":{"baseColorTexture":{"index":2},"metallicFactor":0.0,"roughnessFactor":1.0}},{"doubleSided":true,"name":"stone_wall","pbrMetallicRoughness":{"baseColorTexture":{"index":3},"metallicFactor":0.0,"roughnessFactor":1.0}},{"doubleSided":true,"name":"flat_d6ad84","pbrMetallicRoughness":{"baseColorFactor":[0.6726041436195374,0.4207005202770233,0.23193088173866272,1],"metallicFactor":0.0,"roughnessFactor":1.0}},{"doubleSided":true,"name":"flat_e1c39a","pbrMetallicRoughness":{"baseColorFactor":[0.7585448622703552,0.5485752820968628,0.3235218822956085,1],"metallicFactor":0.0,"roughnessFactor":1.0}},{"doubleSided":true,"name":"flat_ebc39a","pbrMetallicRoughness":{"baseColorFactor":[0.8345807194709778,0.5512584447860718,0.3254987895488739,1],"metallicFactor":0.0,"roughnessFactor":1.0}},{"doubleSided":true,"name":"flat_d4a26f","pbrMetallicRoughness":{"baseColorFactor":[0.6648367047309875,0.3627910912036896,0.16019588708877563,1],"metallicFactor":0.0,"roughnessFactor":1.0}},{"doubleSided":true,"name":"flat_e1c390","pbrMetallicRoughness":{"baseColorFactor":[0.7575852274894714,0.5475611686706543,0.2806997001171112,1],"metallicFactor":0.0,"roughnessFactor":1.0}},{"doubleSided":true,"name":"flat_e0ae84","pbrMetallicRoughness":{"baseColorFactor":[0.7465384602546692,0.4234229326248169,0.23366406559944153,1],"metallicFactor":0.0,"roughnessFactor":1.0}}],"meshes":[{"name":"building_windmill_top_fan_red","primitives":[{"attributes":{"POSITION":0,"NORMAL":1,"TEXCOORD_0":2,"COLOR_0":3},"indices":4,"material":0},{"attributes":{"POSITION":5,"NORMAL":6,"TEXCOORD_0":7,"COLOR_0":8},"indices":9,"material":1},{"attributes":{"POSITION":10,"NORMAL":11,"TEXCOORD_0":12,"COLOR_0":13},"indices":14,"material":2},{"attributes":{"POSITION":15,"NORMAL":16,"TEXCOORD_0":17,"COLOR_0":18},"indices":19,"material":3}]},{"name":"building_windmill_top_red","primitives":[{"attributes":{"POSITION":20,"NORMAL":21,"TEXCOORD_0":22,"COLOR_0":23},"indices":24,"material":4},{"attributes":{"POSITION":25,"NORMAL":26,"TEXCOORD_0":27,"COLOR_0":28},"indices":29,"material":0},{"attributes":{"POSITION":30,"NORMAL":31,"TEXCOORD_0":32,"COLOR_0":33},"indices":34,"material":5},{"attributes":{"POSITION":35,"NORMAL":36,"TEXCOORD_0":37,"COLOR_0":38},"indices":39,"material":1}]},{"name":"building_windmill_red","primitives":[{"attributes":{"POSITION":40,"NORMAL":41,"TEXCOORD_0":42,"COLOR_0":43},"indices":44,"material":5},{"attributes":{"POSITION":45,"NORMAL":46,"TEXCOORD_0":47,"COLOR_0":48},"indices":49,"material":0},{"attributes":{"POSITION":50,"NORMAL":51,"TEXCOORD_0":52,"COLOR_0":53},"indices":54,"material":4},{"attributes":{"POSITION":55,"NORMAL":56,"TEXCOORD_0":57,"COLOR_0":58},"indices":59,"material":1},{"attributes":{"POSITION":60,"NORMAL":61,"TEXCOORD_0":62,"COLOR_0":63},"indices":64,"material":2},{"attributes":{"POSITION":65,"NORMAL":66,"TEXCOORD_0":67,"COLOR_0":68},"indices":69,"material":6},{"attributes":{"POSITION":70,"NORMAL":71,"TEXCOORD_0":72,"COLOR_0":73},"indices":74,"material":7},{"attributes":{"POSITION":75,"NORMAL":76,"TEXCOORD_0":77,"COLOR_0":78},"indices":79,"material":8},{"attributes":{"POSITION":80,"NORMAL":81,"TEXCOORD_0":82,"COLOR_0":83},"indices":84,"material":9},{"attributes":{"POSITION":85,"NORMAL":86,"TEXCOORD_0":87,"COLOR_0":88},"indices":89,"material":10},{"attributes":{"POSITION":90,"NORMAL":91,"TEXCOORD_0":92,"COLOR_0":93},"indices":94,"material":3},{"attributes":{"POSITION":95,"NORMAL":96,"TEXCOORD_0":97,"COLOR_0":98},"indices":99,"material":11}]}],"textures":[{"sampler":0,"source":0},{"sampler":0,"source":1},{"sampler":0,"source":2},{"sampler":0,"source":3}],"images":[{"mimeType":"image/png","name":"roof_tiles.png","uri":"../../textures/roof_tiles.png"},{"mimeType":"image/png","name":"wood.png","uri":"../../textures/wood.png"},{"mimeType":"image/png","name":"plaster.png","uri":"../../textures/plaster.png"},{"mimeType":"image/png","name":"stone_wall.png","uri":"../../textures/stone_wall.png"}],"accessors":[{"bufferView":0,"componentType":5126,"count":639,"max":[0.5008417963981628,0.5008417367935181,0.09489688277244568],"min":[-0.5008417963981628,-0.5008417963981628,0],"type":"VEC3"},{"bufferView":1,"componentType":5126,"count":639,"type":"VEC3"},{"bufferView":2,"componentType":5126,"count":639,"type":"VEC2"},{"bufferView":3,"componentType":5123,"count":639,"normalized":true,"type":"VEC4"},{"bufferView":4,"componentType":5123,"count":840,"type":"SCALAR"},{"bufferView":5,"componentType":5126,"count":167,"max":[0.5008417963981628,0.5008417367935181,0.10544100403785706],"min":[-0.5008417963981628,-0.5008417963981628,0.01318035926669836],"type":"VEC3"},{"bufferView":6,"componentType":5126,"count":167,"type":"VEC3"},{"bufferView":7,"componentType":5126,"count":167,"type":"VEC2"},{"bufferView":8,"componentType":5123,"count":167,"normalized":true,"type":"VEC4"},{"bufferView":9,"componentType":5123,"count":192,"type":"SCALAR"},{"bufferView":10,"componentType":5126,"count":24,"max":[0.4481213390827179,0.4481213092803955,0.03294911980628967],"min":[-0.4481213688850403,-0.4481213390827179,0.019768832251429558],"type":"VEC3"},{"bufferView":11,"componentType":5126,"count":24,"type":"VEC3"},{"bufferView":12,"componentType":5126,"count":24,"type":"VEC2"},{"bufferView":13,"componentType":5123,"count":24,"normalized":true,"type":"VEC4"},{"bufferView":14,"componentType":5123,"count":24,"type":"SCALAR"},{"bufferView":15,"componentType":5126,"count":24,"max":[0.4481213390827179,0.4481213092803955,0.03294911980628967],"min":[-0.4481213688850403,-0.4481213390827179,0.019768832251429558],"type":"VEC3"},{"bufferView":16,"componentType":5126,"count":24,"type":"VEC3"},{"bufferView":17,"componentType":5126,"count":24,"type":"VEC2"},{"bufferView":18,"componentType":5123,"count":24,"normalized":true,"type":"VEC4"},{"bufferView":19,"componentType":5123,"count":24,"type":"SCALAR"},{"bufferView":20,"componentType":5126,"count":227,"max":[0.26186132431030273,0.6395354270935059,0.26186394691467285],"min":[-0.261865496635437,0.06076538562774658,-0.26186293363571167],"type":"VEC3"},{"bufferView":21,"componentType":5126,"count":227,"type":"VEC3"},{"bufferView":22,"componentType":5126,"count":227,"type":"VEC2"},{"bufferView":23,"componentType":5123,"count":227,"normalized":true,"type":"VEC4"},{"bufferView":24,"componentType":5123,"count":294,"type":"SCALAR"},{"bufferView":25,"componentType":5126,"count":726,"max":[0.33200445771217346,0.6800668239593506,0.33214014768600464],"min":[-0.33200445771217346,0,-0.3320044279098511],"type":"VEC3"},{"bufferView":26,"componentType":5126,"count":726,"type":"VEC3"},{"bufferView":27,"componentType":5126,"count":726,"type":"VEC2"},{"bufferView":28,"componentType":5123,"count":726,"normalized":true,"type":"VEC4"},{"bufferView":29,"componentType":5123,"count":1068,"type":"SCALAR"},{"bufferView":30,"componentType":5126,"count":105,"max":[0.27600446343421936,0.6937967538833618,0.07878368347883224],"min":[-0.27600446343421936,0.17863279581069946,-0.276004433631897],"type":"VEC3"},{"bufferView":31,"componentType":5126,"count":105,"type":"VEC3"},{"bufferView":32,"componentType":5126,"count":105,"type":"VEC2"},{"bufferView":33,"componentType":5123,"count":105,"normalized":true,"type":"VEC4"},{"bufferView":34,"componentType":5123,"count":105,"type":"SCALAR"},{"bufferView":35,"componentType":5126,"count":51,"max":[0.29700446128845215,0.3186326026916504,0.06062179431319237],"min":[-0.29700446128845215,0.28363263607025146,-0.29700446128845215],"type":"VEC3"},{"bufferView":36,"componentType":5126,"count":51,"type":"VEC3"},{"bufferView":37,"componentType":5126,"count":51,"type":"VEC2"},{"bufferView":38,"componentType":5123,"count":51,"normalized":true,"type":"VEC4"},{"bufferView":39,"componentType":5123,"count":72,"type":"SCALAR"},{"bufferView":40,"componentType":5126,"count":1230,"max":[0.34162887930870056,0.2635864317417145,0.40942224860191345],"min":[-0.5245802998542786,-1.4480118807114195e-05,-0.35195693373680115],"type":"VEC3"},{"bufferView":41,"componentType":5126,"count":1230,"type":"VEC3"},{"bufferView":42,"componentType":5126,"count":1230,"type":"VEC2"},{"bufferView":43,"componentType":5123,"count":1230,"normalized":true,"type":"VEC4"},{"bufferView":44,"componentType":5123,"count":1326,"type":"SCALAR"},{"bufferView":45,"componentType":5126,"count":2090,"max":[0.5678712129592896,0.6852657198905945,0.4149998426437378],"min":[-0.5578987002372742,-2.0341904161114144e-08,-0.37893959879875183],"type":"VEC3"},{"bufferView":46,"componentType":5126,"count":2090,"type":"VEC3"},{"bufferView":47,"componentType":5126,"count":2090,"type":"VEC2"},{"bufferView":48,"componentType":5123,"count":2090,"normalized":true,"type":"VEC4"},{"bufferView":49,"componentType":5123,"count":2748,"type":"SCALAR"},{"bufferView":50,"componentType":5126,"count":48,"max":[0.26360252499580383,0.6852657198905945,0.26360252499580383],"min":[-0.2636025547981262,0.3268687427043915,-0.26360252499580383],"type":"VEC3"},{"bufferView":51,"componentType":5126,"count":48,"type":"VEC3"},{"bufferView":52,"componentType":5126,"count":48,"type":"VEC2"},{"bufferView":53,"componentType":5123,"count":48,"normalized":true,"type":"VEC4"},{"bufferView":54,"componentType":5123,"count":48,"type":"SCALAR"},{"bufferView":55,"componentType":5126,"count":277,"max":[0.4797060191631317,0.3149999976158142,0.4149998426437378],"min":[-0.4995839595794678,0,-0.164659783244133],"type":"VEC3"},{"bufferView":56,"componentType":5126,"count":277,"type":"VEC3"},{"bufferView":57,"componentType":5126,"count":277,"type":"VEC2"},{"bufferView":58,"componentType":5123,"count":277,"normalized":true,"type":"VEC4"},{"bufferView":59,"componentType":5123,"count":330,"type":"SCALAR"},{"bufferView":60,"componentType":5126,"count":136,"max":[0.43321675062179565,0.16174641251564026,0.36446496844291687],"min":[-0.48578622937202454,0.011863768100738525,0.1602005958557129],"type":"VEC3"},{"bufferView":61,"componentType":5126,"count":136,"type":"VEC3"},{"bufferView":62,"componentType":5126,"count":136,"type":"VEC2"},{"bufferView":63,"componentType":5123,"count":136,"normalized":true,"type":"VEC4"},{"bufferView":64,"componentType":5123,"count":144,"type":"SCALAR"},{"bufferView":65,"componentType":5126,"count":120,"max":[0.43321675062179565,0.16174641251564026,0.36446496844291687],"min":[-0.48578622937202454,0.011863768100738525,0.1602005958557129],"type":"VEC3"},{"bufferView":66,"componentType":5126,"count":120,"type":"VEC3"},{"bufferView":67,"componentType":5126,"count":120,"type":"VEC2"},{"bufferView":68,"componentType":5123,"count":120,"normalized":true,"type":"VEC4"},{"bufferView":69,"componentType":5123,"count":120,"type":"SCALAR"},{"bufferView":70,"componentType":5126,"count":202,"max":[0.43321675062179565,0.16537661850452423,0.36446496844291687],"min":[-0.481584757566452,0.037364982068538666,0.1648535132408142],"type":"VEC3"},{"bufferView":71,"componentType":5126,"count":202,"type":"VEC3"},{"bufferView":72,"componentType":5126,"count":202,"type":"VEC2"},{"bufferView":73,"componentType":5123,"count":202,"normalized":true,"type":"VEC4"},{"bufferView":74,"componentType":5123,"count":228,"type":"SCALAR"},{"bufferView":75,"componentType":5126,"count":48,"max":[0.43321675062179565,0.16537661850452423,0.35582873225212097],"min":[-0.4747924208641052,0.03876416012644768,0.1648535132408142],"type":"VEC3"},{"bufferView":76,"componentType":5126,"count":48,"type":"VEC3"},{"bufferView":77,"componentType":5126,"count":48,"type":"VEC2"},{"bufferView":78,"componentType":5123,"count":48,"normalized":true,"type":"VEC4"},{"bufferView":79,"componentType":5123,"count":48,"type":"SCALAR"},{"bufferView":80,"componentType":5126,"count":152,"max":[0.42415884137153625,0.14069758355617523,0.36446496844291687],"min":[-0.48578622937202454,0.003363361582159996,0.1602005958557129],"type":"VEC3"},{"bufferView":81,"componentType":5126,"count":152,"type":"VEC3"},{"bufferView":82,"componentType":5126,"count":152,"type":"VEC2"},{"bufferView":83,"componentType":5123,"count":152,"normalized":true,"type":"VEC4"},{"bufferView":84,"componentType":5123,"count":168,"type":"SCALAR"},{"bufferView":85,"componentType":5126,"count":92,"max":[0.4046183228492737,0.15485922992229462,0.3318020701408386],"min":[-0.4658089280128479,0.03442465141415596,0.18297646939754486],"type":"VEC3"},{"bufferView":86,"componentType":5126,"count":92,"type":"VEC3"},{"bufferView":87,"componentType":5126,"count":92,"type":"VEC2"},{"bufferView":88,"componentType":5123,"count":92,"normalized":true,"type":"VEC4"},{"bufferView":89,"componentType":5123,"count":108,"type":"SCALAR"},{"bufferView":90,"componentType":5126,"count":40,"max":[0.3947761356830597,0.14787515997886658,0.33428820967674255],"min":[-0.4700103998184204,0.008923439309000969,0.17832353711128235],"type":"VEC3"},{"bufferView":91,"componentType":5126,"count":40,"type":"VEC3"},{"bufferView":92,"componentType":5126,"count":40,"type":"VEC2"},{"bufferView":93,"componentType":5123,"count":40,"normalized":true,"type":"VEC4"},{"bufferView":94,"componentType":5123,"count":48,"type":"SCALAR"},{"bufferView":95,"componentType":5126,"count":24,"max":[0.3814838230609894,0.14787515997886658,0.3318020701408386],"min":[-0.4658089280128479,0.008923439309000969,0.1954631507396698],"type":"VEC3"},{"bufferView":96,"componentType":5126,"count":24,"type":"VEC3"},{"bufferView":97,"componentType":5126,"count":24,"type":"VEC2"},{"bufferView":98,"componentType":5123,"count":24,"normalized":true,"type":"VEC4"},{"bufferView":99,"componentType":5123,"count":24,"type":"SCALAR"}],"bufferViews":[{"buffer":0,"byteLength":7668,"byteOffset":0,"target":34962},{"buffer":0,"byteLength":7668,"byteOffset":7668,"target":34962},{"buffer":0,"byteLength":5112,"byteOffset":15336,"target":34962},{"buffer":0,"byteLength":5112,"byteOffset":20448,"target":34962},{"buffer":0,"byteLength":1680,"byteOffset":25560,"target":34963},{"buffer":0,"byteLength":2004,"byteOffset":27240,"target":34962},{"buffer":0,"byteLength":2004,"byteOffset":29244,"target":34962},{"buffer":0,"byteLength":1336,"byteOffset":31248,"target":34962},{"buffer":0,"byteLength":1336,"byteOffset":32584,"target":34962},{"buffer":0,"byteLength":384,"byteOffset":33920,"target":34963},{"buffer":0,"byteLength":288,"byteOffset":34304,"target":34962},{"buffer":0,"byteLength":288,"byteOffset":34592,"target":34962},{"buffer":0,"byteLength":192,"byteOffset":34880,"target":34962},{"buffer":0,"byteLength":192,"byteOffset":35072,"target":34962},{"buffer":0,"byteLength":48,"byteOffset":35264,"target":34963},{"buffer":0,"byteLength":288,"byteOffset":35312,"target":34962},{"buffer":0,"byteLength":288,"byteOffset":35600,"target":34962},{"buffer":0,"byteLength":192,"byteOffset":35888,"target":34962},{"buffer":0,"byteLength":192,"byteOffset":36080,"target":34962},{"buffer":0,"byteLength":48,"byteOffset":36272,"target":34963},{"buffer":0,"byteLength":2724,"byteOffset":36320,"target":34962},{"buffer":0,"byteLength":2724,"byteOffset":39044,"target":34962},{"buffer":0,"byteLength":1816,"byteOffset":41768,"target":34962},{"buffer":0,"byteLength":1816,"byteOffset":43584,"target":34962},{"buffer":0,"byteLength":588,"byteOffset":45400,"target":34963},{"buffer":0,"byteLength":8712,"byteOffset":45988,"target":34962},{"buffer":0,"byteLength":8712,"byteOffset":54700,"target":34962},{"buffer":0,"byteLength":5808,"byteOffset":63412,"target":34962},{"buffer":0,"byteLength":5808,"byteOffset":69220,"target":34962},{"buffer":0,"byteLength":2136,"byteOffset":75028,"target":34963},{"buffer":0,"byteLength":1260,"byteOffset":77164,"target":34962},{"buffer":0,"byteLength":1260,"byteOffset":78424,"target":34962},{"buffer":0,"byteLength":840,"byteOffset":79684,"target":34962},{"buffer":0,"byteLength":840,"byteOffset":80524,"target":34962},{"buffer":0,"byteLength":210,"byteOffset":81364,"target":34963},{"buffer":0,"byteLength":612,"byteOffset":81576,"target":34962},{"buffer":0,"byteLength":612,"byteOffset":82188,"target":34962},{"buffer":0,"byteLength":408,"byteOffset":82800,"target":34962},{"buffer":0,"byteLength":408,"byteOffset":83208,"target":34962},{"buffer":0,"byteLength":144,"byteOffset":83616,"target":34963},{"buffer":0,"byteLength":14760,"byteOffset":83760,"target":34962},{"buffer":0,"byteLength":14760,"byteOffset":98520,"target":34962},{"buffer":0,"byteLength":9840,"byteOffset":113280,"target":34962},{"buffer":0,"byteLength":9840,"byteOffset":123120,"target":34962},{"buffer":0,"byteLength":2652,"byteOffset":132960,"target":34963},{"buffer":0,"byteLength":25080,"byteOffset":135612,"target":34962},{"buffer":0,"byteLength":25080,"byteOffset":160692,"target":34962},{"buffer":0,"byteLength":16720,"byteOffset":185772,"target":34962},{"buffer":0,"byteLength":16720,"byteOffset":202492,"target":34962},{"buffer":0,"byteLength":5496,"byteOffset":219212,"target":34963},{"buffer":0,"byteLength":576,"byteOffset":224708,"target":34962},{"buffer":0,"byteLength":576,"byteOffset":225284,"target":34962},{"buffer":0,"byteLength":384,"byteOffset":225860,"target":34962},{"buffer":0,"byteLength":384,"byteOffset":226244,"target":34962},{"buffer":0,"byteLength":96,"byteOffset":226628,"target":34963},{"buffer":0,"byteLength":3324,"byteOffset":226724,"target":34962},{"buffer":0,"byteLength":3324,"byteOffset":230048,"target":34962},{"buffer":0,"byteLength":2216,"byteOffset":233372,"target":34962},{"buffer":0,"byteLength":2216,"byteOffset":235588,"target":34962},{"buffer":0,"byteLength":660,"byteOffset":237804,"target":34963},{"buffer":0,"byteLength":1632,"byteOffset":238464,"target":34962},{"buffer":0,"byteLength":1632,"byteOffset":240096,"target":34962},{"buffer":0,"byteLength":1088,"byteOffset":241728,"target":34962},{"buffer":0,"byteLength":1088,"byteOffset":242816,"target":34962},{"buffer":0,"byteLength":288,"byteOffset":243904,"target":34963},{"buffer":0,"byteLength":1440,"byteOffset":244192,"target":34962},{"buffer":0,"byteLength":1440,"byteOffset":245632,"target":34962},{"buffer":0,"byteLength":960,"byteOffset":247072,"target":34962},{"buffer":0,"byteLength":960,"byteOffset":248032,"target":34962},{"buffer":0,"byteLength":240,"byteOffset":248992,"target":34963},{"buffer":0,"byteLength":2424,"byteOffset":249232,"target":34962},{"buffer":0,"byteLength":2424,"byteOffset":251656,"target":34962},{"buffer":0,"byteLength":1616,"byteOffset":254080,"target":34962},{"buffer":0,"byteLength":1616,"byteOffset":255696,"target":34962},{"buffer":0,"byteLength":456,"byteOffset":257312,"target":34963},{"buffer":0,"byteLength":576,"byteOffset":257768,"target":34962},{"buffer":0,"byteLength":576,"byteOffset":258344,"target":34962},{"buffer":0,"byteLength":384,"byteOffset":258920,"target":34962},{"buffer":0,"byteLength":384,"byteOffset":259304,"target":34962},{"buffer":0,"byteLength":96,"byteOffset":259688,"target":34963},{"buffer":0,"byteLength":1824,"byteOffset":259784,"target":34962},{"buffer":0,"byteLength":1824,"byteOffset":261608,"target":34962},{"buffer":0,"byteLength":1216,"byteOffset":263432,"target":34962},{"buffer":0,"byteLength":1216,"byteOffset":264648,"target":34962},{"buffer":0,"byteLength":336,"byteOffset":265864,"target":34963},{"buffer":0,"byteLength":1104,"byteOffset":266200,"target":34962},{"buffer":0,"byteLength":1104,"byteOffset":267304,"target":34962},{"buffer":0,"byteLength":736,"byteOffset":268408,"target":34962},{"buffer":0,"byteLength":736,"byteOffset":269144,"target":34962},{"buffer":0,"byteLength":216,"byteOffset":269880,"target":34963},{"buffer":0,"byteLength":480,"byteOffset":270096,"target":34962},{"buffer":0,"byteLength":480,"byteOffset":270576,"target":34962},{"buffer":0,"byteLength":320,"byteOffset":271056,"target":34962},{"buffer":0,"byteLength":320,"byteOffset":271376,"target":34962},{"buffer":0,"byteLength":96,"byteOffset":271696,"target":34963},{"buffer":0,"byteLength":288,"byteOffset":271792,"target":34962},{"buffer":0,"byteLength":288,"byteOffset":272080,"target":34962},{"buffer":0,"byteLength":192,"byteOffset":272368,"target":34962},{"buffer":0,"byteLength":192,"byteOffset":272560,"target":34962},{"buffer":0,"byteLength":48,"byteOffset":272752,"target":34963}],"samplers":[{"magFilter":9729,"minFilter":9987}],"buffers":[{"byteLength":272800,"uri":"building_windmill_red.bin"}]}