{"asset":{"generator":"Khronos glTF Blender I/O v5.2.40","version":"2.0"},"scene":0,"scenes":[{"name":"Scene","nodes":[0]}],"nodes":[{"mesh":0,"name":"building_home_A_red"}],"materials":[{"doubleSided":true,"name":"roof_tiles","pbrMetallicRoughness":{"baseColorTexture":{"index":0},"metallicFactor":0.0,"roughnessFactor":1.0}},{"doubleSided":true,"name":"stone_wall","pbrMetallicRoughness":{"baseColorTexture":{"index":1},"metallicFactor":0.0,"roughnessFactor":1.0}},{"doubleSided":true,"name":"plaster","pbrMetallicRoughness":{"baseColorTexture":{"index":2},"metallicFactor":0.0,"roughnessFactor":1.0}},{"doubleSided":true,"name":"wood","pbrMetallicRoughness":{"baseColorTexture":{"index":3},"metallicFactor":0.0,"roughnessFactor":1.0}}],"meshes":[{"name":"building_home_A_red","primitives":[{"attributes":{"POSITION":0,"NORMAL":1,"TEXCOORD_0":2,"COLOR_0":3},"indices":4,"material":0},{"attributes":{"POSITION":5,"NORMAL":6,"TEXCOORD_0":7,"COLOR_0":8},"indices":9,"material":1},{"attributes":{"POSITION":10,"NORMAL":11,"TEXCOORD_0":12,"COLOR_0":13},"indices":14,"material":2},{"attributes":{"POSITION":15,"NORMAL":16,"TEXCOORD_0":17,"COLOR_0":18},"indices":19,"material":3}]}],"textures":[{"sampler":0,"source":0},{"sampler":0,"source":1},{"sampler":0,"source":2},{"sampler":0,"source":3}],"images":[{"mimeType":"image/png","name":"roof_tiles.png","uri":"../../textures/roof_tiles.png"},{"mimeType":"image/png","name":"stone_wall.png","uri":"../../textures/stone_wall.png"},{"mimeType":"image/png","name":"plaster.png","uri":"../../textures/plaster.png"},{"mimeType":"image/png","name":"wood.png","uri":"../../textures/wood.png"}],"accessors":[{"bufferView":0,"componentType":5126,"count":1351,"max":[0.3959798812866211,0.7699989080429077,0.385000079870224],"min":[-0.39597994089126587,0,-0.38499999046325684],"type":"VEC3"},{"bufferView":1,"componentType":5126,"count":1351,"type":"VEC3"},{"bufferView":2,"componentType":5126,"count":1351,"type":"VEC2"},{"bufferView":3,"componentType":5123,"count":1351,"normalized":true,"type":"VEC4"},{"bufferView":4,"componentType":5123,"count":1860,"type":"SCALAR"},{"bufferView":5,"componentType":5126,"count":544,"max":[0.2799999415874481,0.9300001263618469,0.3500000238418579],"min":[-0.2799999415874481,-2.086162709247219e-08,-0.46865156292915344],"type":"VEC3"},{"bufferView":6,"componentType":5126,"count":544,"type":"VEC3"},{"bufferView":7,"componentType":5126,"count":544,"type":"VEC2"},{"bufferView":8,"componentType":5123,"count":544,"normalized":true,"type":"VEC4"},{"bufferView":9,"componentType":5123,"count":660,"type":"SCALAR"},{"bufferView":10,"componentType":5126,"count":308,"max":[0.2659999430179596,0.9160032272338867,0.3240041136741638],"min":[-0.2659999430179596,0.06250041723251343,-0.45500001311302185],"type":"VEC3"},{"bufferView":11,"componentType":5126,"count":308,"type":"VEC3"},{"bufferView":12,"componentType":5126,"count":308,"type":"VEC2"},{"bufferView":13,"componentType":5123,"count":308,"normalized":true,"type":"VEC4"},{"bufferView":14,"componentType":5123,"count":363,"type":"SCALAR"},{"bufferView":15,"componentType":5126,"count":112,"max":[0.28000426292419434,0.5939997434616089,0.3499998450279236],"min":[-0.28000426292419434,0,-0.15562158823013306],"type":"VEC3"},{"bufferView":16,"componentType":5126,"count":112,"type":"VEC3"},{"bufferView":17,"componentType":5126,"count":112,"type":"VEC2"},{"bufferView":18,"componentType":5123,"count":112,"normalized":true,"type":"VEC4"},{"bufferView":19,"componentType":5123,"count":150,"type":"SCALAR"}],"bufferViews":[{"buffer":0,"byteLength":16212,"byteOffset":0,"target":34962},{"buffer":0,"byteLength":16212,"byteOffset":16212,"target":34962},{"buffer":0,"byteLength":10808,"byteOffset":32424,"target":34962},{"buffer":0,"byteLength":10808,"byteOffset":43232,"target":34962},{"buffer":0,"byteLength":3720,"byteOffset":54040,"target":34963},{"buffer":0,"byteLength":6528,"byteOffset":57760,"target":34962},{"buffer":0,"byteLength":6528,"byteOffset":64288,"target":34962},{"buffer":0,"byteLength":4352,"byteOffset":70816,"target":34962},{"buffer":0,"byteLength":4352,"byteOffset":75168,"target":34962},{"buffer":0,"byteLength":1320,"byteOffset":79520,"target":34963},{"buffer":0,"byteLength":3696,"byteOffset":80840,"target":34962},{"buffer":0,"byteLength":3696,"byteOffset":84536,"target":34962},{"buffer":0,"byteLength":2464,"byteOffset":88232,"target":34962},{"buffer":0,"byteLength":2464,"byteOffset":90696,"target":34962},{"buffer":0,"byteLength":726,"byteOffset":93160,"target":34963},{"buffer":0,"byteLength":1344,"byteOffset":93888,"target":34962},{"buffer":0,"byteLength":1344,"byteOffset":95232,"target":34962},{"buffer":0,"byteLength":896,"byteOffset":96576,"target":34962},{"buffer":0,"byteLength":896,"byteOffset":97472,"target":34962},{"buffer":0,"byteLength":300,"byteOffset":98368,"target":34963}],"samplers":[{"magFilter":9729,"minFilter":9987}],"buffers":[{"byteLength":98668,"uri":"building_home_A_red.bin"}]}