{"asset":{"generator":"Khronos glTF Blender I/O v5.2.40","version":"2.0"},"scene":0,"scenes":[{"name":"Scene","nodes":[0]}],"nodes":[{"mesh":0,"name":"building_blacksmith_red"}],"materials":[{"doubleSided":true,"name":"roof_tiles","pbrMetallicRoughness":{"baseColorTexture":{"index":0},"metallicFactor":0.0,"roughnessFactor":1.0}},{"doubleSided":true,"name":"plaster","pbrMetallicRoughness":{"baseColorTexture":{"index":1},"metallicFactor":0.0,"roughnessFactor":1.0}},{"doubleSided":true,"name":"stone_wall","pbrMetallicRoughness":{"baseColorTexture":{"index":2},"metallicFactor":0.0,"roughnessFactor":1.0}},{"doubleSided":true,"name":"wood","pbrMetallicRoughness":{"baseColorTexture":{"index":3},"metallicFactor":0.0,"roughnessFactor":1.0}},{"doubleSided":true,"name":"flat_6faad1","pbrMetallicRoughness":{"baseColorFactor":[0.16021190583705902,0.4025861620903015,0.639703094959259,1],"metallicFactor":0.0,"roughnessFactor":1.0}},{"doubleSided":true,"name":"flat_f18d46","pbrMetallicRoughness":{"baseColorFactor":[0.8855014443397522,0.2670343816280365,0.06223144382238388,1],"metallicFactor":0.0,"roughnessFactor":1.0}},{"doubleSided":true,"name":"flat_ef7c43","pbrMetallicRoughness":{"baseColorFactor":[0.8709735870361328,0.20354990661144257,0.056439243257045746,1],"metallicFactor":0.0,"roughnessFactor":1.0}},{"doubleSided":true,"name":"flat_f3a352","pbrMetallicRoughness":{"baseColorFactor":[0.8971382975578308,0.3676459491252899,0.08625049144029617,1],"metallicFactor":0.0,"roughnessFactor":1.0}},{"doubleSided":true,"name":"flat_f08643","pbrMetallicRoughness":{"baseColorFactor":[0.8779835104942322,0.24141667783260345,0.05683687701821327,1],"metallicFactor":0.0,"roughnessFactor":1.0}},{"doubleSided":true,"name":"flat_f08245","pbrMetallicRoughness":{"baseColorFactor":[0.8792675733566284,0.22370056807994843,0.060593098402023315,1],"metallicFactor":0.0,"roughnessFactor":1.0}},{"doubleSided":true,"name":"flat_f3ae54","pbrMetallicRoughness":{"baseColorFactor":[0.9016162753105164,0.42368024587631226,0.08903849869966507,1],"metallicFactor":0.0,"roughnessFactor":1.0}}],"meshes":[{"name":"building_blacksmith_red","primitives":[{"attributes":{"POSITION":0,"NORMAL":1,"TEXCOORD_0":2,"COLOR_0":3},"indices":4,"material":0},{"attributes":{"POSITION":5,"NORMAL":6,"TEXCOORD_0":7,"COLOR_0":8},"indices":9,"material":1},{"attributes":{"POSITION":10,"NORMAL":11,"TEXCOORD_0":12,"COLOR_0":13},"indices":14,"material":2},{"attributes":{"POSITION":15,"NORMAL":16,"TEXCOORD_0":17,"COLOR_0":18},"indices":19,"material":3},{"attributes":{"POSITION":20,"NORMAL":21,"TEXCOORD_0":22,"COLOR_0":23},"indices":24,"material":4},{"attributes":{"POSITION":25,"NORMAL":26,"TEXCOORD_0":27,"COLOR_0":28},"indices":29,"material":5},{"attributes":{"POSITION":30,"NORMAL":31,"TEXCOORD_0":32,"COLOR_0":33},"indices":34,"material":6},{"attributes":{"POSITION":35,"NORMAL":36,"TEXCOORD_0":37,"COLOR_0":38},"indices":39,"material":7},{"attributes":{"POSITION":40,"NORMAL":41,"TEXCOORD_0":42,"COLOR_0":43},"indices":44,"material":8},{"attributes":{"POSITION":45,"NORMAL":46,"TEXCOORD_0":47,"COLOR_0":48},"indices":49,"material":9},{"attributes":{"POSITION":50,"NORMAL":51,"TEXCOORD_0":52,"COLOR_0":53},"indices":54,"material":10}]}],"textures":[{"sampler":0,"source":0},{"sampler":0,"source":1},{"sampler":0,"source":2},{"sampler":0,"source":3}],"images":[{"mimeType":"image/png","name":"roof_tiles.png","uri":"../../textures/roof_tiles.png"},{"mimeType":"image/png","name":"plaster.png","uri":"../../textures/plaster.png"},{"mimeType":"image/png","name":"stone_wall.png","uri":"../../textures/stone_wall.png"},{"mimeType":"image/png","name":"wood.png","uri":"../../textures/wood.png"}],"accessors":[{"bufferView":0,"componentType":5126,"count":1317,"max":[-0.028285589069128036,0.6300011277198792,0.6457393765449524],"min":[-0.6300048232078552,-0.004329475574195385,-0.5037303566932678],"type":"VEC3"},{"bufferView":1,"componentType":5126,"count":1317,"type":"VEC3"},{"bufferView":2,"componentType":5126,"count":1317,"type":"VEC2"},{"bufferView":3,"componentType":5123,"count":1317,"normalized":true,"type":"VEC4"},{"bufferView":4,"componentType":5123,"count":1695,"type":"SCALAR"},{"bufferView":5,"componentType":5126,"count":1227,"max":[0.5659183263778687,0.9800021648406982,0.3007342517375946],"min":[-0.5740047693252563,0.06999999284744263,-0.5024428963661194],"type":"VEC3"},{"bufferView":6,"componentType":5126,"count":1227,"type":"VEC3"},{"bufferView":7,"componentType":5126,"count":1227,"type":"VEC2"},{"bufferView":8,"componentType":5123,"count":1227,"normalized":true,"type":"VEC4"},{"bufferView":9,"componentType":5123,"count":1380,"type":"SCALAR"},{"bufferView":10,"componentType":5126,"count":3229,"max":[0.6575961709022522,0.9800021648406982,0.6851505041122437],"min":[-0.6159995198249817,-0.005102336406707764,-0.5599995255470276],"type":"VEC3"},{"bufferView":11,"componentType":5126,"count":3229,"type":"VEC3"},{"bufferView":12,"componentType":5126,"count":3229,"type":"VEC2"},{"bufferView":13,"componentType":5123,"count":3229,"normalized":true,"type":"VEC4"},{"bufferView":14,"componentType":5123,"count":3687,"type":"SCALAR"},{"bufferView":15,"componentType":5126,"count":300,"max":[-0.016115481033921242,0.3149999976158142,0.6457393765449524],"min":[-0.5950047969818115,-0.004329475574195385,-0.3850042521953583],"type":"VEC3"},{"bufferView":16,"componentType":5126,"count":300,"type":"VEC3"},{"bufferView":17,"componentType":5126,"count":300,"type":"VEC2"},{"bufferView":18,"componentType":5123,"count":300,"normalized":true,"type":"VEC4"},{"bufferView":19,"componentType":5123,"count":354,"type":"SCALAR"},{"bufferView":20,"componentType":5126,"count":9,"max":[-0.5057482719421387,0.07700610160827637,0.29925182461738586],"min":[-0.5862507820129395,0.07700610160827637,0.2187492698431015],"type":"VEC3"},{"bufferView":21,"componentType":5126,"count":9,"type":"VEC3"},{"bufferView":22,"componentType":5126,"count":9,"type":"VEC2"},{"bufferView":23,"componentType":5123,"count":9,"normalized":true,"type":"VEC4"},{"bufferView":24,"componentType":5123,"count":24,"type":"SCALAR"},{"bufferView":25,"componentType":5126,"count":18,"max":[0.35000208020210266,0.9100027084350586,0.3404615521430969],"min":[0.07000216096639633,0.0654701441526413,-0.20371024310588837],"type":"VEC3"},{"bufferView":26,"componentType":5126,"count":18,"type":"VEC3"},{"bufferView":27,"componentType":5126,"count":18,"type":"VEC2"},{"bufferView":28,"componentType":5123,"count":18,"normalized":true,"type":"VEC4"},{"bufferView":29,"componentType":5123,"count":33,"type":"SCALAR"},{"bufferView":30,"componentType":5126,"count":22,"max":[0.21777886152267456,0.12127669900655746,0.32167908549308777],"min":[0.1717473715543747,0.10380424559116364,0.267959326505661],"type":"VEC3"},{"bufferView":31,"componentType":5126,"count":22,"type":"VEC3"},{"bufferView":32,"componentType":5126,"count":22,"type":"VEC2"},{"bufferView":33,"componentType":5123,"count":22,"normalized":true,"type":"VEC4"},{"bufferView":34,"componentType":5123,"count":27,"type":"SCALAR"},{"bufferView":35,"componentType":5126,"count":12,"max":[0.35000208020210266,0.3804700970649719,0.359948068857193],"min":[0.07000216096639633,0.0654701441526413,0.10499932616949081],"type":"VEC3"},{"bufferView":36,"componentType":5126,"count":12,"type":"VEC3"},{"bufferView":37,"componentType":5126,"count":12,"type":"VEC2"},{"bufferView":38,"componentType":5123,"count":12,"normalized":true,"type":"VEC4"},{"bufferView":39,"componentType":5123,"count":12,"type":"SCALAR"},{"bufferView":40,"componentType":5126,"count":9,"max":[0.3471085727214813,0.12127669900655746,0.359948068857193],"min":[0.19783397018909454,0.10348241031169891,0.267959326505661],"type":"VEC3"},{"bufferView":41,"componentType":5126,"count":9,"type":"VEC3"},{"bufferView":42,"componentType":5126,"count":9,"type":"VEC2"},{"bufferView":43,"componentType":5123,"count":9,"normalized":true,"type":"VEC4"},{"bufferView":44,"componentType":5123,"count":9,"type":"SCALAR"},{"bufferView":45,"componentType":5126,"count":6,"max":[0.3471085727214813,0.11273839324712753,0.359948068857193],"min":[0.20780730247497559,0.10348241031169891,0.267959326505661],"type":"VEC3"},{"bufferView":46,"componentType":5126,"count":6,"type":"VEC3"},{"bufferView":47,"componentType":5126,"count":6,"type":"VEC2"},{"bufferView":48,"componentType":5123,"count":6,"normalized":true,"type":"VEC4"},{"bufferView":49,"componentType":5123,"count":6,"type":"SCALAR"},{"bufferView":50,"componentType":5126,"count":3,"max":[0.3305729627609253,0.12127669900655746,0.3404615521430969],"min":[0.19783397018909454,0.11234254390001297,0.29488325119018555],"type":"VEC3"},{"bufferView":51,"componentType":5126,"count":3,"type":"VEC3"},{"bufferView":52,"componentType":5126,"count":3,"type":"VEC2"},{"bufferView":53,"componentType":5123,"count":3,"normalized":true,"type":"VEC4"},{"bufferView":54,"componentType":5123,"count":3,"type":"SCALAR"}],"bufferViews":[{"buffer":0,"byteLength":15804,"byteOffset":0,"target":34962},{"buffer":0,"byteLength":15804,"byteOffset":15804,"target":34962},{"buffer":0,"byteLength":10536,"byteOffset":31608,"target":34962},{"buffer":0,"byteLength":10536,"byteOffset":42144,"target":34962},{"buffer":0,"byteLength":3390,"byteOffset":52680,"target":34963},{"buffer":0,"byteLength":14724,"byteOffset":56072,"target":34962},{"buffer":0,"byteLength":14724,"byteOffset":70796,"target":34962},{"buffer":0,"byteLength":9816,"byteOffset":85520,"target":34962},{"buffer":0,"byteLength":9816,"byteOffset":95336,"target":34962},{"buffer":0,"byteLength":2760,"byteOffset":105152,"target":34963},{"buffer":0,"byteLength":38748,"byteOffset":107912,"target":34962},{"buffer":0,"byteLength":38748,"byteOffset":146660,"target":34962},{"buffer":0,"byteLength":25832,"byteOffset":185408,"target":34962},{"buffer":0,"byteLength":25832,"byteOffset":211240,"target":34962},{"buffer":0,"byteLength":7374,"byteOffset":237072,"target":34963},{"buffer":0,"byteLength":3600,"byteOffset":244448,"target":34962},{"buffer":0,"byteLength":3600,"byteOffset":248048,"target":34962},{"buffer":0,"byteLength":2400,"byteOffset":251648,"target":34962},{"buffer":0,"byteLength":2400,"byteOffset":254048,"target":34962},{"buffer":0,"byteLength":708,"byteOffset":256448,"target":34963},{"buffer":0,"byteLength":108,"byteOffset":257156,"target":34962},{"buffer":0,"byteLength":108,"byteOffset":257264,"target":34962},{"buffer":0,"byteLength":72,"byteOffset":257372,"target":34962},{"buffer":0,"byteLength":72,"byteOffset":257444,"target":34962},{"buffer":0,"byteLength":48,"byteOffset":257516,"target":34963},{"buffer":0,"byteLength":216,"byteOffset":257564,"target":34962},{"buffer":0,"byteLength":216,"byteOffset":257780,"target":34962},{"buffer":0,"byteLength":144,"byteOffset":257996,"target":34962},{"buffer":0,"byteLength":144,"byteOffset":258140,"target":34962},{"buffer":0,"byteLength":66,"byteOffset":258284,"target":34963},{"buffer":0,"byteLength":264,"byteOffset":258352,"target":34962},{"buffer":0,"byteLength":264,"byteOffset":258616,"target":34962},{"buffer":0,"byteLength":176,"byteOffset":258880,"target":34962},{"buffer":0,"byteLength":176,"byteOffset":259056,"target":34962},{"buffer":0,"byteLength":54,"byteOffset":259232,"target":34963},{"buffer":0,"byteLength":144,"byteOffset":259288,"target":34962},{"buffer":0,"byteLength":144,"byteOffset":259432,"target":34962},{"buffer":0,"byteLength":96,"byteOffset":259576,"target":34962},{"buffer":0,"byteLength":96,"byteOffset":259672,"target":34962},{"buffer":0,"byteLength":24,"byteOffset":259768,"target":34963},{"buffer":0,"byteLength":108,"byteOffset":259792,"target":34962},{"buffer":0,"byteLength":108,"byteOffset":259900,"target":34962},{"buffer":0,"byteLength":72,"byteOffset":260008,"target":34962},{"buffer":0,"byteLength":72,"byteOffset":260080,"target":34962},{"buffer":0,"byteLength":18,"byteOffset":260152,"target":34963},{"buffer":0,"byteLength":72,"byteOffset":260172,"target":34962},{"buffer":0,"byteLength":72,"byteOffset":260244,"target":34962},{"buffer":0,"byteLength":48,"byteOffset":260316,"target":34962},{"buffer":0,"byteLength":48,"byteOffset":260364,"target":34962},{"buffer":0,"byteLength":12,"byteOffset":260412,"target":34963},{"buffer":0,"byteLength":36,"byteOffset":260424,"target":34962},{"buffer":0,"byteLength":36,"byteOffset":260460,"target":34962},{"buffer":0,"byteLength":24,"byteOffset":260496,"target":34962},{"buffer":0,"byteLength":24,"byteOffset":260520,"target":34962},{"buffer":0,"byteLength":6,"byteOffset":260544,"target":34963}],"samplers":[{"magFilter":9729,"minFilter":9987}],"buffers":[{"byteLength":260552,"uri":"building_blacksmith_red.bin"}]}