{"asset":{"generator":"Khronos glTF Blender I/O v5.2.40","version":"2.0"},"scene":0,"scenes":[{"name":"Scene","nodes":[0]}],"nodes":[{"mesh":0,"name":"building_church_red"}],"materials":[{"doubleSided":true,"name":"roof_tiles","pbrMetallicRoughness":{"baseColorTexture":{"index":0},"metallicFactor":0.0,"roughnessFactor":1.0}},{"doubleSided":true,"name":"plaster","pbrMetallicRoughness":{"baseColorTexture":{"index":1},"metallicFactor":0.0,"roughnessFactor":1.0}},{"doubleSided":true,"name":"stone_wall","pbrMetallicRoughness":{"baseColorTexture":{"index":2},"metallicFactor":0.0,"roughnessFactor":1.0}},{"doubleSided":true,"name":"wood","pbrMetallicRoughness":{"baseColorTexture":{"index":3},"metallicFactor":0.0,"roughnessFactor":1.0}}],"meshes":[{"name":"building_church_red","primitives":[{"attributes":{"POSITION":0,"NORMAL":1,"TEXCOORD_0":2,"COLOR_0":3},"indices":4,"material":0},{"attributes":{"POSITION":5,"NORMAL":6,"TEXCOORD_0":7,"COLOR_0":8},"indices":9,"material":1},{"attributes":{"POSITION":10,"NORMAL":11,"TEXCOORD_0":12,"COLOR_0":13},"indices":14,"material":2},{"attributes":{"POSITION":15,"NORMAL":16,"TEXCOORD_0":17,"COLOR_0":18},"indices":19,"material":3}]}],"textures":[{"sampler":0,"source":0},{"sampler":0,"source":1},{"sampler":0,"source":2},{"sampler":0,"source":3}],"images":[{"mimeType":"image/png","name":"roof_tiles.png","uri":"../../textures/roof_tiles.png"},{"mimeType":"image/png","name":"plaster.png","uri":"../../textures/plaster.png"},{"mimeType":"image/png","name":"stone_wall.png","uri":"../../textures/stone_wall.png"},{"mimeType":"image/png","name":"wood.png","uri":"../../textures/wood.png"}],"accessors":[{"bufferView":0,"componentType":5126,"count":2483,"max":[0.5144962668418884,1.4000062942504883,0.5950042605400085],"min":[-0.5144963264465332,-5.382299150369363e-06,-0.5599977970123291],"type":"VEC3"},{"bufferView":1,"componentType":5126,"count":2483,"type":"VEC3"},{"bufferView":2,"componentType":5126,"count":2483,"type":"VEC2"},{"bufferView":3,"componentType":5123,"count":2483,"normalized":true,"type":"VEC4"},{"bufferView":4,"componentType":5123,"count":3261,"type":"SCALAR"},{"bufferView":5,"componentType":5126,"count":584,"max":[0.4815959930419922,1.6450307369232178,0.5390042662620544],"min":[-0.4815964698791504,0.06999461352825165,-0.5035814046859741],"type":"VEC3"},{"bufferView":6,"componentType":5126,"count":584,"type":"VEC3"},{"bufferView":7,"componentType":5126,"count":584,"type":"VEC2"},{"bufferView":8,"componentType":5123,"count":584,"normalized":true,"type":"VEC4"},{"bufferView":9,"componentType":5123,"count":762,"type":"SCALAR"},{"bufferView":10,"componentType":5126,"count":423,"max":[0.4930034875869751,1.6450307369232178,0.5599988698959351],"min":[-0.4930039942264557,0,-0.5249988436698914],"type":"VEC3"},{"bufferView":11,"componentType":5126,"count":423,"type":"VEC3"},{"bufferView":12,"componentType":5126,"count":423,"type":"VEC2"},{"bufferView":13,"componentType":5123,"count":423,"normalized":true,"type":"VEC4"},{"bufferView":14,"componentType":5123,"count":558,"type":"SCALAR"},{"bufferView":15,"componentType":5126,"count":163,"max":[0.5140035152435303,0.8609998226165771,0.5600042343139648],"min":[-0.5140039920806885,0,-0.5242453217506409],"type":"VEC3"},{"bufferView":16,"componentType":5126,"count":163,"type":"VEC3"},{"bufferView":17,"componentType":5126,"count":163,"type":"VEC2"},{"bufferView":18,"componentType":5123,"count":163,"normalized":true,"type":"VEC4"},{"bufferView":19,"componentType":5123,"count":222,"type":"SCALAR"}],"bufferViews":[{"buffer":0,"byteLength":29796,"byteOffset":0,"target":34962},{"buffer":0,"byteLength":29796,"byteOffset":29796,"target":34962},{"buffer":0,"byteLength":19864,"byteOffset":59592,"target":34962},{"buffer":0,"byteLength":19864,"byteOffset":79456,"target":34962},{"buffer":0,"byteLength":6522,"byteOffset":99320,"target":34963},{"buffer":0,"byteLength":7008,"byteOffset":105844,"target":34962},{"buffer":0,"byteLength":7008,"byteOffset":112852,"target":34962},{"buffer":0,"byteLength":4672,"byteOffset":119860,"target":34962},{"buffer":0,"byteLength":4672,"byteOffset":124532,"target":34962},{"buffer":0,"byteLength":1524,"byteOffset":129204,"target":34963},{"buffer":0,"byteLength":5076,"byteOffset":130728,"target":34962},{"buffer":0,"byteLength":5076,"byteOffset":135804,"target":34962},{"buffer":0,"byteLength":3384,"byteOffset":140880,"target":34962},{"buffer":0,"byteLength":3384,"byteOffset":144264,"target":34962},{"buffer":0,"byteLength":1116,"byteOffset":147648,"target":34963},{"buffer":0,"byteLength":1956,"byteOffset":148764,"target":34962},{"buffer":0,"byteLength":1956,"byteOffset":150720,"target":34962},{"buffer":0,"byteLength":1304,"byteOffset":152676,"target":34962},{"buffer":0,"byteLength":1304,"byteOffset":153980,"target":34962},{"buffer":0,"byteLength":444,"byteOffset":155284,"target":34963}],"samplers":[{"magFilter":9729,"minFilter":9987}],"buffers":[{"byteLength":155728,"uri":"building_church_red.bin"}]}