{"asset":{"generator":"Khronos glTF Blender I/O v5.2.40","version":"2.0"},"scene":0,"scenes":[{"name":"Scene","nodes":[0]}],"nodes":[{"mesh":0,"name":"building_market_red"}],"materials":[{"doubleSided":true,"name":"roof_tiles","pbrMetallicRoughness":{"baseColorTexture":{"index":0},"metallicFactor":0.0,"roughnessFactor":1.0}},{"doubleSided":true,"name":"stone_wall","pbrMetallicRoughness":{"baseColorTexture":{"index":1},"metallicFactor":0.0,"roughnessFactor":1.0}},{"doubleSided":true,"name":"plaster","pbrMetallicRoughness":{"baseColorTexture":{"index":2},"metallicFactor":0.0,"roughnessFactor":1.0}},{"doubleSided":true,"name":"wood","pbrMetallicRoughness":{"baseColorTexture":{"index":3},"metallicFactor":0.0,"roughnessFactor":1.0}},{"doubleSided":true,"name":"flat_d4a151","pbrMetallicRoughness":{"baseColorFactor":[0.6615080833435059,0.3598761558532715,0.0826169103384018,1],"metallicFactor":0.0,"roughnessFactor":1.0}},{"doubleSided":true,"name":"flat_dfad5c","pbrMetallicRoughness":{"baseColorFactor":[0.7424715161323547,0.41928812861442566,0.109207384288311,1],"metallicFactor":0.0,"roughnessFactor":1.0}},{"doubleSided":true,"name":"flat_dfad52","pbrMetallicRoughness":{"baseColorFactor":[0.7414365410804749,0.41826918721199036,0.0862014964222908,1],"metallicFactor":0.0,"roughnessFactor":1.0}},{"doubleSided":true,"name":"flat_eab85e","pbrMetallicRoughness":{"baseColorFactor":[0.8252543807029724,0.4818161725997925,0.11394409835338593,1],"metallicFactor":0.0,"roughnessFactor":1.0}},{"doubleSided":true,"name":"flat_eac260","pbrMetallicRoughness":{"baseColorFactor":[0.8296815156936646,0.5451678037643433,0.11756713688373566,1],"metallicFactor":0.0,"roughnessFactor":1.0}},{"doubleSided":true,"name":"flat_e0b885","pbrMetallicRoughness":{"baseColorFactor":[0.7516351938247681,0.48325350880622864,0.23727808892726898,1],"metallicFactor":0.0,"roughnessFactor":1.0}},{"doubleSided":true,"name":"flat_d6ad84","pbrMetallicRoughness":{"baseColorFactor":[0.6726041436195374,0.4207005202770233,0.23193088173866272,1],"metallicFactor":0.0,"roughnessFactor":1.0}},{"doubleSided":true,"name":"flat_e1c39a","pbrMetallicRoughness":{"baseColorFactor":[0.7585448622703552,0.5485752820968628,0.3235218822956085,1],"metallicFactor":0.0,"roughnessFactor":1.0}},{"doubleSided":true,"name":"flat_ebc39a","pbrMetallicRoughness":{"baseColorFactor":[0.8345807194709778,0.5512584447860718,0.3254987895488739,1],"metallicFactor":0.0,"roughnessFactor":1.0}},{"doubleSided":true,"name":"flat_d4a26f","pbrMetallicRoughness":{"baseColorFactor":[0.6648367047309875,0.3627910912036896,0.16019588708877563,1],"metallicFactor":0.0,"roughnessFactor":1.0}},{"doubleSided":true,"name":"flat_e1c390","pbrMetallicRoughness":{"baseColorFactor":[0.7575852274894714,0.5475611686706543,0.2806997001171112,1],"metallicFactor":0.0,"roughnessFactor":1.0}},{"doubleSided":true,"name":"flat_d5ad7a","pbrMetallicRoughness":{"baseColorFactor":[0.6715279221534729,0.4196738004684448,0.19583523273468018,1],"metallicFactor":0.0,"roughnessFactor":1.0}},{"doubleSided":true,"name":"flat_e0ae84","pbrMetallicRoughness":{"baseColorFactor":[0.7465384602546692,0.4234229326248169,0.23366406559944153,1],"metallicFactor":0.0,"roughnessFactor":1.0}},{"doubleSided":true,"name":"flat_e0b88f","pbrMetallicRoughness":{"baseColorFactor":[0.7526109218597412,0.48430395126342773,0.2768414616584778,1],"metallicFactor":0.0,"roughnessFactor":1.0}},{"doubleSided":true,"name":"flat_8db44f","pbrMetallicRoughness":{"baseColorFactor":[0.2677023112773895,0.4569208323955536,0.07957643270492554,1],"metallicFactor":0.0,"roughnessFactor":1.0}},{"doubleSided":true,"name":"flat_8db459","pbrMetallicRoughness":{"baseColorFactor":[0.26857858896255493,0.4579377770423889,0.10181339830160141,1],"metallicFactor":0.0,"roughnessFactor":1.0}}],"meshes":[{"name":"building_market_red","primitives":[{"attributes":{"POSITION":0,"NORMAL":1,"TEXCOORD_0":2,"COLOR_0":3},"indices":4,"material":0},{"attributes":{"POSITION":5,"NORMAL":6,"TEXCOORD_0":7,"COLOR_0":8},"indices":9,"material":1},{"attributes":{"POSITION":10,"NORMAL":11,"TEXCOORD_0":12,"COLOR_0":13},"indices":14,"material":2},{"attributes":{"POSITION":15,"NORMAL":16,"TEXCOORD_0":17,"COLOR_0":18},"indices":19,"material":3},{"attributes":{"POSITION":20,"NORMAL":21,"TEXCOORD_0":22,"COLOR_0":23},"indices":24,"material":4},{"attributes":{"POSITION":25,"NORMAL":26,"TEXCOORD_0":27,"COLOR_0":28},"indices":29,"material":5},{"attributes":{"POSITION":30,"NORMAL":31,"TEXCOORD_0":32,"COLOR_0":33},"indices":34,"material":6},{"attributes":{"POSITION":35,"NORMAL":36,"TEXCOORD_0":37,"COLOR_0":38},"indices":39,"material":7},{"attributes":{"POSITION":40,"NORMAL":41,"TEXCOORD_0":42,"COLOR_0":43},"indices":44,"material":8},{"attributes":{"POSITION":45,"NORMAL":46,"TEXCOORD_0":47,"COLOR_0":48},"indices":49,"material":9},{"attributes":{"POSITION":50,"NORMAL":51,"TEXCOORD_0":52,"COLOR_0":53},"indices":54,"material":10},{"attributes":{"POSITION":55,"NORMAL":56,"TEXCOORD_0":57,"COLOR_0":58},"indices":59,"material":11},{"attributes":{"POSITION":60,"NORMAL":61,"TEXCOORD_0":62,"COLOR_0":63},"indices":64,"material":12},{"attributes":{"POSITION":65,"NORMAL":66,"TEXCOORD_0":67,"COLOR_0":68},"indices":69,"material":13},{"attributes":{"POSITION":70,"NORMAL":71,"TEXCOORD_0":72,"COLOR_0":73},"indices":74,"material":14},{"attributes":{"POSITION":75,"NORMAL":76,"TEXCOORD_0":77,"COLOR_0":78},"indices":79,"material":15},{"attributes":{"POSITION":80,"NORMAL":81,"TEXCOORD_0":82,"COLOR_0":83},"indices":84,"material":16},{"attributes":{"POSITION":85,"NORMAL":86,"TEXCOORD_0":87,"COLOR_0":88},"indices":89,"material":17},{"attributes":{"POSITION":90,"NORMAL":91,"TEXCOORD_0":92,"COLOR_0":93},"indices":94,"material":18},{"attributes":{"POSITION":95,"NORMAL":96,"TEXCOORD_0":97,"COLOR_0":98},"indices":99,"material":19}]}],"textures":[{"sampler":0,"source":0},{"sampler":0,"source":1},{"sampler":0,"source":2},{"sampler":0,"source":3}],"images":[{"mimeType":"image/png","name":"roof_tiles.png","uri":"../../textures/roof_tiles.png"},{"mimeType":"image/png","name":"stone_wall.png","uri":"../../textures/stone_wall.png"},{"mimeType":"image/png","name":"plaster.png","uri":"../../textures/plaster.png"},{"mimeType":"image/png","name":"wood.png","uri":"../../textures/wood.png"}],"accessors":[{"bufferView":0,"componentType":5126,"count":4427,"max":[0.8851000666618347,0.9760011434555054,0.6006025075912476],"min":[-0.9013807773590088,-0.005638472735881805,-0.7149999737739563],"type":"VEC3"},{"bufferView":1,"componentType":5126,"count":4427,"type":"VEC3"},{"bufferView":2,"componentType":5126,"count":4427,"type":"VEC2"},{"bufferView":3,"componentType":5123,"count":4427,"normalized":true,"type":"VEC4"},{"bufferView":4,"componentType":5123,"count":5916,"type":"SCALAR"},{"bufferView":5,"componentType":5126,"count":338,"max":[0.8980000615119934,0.5160000324249268,0.38020575046539307],"min":[-0.8023241758346558,2.1355226635932922e-06,-0.7149999141693115],"type":"VEC3"},{"bufferView":6,"componentType":5126,"count":338,"type":"VEC3"},{"bufferView":7,"componentType":5126,"count":338,"type":"VEC2"},{"bufferView":8,"componentType":5123,"count":338,"normalized":true,"type":"VEC4"},{"bufferView":9,"componentType":5123,"count":405,"type":"SCALAR"},{"bufferView":10,"componentType":5126,"count":396,"max":[0.8980000615119934,0.5600010752677917,0.38020575046539307],"min":[-0.8023241758346558,0.07000211626291275,-0.6923331022262573],"type":"VEC3"},{"bufferView":11,"componentType":5126,"count":396,"type":"VEC3"},{"bufferView":12,"componentType":5126,"count":396,"type":"VEC2"},{"bufferView":13,"componentType":5123,"count":396,"normalized":true,"type":"VEC4"},{"bufferView":14,"componentType":5123,"count":510,"type":"SCALAR"},{"bufferView":15,"componentType":5126,"count":414,"max":[0.7960598468780518,0.7490091323852539,0.5752080082893372],"min":[-0.7554007172584534,0,-0.587775707244873],"type":"VEC3"},{"bufferView":16,"componentType":5126,"count":414,"type":"VEC3"},{"bufferView":17,"componentType":5126,"count":414,"type":"VEC2"},{"bufferView":18,"componentType":5123,"count":414,"normalized":true,"type":"VEC4"},{"bufferView":19,"componentType":5123,"count":492,"type":"SCALAR"},{"bufferView":20,"componentType":5126,"count":462,"max":[-0.011633254587650299,0.12823930382728577,0.3849847912788391],"min":[-0.175351083278656,0.062045834958553314,0.21952354907989502],"type":"VEC3"},{"bufferView":21,"componentType":5126,"count":462,"type":"VEC3"},{"bufferView":22,"componentType":5126,"count":462,"type":"VEC2"},{"bufferView":23,"componentType":5123,"count":462,"normalized":true,"type":"VEC4"},{"bufferView":24,"componentType":5123,"count":462,"type":"SCALAR"},{"bufferView":25,"componentType":5126,"count":108,"max":[-0.054199881851673126,0.1278226375579834,0.3556341528892517],"min":[-0.15966226160526276,0.07317034900188446,0.2420298457145691],"type":"VEC3"},{"bufferView":26,"componentType":5126,"count":108,"type":"VEC3"},{"bufferView":27,"componentType":5126,"count":108,"type":"VEC2"},{"bufferView":28,"componentType":5123,"count":108,"normalized":true,"type":"VEC4"},{"bufferView":29,"componentType":5123,"count":108,"type":"SCALAR"},{"bufferView":30,"componentType":5126,"count":294,"max":[0.6126518845558167,0.13271015882492065,0.5264801979064941],"min":[-0.15966226160526276,0.06405019760131836,0.23907530307769775],"type":"VEC3"},{"bufferView":31,"componentType":5126,"count":294,"type":"VEC3"},{"bufferView":32,"componentType":5126,"count":294,"type":"VEC2"},{"bufferView":33,"componentType":5123,"count":294,"normalized":true,"type":"VEC4"},{"bufferView":34,"componentType":5123,"count":294,"type":"SCALAR"},{"bufferView":35,"componentType":5126,"count":6,"max":[0.5985190272331238,0.1134277880191803,0.4784255623817444],"min":[0.48859286308288574,0.09953940659761429,0.41565215587615967],"type":"VEC3"},{"bufferView":36,"componentType":5126,"count":6,"type":"VEC3"},{"bufferView":37,"componentType":5126,"count":6,"type":"VEC2"},{"bufferView":38,"componentType":5123,"count":6,"normalized":true,"type":"VEC4"},{"bufferView":39,"componentType":5123,"count":6,"type":"SCALAR"},{"bufferView":40,"componentType":5126,"count":18,"max":[0.5791740417480469,0.117976114153862,0.4974382519721985],"min":[0.5054464936256409,0.09461537003517151,0.39285725355148315],"type":"VEC3"},{"bufferView":41,"componentType":5126,"count":18,"type":"VEC3"},{"bufferView":42,"componentType":5126,"count":18,"type":"VEC2"},{"bufferView":43,"componentType":5123,"count":18,"normalized":true,"type":"VEC4"},{"bufferView":44,"componentType":5123,"count":18,"type":"SCALAR"},{"bufferView":45,"componentType":5126,"count":470,"max":[0.46654900908470154,0.1985453963279724,0.5752080082893372],"min":[-0.642096757888794,0.03427315503358841,0.2975682020187378],"type":"VEC3"},{"bufferView":46,"componentType":5126,"count":470,"type":"VEC3"},{"bufferView":47,"componentType":5126,"count":470,"type":"VEC2"},{"bufferView":48,"componentType":5123,"count":470,"normalized":true,"type":"VEC4"},{"bufferView":49,"componentType":5123,"count":474,"type":"SCALAR"},{"bufferView":50,"componentType":5126,"count":60,"max":[0.46654900908470154,0.1985453963279724,0.44032013416290283],"min":[0.2811588943004608,0.03427315503358841,0.2975682020187378],"type":"VEC3"},{"bufferView":51,"componentType":5126,"count":60,"type":"VEC3"},{"bufferView":52,"componentType":5126,"count":60,"type":"VEC2"},{"bufferView":53,"componentType":5123,"count":60,"normalized":true,"type":"VEC4"},{"bufferView":54,"componentType":5123,"count":60,"type":"SCALAR"},{"bufferView":55,"componentType":5126,"count":100,"max":[0.44784191250801086,0.1985453963279724,0.4453531503677368],"min":[0.2811588943004608,0.04218509793281555,0.3221356272697449],"type":"VEC3"},{"bufferView":56,"componentType":5126,"count":100,"type":"VEC3"},{"bufferView":57,"componentType":5126,"count":100,"type":"VEC2"},{"bufferView":58,"componentType":5123,"count":100,"normalized":true,"type":"VEC4"},{"bufferView":59,"componentType":5123,"count":114,"type":"SCALAR"},{"bufferView":60,"componentType":5126,"count":24,"max":[0.4396257996559143,0.19838479161262512,0.4453531503677368],"min":[0.2874501943588257,0.04234568774700165,0.33676594495773315],"type":"VEC3"},{"bufferView":61,"componentType":5126,"count":24,"type":"VEC3"},{"bufferView":62,"componentType":5126,"count":24,"type":"VEC2"},{"bufferView":63,"componentType":5123,"count":24,"normalized":true,"type":"VEC4"},{"bufferView":64,"componentType":5123,"count":24,"type":"SCALAR"},{"bufferView":65,"componentType":5126,"count":77,"max":[0.46654900908470154,0.19063344597816467,0.4114411473274231],"min":[0.29209136962890625,0.03427315503358841,0.29582029581069946],"type":"VEC3"},{"bufferView":66,"componentType":5126,"count":77,"type":"VEC3"},{"bufferView":67,"componentType":5126,"count":77,"type":"VEC2"},{"bufferView":68,"componentType":5123,"count":77,"normalized":true,"type":"VEC4"},{"bufferView":69,"componentType":5123,"count":84,"type":"SCALAR"},{"bufferView":70,"componentType":5126,"count":46,"max":[0.44662046432495117,0.1496882289648056,0.4252758026123047],"min":[0.28660497069358826,0.07816087454557419,0.32361578941345215],"type":"VEC3"},{"bufferView":71,"componentType":5126,"count":46,"type":"VEC3"},{"bufferView":72,"componentType":5126,"count":46,"type":"VEC2"},{"bufferView":73,"componentType":5123,"count":46,"normalized":true,"type":"VEC4"},{"bufferView":74,"componentType":5123,"count":54,"type":"SCALAR"},{"bufferView":75,"componentType":5126,"count":20,"max":[0.46532756090164185,0.1470709890127182,0.4252758026123047],"min":[0.29079824686050415,0.07024893164634705,0.29904836416244507],"type":"VEC3"},{"bufferView":76,"componentType":5126,"count":20,"type":"VEC3"},{"bufferView":77,"componentType":5126,"count":20,"type":"VEC2"},{"bufferView":78,"componentType":5123,"count":20,"normalized":true,"type":"VEC4"},{"bufferView":79,"componentType":5123,"count":24,"type":"SCALAR"},{"bufferView":80,"componentType":5126,"count":12,"max":[0.4619591534137726,0.1470709890127182,0.4252758026123047],"min":[0.29079824686050415,0.07816087454557419,0.3033549189567566],"type":"VEC3"},{"bufferView":81,"componentType":5126,"count":12,"type":"VEC3"},{"bufferView":82,"componentType":5126,"count":12,"type":"VEC2"},{"bufferView":83,"componentType":5123,"count":12,"normalized":true,"type":"VEC4"},{"bufferView":84,"componentType":5123,"count":12,"type":"SCALAR"},{"bufferView":85,"componentType":5126,"count":198,"max":[-0.4978801906108856,0.12241978943347931,0.5153480768203735],"min":[-0.5791740417480469,0.06405019760131836,0.39285725355148315],"type":"VEC3"},{"bufferView":86,"componentType":5126,"count":198,"type":"VEC3"},{"bufferView":87,"componentType":5126,"count":198,"type":"VEC2"},{"bufferView":88,"componentType":5123,"count":198,"normalized":true,"type":"VEC4"},{"bufferView":89,"componentType":5123,"count":198,"type":"SCALAR"},{"bufferView":90,"componentType":5126,"count":102,"max":[-0.25568753480911255,0.1134277880191803,0.4817158579826355],"min":[-0.48016357421875,0.07338637858629227,0.2566297650337219],"type":"VEC3"},{"bufferView":91,"componentType":5126,"count":102,"type":"VEC3"},{"bufferView":92,"componentType":5126,"count":102,"type":"VEC2"},{"bufferView":93,"componentType":5123,"count":102,"normalized":true,"type":"VEC4"},{"bufferView":94,"componentType":5123,"count":102,"type":"SCALAR"},{"bufferView":95,"componentType":5126,"count":18,"max":[-0.32138288021087646,0.117976114153862,0.38165903091430664],"min":[-0.4309144914150238,0.09461537003517151,0.3188856244087219],"type":"VEC3"},{"bufferView":96,"componentType":5126,"count":18,"type":"VEC3"},{"bufferView":97,"componentType":5126,"count":18,"type":"VEC2"},{"bufferView":98,"componentType":5123,"count":18,"normalized":true,"type":"VEC4"},{"bufferView":99,"componentType":5123,"count":18,"type":"SCALAR"}],"bufferViews":[{"buffer":0,"byteLength":53124,"byteOffset":0,"target":34962},{"buffer":0,"byteLength":53124,"byteOffset":53124,"target":34962},{"buffer":0,"byteLength":35416,"byteOffset":106248,"target":34962},{"buffer":0,"byteLength":35416,"byteOffset":141664,"target":34962},{"buffer":0,"byteLength":11832,"byteOffset":177080,"target":34963},{"buffer":0,"byteLength":4056,"byteOffset":188912,"target":34962},{"buffer":0,"byteLength":4056,"byteOffset":192968,"target":34962},{"buffer":0,"byteLength":2704,"byteOffset":197024,"target":34962},{"buffer":0,"byteLength":2704,"byteOffset":199728,"target":34962},{"buffer":0,"byteLength":810,"byteOffset":202432,"target":34963},{"buffer":0,"byteLength":4752,"byteOffset":203244,"target":34962},{"buffer":0,"byteLength":4752,"byteOffset":207996,"target":34962},{"buffer":0,"byteLength":3168,"byteOffset":212748,"target":34962},{"buffer":0,"byteLength":3168,"byteOffset":215916,"target":34962},{"buffer":0,"byteLength":1020,"byteOffset":219084,"target":34963},{"buffer":0,"byteLength":4968,"byteOffset":220104,"target":34962},{"buffer":0,"byteLength":4968,"byteOffset":225072,"target":34962},{"buffer":0,"byteLength":3312,"byteOffset":230040,"target":34962},{"buffer":0,"byteLength":3312,"byteOffset":233352,"target":34962},{"buffer":0,"byteLength":984,"byteOffset":236664,"target":34963},{"buffer":0,"byteLength":5544,"byteOffset":237648,"target":34962},{"buffer":0,"byteLength":5544,"byteOffset":243192,"target":34962},{"buffer":0,"byteLength":3696,"byteOffset":248736,"target":34962},{"buffer":0,"byteLength":3696,"byteOffset":252432,"target":34962},{"buffer":0,"byteLength":924,"byteOffset":256128,"target":34963},{"buffer":0,"byteLength":1296,"byteOffset":257052,"target":34962},{"buffer":0,"byteLength":1296,"byteOffset":258348,"target":34962},{"buffer":0,"byteLength":864,"byteOffset":259644,"target":34962},{"buffer":0,"byteLength":864,"byteOffset":260508,"target":34962},{"buffer":0,"byteLength":216,"byteOffset":261372,"target":34963},{"buffer":0,"byteLength":3528,"byteOffset":261588,"target":34962},{"buffer":0,"byteLength":3528,"byteOffset":265116,"target":34962},{"buffer":0,"byteLength":2352,"byteOffset":268644,"target":34962},{"buffer":0,"byteLength":2352,"byteOffset":270996,"target":34962},{"buffer":0,"byteLength":588,"byteOffset":273348,"target":34963},{"buffer":0,"byteLength":72,"byteOffset":273936,"target":34962},{"buffer":0,"byteLength":72,"byteOffset":274008,"target":34962},{"buffer":0,"byteLength":48,"byteOffset":274080,"target":34962},{"buffer":0,"byteLength":48,"byteOffset":274128,"target":34962},{"buffer":0,"byteLength":12,"byteOffset":274176,"target":34963},{"buffer":0,"byteLength":216,"byteOffset":274188,"target":34962},{"buffer":0,"byteLength":216,"byteOffset":274404,"target":34962},{"buffer":0,"byteLength":144,"byteOffset":274620,"target":34962},{"buffer":0,"byteLength":144,"byteOffset":274764,"target":34962},{"buffer":0,"byteLength":36,"byteOffset":274908,"target":34963},{"buffer":0,"byteLength":5640,"byteOffset":274944,"target":34962},{"buffer":0,"byteLength":5640,"byteOffset":280584,"target":34962},{"buffer":0,"byteLength":3760,"byteOffset":286224,"target":34962},{"buffer":0,"byteLength":3760,"byteOffset":289984,"target":34962},{"buffer":0,"byteLength":948,"byteOffset":293744,"target":34963},{"buffer":0,"byteLength":720,"byteOffset":294692,"target":34962},{"buffer":0,"byteLength":720,"byteOffset":295412,"target":34962},{"buffer":0,"byteLength":480,"byteOffset":296132,"target":34962},{"buffer":0,"byteLength":480,"byteOffset":296612,"target":34962},{"buffer":0,"byteLength":120,"byteOffset":297092,"target":34963},{"buffer":0,"byteLength":1200,"byteOffset":297212,"target":34962},{"buffer":0,"byteLength":1200,"byteOffset":298412,"target":34962},{"buffer":0,"byteLength":800,"byteOffset":299612,"target":34962},{"buffer":0,"byteLength":800,"byteOffset":300412,"target":34962},{"buffer":0,"byteLength":228,"byteOffset":301212,"target":34963},{"buffer":0,"byteLength":288,"byteOffset":301440,"target":34962},{"buffer":0,"byteLength":288,"byteOffset":301728,"target":34962},{"buffer":0,"byteLength":192,"byteOffset":302016,"target":34962},{"buffer":0,"byteLength":192,"byteOffset":302208,"target":34962},{"buffer":0,"byteLength":48,"byteOffset":302400,"target":34963},{"buffer":0,"byteLength":924,"byteOffset":302448,"target":34962},{"buffer":0,"byteLength":924,"byteOffset":303372,"target":34962},{"buffer":0,"byteLength":616,"byteOffset":304296,"target":34962},{"buffer":0,"byteLength":616,"byteOffset":304912,"target":34962},{"buffer":0,"byteLength":168,"byteOffset":305528,"target":34963},{"buffer":0,"byteLength":552,"byteOffset":305696,"target":34962},{"buffer":0,"byteLength":552,"byteOffset":306248,"target":34962},{"buffer":0,"byteLength":368,"byteOffset":306800,"target":34962},{"buffer":0,"byteLength":368,"byteOffset":307168,"target":34962},{"buffer":0,"byteLength":108,"byteOffset":307536,"target":34963},{"buffer":0,"byteLength":240,"byteOffset":307644,"target":34962},{"buffer":0,"byteLength":240,"byteOffset":307884,"target":34962},{"buffer":0,"byteLength":160,"byteOffset":308124,"target":34962},{"buffer":0,"byteLength":160,"byteOffset":308284,"target":34962},{"buffer":0,"byteLength":48,"byteOffset":308444,"target":34963},{"buffer":0,"byteLength":144,"byteOffset":308492,"target":34962},{"buffer":0,"byteLength":144,"byteOffset":308636,"target":34962},{"buffer":0,"byteLength":96,"byteOffset":308780,"target":34962},{"buffer":0,"byteLength":96,"byteOffset":308876,"target":34962},{"buffer":0,"byteLength":24,"byteOffset":308972,"target":34963},{"buffer":0,"byteLength":2376,"byteOffset":308996,"target":34962},{"buffer":0,"byteLength":2376,"byteOffset":311372,"target":34962},{"buffer":0,"byteLength":1584,"byteOffset":313748,"target":34962},{"buffer":0,"byteLength":1584,"byteOffset":315332,"target":34962},{"buffer":0,"byteLength":396,"byteOffset":316916,"target":34963},{"buffer":0,"byteLength":1224,"byteOffset":317312,"target":34962},{"buffer":0,"byteLength":1224,"byteOffset":318536,"target":34962},{"buffer":0,"byteLength":816,"byteOffset":319760,"target":34962},{"buffer":0,"byteLength":816,"byteOffset":320576,"target":34962},{"buffer":0,"byteLength":204,"byteOffset":321392,"target":34963},{"buffer":0,"byteLength":216,"byteOffset":321596,"target":34962},{"buffer":0,"byteLength":216,"byteOffset":321812,"target":34962},{"buffer":0,"byteLength":144,"byteOffset":322028,"target":34962},{"buffer":0,"byteLength":144,"byteOffset":322172,"target":34962},{"buffer":0,"byteLength":36,"byteOffset":322316,"target":34963}],"samplers":[{"magFilter":9729,"minFilter":9987}],"buffers":[{"byteLength":322352,"uri":"building_market_red.bin"}]}