{"asset":{"generator":"Khronos glTF Blender I/O v5.2.40","version":"2.0"},"scene":0,"scenes":[{"name":"Scene","nodes":[1]}],"nodes":[{"mesh":0,"name":"building_tower_A_top_red"},{"children":[0],"mesh":1,"name":"building_tower_A_red"}],"materials":[{"doubleSided":true,"name":"roof_tiles","pbrMetallicRoughness":{"baseColorTexture":{"index":0},"metallicFactor":0.0,"roughnessFactor":1.0}},{"doubleSided":true,"name":"plaster","pbrMetallicRoughness":{"baseColorTexture":{"index":1},"metallicFactor":0.0,"roughnessFactor":1.0}},{"doubleSided":true,"name":"stone_wall","pbrMetallicRoughness":{"baseColorTexture":{"index":2},"metallicFactor":0.0,"roughnessFactor":1.0}},{"doubleSided":true,"name":"wood","pbrMetallicRoughness":{"baseColorTexture":{"index":3},"metallicFactor":0.0,"roughnessFactor":1.0}}],"meshes":[{"name":"building_tower_A_top_red","primitives":[{"attributes":{"POSITION":0,"NORMAL":1,"TEXCOORD_0":2,"COLOR_0":3},"indices":4,"material":0},{"attributes":{"POSITION":5,"NORMAL":6,"TEXCOORD_0":7,"COLOR_0":8},"indices":9,"material":1},{"attributes":{"POSITION":10,"NORMAL":11,"TEXCOORD_0":12,"COLOR_0":13},"indices":14,"material":2}]},{"name":"building_tower_A_red","primitives":[{"attributes":{"POSITION":15,"NORMAL":16,"TEXCOORD_0":17,"COLOR_0":18},"indices":19,"material":2},{"attributes":{"POSITION":20,"NORMAL":21,"TEXCOORD_0":22,"COLOR_0":23},"indices":24,"material":0},{"attributes":{"POSITION":25,"NORMAL":26,"TEXCOORD_0":27,"COLOR_0":28},"indices":29,"material":3}]}],"textures":[{"sampler":0,"source":0},{"sampler":0,"source":1},{"sampler":0,"source":2},{"sampler":0,"source":3}],"images":[{"mimeType":"image/png","name":"roof_tiles.png","uri":"../../textures/roof_tiles.png"},{"mimeType":"image/png","name":"plaster.png","uri":"../../textures/plaster.png"},{"mimeType":"image/png","name":"stone_wall.png","uri":"../../textures/stone_wall.png"},{"mimeType":"image/png","name":"wood.png","uri":"../../textures/wood.png"}],"accessors":[{"bufferView":0,"componentType":5126,"count":1246,"max":[0.49663636088371277,2.191734552383423,0.5734661817550659],"min":[-0.49663642048835754,1.2779241800308228,-0.5734661817550659],"type":"VEC3"},{"bufferView":1,"componentType":5126,"count":1246,"type":"VEC3"},{"bufferView":2,"componentType":5126,"count":1246,"type":"VEC2"},{"bufferView":3,"componentType":5123,"count":1246,"normalized":true,"type":"VEC4"},{"bufferView":4,"componentType":5123,"count":1584,"type":"SCALAR"},{"bufferView":5,"componentType":5126,"count":41,"max":[0.38166749477386475,1.7069776058197021,0.4407115876674652],"min":[-0.38166749477386475,1.2779241800308228,-0.44071164727211],"type":"VEC3"},{"bufferView":6,"componentType":5126,"count":41,"type":"VEC3"},{"bufferView":7,"componentType":5126,"count":41,"type":"VEC2"},{"bufferView":8,"componentType":5123,"count":41,"normalized":true,"type":"VEC4"},{"bufferView":9,"componentType":5123,"count":54,"type":"SCALAR"},{"bufferView":10,"componentType":5126,"count":155,"max":[0.3936260938644409,1.6370365619659424,0.35931217670440674],"min":[-0.3936260938644409,1.531190037727356,-0.35931217670440674],"type":"VEC3"},{"bufferView":11,"componentType":5126,"count":155,"type":"VEC3"},{"bufferView":12,"componentType":5126,"count":155,"type":"VEC2"},{"bufferView":13,"componentType":5123,"count":155,"normalized":true,"type":"VEC4"},{"bufferView":14,"componentType":5123,"count":162,"type":"SCALAR"},{"bufferView":15,"componentType":5126,"count":3387,"max":[0.4648962616920471,1.5,0.5800000429153442],"min":[-0.4648962616920471,0,-0.5311260223388672],"type":"VEC3"},{"bufferView":16,"componentType":5126,"count":3387,"type":"VEC3"},{"bufferView":17,"componentType":5126,"count":3387,"type":"VEC2"},{"bufferView":18,"componentType":5123,"count":3387,"normalized":true,"type":"VEC4"},{"bufferView":19,"componentType":5123,"count":4074,"type":"SCALAR"},{"bufferView":20,"componentType":5126,"count":369,"max":[0.4271114766597748,1.4000000953674316,0.5328894853591919],"min":[-0.4271091818809509,0.04999999701976776,-0.4156559407711029],"type":"VEC3"},{"bufferView":21,"componentType":5126,"count":369,"type":"VEC3"},{"bufferView":22,"componentType":5126,"count":369,"type":"VEC2"},{"bufferView":23,"componentType":5123,"count":369,"normalized":true,"type":"VEC4"},{"bufferView":24,"componentType":5123,"count":507,"type":"SCALAR"},{"bufferView":25,"componentType":5126,"count":24,"max":[0.3599686324596405,1.4000000953674316,0.5048894882202148],"min":[-0.35996872186660767,0.04999999701976776,-0.31174200773239136],"type":"VEC3"},{"bufferView":26,"componentType":5126,"count":24,"type":"VEC3"},{"bufferView":27,"componentType":5126,"count":24,"type":"VEC2"},{"bufferView":28,"componentType":5123,"count":24,"normalized":true,"type":"VEC4"},{"bufferView":29,"componentType":5123,"count":33,"type":"SCALAR"}],"bufferViews":[{"buffer":0,"byteLength":14952,"byteOffset":0,"target":34962},{"buffer":0,"byteLength":14952,"byteOffset":14952,"target":34962},{"buffer":0,"byteLength":9968,"byteOffset":29904,"target":34962},{"buffer":0,"byteLength":9968,"byteOffset":39872,"target":34962},{"buffer":0,"byteLength":3168,"byteOffset":49840,"target":34963},{"buffer":0,"byteLength":492,"byteOffset":53008,"target":34962},{"buffer":0,"byteLength":492,"byteOffset":53500,"target":34962},{"buffer":0,"byteLength":328,"byteOffset":53992,"target":34962},{"buffer":0,"byteLength":328,"byteOffset":54320,"target":34962},{"buffer":0,"byteLength":108,"byteOffset":54648,"target":34963},{"buffer":0,"byteLength":1860,"byteOffset":54756,"target":34962},{"buffer":0,"byteLength":1860,"byteOffset":56616,"target":34962},{"buffer":0,"byteLength":1240,"byteOffset":58476,"target":34962},{"buffer":0,"byteLength":1240,"byteOffset":59716,"target":34962},{"buffer":0,"byteLength":324,"byteOffset":60956,"target":34963},{"buffer":0,"byteLength":40644,"byteOffset":61280,"target":34962},{"buffer":0,"byteLength":40644,"byteOffset":101924,"target":34962},{"buffer":0,"byteLength":27096,"byteOffset":142568,"target":34962},{"buffer":0,"byteLength":27096,"byteOffset":169664,"target":34962},{"buffer":0,"byteLength":8148,"byteOffset":196760,"target":34963},{"buffer":0,"byteLength":4428,"byteOffset":204908,"target":34962},{"buffer":0,"byteLength":4428,"byteOffset":209336,"target":34962},{"buffer":0,"byteLength":2952,"byteOffset":213764,"target":34962},{"buffer":0,"byteLength":2952,"byteOffset":216716,"target":34962},{"buffer":0,"byteLength":1014,"byteOffset":219668,"target":34963},{"buffer":0,"byteLength":288,"byteOffset":220684,"target":34962},{"buffer":0,"byteLength":288,"byteOffset":220972,"target":34962},{"buffer":0,"byteLength":192,"byteOffset":221260,"target":34962},{"buffer":0,"byteLength":192,"byteOffset":221452,"target":34962},{"buffer":0,"byteLength":66,"byteOffset":221644,"target":34963}],"samplers":[{"magFilter":9729,"minFilter":9987}],"buffers":[{"byteLength":221712,"uri":"building_tower_A_red.bin"}]}