{"asset":{"generator":"Khronos glTF Blender I/O v5.2.40","version":"2.0"},"scene":0,"scenes":[{"name":"Scene","nodes":[0]}],"nodes":[{"mesh":0,"name":"building_home_B_red"}],"materials":[{"doubleSided":true,"name":"stone_wall","pbrMetallicRoughness":{"baseColorTexture":{"index":0},"metallicFactor":0.0,"roughnessFactor":1.0}},{"doubleSided":true,"name":"roof_tiles","pbrMetallicRoughness":{"baseColorTexture":{"index":1},"metallicFactor":0.0,"roughnessFactor":1.0}},{"doubleSided":true,"name":"plaster","pbrMetallicRoughness":{"baseColorTexture":{"index":2},"metallicFactor":0.0,"roughnessFactor":1.0}},{"doubleSided":true,"name":"wood","pbrMetallicRoughness":{"baseColorTexture":{"index":3},"metallicFactor":0.0,"roughnessFactor":1.0}}],"meshes":[{"name":"building_home_B_red","primitives":[{"attributes":{"POSITION":0,"NORMAL":1,"TEXCOORD_0":2,"COLOR_0":3},"indices":4,"material":0},{"attributes":{"POSITION":5,"NORMAL":6,"TEXCOORD_0":7,"COLOR_0":8},"indices":9,"material":1},{"attributes":{"POSITION":10,"NORMAL":11,"TEXCOORD_0":12,"COLOR_0":13},"indices":14,"material":2},{"attributes":{"POSITION":15,"NORMAL":16,"TEXCOORD_0":17,"COLOR_0":18},"indices":19,"material":3}]}],"textures":[{"sampler":0,"source":0},{"sampler":0,"source":1},{"sampler":0,"source":2},{"sampler":0,"source":3}],"images":[{"mimeType":"image/png","name":"stone_wall.png","uri":"../../textures/stone_wall.png"},{"mimeType":"image/png","name":"roof_tiles.png","uri":"../../textures/roof_tiles.png"},{"mimeType":"image/png","name":"plaster.png","uri":"../../textures/plaster.png"},{"mimeType":"image/png","name":"wood.png","uri":"../../textures/wood.png"}],"accessors":[{"bufferView":0,"componentType":5126,"count":967,"max":[0.43617546558380127,1.2800002098083496,0.559999942779541],"min":[-0.43875277042388916,-2.086162709247219e-08,-0.5386515855789185],"type":"VEC3"},{"bufferView":1,"componentType":5126,"count":967,"type":"VEC3"},{"bufferView":2,"componentType":5126,"count":967,"type":"VEC2"},{"bufferView":3,"componentType":5123,"count":967,"normalized":true,"type":"VEC4"},{"bufferView":4,"componentType":5123,"count":1215,"type":"SCALAR"},{"bufferView":5,"componentType":5126,"count":1608,"max":[0.4199998378753662,1.225000023841858,0.32597988843917847],"min":[-0.4200001060962677,0.210002139210701,-0.46597978472709656],"type":"VEC3"},{"bufferView":6,"componentType":5126,"count":1608,"type":"VEC3"},{"bufferView":7,"componentType":5126,"count":1608,"type":"VEC2"},{"bufferView":8,"componentType":5123,"count":1608,"normalized":true,"type":"VEC4"},{"bufferView":9,"componentType":5123,"count":2130,"type":"SCALAR"},{"bufferView":10,"componentType":5126,"count":562,"max":[0.367160439491272,1.2660032510757446,0.2450006604194641],"min":[-0.36629432439804077,-2.086162709247219e-08,-0.5386515855789185],"type":"VEC3"},{"bufferView":11,"componentType":5126,"count":562,"type":"VEC3"},{"bufferView":12,"componentType":5126,"count":562,"type":"VEC2"},{"bufferView":13,"componentType":5123,"count":562,"normalized":true,"type":"VEC4"},{"bufferView":14,"componentType":5123,"count":708,"type":"SCALAR"},{"bufferView":15,"componentType":5126,"count":94,"max":[0.21137502789497375,1.0639996528625488,0.26219654083251953],"min":[-0.3849952220916748,0.210002139210701,-0.3850041627883911],"type":"VEC3"},{"bufferView":16,"componentType":5126,"count":94,"type":"VEC3"},{"bufferView":17,"componentType":5126,"count":94,"type":"VEC2"},{"bufferView":18,"componentType":5123,"count":94,"normalized":true,"type":"VEC4"},{"bufferView":19,"componentType":5123,"count":126,"type":"SCALAR"}],"bufferViews":[{"buffer":0,"byteLength":11604,"byteOffset":0,"target":34962},{"buffer":0,"byteLength":11604,"byteOffset":11604,"target":34962},{"buffer":0,"byteLength":7736,"byteOffset":23208,"target":34962},{"buffer":0,"byteLength":7736,"byteOffset":30944,"target":34962},{"buffer":0,"byteLength":2430,"byteOffset":38680,"target":34963},{"buffer":0,"byteLength":19296,"byteOffset":41112,"target":34962},{"buffer":0,"byteLength":19296,"byteOffset":60408,"target":34962},{"buffer":0,"byteLength":12864,"byteOffset":79704,"target":34962},{"buffer":0,"byteLength":12864,"byteOffset":92568,"target":34962},{"buffer":0,"byteLength":4260,"byteOffset":105432,"target":34963},{"buffer":0,"byteLength":6744,"byteOffset":109692,"target":34962},{"buffer":0,"byteLength":6744,"byteOffset":116436,"target":34962},{"buffer":0,"byteLength":4496,"byteOffset":123180,"target":34962},{"buffer":0,"byteLength":4496,"byteOffset":127676,"target":34962},{"buffer":0,"byteLength":1416,"byteOffset":132172,"target":34963},{"buffer":0,"byteLength":1128,"byteOffset":133588,"target":34962},{"buffer":0,"byteLength":1128,"byteOffset":134716,"target":34962},{"buffer":0,"byteLength":752,"byteOffset":135844,"target":34962},{"buffer":0,"byteLength":752,"byteOffset":136596,"target":34962},{"buffer":0,"byteLength":252,"byteOffset":137348,"target":34963}],"samplers":[{"magFilter":9729,"minFilter":9987}],"buffers":[{"byteLength":137600,"uri":"building_home_B_red.bin"}]}