{"asset":{"generator":"Khronos glTF Blender I/O v5.2.40","version":"2.0"},"scene":0,"scenes":[{"name":"Scene","nodes":[0]}],"nodes":[{"mesh":0,"name":"crate_long_A"}],"materials":[{"doubleSided":true,"name":"flat_d4a151","pbrMetallicRoughness":{"baseColorFactor":[0.6615080833435059,0.3598761558532715,0.0826169103384018,1],"metallicFactor":0.0,"roughnessFactor":1.0}},{"doubleSided":true,"name":"flat_dfad5c","pbrMetallicRoughness":{"baseColorFactor":[0.7424715161323547,0.41928812861442566,0.109207384288311,1],"metallicFactor":0.0,"roughnessFactor":1.0}},{"doubleSided":true,"name":"flat_dfad52","pbrMetallicRoughness":{"baseColorFactor":[0.7414365410804749,0.41826918721199036,0.0862014964222908,1],"metallicFactor":0.0,"roughnessFactor":1.0}},{"doubleSided":true,"name":"roof_tiles","pbrMetallicRoughness":{"baseColorTexture":{"index":0},"metallicFactor":0.0,"roughnessFactor":1.0}}],"meshes":[{"name":"crate_long_A","primitives":[{"attributes":{"POSITION":0,"NORMAL":1,"TEXCOORD_0":2,"COLOR_0":3},"indices":4,"material":0},{"attributes":{"POSITION":5,"NORMAL":6,"TEXCOORD_0":7,"COLOR_0":8},"indices":9,"material":1},{"attributes":{"POSITION":10,"NORMAL":11,"TEXCOORD_0":12,"COLOR_0":13},"indices":14,"material":2},{"attributes":{"POSITION":15,"NORMAL":16,"TEXCOORD_0":17,"COLOR_0":18},"indices":19,"material":3}]}],"textures":[{"sampler":0,"source":0}],"images":[{"mimeType":"image/png","name":"roof_tiles.png","uri":"../../textures/roof_tiles.png"}],"accessors":[{"bufferView":0,"componentType":5126,"count":462,"max":[-0.011633254587650299,0.12823930382728577,0.08498478680849075],"min":[-0.175351083278656,0.062045834958553314,-0.08047647774219513],"type":"VEC3"},{"bufferView":1,"componentType":5126,"count":462,"type":"VEC3"},{"bufferView":2,"componentType":5126,"count":462,"type":"VEC2"},{"bufferView":3,"componentType":5123,"count":462,"normalized":true,"type":"VEC4"},{"bufferView":4,"componentType":5123,"count":462,"type":"SCALAR"},{"bufferView":5,"componentType":5126,"count":108,"max":[-0.054199881851673126,0.1278226375579834,0.055634111166000366],"min":[-0.15966226160526276,0.07317034900188446,-0.05797015130519867],"type":"VEC3"},{"bufferView":6,"componentType":5126,"count":108,"type":"VEC3"},{"bufferView":7,"componentType":5126,"count":108,"type":"VEC2"},{"bufferView":8,"componentType":5123,"count":108,"normalized":true,"type":"VEC4"},{"bufferView":9,"componentType":5123,"count":108,"type":"SCALAR"},{"bufferView":10,"componentType":5126,"count":270,"max":[-0.04684989154338837,0.13271015882492065,0.06232616305351257],"min":[-0.15966226160526276,0.06405019760131836,-0.0609247088432312],"type":"VEC3"},{"bufferView":11,"componentType":5126,"count":270,"type":"VEC3"},{"bufferView":12,"componentType":5126,"count":270,"type":"VEC2"},{"bufferView":13,"componentType":5123,"count":270,"normalized":true,"type":"VEC4"},{"bufferView":14,"componentType":5123,"count":270,"type":"SCALAR"},{"bufferView":15,"componentType":5126,"count":676,"max":[0.20000000298023224,0.15000000596046448,0.10000000149011612],"min":[-0.20000000298023224,0,-0.10000000149011612],"type":"VEC3"},{"bufferView":16,"componentType":5126,"count":676,"type":"VEC3"},{"bufferView":17,"componentType":5126,"count":676,"type":"VEC2"},{"bufferView":18,"componentType":5123,"count":676,"normalized":true,"type":"VEC4"},{"bufferView":19,"componentType":5123,"count":726,"type":"SCALAR"}],"bufferViews":[{"buffer":0,"byteLength":5544,"byteOffset":0,"target":34962},{"buffer":0,"byteLength":5544,"byteOffset":5544,"target":34962},{"buffer":0,"byteLength":3696,"byteOffset":11088,"target":34962},{"buffer":0,"byteLength":3696,"byteOffset":14784,"target":34962},{"buffer":0,"byteLength":924,"byteOffset":18480,"target":34963},{"buffer":0,"byteLength":1296,"byteOffset":19404,"target":34962},{"buffer":0,"byteLength":1296,"byteOffset":20700,"target":34962},{"buffer":0,"byteLength":864,"byteOffset":21996,"target":34962},{"buffer":0,"byteLength":864,"byteOffset":22860,"target":34962},{"buffer":0,"byteLength":216,"byteOffset":23724,"target":34963},{"buffer":0,"byteLength":3240,"byteOffset":23940,"target":34962},{"buffer":0,"byteLength":3240,"byteOffset":27180,"target":34962},{"buffer":0,"byteLength":2160,"byteOffset":30420,"target":34962},{"buffer":0,"byteLength":2160,"byteOffset":32580,"target":34962},{"buffer":0,"byteLength":540,"byteOffset":34740,"target":34963},{"buffer":0,"byteLength":8112,"byteOffset":35280,"target":34962},{"buffer":0,"byteLength":8112,"byteOffset":43392,"target":34962},{"buffer":0,"byteLength":5408,"byteOffset":51504,"target":34962},{"buffer":0,"byteLength":5408,"byteOffset":56912,"target":34962},{"buffer":0,"byteLength":1452,"byteOffset":62320,"target":34963}],"samplers":[{"magFilter":9729,"minFilter":9987}],"buffers":[{"byteLength":63772,"uri":"crate_long_A.bin"}]}