{"asset":{"generator":"Khronos glTF Blender I/O v5.2.40","version":"2.0"},"scene":0,"scenes":[{"name":"Scene","nodes":[0]}],"nodes":[{"mesh":0,"name":"crate_A_big"}],"materials":[{"doubleSided":true,"name":"roof_tiles","pbrMetallicRoughness":{"baseColorTexture":{"index":0},"metallicFactor":0.0,"roughnessFactor":1.0}},{"doubleSided":true,"name":"wood","pbrMetallicRoughness":{"baseColorTexture":{"index":1},"metallicFactor":0.0,"roughnessFactor":1.0}}],"meshes":[{"name":"crate_A_big","primitives":[{"attributes":{"POSITION":0,"NORMAL":1,"TEXCOORD_0":2,"COLOR_0":3},"indices":4,"material":0},{"attributes":{"POSITION":5,"NORMAL":6,"TEXCOORD_0":7,"COLOR_0":8},"indices":9,"material":1}]}],"textures":[{"sampler":0,"source":0},{"sampler":0,"source":1}],"images":[{"mimeType":"image/png","name":"roof_tiles.png","uri":"../../textures/roof_tiles.png"},{"mimeType":"image/png","name":"wood.png","uri":"../../textures/wood.png"}],"accessors":[{"bufferView":0,"componentType":5126,"count":210,"max":[0.10500000417232513,0.21000106632709503,0.10500000417232513],"min":[-0.10500000417232513,1.0639427046044148e-06,-0.10500000417232513],"type":"VEC3"},{"bufferView":1,"componentType":5126,"count":210,"type":"VEC3"},{"bufferView":2,"componentType":5126,"count":210,"type":"VEC2"},{"bufferView":3,"componentType":5123,"count":210,"normalized":true,"type":"VEC4"},{"bufferView":4,"componentType":5123,"count":390,"type":"SCALAR"},{"bufferView":5,"componentType":5126,"count":4,"max":[0,0.18900105357170105,0.06299999356269836],"min":[-0.06299999356269836,0.18900105357170105,-0.06299999356269836],"type":"VEC3"},{"bufferView":6,"componentType":5126,"count":4,"type":"VEC3"},{"bufferView":7,"componentType":5126,"count":4,"type":"VEC2"},{"bufferView":8,"componentType":5123,"count":4,"normalized":true,"type":"VEC4"},{"bufferView":9,"componentType":5123,"count":6,"type":"SCALAR"}],"bufferViews":[{"buffer":0,"byteLength":2520,"byteOffset":0,"target":34962},{"buffer":0,"byteLength":2520,"byteOffset":2520,"target":34962},{"buffer":0,"byteLength":1680,"byteOffset":5040,"target":34962},{"buffer":0,"byteLength":1680,"byteOffset":6720,"target":34962},{"buffer":0,"byteLength":780,"byteOffset":8400,"target":34963},{"buffer":0,"byteLength":48,"byteOffset":9180,"target":34962},{"buffer":0,"byteLength":48,"byteOffset":9228,"target":34962},{"buffer":0,"byteLength":32,"byteOffset":9276,"target":34962},{"buffer":0,"byteLength":32,"byteOffset":9308,"target":34962},{"buffer":0,"byteLength":12,"byteOffset":9340,"target":34963}],"samplers":[{"magFilter":9729,"minFilter":9987}],"buffers":[{"byteLength":9352,"uri":"crate_A_big.bin"}]}