{"asset":{"generator":"Khronos glTF Blender I/O v5.2.40","version":"2.0"},"scene":0,"scenes":[{"name":"Scene","nodes":[0]}],"nodes":[{"mesh":0,"name":"fence_wood_straight"}],"materials":[{"doubleSided":true,"name":"roof_tiles","pbrMetallicRoughness":{"baseColorTexture":{"index":0},"metallicFactor":0.0,"roughnessFactor":1.0}},{"doubleSided":true,"name":"wood","pbrMetallicRoughness":{"baseColorTexture":{"index":1},"metallicFactor":0.0,"roughnessFactor":1.0}}],"meshes":[{"name":"fence_wood_straight","primitives":[{"attributes":{"POSITION":0,"NORMAL":1,"TEXCOORD_0":2,"COLOR_0":3},"indices":4,"material":0},{"attributes":{"POSITION":5,"NORMAL":6,"TEXCOORD_0":7,"COLOR_0":8},"indices":9,"material":1}]}],"textures":[{"sampler":0,"source":0},{"sampler":0,"source":1}],"images":[{"mimeType":"image/png","name":"roof_tiles.png","uri":"../../textures/roof_tiles.png"},{"mimeType":"image/png","name":"wood.png","uri":"../../textures/wood.png"}],"accessors":[{"bufferView":0,"componentType":5126,"count":285,"max":[-0.9499995708465576,0.3999997675418854,0.5773504376411438],"min":[-1.0499995946884155,-0.05001270771026611,-0.5773505568504333],"type":"VEC3"},{"bufferView":1,"componentType":5126,"count":285,"type":"VEC3"},{"bufferView":2,"componentType":5126,"count":285,"type":"VEC2"},{"bufferView":3,"componentType":5123,"count":285,"normalized":true,"type":"VEC4"},{"bufferView":4,"componentType":5123,"count":426,"type":"SCALAR"},{"bufferView":5,"componentType":5126,"count":210,"max":[-0.9499995708465576,0.5,0.5773504376411438],"min":[-1.0499995946884155,0.3999997675418854,-0.5773505568504333],"type":"VEC3"},{"bufferView":6,"componentType":5126,"count":210,"type":"VEC3"},{"bufferView":7,"componentType":5126,"count":210,"type":"VEC2"},{"bufferView":8,"componentType":5123,"count":210,"normalized":true,"type":"VEC4"},{"bufferView":9,"componentType":5123,"count":210,"type":"SCALAR"}],"bufferViews":[{"buffer":0,"byteLength":3420,"byteOffset":0,"target":34962},{"buffer":0,"byteLength":3420,"byteOffset":3420,"target":34962},{"buffer":0,"byteLength":2280,"byteOffset":6840,"target":34962},{"buffer":0,"byteLength":2280,"byteOffset":9120,"target":34962},{"buffer":0,"byteLength":852,"byteOffset":11400,"target":34963},{"buffer":0,"byteLength":2520,"byteOffset":12252,"target":34962},{"buffer":0,"byteLength":2520,"byteOffset":14772,"target":34962},{"buffer":0,"byteLength":1680,"byteOffset":17292,"target":34962},{"buffer":0,"byteLength":1680,"byteOffset":18972,"target":34962},{"buffer":0,"byteLength":420,"byteOffset":20652,"target":34963}],"samplers":[{"magFilter":9729,"minFilter":9987}],"buffers":[{"byteLength":21072,"uri":"fence_wood_straight.bin"}]}