{"asset":{"generator":"Khronos glTF Blender I/O v5.2.40","version":"2.0"},"scene":0,"scenes":[{"name":"Scene","nodes":[0]}],"nodes":[{"mesh":0,"name":"flag_red"}],"materials":[{"doubleSided":true,"name":"roof_tiles","pbrMetallicRoughness":{"baseColorTexture":{"index":0},"metallicFactor":0.0,"roughnessFactor":1.0}},{"doubleSided":true,"name":"wood","pbrMetallicRoughness":{"baseColorTexture":{"index":1},"metallicFactor":0.0,"roughnessFactor":1.0}}],"meshes":[{"name":"flag_red","primitives":[{"attributes":{"POSITION":0,"NORMAL":1,"TEXCOORD_0":2,"COLOR_0":3},"indices":4,"material":0},{"attributes":{"POSITION":5,"NORMAL":6,"TEXCOORD_0":7,"COLOR_0":8},"indices":9,"material":1}]}],"textures":[{"sampler":0,"source":0},{"sampler":0,"source":1}],"images":[{"mimeType":"image/png","name":"roof_tiles.png","uri":"../../textures/roof_tiles.png"},{"mimeType":"image/png","name":"wood.png","uri":"../../textures/wood.png"}],"accessors":[{"bufferView":0,"componentType":5126,"count":106,"max":[0.027875661849975586,0.27747058868408203,0.02191011607646942],"min":[-0.027133483439683914,0,-0.24206775426864624],"type":"VEC3"},{"bufferView":1,"componentType":5126,"count":106,"type":"VEC3"},{"bufferView":2,"componentType":5126,"count":106,"type":"VEC2"},{"bufferView":3,"componentType":5123,"count":106,"normalized":true,"type":"VEC4"},{"bufferView":4,"componentType":5123,"count":138,"type":"SCALAR"},{"bufferView":5,"componentType":5126,"count":4,"max":[0.017994308844208717,0.27747058868408203,0.017994306981563568],"min":[-0.017994312569499016,0.27747058868408203,-0.017994310706853867],"type":"VEC3"},{"bufferView":6,"componentType":5126,"count":4,"type":"VEC3"},{"bufferView":7,"componentType":5126,"count":4,"type":"VEC2"},{"bufferView":8,"componentType":5123,"count":4,"normalized":true,"type":"VEC4"},{"bufferView":9,"componentType":5123,"count":6,"type":"SCALAR"}],"bufferViews":[{"buffer":0,"byteLength":1272,"byteOffset":0,"target":34962},{"buffer":0,"byteLength":1272,"byteOffset":1272,"target":34962},{"buffer":0,"byteLength":848,"byteOffset":2544,"target":34962},{"buffer":0,"byteLength":848,"byteOffset":3392,"target":34962},{"buffer":0,"byteLength":276,"byteOffset":4240,"target":34963},{"buffer":0,"byteLength":48,"byteOffset":4516,"target":34962},{"buffer":0,"byteLength":48,"byteOffset":4564,"target":34962},{"buffer":0,"byteLength":32,"byteOffset":4612,"target":34962},{"buffer":0,"byteLength":32,"byteOffset":4644,"target":34962},{"buffer":0,"byteLength":12,"byteOffset":4676,"target":34963}],"samplers":[{"magFilter":9729,"minFilter":9987}],"buffers":[{"byteLength":4688,"uri":"flag_red.bin"}]}