{"asset":{"generator":"Khronos glTF Blender I/O v5.2.40","version":"2.0"},"scene":0,"scenes":[{"name":"Scene","nodes":[0]}],"nodes":[{"mesh":0,"name":"tent"}],"materials":[{"doubleSided":true,"name":"roof_tiles","pbrMetallicRoughness":{"baseColorTexture":{"index":0},"metallicFactor":0.0,"roughnessFactor":1.0}},{"doubleSided":true,"name":"flat_e0b885","pbrMetallicRoughness":{"baseColorFactor":[0.7516351938247681,0.48325350880622864,0.23727808892726898,1],"metallicFactor":0.0,"roughnessFactor":1.0}},{"doubleSided":true,"name":"flat_d6ad84","pbrMetallicRoughness":{"baseColorFactor":[0.6726041436195374,0.4207005202770233,0.23193088173866272,1],"metallicFactor":0.0,"roughnessFactor":1.0}},{"doubleSided":true,"name":"flat_d4a26f","pbrMetallicRoughness":{"baseColorFactor":[0.6648367047309875,0.3627910912036896,0.16019588708877563,1],"metallicFactor":0.0,"roughnessFactor":1.0}}],"meshes":[{"name":"tent","primitives":[{"attributes":{"POSITION":0,"NORMAL":1,"TEXCOORD_0":2,"COLOR_0":3},"indices":4,"material":0},{"attributes":{"POSITION":5,"NORMAL":6,"TEXCOORD_0":7,"COLOR_0":8},"indices":9,"material":1},{"attributes":{"POSITION":10,"NORMAL":11,"TEXCOORD_0":12,"COLOR_0":13},"indices":14,"material":2},{"attributes":{"POSITION":15,"NORMAL":16,"TEXCOORD_0":17,"COLOR_0":18},"indices":19,"material":3}]}],"textures":[{"sampler":0,"source":0}],"images":[{"mimeType":"image/png","name":"roof_tiles.png","uri":"../../textures/roof_tiles.png"}],"accessors":[{"bufferView":0,"componentType":5126,"count":144,"max":[0.2451000213623047,0.3440000116825104,0.2451000213623047],"min":[-0.2451000213623047,0,-0.24510005116462708],"type":"VEC3"},{"bufferView":1,"componentType":5126,"count":144,"type":"VEC3"},{"bufferView":2,"componentType":5126,"count":144,"type":"VEC2"},{"bufferView":3,"componentType":5123,"count":144,"normalized":true,"type":"VEC4"},{"bufferView":4,"componentType":5123,"count":216,"type":"SCALAR"},{"bufferView":5,"componentType":5126,"count":24,"max":[0.2580000162124634,0.5160000324249268,0.2580000162124634],"min":[-0.2580000162124634,0.30400002002716064,-0.2580000162124634],"type":"VEC3"},{"bufferView":6,"componentType":5126,"count":24,"type":"VEC3"},{"bufferView":7,"componentType":5126,"count":24,"type":"VEC2"},{"bufferView":8,"componentType":5123,"count":24,"normalized":true,"type":"VEC4"},{"bufferView":9,"componentType":5123,"count":24,"type":"SCALAR"},{"bufferView":10,"componentType":5126,"count":12,"max":[0.2580000162124634,0.3440000116825104,0.2580000162124634],"min":[-0.2580000162124634,0.30400002002716064,-0.2580000162124634],"type":"VEC3"},{"bufferView":11,"componentType":5126,"count":12,"type":"VEC3"},{"bufferView":12,"componentType":5126,"count":12,"type":"VEC2"},{"bufferView":13,"componentType":5123,"count":12,"normalized":true,"type":"VEC4"},{"bufferView":14,"componentType":5123,"count":12,"type":"SCALAR"},{"bufferView":15,"componentType":5126,"count":4,"max":[0.2580000162124634,0.30400002002716064,0.2580000162124634],"min":[-0.2580000162124634,0.30400002002716064,-0.2580000162124634],"type":"VEC3"},{"bufferView":16,"componentType":5126,"count":4,"type":"VEC3"},{"bufferView":17,"componentType":5126,"count":4,"type":"VEC2"},{"bufferView":18,"componentType":5123,"count":4,"normalized":true,"type":"VEC4"},{"bufferView":19,"componentType":5123,"count":6,"type":"SCALAR"}],"bufferViews":[{"buffer":0,"byteLength":1728,"byteOffset":0,"target":34962},{"buffer":0,"byteLength":1728,"byteOffset":1728,"target":34962},{"buffer":0,"byteLength":1152,"byteOffset":3456,"target":34962},{"buffer":0,"byteLength":1152,"byteOffset":4608,"target":34962},{"buffer":0,"byteLength":432,"byteOffset":5760,"target":34963},{"buffer":0,"byteLength":288,"byteOffset":6192,"target":34962},{"buffer":0,"byteLength":288,"byteOffset":6480,"target":34962},{"buffer":0,"byteLength":192,"byteOffset":6768,"target":34962},{"buffer":0,"byteLength":192,"byteOffset":6960,"target":34962},{"buffer":0,"byteLength":48,"byteOffset":7152,"target":34963},{"buffer":0,"byteLength":144,"byteOffset":7200,"target":34962},{"buffer":0,"byteLength":144,"byteOffset":7344,"target":34962},{"buffer":0,"byteLength":96,"byteOffset":7488,"target":34962},{"buffer":0,"byteLength":96,"byteOffset":7584,"target":34962},{"buffer":0,"byteLength":24,"byteOffset":7680,"target":34963},{"buffer":0,"byteLength":48,"byteOffset":7704,"target":34962},{"buffer":0,"byteLength":48,"byteOffset":7752,"target":34962},{"buffer":0,"byteLength":32,"byteOffset":7800,"target":34962},{"buffer":0,"byteLength":32,"byteOffset":7832,"target":34962},{"buffer":0,"byteLength":12,"byteOffset":7864,"target":34963}],"samplers":[{"magFilter":9729,"minFilter":9987}],"buffers":[{"byteLength":7876,"uri":"tent.bin"}]}