{"asset":{"generator":"Khronos glTF Blender I/O v5.2.40","version":"2.0"},"scene":0,"scenes":[{"name":"Scene","nodes":[0]}],"nodes":[{"mesh":0,"name":"wall_corner_A_outside"}],"materials":[{"doubleSided":true,"name":"stone_wall","pbrMetallicRoughness":{"baseColorTexture":{"index":0},"metallicFactor":0.0,"roughnessFactor":1.0}},{"doubleSided":true,"name":"roof_tiles","pbrMetallicRoughness":{"baseColorTexture":{"index":1},"metallicFactor":0.0,"roughnessFactor":1.0}},{"doubleSided":true,"name":"wood","pbrMetallicRoughness":{"baseColorTexture":{"index":2},"metallicFactor":0.0,"roughnessFactor":1.0}},{"doubleSided":true,"name":"plaster","pbrMetallicRoughness":{"baseColorTexture":{"index":3},"metallicFactor":0.0,"roughnessFactor":1.0}}],"meshes":[{"name":"wall_corner_A_outside","primitives":[{"attributes":{"POSITION":0,"NORMAL":1,"TEXCOORD_0":2,"COLOR_0":3},"indices":4,"material":0},{"attributes":{"POSITION":5,"NORMAL":6,"TEXCOORD_0":7,"COLOR_0":8},"indices":9,"material":1},{"attributes":{"POSITION":10,"NORMAL":11,"TEXCOORD_0":12,"COLOR_0":13},"indices":14,"material":2},{"attributes":{"POSITION":15,"NORMAL":16,"TEXCOORD_0":17,"COLOR_0":18},"indices":19,"material":3}]}],"textures":[{"sampler":0,"source":0},{"sampler":0,"source":1},{"sampler":0,"source":2},{"sampler":0,"source":3}],"images":[{"mimeType":"image/png","name":"stone_wall.png","uri":"../../textures/stone_wall.png"},{"mimeType":"image/png","name":"roof_tiles.png","uri":"../../textures/roof_tiles.png"},{"mimeType":"image/png","name":"wood.png","uri":"../../textures/wood.png"},{"mimeType":"image/png","name":"plaster.png","uri":"../../textures/plaster.png"}],"accessors":[{"bufferView":0,"componentType":5126,"count":832,"max":[0.7597976326942444,1.0999999046325684,0.3657190799713135],"min":[-1.000009536743164,0,-1.0160267353057861],"type":"VEC3"},{"bufferView":1,"componentType":5126,"count":832,"type":"VEC3"},{"bufferView":2,"componentType":5126,"count":832,"type":"VEC2"},{"bufferView":3,"componentType":5123,"count":832,"normalized":true,"type":"VEC4"},{"bufferView":4,"componentType":5123,"count":1038,"type":"SCALAR"},{"bufferView":5,"componentType":5126,"count":95,"max":[0.586595892906189,0.8999999761581421,-0.010487556457519531],"min":[-0.9999984502792358,0.6999999284744263,-1.0660254955291748],"type":"VEC3"},{"bufferView":6,"componentType":5126,"count":95,"type":"VEC3"},{"bufferView":7,"componentType":5126,"count":95,"type":"VEC2"},{"bufferView":8,"componentType":5123,"count":95,"normalized":true,"type":"VEC4"},{"bufferView":9,"componentType":5123,"count":144,"type":"SCALAR"},{"bufferView":10,"componentType":5126,"count":20,"max":[0.2401925027370453,0.8999999761581421,0.09999781847000122],"min":[-1.0000039339065552,0.8999999761581421,-1.0660254955291748],"type":"VEC3"},{"bufferView":11,"componentType":5126,"count":20,"type":"VEC3"},{"bufferView":12,"componentType":5126,"count":20,"type":"VEC2"},{"bufferView":13,"componentType":5123,"count":20,"normalized":true,"type":"VEC4"},{"bufferView":14,"componentType":5123,"count":48,"type":"SCALAR"},{"bufferView":15,"componentType":5126,"count":8,"max":[0.5858675241470337,1.0999999046325684,0.31134676933288574],"min":[-0.6818772554397583,1.0999999046325684,-0.5544328689575195],"type":"VEC3"},{"bufferView":16,"componentType":5126,"count":8,"type":"VEC3"},{"bufferView":17,"componentType":5126,"count":8,"type":"VEC2"},{"bufferView":18,"componentType":5123,"count":8,"normalized":true,"type":"VEC4"},{"bufferView":19,"componentType":5123,"count":12,"type":"SCALAR"}],"bufferViews":[{"buffer":0,"byteLength":9984,"byteOffset":0,"target":34962},{"buffer":0,"byteLength":9984,"byteOffset":9984,"target":34962},{"buffer":0,"byteLength":6656,"byteOffset":19968,"target":34962},{"buffer":0,"byteLength":6656,"byteOffset":26624,"target":34962},{"buffer":0,"byteLength":2076,"byteOffset":33280,"target":34963},{"buffer":0,"byteLength":1140,"byteOffset":35356,"target":34962},{"buffer":0,"byteLength":1140,"byteOffset":36496,"target":34962},{"buffer":0,"byteLength":760,"byteOffset":37636,"target":34962},{"buffer":0,"byteLength":760,"byteOffset":38396,"target":34962},{"buffer":0,"byteLength":288,"byteOffset":39156,"target":34963},{"buffer":0,"byteLength":240,"byteOffset":39444,"target":34962},{"buffer":0,"byteLength":240,"byteOffset":39684,"target":34962},{"buffer":0,"byteLength":160,"byteOffset":39924,"target":34962},{"buffer":0,"byteLength":160,"byteOffset":40084,"target":34962},{"buffer":0,"byteLength":96,"byteOffset":40244,"target":34963},{"buffer":0,"byteLength":96,"byteOffset":40340,"target":34962},{"buffer":0,"byteLength":96,"byteOffset":40436,"target":34962},{"buffer":0,"byteLength":64,"byteOffset":40532,"target":34962},{"buffer":0,"byteLength":64,"byteOffset":40596,"target":34962},{"buffer":0,"byteLength":24,"byteOffset":40660,"target":34963}],"samplers":[{"magFilter":9729,"minFilter":9987}],"buffers":[{"byteLength":40684,"uri":"wall_corner_A_outside.bin"}]}