{"asset":{"generator":"Khronos glTF Blender I/O v5.2.40","version":"2.0"},"scene":0,"scenes":[{"name":"Scene","nodes":[2]}],"nodes":[{"mesh":0,"name":"wall_straight_gate_door_left","translation":[0.45000743865966797,0,0]},{"mesh":1,"name":"wall_straight_gate_door_right","translation":[-0.44999217987060547,0,0]},{"children":[0,1],"mesh":2,"name":"wall_straight_gate"}],"materials":[{"doubleSided":true,"name":"roof_tiles","pbrMetallicRoughness":{"baseColorTexture":{"index":0},"metallicFactor":0.0,"roughnessFactor":1.0}},{"doubleSided":true,"name":"stone_wall","pbrMetallicRoughness":{"baseColorTexture":{"index":1},"metallicFactor":0.0,"roughnessFactor":1.0}},{"doubleSided":true,"name":"wood","pbrMetallicRoughness":{"baseColorTexture":{"index":2},"metallicFactor":0.0,"roughnessFactor":1.0}},{"doubleSided":true,"name":"plaster","pbrMetallicRoughness":{"baseColorTexture":{"index":3},"metallicFactor":0.0,"roughnessFactor":1.0}}],"meshes":[{"name":"wall_straight_gate_door_left","primitives":[{"attributes":{"POSITION":0,"NORMAL":1,"TEXCOORD_0":2,"COLOR_0":3},"indices":4,"material":0},{"attributes":{"POSITION":5,"NORMAL":6,"TEXCOORD_0":7,"COLOR_0":8},"indices":9,"material":1},{"attributes":{"POSITION":10,"NORMAL":11,"TEXCOORD_0":12,"COLOR_0":13},"indices":14,"material":2}]},{"name":"wall_straight_gate_door_right","primitives":[{"attributes":{"POSITION":15,"NORMAL":16,"TEXCOORD_0":17,"COLOR_0":18},"indices":19,"material":0},{"attributes":{"POSITION":20,"NORMAL":21,"TEXCOORD_0":22,"COLOR_0":23},"indices":24,"material":1},{"attributes":{"POSITION":25,"NORMAL":26,"TEXCOORD_0":27,"COLOR_0":28},"indices":29,"material":2}]},{"name":"wall_straight_gate","primitives":[{"attributes":{"POSITION":30,"NORMAL":31,"TEXCOORD_0":32,"COLOR_0":33},"indices":34,"material":1},{"attributes":{"POSITION":35,"NORMAL":36,"TEXCOORD_0":37,"COLOR_0":38},"indices":39,"material":2},{"attributes":{"POSITION":40,"NORMAL":41,"TEXCOORD_0":42,"COLOR_0":43},"indices":44,"material":0},{"attributes":{"POSITION":45,"NORMAL":46,"TEXCOORD_0":47,"COLOR_0":48},"indices":49,"material":3}]}],"textures":[{"sampler":0,"source":0},{"sampler":0,"source":1},{"sampler":0,"source":2},{"sampler":0,"source":3}],"images":[{"mimeType":"image/png","name":"roof_tiles.png","uri":"../../textures/roof_tiles.png"},{"mimeType":"image/png","name":"stone_wall.png","uri":"../../textures/stone_wall.png"},{"mimeType":"image/png","name":"wood.png","uri":"../../textures/wood.png"},{"mimeType":"image/png","name":"plaster.png","uri":"../../textures/plaster.png"}],"accessors":[{"bufferView":0,"componentType":5126,"count":272,"max":[0,0.8114722371101379,0.04999999701976776],"min":[-0.44999992847442627,0.020000005140900612,-0.04999999701976776],"type":"VEC3"},{"bufferView":1,"componentType":5126,"count":272,"type":"VEC3"},{"bufferView":2,"componentType":5126,"count":272,"type":"VEC2"},{"bufferView":3,"componentType":5123,"count":272,"normalized":true,"type":"VEC4"},{"bufferView":4,"componentType":5123,"count":324,"type":"SCALAR"},{"bufferView":5,"componentType":5126,"count":306,"max":[-0.03999154269695282,0.5613189339637756,0.0889848917722702],"min":[-0.40000849962234497,0.16356155276298523,-0.0889848917722702],"type":"VEC3"},{"bufferView":6,"componentType":5126,"count":306,"type":"VEC3"},{"bufferView":7,"componentType":5126,"count":306,"type":"VEC2"},{"bufferView":8,"componentType":5123,"count":306,"normalized":true,"type":"VEC4"},{"bufferView":9,"componentType":5123,"count":372,"type":"SCALAR"},{"bufferView":10,"componentType":5126,"count":24,"max":[-0.07009117305278778,0.8103472590446472,0.04999999701976776],"min":[-0.384387344121933,0.7628488540649414,-0.04999999701976776],"type":"VEC3"},{"bufferView":11,"componentType":5126,"count":24,"type":"VEC3"},{"bufferView":12,"componentType":5126,"count":24,"type":"VEC2"},{"bufferView":13,"componentType":5123,"count":24,"normalized":true,"type":"VEC4"},{"bufferView":14,"componentType":5123,"count":24,"type":"SCALAR"},{"bufferView":15,"componentType":5126,"count":272,"max":[0.44999992847442627,0.8114722371101379,0.04999999701976776],"min":[0,0.020000005140900612,-0.04999999701976776],"type":"VEC3"},{"bufferView":16,"componentType":5126,"count":272,"type":"VEC3"},{"bufferView":17,"componentType":5126,"count":272,"type":"VEC2"},{"bufferView":18,"componentType":5123,"count":272,"normalized":true,"type":"VEC4"},{"bufferView":19,"componentType":5123,"count":324,"type":"SCALAR"},{"bufferView":20,"componentType":5126,"count":310,"max":[0.40000849962234497,0.5613189339637756,0.0889848917722702],"min":[0.03999154269695282,0.16356155276298523,-0.0889848917722702],"type":"VEC3"},{"bufferView":21,"componentType":5126,"count":310,"type":"VEC3"},{"bufferView":22,"componentType":5126,"count":310,"type":"VEC2"},{"bufferView":23,"componentType":5123,"count":310,"normalized":true,"type":"VEC4"},{"bufferView":24,"componentType":5123,"count":372,"type":"SCALAR"},{"bufferView":25,"componentType":5126,"count":24,"max":[0.384387344121933,0.8103472590446472,0.04999999701976776],"min":[0.07009117305278778,0.7628488540649414,-0.04999999701976776],"type":"VEC3"},{"bufferView":26,"componentType":5126,"count":24,"type":"VEC3"},{"bufferView":27,"componentType":5126,"count":24,"type":"VEC2"},{"bufferView":28,"componentType":5123,"count":24,"normalized":true,"type":"VEC4"},{"bufferView":29,"componentType":5123,"count":24,"type":"SCALAR"},{"bufferView":30,"componentType":5126,"count":451,"max":[1,1.3640289306640625,0.49562400579452515],"min":[-1,-0.049999967217445374,-0.3999999761581421],"type":"VEC3"},{"bufferView":31,"componentType":5126,"count":451,"type":"VEC3"},{"bufferView":32,"componentType":5126,"count":451,"type":"VEC2"},{"bufferView":33,"componentType":5123,"count":451,"normalized":true,"type":"VEC4"},{"bufferView":34,"componentType":5123,"count":684,"type":"SCALAR"},{"bufferView":35,"componentType":5126,"count":47,"max":[1,1.100000023841858,-0.09999999403953552],"min":[-1,0.8999999761581421,-0.4000000059604645],"type":"VEC3"},{"bufferView":36,"componentType":5126,"count":47,"type":"VEC3"},{"bufferView":37,"componentType":5126,"count":47,"type":"VEC2"},{"bufferView":38,"componentType":5123,"count":47,"normalized":true,"type":"VEC4"},{"bufferView":39,"componentType":5123,"count":69,"type":"SCALAR"},{"bufferView":40,"componentType":5126,"count":139,"max":[1,1.100000023841858,0.10000000894069672],"min":[-1,0.019999999552965164,-0.4000000059604645],"type":"VEC3"},{"bufferView":41,"componentType":5126,"count":139,"type":"VEC3"},{"bufferView":42,"componentType":5126,"count":139,"type":"VEC2"},{"bufferView":43,"componentType":5123,"count":139,"normalized":true,"type":"VEC4"},{"bufferView":44,"componentType":5123,"count":207,"type":"SCALAR"},{"bufferView":45,"componentType":5126,"count":50,"max":[0.6666666269302368,1.3640289306640625,0.38347357511520386],"min":[-0.6666666865348816,1.0999999046325684,0.10000000149011612],"type":"VEC3"},{"bufferView":46,"componentType":5126,"count":50,"type":"VEC3"},{"bufferView":47,"componentType":5126,"count":50,"type":"VEC2"},{"bufferView":48,"componentType":5123,"count":50,"normalized":true,"type":"VEC4"},{"bufferView":49,"componentType":5123,"count":60,"type":"SCALAR"}],"bufferViews":[{"buffer":0,"byteLength":3264,"byteOffset":0,"target":34962},{"buffer":0,"byteLength":3264,"byteOffset":3264,"target":34962},{"buffer":0,"byteLength":2176,"byteOffset":6528,"target":34962},{"buffer":0,"byteLength":2176,"byteOffset":8704,"target":34962},{"buffer":0,"byteLength":648,"byteOffset":10880,"target":34963},{"buffer":0,"byteLength":3672,"byteOffset":11528,"target":34962},{"buffer":0,"byteLength":3672,"byteOffset":15200,"target":34962},{"buffer":0,"byteLength":2448,"byteOffset":18872,"target":34962},{"buffer":0,"byteLength":2448,"byteOffset":21320,"target":34962},{"buffer":0,"byteLength":744,"byteOffset":23768,"target":34963},{"buffer":0,"byteLength":288,"byteOffset":24512,"target":34962},{"buffer":0,"byteLength":288,"byteOffset":24800,"target":34962},{"buffer":0,"byteLength":192,"byteOffset":25088,"target":34962},{"buffer":0,"byteLength":192,"byteOffset":25280,"target":34962},{"buffer":0,"byteLength":48,"byteOffset":25472,"target":34963},{"buffer":0,"byteLength":3264,"byteOffset":25520,"target":34962},{"buffer":0,"byteLength":3264,"byteOffset":28784,"target":34962},{"buffer":0,"byteLength":2176,"byteOffset":32048,"target":34962},{"buffer":0,"byteLength":2176,"byteOffset":34224,"target":34962},{"buffer":0,"byteLength":648,"byteOffset":36400,"target":34963},{"buffer":0,"byteLength":3720,"byteOffset":37048,"target":34962},{"buffer":0,"byteLength":3720,"byteOffset":40768,"target":34962},{"buffer":0,"byteLength":2480,"byteOffset":44488,"target":34962},{"buffer":0,"byteLength":2480,"byteOffset":46968,"target":34962},{"buffer":0,"byteLength":744,"byteOffset":49448,"target":34963},{"buffer":0,"byteLength":288,"byteOffset":50192,"target":34962},{"buffer":0,"byteLength":288,"byteOffset":50480,"target":34962},{"buffer":0,"byteLength":192,"byteOffset":50768,"target":34962},{"buffer":0,"byteLength":192,"byteOffset":50960,"target":34962},{"buffer":0,"byteLength":48,"byteOffset":51152,"target":34963},{"buffer":0,"byteLength":5412,"byteOffset":51200,"target":34962},{"buffer":0,"byteLength":5412,"byteOffset":56612,"target":34962},{"buffer":0,"byteLength":3608,"byteOffset":62024,"target":34962},{"buffer":0,"byteLength":3608,"byteOffset":65632,"target":34962},{"buffer":0,"byteLength":1368,"byteOffset":69240,"target":34963},{"buffer":0,"byteLength":564,"byteOffset":70608,"target":34962},{"buffer":0,"byteLength":564,"byteOffset":71172,"target":34962},{"buffer":0,"byteLength":376,"byteOffset":71736,"target":34962},{"buffer":0,"byteLength":376,"byteOffset":72112,"target":34962},{"buffer":0,"byteLength":138,"byteOffset":72488,"target":34963},{"buffer":0,"byteLength":1668,"byteOffset":72628,"target":34962},{"buffer":0,"byteLength":1668,"byteOffset":74296,"target":34962},{"buffer":0,"byteLength":1112,"byteOffset":75964,"target":34962},{"buffer":0,"byteLength":1112,"byteOffset":77076,"target":34962},{"buffer":0,"byteLength":414,"byteOffset":78188,"target":34963},{"buffer":0,"byteLength":600,"byteOffset":78604,"target":34962},{"buffer":0,"byteLength":600,"byteOffset":79204,"target":34962},{"buffer":0,"byteLength":400,"byteOffset":79804,"target":34962},{"buffer":0,"byteLength":400,"byteOffset":80204,"target":34962},{"buffer":0,"byteLength":120,"byteOffset":80604,"target":34963}],"samplers":[{"magFilter":9729,"minFilter":9987}],"buffers":[{"byteLength":80724,"uri":"wall_straight_gate.bin"}]}