{"asset":{"generator":"Khronos glTF Blender I/O v5.2.40","version":"2.0"},"scene":0,"scenes":[{"name":"Scene","nodes":[0]}],"nodes":[{"mesh":0,"name":"wall_straight"}],"materials":[{"doubleSided":true,"name":"wood","pbrMetallicRoughness":{"baseColorTexture":{"index":0},"metallicFactor":0.0,"roughnessFactor":1.0}},{"doubleSided":true,"name":"stone_wall","pbrMetallicRoughness":{"baseColorTexture":{"index":1},"metallicFactor":0.0,"roughnessFactor":1.0}},{"doubleSided":true,"name":"roof_tiles","pbrMetallicRoughness":{"baseColorTexture":{"index":2},"metallicFactor":0.0,"roughnessFactor":1.0}},{"doubleSided":true,"name":"plaster","pbrMetallicRoughness":{"baseColorTexture":{"index":3},"metallicFactor":0.0,"roughnessFactor":1.0}}],"meshes":[{"name":"wall_straight","primitives":[{"attributes":{"POSITION":0,"NORMAL":1,"TEXCOORD_0":2,"COLOR_0":3},"indices":4,"material":0},{"attributes":{"POSITION":5,"NORMAL":6,"TEXCOORD_0":7,"COLOR_0":8},"indices":9,"material":1},{"attributes":{"POSITION":10,"NORMAL":11,"TEXCOORD_0":12,"COLOR_0":13},"indices":14,"material":2},{"attributes":{"POSITION":15,"NORMAL":16,"TEXCOORD_0":17,"COLOR_0":18},"indices":19,"material":3}]}],"textures":[{"sampler":0,"source":0},{"sampler":0,"source":1},{"sampler":0,"source":2},{"sampler":0,"source":3}],"images":[{"mimeType":"image/png","name":"wood.png","uri":"../../textures/wood.png"},{"mimeType":"image/png","name":"stone_wall.png","uri":"../../textures/stone_wall.png"},{"mimeType":"image/png","name":"roof_tiles.png","uri":"../../textures/roof_tiles.png"},{"mimeType":"image/png","name":"plaster.png","uri":"../../textures/plaster.png"}],"accessors":[{"bufferView":0,"componentType":5126,"count":20,"max":[1,0.8999999761581421,-0.09999999403953552],"min":[-1,0.8999999761581421,-0.4000000059604645],"type":"VEC3"},{"bufferView":1,"componentType":5126,"count":20,"type":"VEC3"},{"bufferView":2,"componentType":5126,"count":20,"type":"VEC2"},{"bufferView":3,"componentType":5123,"count":20,"normalized":true,"type":"VEC4"},{"bufferView":4,"componentType":5123,"count":48,"type":"SCALAR"},{"bufferView":5,"componentType":5126,"count":856,"max":[1,1.0999999046325684,0.4000000059604645],"min":[-1,0,-0.30000001192092896],"type":"VEC3"},{"bufferView":6,"componentType":5126,"count":856,"type":"VEC3"},{"bufferView":7,"componentType":5126,"count":856,"type":"VEC2"},{"bufferView":8,"componentType":5123,"count":856,"normalized":true,"type":"VEC4"},{"bufferView":9,"componentType":5123,"count":1308,"type":"SCALAR"},{"bufferView":10,"componentType":5126,"count":63,"max":[1,0.8999999761581421,0.10000000894069672],"min":[-1,0.699999988079071,-0.4000000059604645],"type":"VEC3"},{"bufferView":11,"componentType":5126,"count":63,"type":"VEC3"},{"bufferView":12,"componentType":5126,"count":63,"type":"VEC2"},{"bufferView":13,"componentType":5123,"count":63,"normalized":true,"type":"VEC4"},{"bufferView":14,"componentType":5123,"count":144,"type":"SCALAR"},{"bufferView":15,"componentType":5126,"count":8,"max":[0.6666666269302368,1.0999999046325684,0.3446557819843292],"min":[-0.6666666865348816,1.0999999046325684,0.10000000894069672],"type":"VEC3"},{"bufferView":16,"componentType":5126,"count":8,"type":"VEC3"},{"bufferView":17,"componentType":5126,"count":8,"type":"VEC2"},{"bufferView":18,"componentType":5123,"count":8,"normalized":true,"type":"VEC4"},{"bufferView":19,"componentType":5123,"count":12,"type":"SCALAR"}],"bufferViews":[{"buffer":0,"byteLength":240,"byteOffset":0,"target":34962},{"buffer":0,"byteLength":240,"byteOffset":240,"target":34962},{"buffer":0,"byteLength":160,"byteOffset":480,"target":34962},{"buffer":0,"byteLength":160,"byteOffset":640,"target":34962},{"buffer":0,"byteLength":96,"byteOffset":800,"target":34963},{"buffer":0,"byteLength":10272,"byteOffset":896,"target":34962},{"buffer":0,"byteLength":10272,"byteOffset":11168,"target":34962},{"buffer":0,"byteLength":6848,"byteOffset":21440,"target":34962},{"buffer":0,"byteLength":6848,"byteOffset":28288,"target":34962},{"buffer":0,"byteLength":2616,"byteOffset":35136,"target":34963},{"buffer":0,"byteLength":756,"byteOffset":37752,"target":34962},{"buffer":0,"byteLength":756,"byteOffset":38508,"target":34962},{"buffer":0,"byteLength":504,"byteOffset":39264,"target":34962},{"buffer":0,"byteLength":504,"byteOffset":39768,"target":34962},{"buffer":0,"byteLength":288,"byteOffset":40272,"target":34963},{"buffer":0,"byteLength":96,"byteOffset":40560,"target":34962},{"buffer":0,"byteLength":96,"byteOffset":40656,"target":34962},{"buffer":0,"byteLength":64,"byteOffset":40752,"target":34962},{"buffer":0,"byteLength":64,"byteOffset":40816,"target":34962},{"buffer":0,"byteLength":24,"byteOffset":40880,"target":34963}],"samplers":[{"magFilter":9729,"minFilter":9987}],"buffers":[{"byteLength":40904,"uri":"wall_straight.bin"}]}