{"asset":{"generator":"Khronos glTF Blender I/O v5.2.40","version":"2.0"},"scene":0,"scenes":[{"name":"Scene","nodes":[0]}],"nodes":[{"mesh":0,"name":"wheelbarrow"}],"materials":[{"doubleSided":true,"name":"roof_tiles","pbrMetallicRoughness":{"baseColorTexture":{"index":0},"metallicFactor":0.0,"roughnessFactor":1.0}},{"doubleSided":true,"name":"stone_wall","pbrMetallicRoughness":{"baseColorTexture":{"index":1},"metallicFactor":0.0,"roughnessFactor":1.0}}],"meshes":[{"name":"wheelbarrow","primitives":[{"attributes":{"POSITION":0,"NORMAL":1,"TEXCOORD_0":2,"COLOR_0":3},"indices":4,"material":0},{"attributes":{"POSITION":5,"NORMAL":6,"TEXCOORD_0":7,"COLOR_0":8},"indices":9,"material":1}]}],"textures":[{"sampler":0,"source":0},{"sampler":0,"source":1}],"images":[{"mimeType":"image/png","name":"roof_tiles.png","uri":"../../textures/roof_tiles.png"},{"mimeType":"image/png","name":"stone_wall.png","uri":"../../textures/stone_wall.png"}],"accessors":[{"bufferView":0,"componentType":5126,"count":462,"max":[0.11900032311677933,0.18841521441936493,0.24562859535217285],"min":[-0.11899968236684799,-2.9802322387695312e-08,-0.2128005474805832],"type":"VEC3"},{"bufferView":1,"componentType":5126,"count":462,"type":"VEC3"},{"bufferView":2,"componentType":5126,"count":462,"type":"VEC2"},{"bufferView":3,"componentType":5123,"count":462,"normalized":true,"type":"VEC4"},{"bufferView":4,"componentType":5123,"count":612,"type":"SCALAR"},{"bufferView":5,"componentType":5126,"count":439,"max":[0.08741740137338638,0.1400156170129776,0.2928791046142578],"min":[-0.0874381884932518,1.5616416931152344e-05,0.15287911891937256],"type":"VEC3"},{"bufferView":6,"componentType":5126,"count":439,"type":"VEC3"},{"bufferView":7,"componentType":5126,"count":439,"type":"VEC2"},{"bufferView":8,"componentType":5123,"count":439,"normalized":true,"type":"VEC4"},{"bufferView":9,"componentType":5123,"count":576,"type":"SCALAR"}],"bufferViews":[{"buffer":0,"byteLength":5544,"byteOffset":0,"target":34962},{"buffer":0,"byteLength":5544,"byteOffset":5544,"target":34962},{"buffer":0,"byteLength":3696,"byteOffset":11088,"target":34962},{"buffer":0,"byteLength":3696,"byteOffset":14784,"target":34962},{"buffer":0,"byteLength":1224,"byteOffset":18480,"target":34963},{"buffer":0,"byteLength":5268,"byteOffset":19704,"target":34962},{"buffer":0,"byteLength":5268,"byteOffset":24972,"target":34962},{"buffer":0,"byteLength":3512,"byteOffset":30240,"target":34962},{"buffer":0,"byteLength":3512,"byteOffset":33752,"target":34962},{"buffer":0,"byteLength":1152,"byteOffset":37264,"target":34963}],"samplers":[{"magFilter":9729,"minFilter":9987}],"buffers":[{"byteLength":38416,"uri":"wheelbarrow.bin"}]}