{"asset":{"generator":"Khronos glTF Blender I/O v5.2.40","version":"2.0"},"scene":0,"scenes":[{"name":"Scene","nodes":[0]}],"nodes":[{"mesh":0,"name":"boulder"}],"materials":[{"doubleSided":true,"name":"cliff_rock","pbrMetallicRoughness":{"baseColorTexture":{"index":0},"metallicFactor":0.0,"roughnessFactor":1.0}}],"meshes":[{"name":"Icosphere","primitives":[{"attributes":{"POSITION":0,"NORMAL":1,"TEXCOORD_0":2,"COLOR_0":3},"indices":4,"material":0}]}],"textures":[{"sampler":0,"source":0}],"images":[{"mimeType":"image/png","name":"cliff_rock.png","uri":"../textures/cliff_rock.png"}],"accessors":[{"bufferView":0,"componentType":5126,"count":76,"max":[0.7191585302352905,0.41923922300338745,0.5010106563568115],"min":[-0.695342481136322,-0.06187500059604645,-0.4839821457862854],"type":"VEC3"},{"bufferView":1,"componentType":5126,"count":76,"type":"VEC3"},{"bufferView":2,"componentType":5126,"count":76,"type":"VEC2"},{"bufferView":3,"componentType":5123,"count":76,"normalized":true,"type":"VEC4"},{"bufferView":4,"componentType":5123,"count":240,"type":"SCALAR"}],"bufferViews":[{"buffer":0,"byteLength":912,"byteOffset":0,"target":34962},{"buffer":0,"byteLength":912,"byteOffset":912,"target":34962},{"buffer":0,"byteLength":608,"byteOffset":1824,"target":34962},{"buffer":0,"byteLength":608,"byteOffset":2432,"target":34962},{"buffer":0,"byteLength":480,"byteOffset":3040,"target":34963}],"samplers":[{"magFilter":9729,"minFilter":9987}],"buffers":[{"byteLength":3520,"uri":"boulder.bin"}]}