{"asset":{"generator":"Khronos glTF Blender I/O v5.2.40","version":"2.0"},"scene":0,"scenes":[{"name":"Scene","nodes":[0]}],"nodes":[{"mesh":0,"name":"boulder_large"}],"materials":[{"doubleSided":true,"name":"cliff_rock","pbrMetallicRoughness":{"baseColorTexture":{"index":0},"metallicFactor":0.0,"roughnessFactor":1.0}}],"meshes":[{"name":"Icosphere","primitives":[{"attributes":{"POSITION":0,"NORMAL":1,"TEXCOORD_0":2,"COLOR_0":3},"indices":4,"material":0}]}],"textures":[{"sampler":0,"source":0}],"images":[{"mimeType":"image/png","name":"cliff_rock.png","uri":"../textures/cliff_rock.png"}],"accessors":[{"bufferView":0,"componentType":5126,"count":266,"max":[1.851593255996704,1.2342112064361572,1.3554425239562988],"min":[-1.7616338729858398,-0.16574999690055847,-1.3850804567337036],"type":"VEC3"},{"bufferView":1,"componentType":5126,"count":266,"type":"VEC3"},{"bufferView":2,"componentType":5126,"count":266,"type":"VEC2"},{"bufferView":3,"componentType":5123,"count":266,"normalized":true,"type":"VEC4"},{"bufferView":4,"componentType":5123,"count":960,"type":"SCALAR"}],"bufferViews":[{"buffer":0,"byteLength":3192,"byteOffset":0,"target":34962},{"buffer":0,"byteLength":3192,"byteOffset":3192,"target":34962},{"buffer":0,"byteLength":2128,"byteOffset":6384,"target":34962},{"buffer":0,"byteLength":2128,"byteOffset":8512,"target":34962},{"buffer":0,"byteLength":1920,"byteOffset":10640,"target":34963}],"samplers":[{"magFilter":9729,"minFilter":9987}],"buffers":[{"byteLength":12560,"uri":"boulder_large.bin"}]}