{"asset":{"generator":"Khronos glTF Blender I/O v5.2.40","version":"2.0"},"scene":0,"scenes":[{"name":"Scene","nodes":[0]}],"nodes":[{"mesh":0,"name":"cliff_block"}],"materials":[{"doubleSided":true,"name":"cliff_rock","pbrMetallicRoughness":{"baseColorTexture":{"index":0},"metallicFactor":0.0,"roughnessFactor":1.0}}],"meshes":[{"name":"Cube","primitives":[{"attributes":{"POSITION":0,"NORMAL":1,"TEXCOORD_0":2,"COLOR_0":3},"indices":4,"material":0}]}],"textures":[{"sampler":0,"source":0}],"images":[{"mimeType":"image/png","name":"cliff_rock.png","uri":"../textures/cliff_rock.png"}],"accessors":[{"bufferView":0,"componentType":5126,"count":345,"max":[2.169412136077881,3.0941617488861084,1.400200366973877],"min":[-2.1461777687072754,0,-1.401598572731018],"type":"VEC3"},{"bufferView":1,"componentType":5126,"count":345,"type":"VEC3"},{"bufferView":2,"componentType":5126,"count":345,"type":"VEC2"},{"bufferView":3,"componentType":5123,"count":345,"normalized":true,"type":"VEC4"},{"bufferView":4,"componentType":5123,"count":576,"type":"SCALAR"}],"bufferViews":[{"buffer":0,"byteLength":4140,"byteOffset":0,"target":34962},{"buffer":0,"byteLength":4140,"byteOffset":4140,"target":34962},{"buffer":0,"byteLength":2760,"byteOffset":8280,"target":34962},{"buffer":0,"byteLength":2760,"byteOffset":11040,"target":34962},{"buffer":0,"byteLength":1152,"byteOffset":13800,"target":34963}],"samplers":[{"magFilter":9729,"minFilter":9987}],"buffers":[{"byteLength":14952,"uri":"cliff_block.bin"}]}