{"asset":{"generator":"Khronos glTF Blender I/O v5.2.40","version":"2.0"},"scene":0,"scenes":[{"name":"Scene","nodes":[0]}],"nodes":[{"mesh":0,"name":"fence_wood","translation":[-0.949999988079071,0.41999998688697815,0]}],"materials":[{"doubleSided":true,"name":"wood","pbrMetallicRoughness":{"baseColorTexture":{"index":0},"metallicFactor":0.0,"roughnessFactor":1.0}}],"meshes":[{"name":"Cylinder","primitives":[{"attributes":{"POSITION":0,"NORMAL":1,"TEXCOORD_0":2,"COLOR_0":3},"indices":4,"material":0}]}],"textures":[{"sampler":0,"source":0}],"images":[{"mimeType":"image/png","name":"wood.png","uri":"../textures/wood.png"}],"accessors":[{"bufferView":0,"componentType":5126,"count":144,"max":[1.9700000286102295,0.42500001192092896,0.07000000029802322],"min":[-0.07000000029802322,-0.42500001192092896,-0.07000000029802322],"type":"VEC3"},{"bufferView":1,"componentType":5126,"count":144,"type":"VEC3"},{"bufferView":2,"componentType":5126,"count":144,"type":"VEC2"},{"bufferView":3,"componentType":5123,"count":144,"normalized":true,"type":"VEC4"},{"bufferView":4,"componentType":5123,"count":240,"type":"SCALAR"}],"bufferViews":[{"buffer":0,"byteLength":1728,"byteOffset":0,"target":34962},{"buffer":0,"byteLength":1728,"byteOffset":1728,"target":34962},{"buffer":0,"byteLength":1152,"byteOffset":3456,"target":34962},{"buffer":0,"byteLength":1152,"byteOffset":4608,"target":34962},{"buffer":0,"byteLength":480,"byteOffset":5760,"target":34963}],"samplers":[{"magFilter":9729,"minFilter":9987}],"buffers":[{"byteLength":6240,"uri":"fence_wood.bin"}]}