{"asset":{"generator":"Khronos glTF Blender I/O v5.2.40","version":"2.0"},"scene":0,"scenes":[{"name":"Scene","nodes":[0]}],"nodes":[{"mesh":0,"name":"shrub"}],"materials":[{"alphaMode":"MASK","doubleSided":true,"name":"leaves","pbrMetallicRoughness":{"baseColorTexture":{"index":0},"metallicFactor":0.0,"roughnessFactor":1.0},"alphaCutoff":0.5}],"meshes":[{"name":"shrub","primitives":[{"attributes":{"POSITION":0,"NORMAL":1,"TEXCOORD_0":2,"COLOR_0":3},"indices":4,"material":0}]}],"textures":[{"sampler":0,"source":0}],"images":[{"mimeType":"image/png","name":"leaves.png","uri":"../textures/leaves.png"}],"accessors":[{"bufferView":0,"componentType":5126,"count":16,"max":[0.8142049312591553,1.25,0.8142049312591553],"min":[-0.8142049312591553,0,-0.8142049312591553],"type":"VEC3"},{"bufferView":1,"componentType":5126,"count":16,"type":"VEC3"},{"bufferView":2,"componentType":5126,"count":16,"type":"VEC2"},{"bufferView":3,"componentType":5123,"count":16,"normalized":true,"type":"VEC4"},{"bufferView":4,"componentType":5123,"count":24,"type":"SCALAR"}],"bufferViews":[{"buffer":0,"byteLength":192,"byteOffset":0,"target":34962},{"buffer":0,"byteLength":192,"byteOffset":192,"target":34962},{"buffer":0,"byteLength":128,"byteOffset":384,"target":34962},{"buffer":0,"byteLength":128,"byteOffset":512,"target":34962},{"buffer":0,"byteLength":48,"byteOffset":640,"target":34963}],"samplers":[{"magFilter":9729,"minFilter":9987}],"buffers":[{"byteLength":688,"uri":"shrub.bin"}]}