{"asset":{"generator":"Khronos glTF Blender I/O v5.2.40","version":"2.0"},"scene":0,"scenes":[{"name":"Scene","nodes":[0]}],"nodes":[{"mesh":0,"name":"tree_broadleaf"}],"materials":[{"doubleSided":true,"name":"bark","pbrMetallicRoughness":{"baseColorTexture":{"index":0},"metallicFactor":0.0,"roughnessFactor":1.0}},{"alphaMode":"MASK","doubleSided":true,"name":"leaf_bright","pbrMetallicRoughness":{"baseColorTexture":{"index":1},"metallicFactor":0.0,"roughnessFactor":1.0},"alphaCutoff":0.5}],"meshes":[{"name":"tree_broadleaf","primitives":[{"attributes":{"POSITION":0,"NORMAL":1,"TEXCOORD_0":2,"COLOR_0":3},"indices":4,"material":0},{"attributes":{"POSITION":5,"NORMAL":6,"TEXCOORD_0":7,"COLOR_0":8},"indices":9,"material":1}]}],"textures":[{"sampler":0,"source":0},{"sampler":0,"source":1}],"images":[{"mimeType":"image/png","name":"bark.png","uri":"../textures/bark.png"},{"mimeType":"image/png","name":"leaf_bright.png","uri":"../textures/leaf_bright.png"}],"accessors":[{"bufferView":0,"componentType":5126,"count":152,"max":[0.36000001430511475,2.6000001430511475,0.36000001430511475],"min":[-0.36000001430511475,0,-0.36000001430511475],"type":"VEC3"},{"bufferView":1,"componentType":5126,"count":152,"type":"VEC3"},{"bufferView":2,"componentType":5126,"count":152,"type":"VEC2"},{"bufferView":3,"componentType":5123,"count":152,"normalized":true,"type":"VEC4"},{"bufferView":4,"componentType":5123,"count":216,"type":"SCALAR"},{"bufferView":5,"componentType":5126,"count":28,"max":[2.1967668533325195,5.079563617706299,2.096766948699951],"min":[-1.9967668056488037,1.9204363822937012,-2.096766948699951],"type":"VEC3"},{"bufferView":6,"componentType":5126,"count":28,"type":"VEC3"},{"bufferView":7,"componentType":5126,"count":28,"type":"VEC2"},{"bufferView":8,"componentType":5123,"count":28,"normalized":true,"type":"VEC4"},{"bufferView":9,"componentType":5123,"count":42,"type":"SCALAR"}],"bufferViews":[{"buffer":0,"byteLength":1824,"byteOffset":0,"target":34962},{"buffer":0,"byteLength":1824,"byteOffset":1824,"target":34962},{"buffer":0,"byteLength":1216,"byteOffset":3648,"target":34962},{"buffer":0,"byteLength":1216,"byteOffset":4864,"target":34962},{"buffer":0,"byteLength":432,"byteOffset":6080,"target":34963},{"buffer":0,"byteLength":336,"byteOffset":6512,"target":34962},{"buffer":0,"byteLength":336,"byteOffset":6848,"target":34962},{"buffer":0,"byteLength":224,"byteOffset":7184,"target":34962},{"buffer":0,"byteLength":224,"byteOffset":7408,"target":34962},{"buffer":0,"byteLength":84,"byteOffset":7632,"target":34963}],"samplers":[{"magFilter":9729,"minFilter":9987}],"buffers":[{"byteLength":7716,"uri":"tree_broadleaf.bin"}]}