{"asset":{"generator":"Khronos glTF Blender I/O v5.2.40","version":"2.0"},"scene":0,"scenes":[{"name":"Scene","nodes":[0]}],"nodes":[{"mesh":0,"name":"tree_conifer"}],"materials":[{"doubleSided":true,"name":"bark","pbrMetallicRoughness":{"baseColorTexture":{"index":0},"metallicFactor":0.0,"roughnessFactor":1.0}},{"alphaMode":"MASK","doubleSided":true,"name":"pine_tier","pbrMetallicRoughness":{"baseColorTexture":{"index":1},"metallicFactor":0.0,"roughnessFactor":1.0},"alphaCutoff":0.5}],"meshes":[{"name":"tree_conifer","primitives":[{"attributes":{"POSITION":0,"NORMAL":1,"TEXCOORD_0":2,"COLOR_0":3},"indices":4,"material":0},{"attributes":{"POSITION":5,"NORMAL":6,"TEXCOORD_0":7,"COLOR_0":8},"indices":9,"material":1}]}],"textures":[{"sampler":0,"source":0},{"sampler":0,"source":1}],"images":[{"mimeType":"image/png","name":"bark.png","uri":"../textures/bark.png"},{"mimeType":"image/png","name":"pine_tier.png","uri":"../textures/pine_tier.png"}],"accessors":[{"bufferView":0,"componentType":5126,"count":184,"max":[0.30799999833106995,5.200000286102295,0.30799999833106995],"min":[-0.30799999833106995,0,-0.30799999833106995],"type":"VEC3"},{"bufferView":1,"componentType":5126,"count":184,"type":"VEC3"},{"bufferView":2,"componentType":5126,"count":184,"type":"VEC2"},{"bufferView":3,"componentType":5123,"count":184,"normalized":true,"type":"VEC4"},{"bufferView":4,"componentType":5123,"count":264,"type":"SCALAR"},{"bufferView":5,"componentType":5126,"count":24,"max":[1.7999999523162842,6.399999618530273,1.7999999523162842],"min":[-1.7999999523162842,1.399999976158142,-1.7999999523162842],"type":"VEC3"},{"bufferView":6,"componentType":5126,"count":24,"type":"VEC3"},{"bufferView":7,"componentType":5126,"count":24,"type":"VEC2"},{"bufferView":8,"componentType":5123,"count":24,"normalized":true,"type":"VEC4"},{"bufferView":9,"componentType":5123,"count":36,"type":"SCALAR"}],"bufferViews":[{"buffer":0,"byteLength":2208,"byteOffset":0,"target":34962},{"buffer":0,"byteLength":2208,"byteOffset":2208,"target":34962},{"buffer":0,"byteLength":1472,"byteOffset":4416,"target":34962},{"buffer":0,"byteLength":1472,"byteOffset":5888,"target":34962},{"buffer":0,"byteLength":528,"byteOffset":7360,"target":34963},{"buffer":0,"byteLength":288,"byteOffset":7888,"target":34962},{"buffer":0,"byteLength":288,"byteOffset":8176,"target":34962},{"buffer":0,"byteLength":192,"byteOffset":8464,"target":34962},{"buffer":0,"byteLength":192,"byteOffset":8656,"target":34962},{"buffer":0,"byteLength":72,"byteOffset":8848,"target":34963}],"samplers":[{"magFilter":9729,"minFilter":9987}],"buffers":[{"byteLength":8920,"uri":"tree_conifer.bin"}]}