{"asset":{"generator":"Khronos glTF Blender I/O v5.2.40","version":"2.0"},"scene":0,"scenes":[{"name":"Scene","nodes":[0]}],"nodes":[{"mesh":0,"name":"tree_dead"}],"materials":[{"doubleSided":true,"name":"bark","pbrMetallicRoughness":{"baseColorTexture":{"index":0},"metallicFactor":0.0,"roughnessFactor":1.0}},{"alphaMode":"MASK","doubleSided":true,"name":"dead_branches","pbrMetallicRoughness":{"baseColorTexture":{"index":1},"metallicFactor":0.0,"roughnessFactor":1.0},"alphaCutoff":0.5}],"meshes":[{"name":"tree_dead","primitives":[{"attributes":{"POSITION":0,"NORMAL":1,"TEXCOORD_0":2,"COLOR_0":3},"indices":4,"material":0},{"attributes":{"POSITION":5,"NORMAL":6,"TEXCOORD_0":7,"COLOR_0":8},"indices":9,"material":1}]}],"textures":[{"sampler":0,"source":0},{"sampler":0,"source":1}],"images":[{"mimeType":"image/png","name":"bark.png","uri":"../textures/bark.png"},{"mimeType":"image/png","name":"dead_branches.png","uri":"../textures/dead_branches.png"}],"accessors":[{"bufferView":0,"componentType":5126,"count":88,"max":[0.47999998927116394,0.9000000357627869,0.47999998927116394],"min":[-0.47999998927116394,0,-0.47999998927116394],"type":"VEC3"},{"bufferView":1,"componentType":5126,"count":88,"type":"VEC3"},{"bufferView":2,"componentType":5126,"count":88,"type":"VEC2"},{"bufferView":3,"componentType":5123,"count":88,"normalized":true,"type":"VEC4"},{"bufferView":4,"componentType":5123,"count":120,"type":"SCALAR"},{"bufferView":5,"componentType":5126,"count":8,"max":[1.6579097509384155,4.550000190734863,1.6579097509384155],"min":[-1.6579097509384155,0.75,-1.6579097509384155],"type":"VEC3"},{"bufferView":6,"componentType":5126,"count":8,"type":"VEC3"},{"bufferView":7,"componentType":5126,"count":8,"type":"VEC2"},{"bufferView":8,"componentType":5123,"count":8,"normalized":true,"type":"VEC4"},{"bufferView":9,"componentType":5123,"count":12,"type":"SCALAR"}],"bufferViews":[{"buffer":0,"byteLength":1056,"byteOffset":0,"target":34962},{"buffer":0,"byteLength":1056,"byteOffset":1056,"target":34962},{"buffer":0,"byteLength":704,"byteOffset":2112,"target":34962},{"buffer":0,"byteLength":704,"byteOffset":2816,"target":34962},{"buffer":0,"byteLength":240,"byteOffset":3520,"target":34963},{"buffer":0,"byteLength":96,"byteOffset":3760,"target":34962},{"buffer":0,"byteLength":96,"byteOffset":3856,"target":34962},{"buffer":0,"byteLength":64,"byteOffset":3952,"target":34962},{"buffer":0,"byteLength":64,"byteOffset":4016,"target":34962},{"buffer":0,"byteLength":24,"byteOffset":4080,"target":34963}],"samplers":[{"magFilter":9729,"minFilter":9987}],"buffers":[{"byteLength":4104,"uri":"tree_dead.bin"}]}