{"asset":{"generator":"Khronos glTF Blender I/O v5.2.40","version":"2.0"},"scene":0,"scenes":[{"name":"Scene","nodes":[0]}],"nodes":[{"mesh":0,"name":"ancient_tree"}],"materials":[{"doubleSided":true,"name":"bark","pbrMetallicRoughness":{"baseColorTexture":{"index":0},"metallicFactor":0.0,"roughnessFactor":1.0}},{"alphaMode":"MASK","doubleSided":true,"name":"leaf_dark","pbrMetallicRoughness":{"baseColorTexture":{"index":1},"metallicFactor":0.0,"roughnessFactor":1.0},"alphaCutoff":0.5},{"alphaMode":"MASK","doubleSided":true,"name":"leaves","pbrMetallicRoughness":{"baseColorTexture":{"index":2},"metallicFactor":0.0,"roughnessFactor":1.0},"alphaCutoff":0.5},{"doubleSided":true,"name":"palette","pbrMetallicRoughness":{"baseColorTexture":{"index":3},"metallicFactor":0.0,"roughnessFactor":1.0}}],"meshes":[{"name":"Cylinder","primitives":[{"attributes":{"POSITION":0,"NORMAL":1,"TEXCOORD_0":2,"COLOR_0":3},"indices":4,"material":0},{"attributes":{"POSITION":5,"NORMAL":6,"TEXCOORD_0":7,"COLOR_0":8},"indices":9,"material":1},{"attributes":{"POSITION":10,"NORMAL":11,"TEXCOORD_0":12,"COLOR_0":13},"indices":14,"material":2},{"attributes":{"POSITION":15,"NORMAL":16,"TEXCOORD_0":17,"COLOR_0":18},"indices":19,"material":3}]}],"textures":[{"sampler":0,"source":0},{"sampler":0,"source":1},{"sampler":0,"source":2},{"sampler":1,"source":3}],"images":[{"mimeType":"image/png","name":"bark.png","uri":"../../textures/bark.png"},{"mimeType":"image/png","name":"leaf_dark.png","uri":"../../textures/leaf_dark.png"},{"mimeType":"image/png","name":"leaves.png","uri":"../../textures/leaves.png"},{"mimeType":"image/png","name":"palette.png","uri":"../../textures/palette.png"}],"accessors":[{"bufferView":0,"componentType":5126,"count":933,"max":[3.615501880645752,8.40307903289795,3.735513210296631],"min":[-3.378715753555298,0,-3.8865270614624023],"type":"VEC3"},{"bufferView":1,"componentType":5126,"count":933,"type":"VEC3"},{"bufferView":2,"componentType":5126,"count":933,"type":"VEC2"},{"bufferView":3,"componentType":5123,"count":933,"normalized":true,"type":"VEC4"},{"bufferView":4,"componentType":5123,"count":2304,"type":"SCALAR"},{"bufferView":5,"componentType":5126,"count":32,"max":[5.296789646148682,13.837080001831055,4.89678955078125],"min":[-4.89276123046875,5.36292028427124,-5.009620666503906],"type":"VEC3"},{"bufferView":6,"componentType":5126,"count":32,"type":"VEC3"},{"bufferView":7,"componentType":5126,"count":32,"type":"VEC2"},{"bufferView":8,"componentType":5123,"count":32,"normalized":true,"type":"VEC4"},{"bufferView":9,"componentType":5123,"count":48,"type":"SCALAR"},{"bufferView":10,"componentType":5126,"count":16,"max":[2.8998358249664307,9.5,2.849940299987793],"min":[-2.244105339050293,5.300000190734863,-2.9039034843444824],"type":"VEC3"},{"bufferView":11,"componentType":5126,"count":16,"type":"VEC3"},{"bufferView":12,"componentType":5126,"count":16,"type":"VEC2"},{"bufferView":13,"componentType":5123,"count":16,"normalized":true,"type":"VEC4"},{"bufferView":14,"componentType":5123,"count":24,"type":"SCALAR"},{"bufferView":15,"componentType":5126,"count":260,"max":[0.6221883296966553,2.393758773803711,1.639075517654419],"min":[-1.6628296375274658,0.3637470304965973,-1.672227144241333],"type":"VEC3"},{"bufferView":16,"componentType":5126,"count":260,"type":"VEC3"},{"bufferView":17,"componentType":5126,"count":260,"type":"VEC2"},{"bufferView":18,"componentType":5123,"count":260,"normalized":true,"type":"VEC4"},{"bufferView":19,"componentType":5123,"count":1500,"type":"SCALAR"}],"bufferViews":[{"buffer":0,"byteLength":11196,"byteOffset":0,"target":34962},{"buffer":0,"byteLength":11196,"byteOffset":11196,"target":34962},{"buffer":0,"byteLength":7464,"byteOffset":22392,"target":34962},{"buffer":0,"byteLength":7464,"byteOffset":29856,"target":34962},{"buffer":0,"byteLength":4608,"byteOffset":37320,"target":34963},{"buffer":0,"byteLength":384,"byteOffset":41928,"target":34962},{"buffer":0,"byteLength":384,"byteOffset":42312,"target":34962},{"buffer":0,"byteLength":256,"byteOffset":42696,"target":34962},{"buffer":0,"byteLength":256,"byteOffset":42952,"target":34962},{"buffer":0,"byteLength":96,"byteOffset":43208,"target":34963},{"buffer":0,"byteLength":192,"byteOffset":43304,"target":34962},{"buffer":0,"byteLength":192,"byteOffset":43496,"target":34962},{"buffer":0,"byteLength":128,"byteOffset":43688,"target":34962},{"buffer":0,"byteLength":128,"byteOffset":43816,"target":34962},{"buffer":0,"byteLength":48,"byteOffset":43944,"target":34963},{"buffer":0,"byteLength":3120,"byteOffset":43992,"target":34962},{"buffer":0,"byteLength":3120,"byteOffset":47112,"target":34962},{"buffer":0,"byteLength":2080,"byteOffset":50232,"target":34962},{"buffer":0,"byteLength":2080,"byteOffset":52312,"target":34962},{"buffer":0,"byteLength":3000,"byteOffset":54392,"target":34963}],"samplers":[{"magFilter":9729,"minFilter":9987},{"magFilter":9728,"minFilter":9984}],"buffers":[{"byteLength":57392,"uri":"ancient_tree.bin"}]}