{"asset":{"generator":"Khronos glTF Blender I/O v5.2.40","version":"2.0"},"extensionsUsed":["KHR_materials_emissive_strength"],"scene":0,"scenes":[{"name":"Scene","nodes":[0]}],"nodes":[{"mesh":0,"name":"boss_dais"}],"materials":[{"doubleSided":true,"name":"cave_rock","pbrMetallicRoughness":{"baseColorTexture":{"index":0},"metallicFactor":0.0,"roughnessFactor":1.0}},{"doubleSided":true,"name":"dungeon_floor","pbrMetallicRoughness":{"baseColorTexture":{"index":1},"metallicFactor":0.0,"roughnessFactor":1.0}},{"doubleSided":true,"emissiveFactor":[1,1,1],"emissiveTexture":{"index":2},"name":"palette_glow","pbrMetallicRoughness":{"baseColorTexture":{"index":3},"metallicFactor":0.0,"roughnessFactor":1.0}}],"meshes":[{"name":"Cylinder","primitives":[{"attributes":{"POSITION":0,"NORMAL":1,"TEXCOORD_0":2,"COLOR_0":3},"indices":4,"material":0},{"attributes":{"POSITION":5,"NORMAL":6,"TEXCOORD_0":7,"COLOR_0":8},"indices":9,"material":1},{"attributes":{"POSITION":10,"NORMAL":11,"TEXCOORD_0":12,"COLOR_0":13},"indices":14,"material":2}]}],"textures":[{"sampler":0,"source":0},{"sampler":0,"source":1},{"sampler":1,"source":2},{"sampler":1,"source":2}],"images":[{"mimeType":"image/png","name":"cave_rock.png","uri":"../../textures/cave_rock.png"},{"mimeType":"image/png","name":"dungeon_floor.png","uri":"../../textures/dungeon_floor.png"},{"mimeType":"image/png","name":"palette.png","uri":"../../textures/palette.png"}],"accessors":[{"bufferView":0,"componentType":5126,"count":1232,"max":[5.5,1.5099999904632568,5.5],"min":[-5.5,0,-5.5],"type":"VEC3"},{"bufferView":1,"componentType":5126,"count":1232,"type":"VEC3"},{"bufferView":2,"componentType":5126,"count":1232,"type":"VEC2"},{"bufferView":3,"componentType":5123,"count":1232,"normalized":true,"type":"VEC4"},{"bufferView":4,"componentType":5123,"count":4596,"type":"SCALAR"},{"bufferView":5,"componentType":5126,"count":224,"max":[5,0.2800000011920929,5],"min":[-5,0.07999999821186066,-5],"type":"VEC3"},{"bufferView":6,"componentType":5126,"count":224,"type":"VEC3"},{"bufferView":7,"componentType":5126,"count":224,"type":"VEC2"},{"bufferView":8,"componentType":5123,"count":224,"normalized":true,"type":"VEC4"},{"bufferView":9,"componentType":5123,"count":840,"type":"SCALAR"},{"bufferView":10,"componentType":5126,"count":2072,"max":[4.797153472900391,1.9919999837875366,4.814773082733154],"min":[-4.797153472900391,0.23499998450279236,-4.814773082733154],"type":"VEC3"},{"bufferView":11,"componentType":5126,"count":2072,"type":"VEC3"},{"bufferView":12,"componentType":5126,"count":2072,"type":"VEC2"},{"bufferView":13,"componentType":5123,"count":2072,"normalized":true,"type":"VEC4"},{"bufferView":14,"componentType":5123,"count":8976,"type":"SCALAR"}],"bufferViews":[{"buffer":0,"byteLength":14784,"byteOffset":0,"target":34962},{"buffer":0,"byteLength":14784,"byteOffset":14784,"target":34962},{"buffer":0,"byteLength":9856,"byteOffset":29568,"target":34962},{"buffer":0,"byteLength":9856,"byteOffset":39424,"target":34962},{"buffer":0,"byteLength":9192,"byteOffset":49280,"target":34963},{"buffer":0,"byteLength":2688,"byteOffset":58472,"target":34962},{"buffer":0,"byteLength":2688,"byteOffset":61160,"target":34962},{"buffer":0,"byteLength":1792,"byteOffset":63848,"target":34962},{"buffer":0,"byteLength":1792,"byteOffset":65640,"target":34962},{"buffer":0,"byteLength":1680,"byteOffset":67432,"target":34963},{"buffer":0,"byteLength":24864,"byteOffset":69112,"target":34962},{"buffer":0,"byteLength":24864,"byteOffset":93976,"target":34962},{"buffer":0,"byteLength":16576,"byteOffset":118840,"target":34962},{"buffer":0,"byteLength":16576,"byteOffset":135416,"target":34962},{"buffer":0,"byteLength":17952,"byteOffset":151992,"target":34963}],"samplers":[{"magFilter":9729,"minFilter":9987},{"magFilter":9728,"minFilter":9984}],"buffers":[{"byteLength":169944,"uri":"boss_dais.bin"}]}