{"asset":{"generator":"Khronos glTF Blender I/O v5.2.40","version":"2.0"},"scene":0,"scenes":[{"name":"Scene","nodes":[0]}],"nodes":[{"mesh":0,"name":"broken_pillar"}],"materials":[{"doubleSided":true,"name":"cave_rock","pbrMetallicRoughness":{"baseColorTexture":{"index":0},"metallicFactor":0.0,"roughnessFactor":1.0}}],"meshes":[{"name":"Cube","primitives":[{"attributes":{"POSITION":0,"NORMAL":1,"TEXCOORD_0":2,"COLOR_0":3},"indices":4,"material":0}]}],"textures":[{"sampler":0,"source":0}],"images":[{"mimeType":"image/png","name":"cave_rock.png","uri":"../../textures/cave_rock.png"}],"accessors":[{"bufferView":0,"componentType":5126,"count":1109,"max":[3.6172573566436768,2.8253273963928223,1.9684584140777588],"min":[-2.650866746902466,-5.888094278816425e-08,-1.6521940231323242],"type":"VEC3"},{"bufferView":1,"componentType":5126,"count":1109,"type":"VEC3"},{"bufferView":2,"componentType":5126,"count":1109,"type":"VEC2"},{"bufferView":3,"componentType":5123,"count":1109,"normalized":true,"type":"VEC4"},{"bufferView":4,"componentType":5123,"count":3954,"type":"SCALAR"}],"bufferViews":[{"buffer":0,"byteLength":13308,"byteOffset":0,"target":34962},{"buffer":0,"byteLength":13308,"byteOffset":13308,"target":34962},{"buffer":0,"byteLength":8872,"byteOffset":26616,"target":34962},{"buffer":0,"byteLength":8872,"byteOffset":35488,"target":34962},{"buffer":0,"byteLength":7908,"byteOffset":44360,"target":34963}],"samplers":[{"magFilter":9729,"minFilter":9987}],"buffers":[{"byteLength":52268,"uri":"broken_pillar.bin"}]}