{"asset":{"generator":"Khronos glTF Blender I/O v5.2.40","version":"2.0"},"extensionsUsed":["KHR_materials_emissive_strength"],"scene":0,"scenes":[{"name":"Scene","nodes":[0]}],"nodes":[{"mesh":0,"name":"carved_pillar"}],"materials":[{"doubleSided":true,"name":"cave_rock","pbrMetallicRoughness":{"baseColorTexture":{"index":0},"metallicFactor":0.0,"roughnessFactor":1.0}},{"doubleSided":true,"emissiveFactor":[1,1,1],"emissiveTexture":{"index":1},"name":"palette_glow","pbrMetallicRoughness":{"baseColorTexture":{"index":2},"metallicFactor":0.0,"roughnessFactor":1.0}}],"meshes":[{"name":"Cube","primitives":[{"attributes":{"POSITION":0,"NORMAL":1,"TEXCOORD_0":2,"COLOR_0":3},"indices":4,"material":0},{"attributes":{"POSITION":5,"NORMAL":6,"TEXCOORD_0":7,"COLOR_0":8},"indices":9,"material":1}]}],"textures":[{"sampler":0,"source":0},{"sampler":1,"source":1},{"sampler":1,"source":1}],"images":[{"mimeType":"image/png","name":"cave_rock.png","uri":"../../textures/cave_rock.png"},{"mimeType":"image/png","name":"palette.png","uri":"../../textures/palette.png"}],"accessors":[{"bufferView":0,"componentType":5126,"count":640,"max":[0.8999999761581421,5.590000152587891,0.8999999761581421],"min":[-0.8999999761581421,0,-0.8999999761581421],"type":"VEC3"},{"bufferView":1,"componentType":5126,"count":640,"type":"VEC3"},{"bufferView":2,"componentType":5126,"count":640,"type":"VEC2"},{"bufferView":3,"componentType":5123,"count":640,"normalized":true,"type":"VEC4"},{"bufferView":4,"componentType":5123,"count":2400,"type":"SCALAR"},{"bufferView":5,"componentType":5126,"count":224,"max":[0.6700000166893005,2.8000001907348633,0.6700000166893005],"min":[-0.6700000166893005,1.600000023841858,-0.6700000166893005],"type":"VEC3"},{"bufferView":6,"componentType":5126,"count":224,"type":"VEC3"},{"bufferView":7,"componentType":5126,"count":224,"type":"VEC2"},{"bufferView":8,"componentType":5123,"count":224,"normalized":true,"type":"VEC4"},{"bufferView":9,"componentType":5123,"count":1296,"type":"SCALAR"}],"bufferViews":[{"buffer":0,"byteLength":7680,"byteOffset":0,"target":34962},{"buffer":0,"byteLength":7680,"byteOffset":7680,"target":34962},{"buffer":0,"byteLength":5120,"byteOffset":15360,"target":34962},{"buffer":0,"byteLength":5120,"byteOffset":20480,"target":34962},{"buffer":0,"byteLength":4800,"byteOffset":25600,"target":34963},{"buffer":0,"byteLength":2688,"byteOffset":30400,"target":34962},{"buffer":0,"byteLength":2688,"byteOffset":33088,"target":34962},{"buffer":0,"byteLength":1792,"byteOffset":35776,"target":34962},{"buffer":0,"byteLength":1792,"byteOffset":37568,"target":34962},{"buffer":0,"byteLength":2592,"byteOffset":39360,"target":34963}],"samplers":[{"magFilter":9729,"minFilter":9987},{"magFilter":9728,"minFilter":9984}],"buffers":[{"byteLength":41952,"uri":"carved_pillar.bin"}]}