{"asset":{"generator":"Khronos glTF Blender I/O v5.2.40","version":"2.0"},"extensionsUsed":["KHR_materials_emissive_strength"],"scene":0,"scenes":[{"name":"Scene","nodes":[0]}],"nodes":[{"mesh":0,"name":"cave_mouth"}],"materials":[{"doubleSided":true,"name":"cliff_rock","pbrMetallicRoughness":{"baseColorTexture":{"index":0},"metallicFactor":0.0,"roughnessFactor":1.0}},{"doubleSided":true,"name":"palette","pbrMetallicRoughness":{"baseColorTexture":{"index":1},"metallicFactor":0.0,"roughnessFactor":1.0}},{"doubleSided":true,"name":"wood","pbrMetallicRoughness":{"baseColorTexture":{"index":2},"metallicFactor":0.0,"roughnessFactor":1.0}},{"doubleSided":true,"emissiveFactor":[1,1,1],"emissiveTexture":{"index":3},"name":"palette_glow","pbrMetallicRoughness":{"baseColorTexture":{"index":4},"metallicFactor":0.0,"roughnessFactor":1.0}}],"meshes":[{"name":"Icosphere","primitives":[{"attributes":{"POSITION":0,"NORMAL":1,"TEXCOORD_0":2,"COLOR_0":3},"indices":4,"material":0},{"attributes":{"POSITION":5,"NORMAL":6,"TEXCOORD_0":7,"COLOR_0":8},"indices":9,"material":1},{"attributes":{"POSITION":10,"NORMAL":11,"TEXCOORD_0":12,"COLOR_0":13},"indices":14,"material":2},{"attributes":{"POSITION":15,"NORMAL":16,"TEXCOORD_0":17,"COLOR_0":18},"indices":19,"material":3}]}],"textures":[{"sampler":0,"source":0},{"sampler":1,"source":1},{"sampler":0,"source":2},{"sampler":1,"source":1},{"sampler":1,"source":1}],"images":[{"mimeType":"image/png","name":"cliff_rock.png","uri":"../../textures/cliff_rock.png"},{"mimeType":"image/png","name":"palette.png","uri":"../../textures/palette.png"},{"mimeType":"image/png","name":"wood.png","uri":"../../textures/wood.png"}],"accessors":[{"bufferView":0,"componentType":5126,"count":1620,"max":[6.771159648895264,8.228431701660156,3.198590040206909],"min":[-6.67736291885376,-1.619030475616455,-4.693328380584717],"type":"VEC3"},{"bufferView":1,"componentType":5126,"count":1620,"type":"VEC3"},{"bufferView":2,"componentType":5126,"count":1620,"type":"VEC2"},{"bufferView":3,"componentType":5123,"count":1620,"normalized":true,"type":"VEC4"},{"bufferView":4,"componentType":5123,"count":5580,"type":"SCALAR"},{"bufferView":5,"componentType":5126,"count":56,"max":[1.5,4.400000095367432,-0.5999999642372131],"min":[-1.5,0,-2],"type":"VEC3"},{"bufferView":6,"componentType":5126,"count":56,"type":"VEC3"},{"bufferView":7,"componentType":5126,"count":56,"type":"VEC2"},{"bufferView":8,"componentType":5123,"count":56,"normalized":true,"type":"VEC4"},{"bufferView":9,"componentType":5123,"count":324,"type":"SCALAR"},{"bufferView":10,"componentType":5126,"count":272,"max":[3.105579376220703,2.59785795211792,1.4898107051849365],"min":[-3.105579376220703,0.802142322063446,1.3101892471313477],"type":"VEC3"},{"bufferView":11,"componentType":5126,"count":272,"type":"VEC3"},{"bufferView":12,"componentType":5126,"count":272,"type":"VEC2"},{"bufferView":13,"componentType":5123,"count":272,"normalized":true,"type":"VEC4"},{"bufferView":14,"componentType":5123,"count":984,"type":"SCALAR"},{"bufferView":15,"componentType":5126,"count":104,"max":[3.2434704303741455,3.047999858856201,1.656000018119812],"min":[-3.2434704303741455,2.1519999504089355,1.1439999341964722],"type":"VEC3"},{"bufferView":16,"componentType":5126,"count":104,"type":"VEC3"},{"bufferView":17,"componentType":5126,"count":104,"type":"VEC2"},{"bufferView":18,"componentType":5123,"count":104,"normalized":true,"type":"VEC4"},{"bufferView":19,"componentType":5123,"count":600,"type":"SCALAR"}],"bufferViews":[{"buffer":0,"byteLength":19440,"byteOffset":0,"target":34962},{"buffer":0,"byteLength":19440,"byteOffset":19440,"target":34962},{"buffer":0,"byteLength":12960,"byteOffset":38880,"target":34962},{"buffer":0,"byteLength":12960,"byteOffset":51840,"target":34962},{"buffer":0,"byteLength":11160,"byteOffset":64800,"target":34963},{"buffer":0,"byteLength":672,"byteOffset":75960,"target":34962},{"buffer":0,"byteLength":672,"byteOffset":76632,"target":34962},{"buffer":0,"byteLength":448,"byteOffset":77304,"target":34962},{"buffer":0,"byteLength":448,"byteOffset":77752,"target":34962},{"buffer":0,"byteLength":648,"byteOffset":78200,"target":34963},{"buffer":0,"byteLength":3264,"byteOffset":78848,"target":34962},{"buffer":0,"byteLength":3264,"byteOffset":82112,"target":34962},{"buffer":0,"byteLength":2176,"byteOffset":85376,"target":34962},{"buffer":0,"byteLength":2176,"byteOffset":87552,"target":34962},{"buffer":0,"byteLength":1968,"byteOffset":89728,"target":34963},{"buffer":0,"byteLength":1248,"byteOffset":91696,"target":34962},{"buffer":0,"byteLength":1248,"byteOffset":92944,"target":34962},{"buffer":0,"byteLength":832,"byteOffset":94192,"target":34962},{"buffer":0,"byteLength":832,"byteOffset":95024,"target":34962},{"buffer":0,"byteLength":1200,"byteOffset":95856,"target":34963}],"samplers":[{"magFilter":9729,"minFilter":9987},{"magFilter":9728,"minFilter":9984}],"buffers":[{"byteLength":97056,"uri":"cave_mouth.bin"}]}