{"asset":{"generator":"Khronos glTF Blender I/O v5.2.40","version":"2.0"},"scene":0,"scenes":[{"name":"Scene","nodes":[0]}],"nodes":[{"mesh":0,"name":"cliff_wall"}],"materials":[{"doubleSided":true,"name":"cliff_rock","pbrMetallicRoughness":{"baseColorTexture":{"index":0},"metallicFactor":0.0,"roughnessFactor":1.0}}],"meshes":[{"name":"Icosphere","primitives":[{"attributes":{"POSITION":0,"NORMAL":1,"TEXCOORD_0":2,"COLOR_0":3},"indices":4,"material":0}]}],"textures":[{"sampler":0,"source":0}],"images":[{"mimeType":"image/png","name":"cliff_rock.png","uri":"../../textures/cliff_rock.png"}],"accessors":[{"bufferView":0,"componentType":5126,"count":1708,"max":[5.327971935272217,6.062905788421631,3.586683511734009],"min":[-5.5672197341918945,-3.198132038116455,-4.133065223693848],"type":"VEC3"},{"bufferView":1,"componentType":5126,"count":1708,"type":"VEC3"},{"bufferView":2,"componentType":5126,"count":1708,"type":"VEC2"},{"bufferView":3,"componentType":5123,"count":1708,"normalized":true,"type":"VEC4"},{"bufferView":4,"componentType":5123,"count":5802,"type":"SCALAR"}],"bufferViews":[{"buffer":0,"byteLength":20496,"byteOffset":0,"target":34962},{"buffer":0,"byteLength":20496,"byteOffset":20496,"target":34962},{"buffer":0,"byteLength":13664,"byteOffset":40992,"target":34962},{"buffer":0,"byteLength":13664,"byteOffset":54656,"target":34962},{"buffer":0,"byteLength":11604,"byteOffset":68320,"target":34963}],"samplers":[{"magFilter":9729,"minFilter":9987}],"buffers":[{"byteLength":79924,"uri":"cliff_wall.bin"}]}