{"asset":{"generator":"Khronos glTF Blender I/O v5.2.40","version":"2.0"},"scene":0,"scenes":[{"name":"Scene","nodes":[0]}],"nodes":[{"mesh":0,"name":"collapsed_arch"}],"materials":[{"doubleSided":true,"name":"cave_rock","pbrMetallicRoughness":{"baseColorTexture":{"index":0},"metallicFactor":0.0,"roughnessFactor":1.0}}],"meshes":[{"name":"Cube","primitives":[{"attributes":{"POSITION":0,"NORMAL":1,"TEXCOORD_0":2,"COLOR_0":3},"indices":4,"material":0}]}],"textures":[{"sampler":0,"source":0}],"images":[{"mimeType":"image/png","name":"cave_rock.png","uri":"../../textures/cave_rock.png"}],"accessors":[{"bufferView":0,"componentType":5126,"count":1326,"max":[4.618319034576416,5.996547698974609,1.4468858242034912],"min":[-3.0500001907348633,-0.060991160571575165,-1.8539053201675415],"type":"VEC3"},{"bufferView":1,"componentType":5126,"count":1326,"type":"VEC3"},{"bufferView":2,"componentType":5126,"count":1326,"type":"VEC2"},{"bufferView":3,"componentType":5123,"count":1326,"normalized":true,"type":"VEC4"},{"bufferView":4,"componentType":5123,"count":4596,"type":"SCALAR"}],"bufferViews":[{"buffer":0,"byteLength":15912,"byteOffset":0,"target":34962},{"buffer":0,"byteLength":15912,"byteOffset":15912,"target":34962},{"buffer":0,"byteLength":10608,"byteOffset":31824,"target":34962},{"buffer":0,"byteLength":10608,"byteOffset":42432,"target":34962},{"buffer":0,"byteLength":9192,"byteOffset":53040,"target":34963}],"samplers":[{"magFilter":9729,"minFilter":9987}],"buffers":[{"byteLength":62232,"uri":"collapsed_arch.bin"}]}