{"asset":{"generator":"Khronos glTF Blender I/O v5.2.40","version":"2.0"},"scene":0,"scenes":[{"name":"Scene","nodes":[0]}],"nodes":[{"mesh":0,"name":"dead_stump"}],"materials":[{"doubleSided":true,"name":"bark","pbrMetallicRoughness":{"baseColorTexture":{"index":0},"metallicFactor":0.0,"roughnessFactor":1.0}},{"doubleSided":true,"name":"palette","pbrMetallicRoughness":{"baseColorTexture":{"index":1},"metallicFactor":0.0,"roughnessFactor":1.0}}],"meshes":[{"name":"Cylinder","primitives":[{"attributes":{"POSITION":0,"NORMAL":1,"TEXCOORD_0":2,"COLOR_0":3},"indices":4,"material":0},{"attributes":{"POSITION":5,"NORMAL":6,"TEXCOORD_0":7,"COLOR_0":8},"indices":9,"material":1}]}],"textures":[{"sampler":0,"source":0},{"sampler":1,"source":1}],"images":[{"mimeType":"image/png","name":"bark.png","uri":"../../textures/bark.png"},{"mimeType":"image/png","name":"palette.png","uri":"../../textures/palette.png"}],"accessors":[{"bufferView":0,"componentType":5126,"count":815,"max":[1.3446484804153442,2.1006345748901367,1.1672013998031616],"min":[-1.0935258865356445,-0.03560268133878708,-1.2458550930023193],"type":"VEC3"},{"bufferView":1,"componentType":5126,"count":815,"type":"VEC3"},{"bufferView":2,"componentType":5126,"count":815,"type":"VEC2"},{"bufferView":3,"componentType":5123,"count":815,"normalized":true,"type":"VEC4"},{"bufferView":4,"componentType":5123,"count":2832,"type":"SCALAR"},{"bufferView":5,"componentType":5126,"count":60,"max":[0.7918241024017334,1.600000023841858,0.7799999713897705],"min":[-0.6918240785598755,1.4399999380111694,-0.7799999713897705],"type":"VEC3"},{"bufferView":6,"componentType":5126,"count":60,"type":"VEC3"},{"bufferView":7,"componentType":5126,"count":60,"type":"VEC2"},{"bufferView":8,"componentType":5123,"count":60,"normalized":true,"type":"VEC4"},{"bufferView":9,"componentType":5123,"count":348,"type":"SCALAR"}],"bufferViews":[{"buffer":0,"byteLength":9780,"byteOffset":0,"target":34962},{"buffer":0,"byteLength":9780,"byteOffset":9780,"target":34962},{"buffer":0,"byteLength":6520,"byteOffset":19560,"target":34962},{"buffer":0,"byteLength":6520,"byteOffset":26080,"target":34962},{"buffer":0,"byteLength":5664,"byteOffset":32600,"target":34963},{"buffer":0,"byteLength":720,"byteOffset":38264,"target":34962},{"buffer":0,"byteLength":720,"byteOffset":38984,"target":34962},{"buffer":0,"byteLength":480,"byteOffset":39704,"target":34962},{"buffer":0,"byteLength":480,"byteOffset":40184,"target":34962},{"buffer":0,"byteLength":696,"byteOffset":40664,"target":34963}],"samplers":[{"magFilter":9729,"minFilter":9987},{"magFilter":9728,"minFilter":9984}],"buffers":[{"byteLength":41360,"uri":"dead_stump.bin"}]}