{"asset":{"generator":"Khronos glTF Blender I/O v5.2.40","version":"2.0"},"extensionsUsed":["KHR_materials_emissive_strength"],"scene":0,"scenes":[{"name":"Scene","nodes":[0]}],"nodes":[{"mesh":0,"name":"forest_shrine"}],"materials":[{"doubleSided":true,"name":"rock","pbrMetallicRoughness":{"baseColorTexture":{"index":0},"metallicFactor":0.0,"roughnessFactor":1.0}},{"doubleSided":true,"emissiveFactor":[1,1,1],"emissiveTexture":{"index":1},"name":"palette_glow","pbrMetallicRoughness":{"baseColorTexture":{"index":2},"metallicFactor":0.0,"roughnessFactor":1.0}},{"doubleSided":true,"name":"palette","pbrMetallicRoughness":{"baseColorTexture":{"index":3},"metallicFactor":0.0,"roughnessFactor":1.0}},{"doubleSided":true,"name":"cliff_rock","pbrMetallicRoughness":{"baseColorTexture":{"index":4},"metallicFactor":0.0,"roughnessFactor":1.0}}],"meshes":[{"name":"Cylinder","primitives":[{"attributes":{"POSITION":0,"NORMAL":1,"TEXCOORD_0":2,"COLOR_0":3},"indices":4,"material":0},{"attributes":{"POSITION":5,"NORMAL":6,"TEXCOORD_0":7,"COLOR_0":8},"indices":9,"material":1},{"attributes":{"POSITION":10,"NORMAL":11,"TEXCOORD_0":12,"COLOR_0":13},"indices":14,"material":2},{"attributes":{"POSITION":15,"NORMAL":16,"TEXCOORD_0":17,"COLOR_0":18},"indices":19,"material":3}]}],"textures":[{"sampler":0,"source":0},{"sampler":1,"source":1},{"sampler":1,"source":1},{"sampler":1,"source":1},{"sampler":0,"source":2}],"images":[{"mimeType":"image/png","name":"rock.png","uri":"../../textures/rock.png"},{"mimeType":"image/png","name":"palette.png","uri":"../../textures/palette.png"},{"mimeType":"image/png","name":"cliff_rock.png","uri":"../../textures/cliff_rock.png"}],"accessors":[{"bufferView":0,"componentType":5126,"count":624,"max":[2.5999999046325684,4.099999904632568,2.5999999046325684],"min":[-2.5999999046325684,0,-2.5999999046325684],"type":"VEC3"},{"bufferView":1,"componentType":5126,"count":624,"type":"VEC3"},{"bufferView":2,"componentType":5126,"count":624,"type":"VEC2"},{"bufferView":3,"componentType":5123,"count":624,"normalized":true,"type":"VEC4"},{"bufferView":4,"componentType":5123,"count":2172,"type":"SCALAR"},{"bufferView":5,"componentType":5126,"count":85,"max":[0.3043380677700043,2.200000047683716,0.3199999928474426],"min":[-0.30433809757232666,1.1099998950958252,-0.3199999928474426],"type":"VEC3"},{"bufferView":6,"componentType":5126,"count":85,"type":"VEC3"},{"bufferView":7,"componentType":5126,"count":85,"type":"VEC2"},{"bufferView":8,"componentType":5123,"count":85,"normalized":true,"type":"VEC4"},{"bufferView":9,"componentType":5123,"count":438,"type":"SCALAR"},{"bufferView":10,"componentType":5126,"count":720,"max":[1.9558382034301758,0.3840000033378601,2.606438159942627],"min":[-2.925175666809082,-0.08399997651576996,-3.0463881492614746],"type":"VEC3"},{"bufferView":11,"componentType":5126,"count":720,"type":"VEC3"},{"bufferView":12,"componentType":5126,"count":720,"type":"VEC2"},{"bufferView":13,"componentType":5123,"count":720,"normalized":true,"type":"VEC4"},{"bufferView":14,"componentType":5123,"count":4200,"type":"SCALAR"},{"bufferView":15,"componentType":5126,"count":297,"max":[3.277848720550537,0.8719226717948914,2.058187246322632],"min":[-2.926003932952881,0.2051466852426529,-2.324385643005371],"type":"VEC3"},{"bufferView":16,"componentType":5126,"count":297,"type":"VEC3"},{"bufferView":17,"componentType":5126,"count":297,"type":"VEC2"},{"bufferView":18,"componentType":5123,"count":297,"normalized":true,"type":"VEC4"},{"bufferView":19,"componentType":5123,"count":1104,"type":"SCALAR"}],"bufferViews":[{"buffer":0,"byteLength":7488,"byteOffset":0,"target":34962},{"buffer":0,"byteLength":7488,"byteOffset":7488,"target":34962},{"buffer":0,"byteLength":4992,"byteOffset":14976,"target":34962},{"buffer":0,"byteLength":4992,"byteOffset":19968,"target":34962},{"buffer":0,"byteLength":4344,"byteOffset":24960,"target":34963},{"buffer":0,"byteLength":1020,"byteOffset":29304,"target":34962},{"buffer":0,"byteLength":1020,"byteOffset":30324,"target":34962},{"buffer":0,"byteLength":680,"byteOffset":31344,"target":34962},{"buffer":0,"byteLength":680,"byteOffset":32024,"target":34962},{"buffer":0,"byteLength":876,"byteOffset":32704,"target":34963},{"buffer":0,"byteLength":8640,"byteOffset":33580,"target":34962},{"buffer":0,"byteLength":8640,"byteOffset":42220,"target":34962},{"buffer":0,"byteLength":5760,"byteOffset":50860,"target":34962},{"buffer":0,"byteLength":5760,"byteOffset":56620,"target":34962},{"buffer":0,"byteLength":8400,"byteOffset":62380,"target":34963},{"buffer":0,"byteLength":3564,"byteOffset":70780,"target":34962},{"buffer":0,"byteLength":3564,"byteOffset":74344,"target":34962},{"buffer":0,"byteLength":2376,"byteOffset":77908,"target":34962},{"buffer":0,"byteLength":2376,"byteOffset":80284,"target":34962},{"buffer":0,"byteLength":2208,"byteOffset":82660,"target":34963}],"samplers":[{"magFilter":9729,"minFilter":9987},{"magFilter":9728,"minFilter":9984}],"buffers":[{"byteLength":84868,"uri":"forest_shrine.bin"}]}