{"asset":{"generator":"Khronos glTF Blender I/O v5.2.40","version":"2.0"},"scene":0,"scenes":[{"name":"Scene","nodes":[0]}],"nodes":[{"mesh":0,"name":"rock_arch"}],"materials":[{"doubleSided":true,"name":"cliff_rock","pbrMetallicRoughness":{"baseColorTexture":{"index":0},"metallicFactor":0.0,"roughnessFactor":1.0}}],"meshes":[{"name":"Icosphere","primitives":[{"attributes":{"POSITION":0,"NORMAL":1,"TEXCOORD_0":2,"COLOR_0":3},"indices":4,"material":0}]}],"textures":[{"sampler":0,"source":0}],"images":[{"mimeType":"image/png","name":"cliff_rock.png","uri":"../../textures/cliff_rock.png"}],"accessors":[{"bufferView":0,"componentType":5126,"count":1690,"max":[5.662301540374756,8.598100662231445,2.950350761413574],"min":[-5.389547348022461,0.13402774930000305,-2.077572822570801],"type":"VEC3"},{"bufferView":1,"componentType":5126,"count":1690,"type":"VEC3"},{"bufferView":2,"componentType":5126,"count":1690,"type":"VEC2"},{"bufferView":3,"componentType":5123,"count":1690,"normalized":true,"type":"VEC4"},{"bufferView":4,"componentType":5123,"count":5580,"type":"SCALAR"}],"bufferViews":[{"buffer":0,"byteLength":20280,"byteOffset":0,"target":34962},{"buffer":0,"byteLength":20280,"byteOffset":20280,"target":34962},{"buffer":0,"byteLength":13520,"byteOffset":40560,"target":34962},{"buffer":0,"byteLength":13520,"byteOffset":54080,"target":34962},{"buffer":0,"byteLength":11160,"byteOffset":67600,"target":34963}],"samplers":[{"magFilter":9729,"minFilter":9987}],"buffers":[{"byteLength":78760,"uri":"rock_arch.bin"}]}