{"asset":{"generator":"Khronos glTF Blender I/O v5.2.40","version":"2.0"},"scene":0,"scenes":[{"name":"Scene","nodes":[0]}],"nodes":[{"mesh":0,"name":"stalagmite_cluster"}],"materials":[{"doubleSided":true,"name":"cave_rock","pbrMetallicRoughness":{"baseColorTexture":{"index":0},"metallicFactor":0.0,"roughnessFactor":1.0}}],"meshes":[{"name":"Cone","primitives":[{"attributes":{"POSITION":0,"NORMAL":1,"TEXCOORD_0":2,"COLOR_0":3},"indices":4,"material":0}]}],"textures":[{"sampler":0,"source":0}],"images":[{"mimeType":"image/png","name":"cave_rock.png","uri":"../../textures/cave_rock.png"}],"accessors":[{"bufferView":0,"componentType":5126,"count":610,"max":[1.2310831546783447,2.5999999046325684,1.1558974981307983],"min":[-1.2778043746948242,-0.027883702889084816,-1.0177903175354004],"type":"VEC3"},{"bufferView":1,"componentType":5126,"count":610,"type":"VEC3"},{"bufferView":2,"componentType":5126,"count":610,"type":"VEC2"},{"bufferView":3,"componentType":5123,"count":610,"normalized":true,"type":"VEC4"},{"bufferView":4,"componentType":5123,"count":2256,"type":"SCALAR"}],"bufferViews":[{"buffer":0,"byteLength":7320,"byteOffset":0,"target":34962},{"buffer":0,"byteLength":7320,"byteOffset":7320,"target":34962},{"buffer":0,"byteLength":4880,"byteOffset":14640,"target":34962},{"buffer":0,"byteLength":4880,"byteOffset":19520,"target":34962},{"buffer":0,"byteLength":4512,"byteOffset":24400,"target":34963}],"samplers":[{"magFilter":9729,"minFilter":9987}],"buffers":[{"byteLength":28912,"uri":"stalagmite_cluster.bin"}]}