{"asset":{"generator":"Khronos glTF Blender I/O v5.2.40","version":"2.0"},"scene":0,"scenes":[{"name":"Scene","nodes":[0]}],"nodes":[{"mesh":0,"name":"stone_stack"}],"materials":[{"doubleSided":true,"name":"cliff_rock","pbrMetallicRoughness":{"baseColorTexture":{"index":0},"metallicFactor":0.0,"roughnessFactor":1.0}}],"meshes":[{"name":"Icosphere","primitives":[{"attributes":{"POSITION":0,"NORMAL":1,"TEXCOORD_0":2,"COLOR_0":3},"indices":4,"material":0}]}],"textures":[{"sampler":0,"source":0}],"images":[{"mimeType":"image/png","name":"cliff_rock.png","uri":"../../textures/cliff_rock.png"}],"accessors":[{"bufferView":0,"componentType":5126,"count":503,"max":[1.2314473390579224,2.2534263134002686,0.8627138733863831],"min":[-1.2215181589126587,-0.5327517986297607,-0.8630728125572205],"type":"VEC3"},{"bufferView":1,"componentType":5126,"count":503,"type":"VEC3"},{"bufferView":2,"componentType":5126,"count":503,"type":"VEC2"},{"bufferView":3,"componentType":5123,"count":503,"normalized":true,"type":"VEC4"},{"bufferView":4,"componentType":5123,"count":1746,"type":"SCALAR"}],"bufferViews":[{"buffer":0,"byteLength":6036,"byteOffset":0,"target":34962},{"buffer":0,"byteLength":6036,"byteOffset":6036,"target":34962},{"buffer":0,"byteLength":4024,"byteOffset":12072,"target":34962},{"buffer":0,"byteLength":4024,"byteOffset":16096,"target":34962},{"buffer":0,"byteLength":3492,"byteOffset":20120,"target":34963}],"samplers":[{"magFilter":9729,"minFilter":9987}],"buffers":[{"byteLength":23612,"uri":"stone_stack.bin"}]}