{"asset":{"generator":"Khronos glTF Blender I/O v5.2.40","version":"2.0"},"scene":0,"scenes":[{"name":"Scene","nodes":[0]}],"nodes":[{"mesh":0,"name":"barrel_pair"}],"materials":[{"doubleSided":true,"name":"wood","pbrMetallicRoughness":{"baseColorTexture":{"index":0},"metallicFactor":0.0,"roughnessFactor":1.0}},{"doubleSided":true,"name":"palette","pbrMetallicRoughness":{"baseColorTexture":{"index":1},"metallicFactor":0.0,"roughnessFactor":1.0}}],"meshes":[{"name":"Cylinder","primitives":[{"attributes":{"POSITION":0,"NORMAL":1,"TEXCOORD_0":2,"COLOR_0":3},"indices":4,"material":0},{"attributes":{"POSITION":5,"NORMAL":6,"TEXCOORD_0":7,"COLOR_0":8},"indices":9,"material":1}]}],"textures":[{"sampler":0,"source":0},{"sampler":1,"source":1}],"images":[{"mimeType":"image/png","name":"wood.png","uri":"../../textures/wood.png"},{"mimeType":"image/png","name":"palette.png","uri":"../../textures/palette.png"}],"accessors":[{"bufferView":0,"componentType":5126,"count":576,"max":[1.1033592224121094,0.8600000143051147,1.0699999332427979],"min":[-0.3614014685153961,-0.03999999165534973,-0.5],"type":"VEC3"},{"bufferView":1,"componentType":5126,"count":576,"type":"VEC3"},{"bufferView":2,"componentType":5126,"count":576,"type":"VEC2"},{"bufferView":3,"componentType":5123,"count":576,"normalized":true,"type":"VEC4"},{"bufferView":4,"componentType":5123,"count":2088,"type":"SCALAR"},{"bufferView":5,"componentType":5126,"count":360,"max":[1.1128697395324707,0.7057999968528748,0.9422000050544739],"min":[-0.3709120452404022,-0.04999998211860657,-0.5099999904632568],"type":"VEC3"},{"bufferView":6,"componentType":5126,"count":360,"type":"VEC3"},{"bufferView":7,"componentType":5126,"count":360,"type":"VEC2"},{"bufferView":8,"componentType":5123,"count":360,"normalized":true,"type":"VEC4"},{"bufferView":9,"componentType":5123,"count":2088,"type":"SCALAR"}],"bufferViews":[{"buffer":0,"byteLength":6912,"byteOffset":0,"target":34962},{"buffer":0,"byteLength":6912,"byteOffset":6912,"target":34962},{"buffer":0,"byteLength":4608,"byteOffset":13824,"target":34962},{"buffer":0,"byteLength":4608,"byteOffset":18432,"target":34962},{"buffer":0,"byteLength":4176,"byteOffset":23040,"target":34963},{"buffer":0,"byteLength":4320,"byteOffset":27216,"target":34962},{"buffer":0,"byteLength":4320,"byteOffset":31536,"target":34962},{"buffer":0,"byteLength":2880,"byteOffset":35856,"target":34962},{"buffer":0,"byteLength":2880,"byteOffset":38736,"target":34962},{"buffer":0,"byteLength":4176,"byteOffset":41616,"target":34963}],"samplers":[{"magFilter":9729,"minFilter":9987},{"magFilter":9728,"minFilter":9984}],"buffers":[{"byteLength":45792,"uri":"barrel_pair.bin"}]}