{"asset":{"generator":"Khronos glTF Blender I/O v5.2.40","version":"2.0"},"scene":0,"scenes":[{"name":"Scene","nodes":[0]}],"nodes":[{"mesh":0,"name":"bench"}],"materials":[{"doubleSided":true,"name":"wood","pbrMetallicRoughness":{"baseColorTexture":{"index":0},"metallicFactor":0.0,"roughnessFactor":1.0}}],"meshes":[{"name":"Cube","primitives":[{"attributes":{"POSITION":0,"NORMAL":1,"TEXCOORD_0":2,"COLOR_0":3},"indices":4,"material":0}]}],"textures":[{"sampler":0,"source":0}],"images":[{"mimeType":"image/png","name":"wood.png","uri":"../../textures/wood.png"}],"accessors":[{"bufferView":0,"componentType":5126,"count":397,"max":[0.8999999761581421,0.9254110455513,0.23000000417232513],"min":[-0.8999999761581421,0,-0.2821732461452484],"type":"VEC3"},{"bufferView":1,"componentType":5126,"count":397,"type":"VEC3"},{"bufferView":2,"componentType":5126,"count":397,"type":"VEC2"},{"bufferView":3,"componentType":5123,"count":397,"normalized":true,"type":"VEC4"},{"bufferView":4,"componentType":5123,"count":1296,"type":"SCALAR"}],"bufferViews":[{"buffer":0,"byteLength":4764,"byteOffset":0,"target":34962},{"buffer":0,"byteLength":4764,"byteOffset":4764,"target":34962},{"buffer":0,"byteLength":3176,"byteOffset":9528,"target":34962},{"buffer":0,"byteLength":3176,"byteOffset":12704,"target":34962},{"buffer":0,"byteLength":2592,"byteOffset":15880,"target":34963}],"samplers":[{"magFilter":9729,"minFilter":9987}],"buffers":[{"byteLength":18472,"uri":"bench.bin"}]}