{"asset":{"generator":"Khronos glTF Blender I/O v5.2.40","version":"2.0"},"scene":0,"scenes":[{"name":"Scene","nodes":[0]}],"nodes":[{"mesh":0,"name":"cart"}],"materials":[{"doubleSided":true,"name":"wood","pbrMetallicRoughness":{"baseColorTexture":{"index":0},"metallicFactor":0.0,"roughnessFactor":1.0}},{"doubleSided":true,"name":"palette","pbrMetallicRoughness":{"baseColorTexture":{"index":1},"metallicFactor":0.0,"roughnessFactor":1.0}}],"meshes":[{"name":"Cube","primitives":[{"attributes":{"POSITION":0,"NORMAL":1,"TEXCOORD_0":2,"COLOR_0":3},"indices":4,"material":0},{"attributes":{"POSITION":5,"NORMAL":6,"TEXCOORD_0":7,"COLOR_0":8},"indices":9,"material":1}]}],"textures":[{"sampler":0,"source":0},{"sampler":1,"source":1}],"images":[{"mimeType":"image/png","name":"wood.png","uri":"../../textures/wood.png"},{"mimeType":"image/png","name":"palette.png","uri":"../../textures/palette.png"}],"accessors":[{"bufferView":0,"componentType":5126,"count":903,"max":[1,1.1299999952316284,1.1200000047683716],"min":[-2.0451340675354004,0,-1.1200000047683716],"type":"VEC3"},{"bufferView":1,"componentType":5126,"count":903,"type":"VEC3"},{"bufferView":2,"componentType":5126,"count":903,"type":"VEC2"},{"bufferView":3,"componentType":5123,"count":903,"normalized":true,"type":"VEC4"},{"bufferView":4,"componentType":5123,"count":2784,"type":"SCALAR"},{"bufferView":5,"componentType":5126,"count":256,"max":[0.8733592629432678,1.2720000743865967,0.7599999904632568],"min":[-0.39000001549720764,0.36000001430511475,-0.7599999904632568],"type":"VEC3"},{"bufferView":6,"componentType":5126,"count":256,"type":"VEC3"},{"bufferView":7,"componentType":5126,"count":256,"type":"VEC2"},{"bufferView":8,"componentType":5123,"count":256,"normalized":true,"type":"VEC4"},{"bufferView":9,"componentType":5123,"count":1476,"type":"SCALAR"}],"bufferViews":[{"buffer":0,"byteLength":10836,"byteOffset":0,"target":34962},{"buffer":0,"byteLength":10836,"byteOffset":10836,"target":34962},{"buffer":0,"byteLength":7224,"byteOffset":21672,"target":34962},{"buffer":0,"byteLength":7224,"byteOffset":28896,"target":34962},{"buffer":0,"byteLength":5568,"byteOffset":36120,"target":34963},{"buffer":0,"byteLength":3072,"byteOffset":41688,"target":34962},{"buffer":0,"byteLength":3072,"byteOffset":44760,"target":34962},{"buffer":0,"byteLength":2048,"byteOffset":47832,"target":34962},{"buffer":0,"byteLength":2048,"byteOffset":49880,"target":34962},{"buffer":0,"byteLength":2952,"byteOffset":51928,"target":34963}],"samplers":[{"magFilter":9729,"minFilter":9987},{"magFilter":9728,"minFilter":9984}],"buffers":[{"byteLength":54880,"uri":"cart.bin"}]}