{"asset":{"generator":"Khronos glTF Blender I/O v5.2.40","version":"2.0"},"scene":0,"scenes":[{"name":"Scene","nodes":[0]}],"nodes":[{"mesh":0,"name":"crate_stack"}],"materials":[{"doubleSided":true,"name":"wood","pbrMetallicRoughness":{"baseColorTexture":{"index":0},"metallicFactor":0.0,"roughnessFactor":1.0}},{"doubleSided":true,"name":"palette","pbrMetallicRoughness":{"baseColorTexture":{"index":1},"metallicFactor":0.0,"roughnessFactor":1.0}}],"meshes":[{"name":"Cube","primitives":[{"attributes":{"POSITION":0,"NORMAL":1,"TEXCOORD_0":2,"COLOR_0":3},"indices":4,"material":0},{"attributes":{"POSITION":5,"NORMAL":6,"TEXCOORD_0":7,"COLOR_0":8},"indices":9,"material":1}]}],"textures":[{"sampler":0,"source":0},{"sampler":1,"source":1}],"images":[{"mimeType":"image/png","name":"wood.png","uri":"../../textures/wood.png"},{"mimeType":"image/png","name":"palette.png","uri":"../../textures/palette.png"}],"accessors":[{"bufferView":0,"componentType":5126,"count":234,"max":[1.3250086307525635,1.4600000381469727,0.4300000071525574],"min":[-0.4300000071525574,0,-0.5250087380409241],"type":"VEC3"},{"bufferView":1,"componentType":5126,"count":234,"type":"VEC3"},{"bufferView":2,"componentType":5126,"count":234,"type":"VEC2"},{"bufferView":3,"componentType":5123,"count":234,"normalized":true,"type":"VEC4"},{"bufferView":4,"componentType":5123,"count":972,"type":"SCALAR"},{"bufferView":5,"componentType":5126,"count":356,"max":[1.350210189819336,1.3629999160766602,0.44999998807907104],"min":[-0.44999998807907104,0.11020000278949738,-0.550210177898407],"type":"VEC3"},{"bufferView":6,"componentType":5126,"count":356,"type":"VEC3"},{"bufferView":7,"componentType":5126,"count":356,"type":"VEC2"},{"bufferView":8,"componentType":5123,"count":356,"normalized":true,"type":"VEC4"},{"bufferView":9,"componentType":5123,"count":1944,"type":"SCALAR"}],"bufferViews":[{"buffer":0,"byteLength":2808,"byteOffset":0,"target":34962},{"buffer":0,"byteLength":2808,"byteOffset":2808,"target":34962},{"buffer":0,"byteLength":1872,"byteOffset":5616,"target":34962},{"buffer":0,"byteLength":1872,"byteOffset":7488,"target":34962},{"buffer":0,"byteLength":1944,"byteOffset":9360,"target":34963},{"buffer":0,"byteLength":4272,"byteOffset":11304,"target":34962},{"buffer":0,"byteLength":4272,"byteOffset":15576,"target":34962},{"buffer":0,"byteLength":2848,"byteOffset":19848,"target":34962},{"buffer":0,"byteLength":2848,"byteOffset":22696,"target":34962},{"buffer":0,"byteLength":3888,"byteOffset":25544,"target":34963}],"samplers":[{"magFilter":9729,"minFilter":9987},{"magFilter":9728,"minFilter":9984}],"buffers":[{"byteLength":29432,"uri":"crate_stack.bin"}]}