{"asset":{"generator":"Khronos glTF Blender I/O v5.2.40","version":"2.0"},"scene":0,"scenes":[{"name":"Scene","nodes":[0]}],"nodes":[{"mesh":0,"name":"flower_box"}],"materials":[{"doubleSided":true,"name":"wood","pbrMetallicRoughness":{"baseColorTexture":{"index":0},"metallicFactor":0.0,"roughnessFactor":1.0}},{"doubleSided":true,"name":"palette","pbrMetallicRoughness":{"baseColorTexture":{"index":1},"metallicFactor":0.0,"roughnessFactor":1.0}},{"doubleSided":true,"name":"dirt","pbrMetallicRoughness":{"baseColorTexture":{"index":2},"metallicFactor":0.0,"roughnessFactor":1.0}}],"meshes":[{"name":"Cube","primitives":[{"attributes":{"POSITION":0,"NORMAL":1,"TEXCOORD_0":2,"COLOR_0":3},"indices":4,"material":0},{"attributes":{"POSITION":5,"NORMAL":6,"TEXCOORD_0":7,"COLOR_0":8},"indices":9,"material":1},{"attributes":{"POSITION":10,"NORMAL":11,"TEXCOORD_0":12,"COLOR_0":13},"indices":14,"material":2}]}],"textures":[{"sampler":0,"source":0},{"sampler":1,"source":1},{"sampler":0,"source":2}],"images":[{"mimeType":"image/png","name":"wood.png","uri":"../../textures/wood.png"},{"mimeType":"image/png","name":"palette.png","uri":"../../textures/palette.png"},{"mimeType":"image/png","name":"dirt.png","uri":"../../textures/dirt.png"}],"accessors":[{"bufferView":0,"componentType":5126,"count":96,"max":[0.75,0.36000001430511475,0.25],"min":[-0.75,0,-0.25],"type":"VEC3"},{"bufferView":1,"componentType":5126,"count":96,"type":"VEC3"},{"bufferView":2,"componentType":5126,"count":96,"type":"VEC2"},{"bufferView":3,"componentType":5123,"count":96,"normalized":true,"type":"VEC4"},{"bufferView":4,"componentType":5123,"count":324,"type":"SCALAR"},{"bufferView":5,"componentType":5126,"count":392,"max":[0.8100000023841858,0.7700000405311584,0.30000001192092896],"min":[-0.8100000023841858,0.3400000035762787,-0.30000001192092896],"type":"VEC3"},{"bufferView":6,"componentType":5126,"count":392,"type":"VEC3"},{"bufferView":7,"componentType":5126,"count":392,"type":"VEC2"},{"bufferView":8,"componentType":5123,"count":392,"normalized":true,"type":"VEC4"},{"bufferView":9,"componentType":5123,"count":2124,"type":"SCALAR"},{"bufferView":10,"componentType":5126,"count":128,"max":[0.6499999761581421,0.4000000059604645,0.17000000178813934],"min":[-0.6499999761581421,0.320000022649765,-0.17000000178813934],"type":"VEC3"},{"bufferView":11,"componentType":5126,"count":128,"type":"VEC3"},{"bufferView":12,"componentType":5126,"count":128,"type":"VEC2"},{"bufferView":13,"componentType":5123,"count":128,"normalized":true,"type":"VEC4"},{"bufferView":14,"componentType":5123,"count":324,"type":"SCALAR"}],"bufferViews":[{"buffer":0,"byteLength":1152,"byteOffset":0,"target":34962},{"buffer":0,"byteLength":1152,"byteOffset":1152,"target":34962},{"buffer":0,"byteLength":768,"byteOffset":2304,"target":34962},{"buffer":0,"byteLength":768,"byteOffset":3072,"target":34962},{"buffer":0,"byteLength":648,"byteOffset":3840,"target":34963},{"buffer":0,"byteLength":4704,"byteOffset":4488,"target":34962},{"buffer":0,"byteLength":4704,"byteOffset":9192,"target":34962},{"buffer":0,"byteLength":3136,"byteOffset":13896,"target":34962},{"buffer":0,"byteLength":3136,"byteOffset":17032,"target":34962},{"buffer":0,"byteLength":4248,"byteOffset":20168,"target":34963},{"buffer":0,"byteLength":1536,"byteOffset":24416,"target":34962},{"buffer":0,"byteLength":1536,"byteOffset":25952,"target":34962},{"buffer":0,"byteLength":1024,"byteOffset":27488,"target":34962},{"buffer":0,"byteLength":1024,"byteOffset":28512,"target":34962},{"buffer":0,"byteLength":648,"byteOffset":29536,"target":34963}],"samplers":[{"magFilter":9729,"minFilter":9987},{"magFilter":9728,"minFilter":9984}],"buffers":[{"byteLength":30184,"uri":"flower_box.bin"}]}