{"asset":{"generator":"Khronos glTF Blender I/O v5.2.40","version":"2.0"},"scene":0,"scenes":[{"name":"Scene","nodes":[0]}],"nodes":[{"mesh":0,"name":"fountain"}],"materials":[{"doubleSided":true,"name":"stone_wall","pbrMetallicRoughness":{"baseColorTexture":{"index":0},"metallicFactor":0.0,"roughnessFactor":1.0}},{"doubleSided":true,"name":"palette","pbrMetallicRoughness":{"baseColorTexture":{"index":1},"metallicFactor":0.0,"roughnessFactor":1.0}}],"meshes":[{"name":"Cylinder","primitives":[{"attributes":{"POSITION":0,"NORMAL":1,"TEXCOORD_0":2,"COLOR_0":3},"indices":4,"material":0},{"attributes":{"POSITION":5,"NORMAL":6,"TEXCOORD_0":7,"COLOR_0":8},"indices":9,"material":1}]}],"textures":[{"sampler":0,"source":0},{"sampler":1,"source":1}],"images":[{"mimeType":"image/png","name":"stone_wall.png","uri":"../../textures/stone_wall.png"},{"mimeType":"image/png","name":"palette.png","uri":"../../textures/palette.png"}],"accessors":[{"bufferView":0,"componentType":5126,"count":576,"max":[2.680000066757202,4.099999904632568,2.680000066757202],"min":[-2.680000066757202,0,-2.680000066757202],"type":"VEC3"},{"bufferView":1,"componentType":5126,"count":576,"type":"VEC3"},{"bufferView":2,"componentType":5126,"count":576,"type":"VEC2"},{"bufferView":3,"componentType":5123,"count":576,"normalized":true,"type":"VEC4"},{"bufferView":4,"componentType":5123,"count":2208,"type":"SCALAR"},{"bufferView":5,"componentType":5126,"count":208,"max":[2.299999952316284,3.430000066757202,2.299999952316284],"min":[-2.299999952316284,0.8600000143051147,-2.299999952316284],"type":"VEC3"},{"bufferView":6,"componentType":5126,"count":208,"type":"VEC3"},{"bufferView":7,"componentType":5126,"count":208,"type":"VEC2"},{"bufferView":8,"componentType":5123,"count":208,"normalized":true,"type":"VEC4"},{"bufferView":9,"componentType":5123,"count":1104,"type":"SCALAR"}],"bufferViews":[{"buffer":0,"byteLength":6912,"byteOffset":0,"target":34962},{"buffer":0,"byteLength":6912,"byteOffset":6912,"target":34962},{"buffer":0,"byteLength":4608,"byteOffset":13824,"target":34962},{"buffer":0,"byteLength":4608,"byteOffset":18432,"target":34962},{"buffer":0,"byteLength":4416,"byteOffset":23040,"target":34963},{"buffer":0,"byteLength":2496,"byteOffset":27456,"target":34962},{"buffer":0,"byteLength":2496,"byteOffset":29952,"target":34962},{"buffer":0,"byteLength":1664,"byteOffset":32448,"target":34962},{"buffer":0,"byteLength":1664,"byteOffset":34112,"target":34962},{"buffer":0,"byteLength":2208,"byteOffset":35776,"target":34963}],"samplers":[{"magFilter":9729,"minFilter":9987},{"magFilter":9728,"minFilter":9984}],"buffers":[{"byteLength":37984,"uri":"fountain.bin"}]}