{"asset":{"generator":"Khronos glTF Blender I/O v5.2.40","version":"2.0"},"extensionsUsed":["KHR_materials_emissive_strength"],"scene":0,"scenes":[{"name":"Scene","nodes":[0]}],"nodes":[{"mesh":0,"name":"gatehouse"}],"materials":[{"doubleSided":true,"name":"stone_wall","pbrMetallicRoughness":{"baseColorTexture":{"index":0},"metallicFactor":0.0,"roughnessFactor":1.0}},{"doubleSided":true,"name":"roof_tiles","pbrMetallicRoughness":{"baseColorTexture":{"index":1},"metallicFactor":0.0,"roughnessFactor":1.0}},{"doubleSided":true,"name":"palette","pbrMetallicRoughness":{"baseColorTexture":{"index":2},"metallicFactor":0.0,"roughnessFactor":1.0}},{"doubleSided":true,"emissiveFactor":[1,1,1],"emissiveTexture":{"index":3},"name":"palette_glow","pbrMetallicRoughness":{"baseColorTexture":{"index":4},"metallicFactor":0.0,"roughnessFactor":1.0}}],"meshes":[{"name":"Cylinder","primitives":[{"attributes":{"POSITION":0,"NORMAL":1,"TEXCOORD_0":2,"COLOR_0":3},"indices":4,"material":0},{"attributes":{"POSITION":5,"NORMAL":6,"TEXCOORD_0":7,"COLOR_0":8},"indices":9,"material":1},{"attributes":{"POSITION":10,"NORMAL":11,"TEXCOORD_0":12,"COLOR_0":13},"indices":14,"material":2},{"attributes":{"POSITION":15,"NORMAL":16,"TEXCOORD_0":17,"COLOR_0":18},"indices":19,"material":3}]}],"textures":[{"sampler":0,"source":0},{"sampler":0,"source":1},{"sampler":1,"source":2},{"sampler":1,"source":2},{"sampler":1,"source":2}],"images":[{"mimeType":"image/png","name":"stone_wall.png","uri":"../../textures/stone_wall.png"},{"mimeType":"image/png","name":"roof_tiles.png","uri":"../../textures/roof_tiles.png"},{"mimeType":"image/png","name":"palette.png","uri":"../../textures/palette.png"}],"accessors":[{"bufferView":0,"componentType":5126,"count":2611,"max":[5.669999599456787,8.350000381469727,1.7400000095367432],"min":[-5.669999599456787,0,-1.7400000095367432],"type":"VEC3"},{"bufferView":1,"componentType":5126,"count":2611,"type":"VEC3"},{"bufferView":2,"componentType":5126,"count":2611,"type":"VEC2"},{"bufferView":3,"componentType":5123,"count":2611,"normalized":true,"type":"VEC4"},{"bufferView":4,"componentType":5123,"count":7308,"type":"SCALAR"},{"bufferView":5,"componentType":5126,"count":124,"max":[5.932684898376465,10.5,2.0326852798461914],"min":[-5.932684898376465,8.299999237060547,-2.0326852798461914],"type":"VEC3"},{"bufferView":6,"componentType":5126,"count":124,"type":"VEC3"},{"bufferView":7,"componentType":5126,"count":124,"type":"VEC2"},{"bufferView":8,"componentType":5123,"count":124,"normalized":true,"type":"VEC4"},{"bufferView":9,"componentType":5123,"count":276,"type":"SCALAR"},{"bufferView":10,"componentType":5126,"count":624,"max":[4.059999942779541,10.850000381469727,1.8600000143051147],"min":[-4.059999942779541,2.1499998569488525,-1.6299999952316284],"type":"VEC3"},{"bufferView":11,"componentType":5126,"count":624,"type":"VEC3"},{"bufferView":12,"componentType":5126,"count":624,"type":"VEC2"},{"bufferView":13,"componentType":5123,"count":624,"normalized":true,"type":"VEC4"},{"bufferView":14,"componentType":5123,"count":3300,"type":"SCALAR"},{"bufferView":15,"componentType":5126,"count":48,"max":[4.010000228881836,3.5320000648498535,1.8100000619888306],"min":[-4.010000228881836,3.2680001258850098,1.590000033378601],"type":"VEC3"},{"bufferView":16,"componentType":5126,"count":48,"type":"VEC3"},{"bufferView":17,"componentType":5126,"count":48,"type":"VEC2"},{"bufferView":18,"componentType":5123,"count":48,"normalized":true,"type":"VEC4"},{"bufferView":19,"componentType":5123,"count":264,"type":"SCALAR"}],"bufferViews":[{"buffer":0,"byteLength":31332,"byteOffset":0,"target":34962},{"buffer":0,"byteLength":31332,"byteOffset":31332,"target":34962},{"buffer":0,"byteLength":20888,"byteOffset":62664,"target":34962},{"buffer":0,"byteLength":20888,"byteOffset":83552,"target":34962},{"buffer":0,"byteLength":14616,"byteOffset":104440,"target":34963},{"buffer":0,"byteLength":1488,"byteOffset":119056,"target":34962},{"buffer":0,"byteLength":1488,"byteOffset":120544,"target":34962},{"buffer":0,"byteLength":992,"byteOffset":122032,"target":34962},{"buffer":0,"byteLength":992,"byteOffset":123024,"target":34962},{"buffer":0,"byteLength":552,"byteOffset":124016,"target":34963},{"buffer":0,"byteLength":7488,"byteOffset":124568,"target":34962},{"buffer":0,"byteLength":7488,"byteOffset":132056,"target":34962},{"buffer":0,"byteLength":4992,"byteOffset":139544,"target":34962},{"buffer":0,"byteLength":4992,"byteOffset":144536,"target":34962},{"buffer":0,"byteLength":6600,"byteOffset":149528,"target":34963},{"buffer":0,"byteLength":576,"byteOffset":156128,"target":34962},{"buffer":0,"byteLength":576,"byteOffset":156704,"target":34962},{"buffer":0,"byteLength":384,"byteOffset":157280,"target":34962},{"buffer":0,"byteLength":384,"byteOffset":157664,"target":34962},{"buffer":0,"byteLength":528,"byteOffset":158048,"target":34963}],"samplers":[{"magFilter":9729,"minFilter":9987},{"magFilter":9728,"minFilter":9984}],"buffers":[{"byteLength":158576,"uri":"gatehouse.bin"}]}