{"asset":{"generator":"Khronos glTF Blender I/O v5.2.40","version":"2.0"},"extensionsUsed":["KHR_materials_emissive_strength"],"scene":0,"scenes":[{"name":"Scene","nodes":[0]}],"nodes":[{"mesh":0,"name":"guard_tower"}],"materials":[{"doubleSided":true,"name":"stone_wall","pbrMetallicRoughness":{"baseColorTexture":{"index":0},"metallicFactor":0.0,"roughnessFactor":1.0}},{"doubleSided":true,"name":"roof_tiles","pbrMetallicRoughness":{"baseColorTexture":{"index":1},"metallicFactor":0.0,"roughnessFactor":1.0}},{"doubleSided":true,"name":"palette","pbrMetallicRoughness":{"baseColorTexture":{"index":2},"metallicFactor":0.0,"roughnessFactor":1.0}},{"doubleSided":true,"emissiveFactor":[1,1,1],"emissiveTexture":{"index":3},"name":"palette_glow","pbrMetallicRoughness":{"baseColorTexture":{"index":4},"metallicFactor":0.0,"roughnessFactor":1.0}}],"meshes":[{"name":"Cylinder","primitives":[{"attributes":{"POSITION":0,"NORMAL":1,"TEXCOORD_0":2,"COLOR_0":3},"indices":4,"material":0},{"attributes":{"POSITION":5,"NORMAL":6,"TEXCOORD_0":7,"COLOR_0":8},"indices":9,"material":1},{"attributes":{"POSITION":10,"NORMAL":11,"TEXCOORD_0":12,"COLOR_0":13},"indices":14,"material":2},{"attributes":{"POSITION":15,"NORMAL":16,"TEXCOORD_0":17,"COLOR_0":18},"indices":19,"material":3}]}],"textures":[{"sampler":0,"source":0},{"sampler":0,"source":1},{"sampler":1,"source":2},{"sampler":1,"source":2},{"sampler":1,"source":2}],"images":[{"mimeType":"image/png","name":"stone_wall.png","uri":"../../textures/stone_wall.png"},{"mimeType":"image/png","name":"roof_tiles.png","uri":"../../textures/roof_tiles.png"},{"mimeType":"image/png","name":"palette.png","uri":"../../textures/palette.png"}],"accessors":[{"bufferView":0,"componentType":5126,"count":703,"max":[1.6700000762939453,7.150000095367432,1.6399999856948853],"min":[-1.6700000762939453,0,-1.6399999856948853],"type":"VEC3"},{"bufferView":1,"componentType":5126,"count":703,"type":"VEC3"},{"bufferView":2,"componentType":5126,"count":703,"type":"VEC2"},{"bufferView":3,"componentType":5123,"count":703,"normalized":true,"type":"VEC4"},{"bufferView":4,"componentType":5123,"count":2004,"type":"SCALAR"},{"bufferView":5,"componentType":5126,"count":62,"max":[1.9298009872436523,9.300000190734863,1.9298009872436523],"min":[-1.9298009872436523,7.099999904632568,-1.9298009872436523],"type":"VEC3"},{"bufferView":6,"componentType":5126,"count":62,"type":"VEC3"},{"bufferView":7,"componentType":5126,"count":62,"type":"VEC2"},{"bufferView":8,"componentType":5123,"count":62,"normalized":true,"type":"VEC4"},{"bufferView":9,"componentType":5123,"count":138,"type":"SCALAR"},{"bufferView":10,"componentType":5126,"count":224,"max":[0.1599999964237213,9.649999618530273,1.7599999904632568],"min":[-0.1599999964237213,2.1499998569488525,-1.5299999713897705],"type":"VEC3"},{"bufferView":11,"componentType":5126,"count":224,"type":"VEC3"},{"bufferView":12,"componentType":5126,"count":224,"type":"VEC2"},{"bufferView":13,"componentType":5123,"count":224,"normalized":true,"type":"VEC4"},{"bufferView":14,"componentType":5123,"count":1188,"type":"SCALAR"},{"bufferView":15,"componentType":5126,"count":24,"max":[0.10999999940395355,3.5320000648498535,1.7100000381469727],"min":[-0.10999999940395355,3.2680001258850098,1.4900000095367432],"type":"VEC3"},{"bufferView":16,"componentType":5126,"count":24,"type":"VEC3"},{"bufferView":17,"componentType":5126,"count":24,"type":"VEC2"},{"bufferView":18,"componentType":5123,"count":24,"normalized":true,"type":"VEC4"},{"bufferView":19,"componentType":5123,"count":132,"type":"SCALAR"}],"bufferViews":[{"buffer":0,"byteLength":8436,"byteOffset":0,"target":34962},{"buffer":0,"byteLength":8436,"byteOffset":8436,"target":34962},{"buffer":0,"byteLength":5624,"byteOffset":16872,"target":34962},{"buffer":0,"byteLength":5624,"byteOffset":22496,"target":34962},{"buffer":0,"byteLength":4008,"byteOffset":28120,"target":34963},{"buffer":0,"byteLength":744,"byteOffset":32128,"target":34962},{"buffer":0,"byteLength":744,"byteOffset":32872,"target":34962},{"buffer":0,"byteLength":496,"byteOffset":33616,"target":34962},{"buffer":0,"byteLength":496,"byteOffset":34112,"target":34962},{"buffer":0,"byteLength":276,"byteOffset":34608,"target":34963},{"buffer":0,"byteLength":2688,"byteOffset":34884,"target":34962},{"buffer":0,"byteLength":2688,"byteOffset":37572,"target":34962},{"buffer":0,"byteLength":1792,"byteOffset":40260,"target":34962},{"buffer":0,"byteLength":1792,"byteOffset":42052,"target":34962},{"buffer":0,"byteLength":2376,"byteOffset":43844,"target":34963},{"buffer":0,"byteLength":288,"byteOffset":46220,"target":34962},{"buffer":0,"byteLength":288,"byteOffset":46508,"target":34962},{"buffer":0,"byteLength":192,"byteOffset":46796,"target":34962},{"buffer":0,"byteLength":192,"byteOffset":46988,"target":34962},{"buffer":0,"byteLength":264,"byteOffset":47180,"target":34963}],"samplers":[{"magFilter":9729,"minFilter":9987},{"magFilter":9728,"minFilter":9984}],"buffers":[{"byteLength":47444,"uri":"guard_tower.bin"}]}