{"asset":{"generator":"Khronos glTF Blender I/O v5.2.40","version":"2.0"},"scene":0,"scenes":[{"name":"Scene","nodes":[0]}],"nodes":[{"mesh":0,"name":"hedge"}],"materials":[{"doubleSided":true,"name":"palette","pbrMetallicRoughness":{"baseColorTexture":{"index":0},"metallicFactor":0.0,"roughnessFactor":1.0}},{"doubleSided":true,"name":"dirt","pbrMetallicRoughness":{"baseColorTexture":{"index":1},"metallicFactor":0.0,"roughnessFactor":1.0}}],"meshes":[{"name":"Cube","primitives":[{"attributes":{"POSITION":0,"NORMAL":1,"TEXCOORD_0":2,"COLOR_0":3},"indices":4,"material":0},{"attributes":{"POSITION":5,"NORMAL":6,"TEXCOORD_0":7,"COLOR_0":8},"indices":9,"material":1}]}],"textures":[{"sampler":0,"source":0},{"sampler":1,"source":1}],"images":[{"mimeType":"image/png","name":"palette.png","uri":"../../textures/palette.png"},{"mimeType":"image/png","name":"dirt.png","uri":"../../textures/dirt.png"}],"accessors":[{"bufferView":0,"componentType":5126,"count":316,"max":[1.1043381690979004,1.1119999885559082,0.3499999940395355],"min":[-1.1043381690979004,0,-0.3499999940395355],"type":"VEC3"},{"bufferView":1,"componentType":5126,"count":316,"type":"VEC3"},{"bufferView":2,"componentType":5126,"count":316,"type":"VEC2"},{"bufferView":3,"componentType":5123,"count":316,"normalized":true,"type":"VEC4"},{"bufferView":4,"componentType":5123,"count":1824,"type":"SCALAR"},{"bufferView":5,"componentType":5126,"count":96,"max":[1.0499999523162842,0.1599999964237213,0.4000000059604645],"min":[-1.0499999523162842,0,-0.4000000059604645],"type":"VEC3"},{"bufferView":6,"componentType":5126,"count":96,"type":"VEC3"},{"bufferView":7,"componentType":5126,"count":96,"type":"VEC2"},{"bufferView":8,"componentType":5123,"count":96,"normalized":true,"type":"VEC4"},{"bufferView":9,"componentType":5123,"count":324,"type":"SCALAR"}],"bufferViews":[{"buffer":0,"byteLength":3792,"byteOffset":0,"target":34962},{"buffer":0,"byteLength":3792,"byteOffset":3792,"target":34962},{"buffer":0,"byteLength":2528,"byteOffset":7584,"target":34962},{"buffer":0,"byteLength":2528,"byteOffset":10112,"target":34962},{"buffer":0,"byteLength":3648,"byteOffset":12640,"target":34963},{"buffer":0,"byteLength":1152,"byteOffset":16288,"target":34962},{"buffer":0,"byteLength":1152,"byteOffset":17440,"target":34962},{"buffer":0,"byteLength":768,"byteOffset":18592,"target":34962},{"buffer":0,"byteLength":768,"byteOffset":19360,"target":34962},{"buffer":0,"byteLength":648,"byteOffset":20128,"target":34963}],"samplers":[{"magFilter":9728,"minFilter":9984},{"magFilter":9729,"minFilter":9987}],"buffers":[{"byteLength":20776,"uri":"hedge.bin"}]}