{"asset":{"generator":"Khronos glTF Blender I/O v5.2.40","version":"2.0"},"extensionsUsed":["KHR_materials_emissive_strength"],"scene":0,"scenes":[{"name":"Scene","nodes":[0]}],"nodes":[{"mesh":0,"name":"house_a"}],"materials":[{"doubleSided":true,"name":"stone_wall","pbrMetallicRoughness":{"baseColorTexture":{"index":0},"metallicFactor":0.0,"roughnessFactor":1.0}},{"doubleSided":true,"name":"plaster","pbrMetallicRoughness":{"baseColorTexture":{"index":1},"metallicFactor":0.0,"roughnessFactor":1.0}},{"doubleSided":true,"name":"wood","pbrMetallicRoughness":{"baseColorTexture":{"index":2},"metallicFactor":0.0,"roughnessFactor":1.0}},{"doubleSided":true,"name":"roof_tiles","pbrMetallicRoughness":{"baseColorTexture":{"index":3},"metallicFactor":0.0,"roughnessFactor":1.0}},{"doubleSided":true,"name":"palette","pbrMetallicRoughness":{"baseColorTexture":{"index":4},"metallicFactor":0.0,"roughnessFactor":1.0}},{"doubleSided":true,"emissiveFactor":[1,1,1],"emissiveTexture":{"index":5},"name":"palette_glow","pbrMetallicRoughness":{"baseColorTexture":{"index":6},"metallicFactor":0.0,"roughnessFactor":1.0}}],"meshes":[{"name":"Cube","primitives":[{"attributes":{"POSITION":0,"NORMAL":1,"TEXCOORD_0":2,"COLOR_0":3},"indices":4,"material":0},{"attributes":{"POSITION":5,"NORMAL":6,"TEXCOORD_0":7,"COLOR_0":8},"indices":9,"material":1},{"attributes":{"POSITION":10,"NORMAL":11,"TEXCOORD_0":12,"COLOR_0":13},"indices":14,"material":2},{"attributes":{"POSITION":15,"NORMAL":16,"TEXCOORD_0":17,"COLOR_0":18},"indices":19,"material":3},{"attributes":{"POSITION":20,"NORMAL":21,"TEXCOORD_0":22,"COLOR_0":23},"indices":24,"material":4},{"attributes":{"POSITION":25,"NORMAL":26,"TEXCOORD_0":27,"COLOR_0":28},"indices":29,"material":5}]}],"textures":[{"sampler":0,"source":0},{"sampler":0,"source":1},{"sampler":0,"source":2},{"sampler":0,"source":3},{"sampler":1,"source":4},{"sampler":1,"source":4},{"sampler":1,"source":4}],"images":[{"mimeType":"image/png","name":"stone_wall.png","uri":"../../textures/stone_wall.png"},{"mimeType":"image/png","name":"plaster.png","uri":"../../textures/plaster.png"},{"mimeType":"image/png","name":"wood.png","uri":"../../textures/wood.png"},{"mimeType":"image/png","name":"roof_tiles.png","uri":"../../textures/roof_tiles.png"},{"mimeType":"image/png","name":"palette.png","uri":"../../textures/palette.png"}],"accessors":[{"bufferView":0,"componentType":5126,"count":328,"max":[2.690000057220459,5.699999809265137,2.8499999046325684],"min":[-2.690000057220459,0,-2.4100000858306885],"type":"VEC3"},{"bufferView":1,"componentType":5126,"count":328,"type":"VEC3"},{"bufferView":2,"componentType":5126,"count":328,"type":"VEC2"},{"bufferView":3,"componentType":5123,"count":328,"normalized":true,"type":"VEC4"},{"bufferView":4,"componentType":5123,"count":924,"type":"SCALAR"},{"bufferView":5,"componentType":5126,"count":124,"max":[2.690000057220459,5.183659076690674,2.200000047683716],"min":[-2.690000057220459,0.36000001430511475,-2.200000047683716],"type":"VEC3"},{"bufferView":6,"componentType":5126,"count":124,"type":"VEC3"},{"bufferView":7,"componentType":5126,"count":124,"type":"VEC2"},{"bufferView":8,"componentType":5123,"count":124,"normalized":true,"type":"VEC4"},{"bufferView":9,"componentType":5123,"count":324,"type":"SCALAR"},{"bufferView":10,"componentType":5126,"count":2552,"max":[3.0899999141693115,5.342321395874023,2.6762208938598633],"min":[-3.0899999141693115,0.36000001430511475,-2.6762208938598633],"type":"VEC3"},{"bufferView":11,"componentType":5126,"count":2552,"type":"VEC3"},{"bufferView":12,"componentType":5126,"count":2552,"type":"VEC2"},{"bufferView":13,"componentType":5123,"count":2552,"normalized":true,"type":"VEC4"},{"bufferView":14,"componentType":5123,"count":7656,"type":"SCALAR"},{"bufferView":15,"componentType":5126,"count":48,"max":[3.049999952316284,5.250448226928711,2.6820478439331055],"min":[-3.049999952316284,3.24955153465271,-2.6820478439331055],"type":"VEC3"},{"bufferView":16,"componentType":5126,"count":48,"type":"VEC3"},{"bufferView":17,"componentType":5126,"count":48,"type":"VEC2"},{"bufferView":18,"componentType":5123,"count":48,"normalized":true,"type":"VEC4"},{"bufferView":19,"componentType":5123,"count":264,"type":"SCALAR"},{"bufferView":20,"componentType":5126,"count":1348,"max":[2.700000047683716,5.779999732971191,2.620000123977661],"min":[-2.700000047683716,0.36000001430511475,-2.2200000286102295],"type":"VEC3"},{"bufferView":21,"componentType":5126,"count":1348,"type":"VEC3"},{"bufferView":22,"componentType":5126,"count":1348,"type":"VEC2"},{"bufferView":23,"componentType":5123,"count":1348,"normalized":true,"type":"VEC4"},{"bufferView":24,"componentType":5123,"count":7068,"type":"SCALAR"},{"bufferView":25,"componentType":5126,"count":24,"max":[1.059999942779541,2.631999969482422,2.429999828338623],"min":[0.8399999737739563,2.368000030517578,2.2100000381469727],"type":"VEC3"},{"bufferView":26,"componentType":5126,"count":24,"type":"VEC3"},{"bufferView":27,"componentType":5126,"count":24,"type":"VEC2"},{"bufferView":28,"componentType":5123,"count":24,"normalized":true,"type":"VEC4"},{"bufferView":29,"componentType":5123,"count":132,"type":"SCALAR"}],"bufferViews":[{"buffer":0,"byteLength":3936,"byteOffset":0,"target":34962},{"buffer":0,"byteLength":3936,"byteOffset":3936,"target":34962},{"buffer":0,"byteLength":2624,"byteOffset":7872,"target":34962},{"buffer":0,"byteLength":2624,"byteOffset":10496,"target":34962},{"buffer":0,"byteLength":1848,"byteOffset":13120,"target":34963},{"buffer":0,"byteLength":1488,"byteOffset":14968,"target":34962},{"buffer":0,"byteLength":1488,"byteOffset":16456,"target":34962},{"buffer":0,"byteLength":992,"byteOffset":17944,"target":34962},{"buffer":0,"byteLength":992,"byteOffset":18936,"target":34962},{"buffer":0,"byteLength":648,"byteOffset":19928,"target":34963},{"buffer":0,"byteLength":30624,"byteOffset":20576,"target":34962},{"buffer":0,"byteLength":30624,"byteOffset":51200,"target":34962},{"buffer":0,"byteLength":20416,"byteOffset":81824,"target":34962},{"buffer":0,"byteLength":20416,"byteOffset":102240,"target":34962},{"buffer":0,"byteLength":15312,"byteOffset":122656,"target":34963},{"buffer":0,"byteLength":576,"byteOffset":137968,"target":34962},{"buffer":0,"byteLength":576,"byteOffset":138544,"target":34962},{"buffer":0,"byteLength":384,"byteOffset":139120,"target":34962},{"buffer":0,"byteLength":384,"byteOffset":139504,"target":34962},{"buffer":0,"byteLength":528,"byteOffset":139888,"target":34963},{"buffer":0,"byteLength":16176,"byteOffset":140416,"target":34962},{"buffer":0,"byteLength":16176,"byteOffset":156592,"target":34962},{"buffer":0,"byteLength":10784,"byteOffset":172768,"target":34962},{"buffer":0,"byteLength":10784,"byteOffset":183552,"target":34962},{"buffer":0,"byteLength":14136,"byteOffset":194336,"target":34963},{"buffer":0,"byteLength":288,"byteOffset":208472,"target":34962},{"buffer":0,"byteLength":288,"byteOffset":208760,"target":34962},{"buffer":0,"byteLength":192,"byteOffset":209048,"target":34962},{"buffer":0,"byteLength":192,"byteOffset":209240,"target":34962},{"buffer":0,"byteLength":264,"byteOffset":209432,"target":34963}],"samplers":[{"magFilter":9729,"minFilter":9987},{"magFilter":9728,"minFilter":9984}],"buffers":[{"byteLength":209696,"uri":"house_a.bin"}]}