{"asset":{"generator":"Khronos glTF Blender I/O v5.2.40","version":"2.0"},"scene":0,"scenes":[{"name":"Scene","nodes":[0]}],"nodes":[{"mesh":0,"name":"house_b"}],"materials":[{"doubleSided":true,"name":"stone_wall","pbrMetallicRoughness":{"baseColorTexture":{"index":0},"metallicFactor":0.0,"roughnessFactor":1.0}},{"doubleSided":true,"name":"plaster","pbrMetallicRoughness":{"baseColorTexture":{"index":1},"metallicFactor":0.0,"roughnessFactor":1.0}},{"doubleSided":true,"name":"wood","pbrMetallicRoughness":{"baseColorTexture":{"index":2},"metallicFactor":0.0,"roughnessFactor":1.0}},{"doubleSided":true,"name":"roof_tiles","pbrMetallicRoughness":{"baseColorTexture":{"index":3},"metallicFactor":0.0,"roughnessFactor":1.0}},{"doubleSided":true,"name":"palette","pbrMetallicRoughness":{"baseColorTexture":{"index":4},"metallicFactor":0.0,"roughnessFactor":1.0}}],"meshes":[{"name":"Cube","primitives":[{"attributes":{"POSITION":0,"NORMAL":1,"TEXCOORD_0":2,"COLOR_0":3},"indices":4,"material":0},{"attributes":{"POSITION":5,"NORMAL":6,"TEXCOORD_0":7,"COLOR_0":8},"indices":9,"material":1},{"attributes":{"POSITION":10,"NORMAL":11,"TEXCOORD_0":12,"COLOR_0":13},"indices":14,"material":2},{"attributes":{"POSITION":15,"NORMAL":16,"TEXCOORD_0":17,"COLOR_0":18},"indices":19,"material":3},{"attributes":{"POSITION":20,"NORMAL":21,"TEXCOORD_0":22,"COLOR_0":23},"indices":24,"material":4}]}],"textures":[{"sampler":0,"source":0},{"sampler":0,"source":1},{"sampler":0,"source":2},{"sampler":0,"source":3},{"sampler":1,"source":4}],"images":[{"mimeType":"image/png","name":"stone_wall.png","uri":"../../textures/stone_wall.png"},{"mimeType":"image/png","name":"plaster.png","uri":"../../textures/plaster.png"},{"mimeType":"image/png","name":"wood.png","uri":"../../textures/wood.png"},{"mimeType":"image/png","name":"roof_tiles.png","uri":"../../textures/roof_tiles.png"},{"mimeType":"image/png","name":"palette.png","uri":"../../textures/palette.png"}],"accessors":[{"bufferView":0,"componentType":5126,"count":472,"max":[2.4100000858306885,6.099999904632568,3.3499999046325684],"min":[-2.2899999618530273,0,-2.7899999618530273],"type":"VEC3"},{"bufferView":1,"componentType":5126,"count":472,"type":"VEC3"},{"bufferView":2,"componentType":5126,"count":472,"type":"VEC2"},{"bufferView":3,"componentType":5123,"count":472,"normalized":true,"type":"VEC4"},{"bufferView":4,"componentType":5123,"count":1320,"type":"SCALAR"},{"bufferView":5,"componentType":5126,"count":124,"max":[2.180217742919922,5.584713935852051,2.7900002002716064],"min":[-2.180217742919922,1.4600000381469727,-2.7900002002716064],"type":"VEC3"},{"bufferView":6,"componentType":5126,"count":124,"type":"VEC3"},{"bufferView":7,"componentType":5126,"count":124,"type":"VEC2"},{"bufferView":8,"componentType":5123,"count":124,"normalized":true,"type":"VEC4"},{"bufferView":9,"componentType":5123,"count":324,"type":"SCALAR"},{"bufferView":10,"componentType":5126,"count":2808,"max":[2.674298048019409,5.745419979095459,3.190000057220459],"min":[-2.674298048019409,0.36000001430511475,-3.190000057220459],"type":"VEC3"},{"bufferView":11,"componentType":5126,"count":2808,"type":"VEC3"},{"bufferView":12,"componentType":5126,"count":2808,"type":"VEC2"},{"bufferView":13,"componentType":5123,"count":2808,"normalized":true,"type":"VEC4"},{"bufferView":14,"componentType":5123,"count":8448,"type":"SCALAR"},{"bufferView":15,"componentType":5126,"count":48,"max":[2.6796975135803223,5.653836727142334,3.1500000953674316],"min":[-2.6796975135803223,3.846163511276245,-3.1500000953674316],"type":"VEC3"},{"bufferView":16,"componentType":5126,"count":48,"type":"VEC3"},{"bufferView":17,"componentType":5126,"count":48,"type":"VEC2"},{"bufferView":18,"componentType":5123,"count":48,"normalized":true,"type":"VEC4"},{"bufferView":19,"componentType":5123,"count":264,"type":"SCALAR"},{"bufferView":20,"componentType":5126,"count":724,"max":[2.2200000286102295,6.179999828338623,2.875],"min":[-2.130000114440918,0.36000001430511475,-2.799999952316284],"type":"VEC3"},{"bufferView":21,"componentType":5126,"count":724,"type":"VEC3"},{"bufferView":22,"componentType":5126,"count":724,"type":"VEC2"},{"bufferView":23,"componentType":5123,"count":724,"normalized":true,"type":"VEC4"},{"bufferView":24,"componentType":5123,"count":3468,"type":"SCALAR"}],"bufferViews":[{"buffer":0,"byteLength":5664,"byteOffset":0,"target":34962},{"buffer":0,"byteLength":5664,"byteOffset":5664,"target":34962},{"buffer":0,"byteLength":3776,"byteOffset":11328,"target":34962},{"buffer":0,"byteLength":3776,"byteOffset":15104,"target":34962},{"buffer":0,"byteLength":2640,"byteOffset":18880,"target":34963},{"buffer":0,"byteLength":1488,"byteOffset":21520,"target":34962},{"buffer":0,"byteLength":1488,"byteOffset":23008,"target":34962},{"buffer":0,"byteLength":992,"byteOffset":24496,"target":34962},{"buffer":0,"byteLength":992,"byteOffset":25488,"target":34962},{"buffer":0,"byteLength":648,"byteOffset":26480,"target":34963},{"buffer":0,"byteLength":33696,"byteOffset":27128,"target":34962},{"buffer":0,"byteLength":33696,"byteOffset":60824,"target":34962},{"buffer":0,"byteLength":22464,"byteOffset":94520,"target":34962},{"buffer":0,"byteLength":22464,"byteOffset":116984,"target":34962},{"buffer":0,"byteLength":16896,"byteOffset":139448,"target":34963},{"buffer":0,"byteLength":576,"byteOffset":156344,"target":34962},{"buffer":0,"byteLength":576,"byteOffset":156920,"target":34962},{"buffer":0,"byteLength":384,"byteOffset":157496,"target":34962},{"buffer":0,"byteLength":384,"byteOffset":157880,"target":34962},{"buffer":0,"byteLength":528,"byteOffset":158264,"target":34963},{"buffer":0,"byteLength":8688,"byteOffset":158792,"target":34962},{"buffer":0,"byteLength":8688,"byteOffset":167480,"target":34962},{"buffer":0,"byteLength":5792,"byteOffset":176168,"target":34962},{"buffer":0,"byteLength":5792,"byteOffset":181960,"target":34962},{"buffer":0,"byteLength":6936,"byteOffset":187752,"target":34963}],"samplers":[{"magFilter":9729,"minFilter":9987},{"magFilter":9728,"minFilter":9984}],"buffers":[{"byteLength":194688,"uri":"house_b.bin"}]}