{"asset":{"generator":"Khronos glTF Blender I/O v5.2.40","version":"2.0"},"extensionsUsed":["KHR_materials_emissive_strength"],"scene":0,"scenes":[{"name":"Scene","nodes":[0]}],"nodes":[{"mesh":0,"name":"inn"}],"materials":[{"doubleSided":true,"name":"stone_wall","pbrMetallicRoughness":{"baseColorTexture":{"index":0},"metallicFactor":0.0,"roughnessFactor":1.0}},{"doubleSided":true,"name":"plaster","pbrMetallicRoughness":{"baseColorTexture":{"index":1},"metallicFactor":0.0,"roughnessFactor":1.0}},{"doubleSided":true,"name":"wood","pbrMetallicRoughness":{"baseColorTexture":{"index":2},"metallicFactor":0.0,"roughnessFactor":1.0}},{"doubleSided":true,"name":"roof_tiles","pbrMetallicRoughness":{"baseColorTexture":{"index":3},"metallicFactor":0.0,"roughnessFactor":1.0}},{"doubleSided":true,"name":"palette","pbrMetallicRoughness":{"baseColorTexture":{"index":4},"metallicFactor":0.0,"roughnessFactor":1.0}},{"doubleSided":true,"emissiveFactor":[1,1,1],"emissiveTexture":{"index":5},"name":"palette_glow","pbrMetallicRoughness":{"baseColorTexture":{"index":6},"metallicFactor":0.0,"roughnessFactor":1.0}}],"meshes":[{"name":"Cube","primitives":[{"attributes":{"POSITION":0,"NORMAL":1,"TEXCOORD_0":2,"COLOR_0":3},"indices":4,"material":0},{"attributes":{"POSITION":5,"NORMAL":6,"TEXCOORD_0":7,"COLOR_0":8},"indices":9,"material":1},{"attributes":{"POSITION":10,"NORMAL":11,"TEXCOORD_0":12,"COLOR_0":13},"indices":14,"material":2},{"attributes":{"POSITION":15,"NORMAL":16,"TEXCOORD_0":17,"COLOR_0":18},"indices":19,"material":3},{"attributes":{"POSITION":20,"NORMAL":21,"TEXCOORD_0":22,"COLOR_0":23},"indices":24,"material":4},{"attributes":{"POSITION":25,"NORMAL":26,"TEXCOORD_0":27,"COLOR_0":28},"indices":29,"material":5}]}],"textures":[{"sampler":0,"source":0},{"sampler":0,"source":1},{"sampler":0,"source":2},{"sampler":0,"source":3},{"sampler":1,"source":4},{"sampler":1,"source":4},{"sampler":1,"source":4}],"images":[{"mimeType":"image/png","name":"stone_wall.png","uri":"../../textures/stone_wall.png"},{"mimeType":"image/png","name":"plaster.png","uri":"../../textures/plaster.png"},{"mimeType":"image/png","name":"wood.png","uri":"../../textures/wood.png"},{"mimeType":"image/png","name":"roof_tiles.png","uri":"../../textures/roof_tiles.png"},{"mimeType":"image/png","name":"palette.png","uri":"../../textures/palette.png"}],"accessors":[{"bufferView":0,"componentType":5126,"count":760,"max":[3.9600000381469727,8.90000057220459,3.3499999046325684],"min":[-3.9600000381469727,0,-2.7899999618530273],"type":"VEC3"},{"bufferView":1,"componentType":5126,"count":760,"type":"VEC3"},{"bufferView":2,"componentType":5126,"count":760,"type":"VEC2"},{"bufferView":3,"componentType":5123,"count":760,"normalized":true,"type":"VEC4"},{"bufferView":4,"componentType":5123,"count":2112,"type":"SCALAR"},{"bufferView":5,"componentType":5126,"count":124,"max":[3.8400001525878906,8.1859712600708,2.950000047683716],"min":[-3.8400001525878906,3.299999952316284,-2.950000047683716],"type":"VEC3"},{"bufferView":6,"componentType":5126,"count":124,"type":"VEC3"},{"bufferView":7,"componentType":5126,"count":124,"type":"VEC2"},{"bufferView":8,"componentType":5123,"count":124,"normalized":true,"type":"VEC4"},{"bufferView":9,"componentType":5123,"count":324,"type":"SCALAR"},{"bufferView":10,"componentType":5126,"count":4447,"max":[4.340000152587891,8.348373413085938,4.159999847412109],"min":[-4.340000152587891,0.3999999761581421,-3.5223262310028076],"type":"VEC3"},{"bufferView":11,"componentType":5126,"count":4447,"type":"VEC3"},{"bufferView":12,"componentType":5126,"count":4447,"type":"VEC2"},{"bufferView":13,"componentType":5123,"count":4447,"normalized":true,"type":"VEC4"},{"bufferView":14,"componentType":5123,"count":13464,"type":"SCALAR"},{"bufferView":15,"componentType":5126,"count":48,"max":[4.300000190734863,8.257055282592773,3.527287483215332],"min":[-4.300000190734863,6.142943859100342,-3.527287483215332],"type":"VEC3"},{"bufferView":16,"componentType":5126,"count":48,"type":"VEC3"},{"bufferView":17,"componentType":5126,"count":48,"type":"VEC2"},{"bufferView":18,"componentType":5123,"count":48,"normalized":true,"type":"VEC4"},{"bufferView":19,"componentType":5123,"count":264,"type":"SCALAR"},{"bufferView":20,"componentType":5126,"count":1384,"max":[3.880000114440918,8.979999542236328,3.9150002002716064],"min":[-3.8499999046325684,0.3999999761581421,-2.119999885559082],"type":"VEC3"},{"bufferView":21,"componentType":5126,"count":1384,"type":"VEC3"},{"bufferView":22,"componentType":5126,"count":1384,"type":"VEC2"},{"bufferView":23,"componentType":5123,"count":1384,"normalized":true,"type":"VEC4"},{"bufferView":24,"componentType":5123,"count":7560,"type":"SCALAR"},{"bufferView":25,"componentType":5126,"count":96,"max":[2.6999998092651367,3.069999933242798,3.75],"min":[-2.8999998569488525,2.830000162124634,3.5500001907348633],"type":"VEC3"},{"bufferView":26,"componentType":5126,"count":96,"type":"VEC3"},{"bufferView":27,"componentType":5126,"count":96,"type":"VEC2"},{"bufferView":28,"componentType":5123,"count":96,"normalized":true,"type":"VEC4"},{"bufferView":29,"componentType":5123,"count":528,"type":"SCALAR"}],"bufferViews":[{"buffer":0,"byteLength":9120,"byteOffset":0,"target":34962},{"buffer":0,"byteLength":9120,"byteOffset":9120,"target":34962},{"buffer":0,"byteLength":6080,"byteOffset":18240,"target":34962},{"buffer":0,"byteLength":6080,"byteOffset":24320,"target":34962},{"buffer":0,"byteLength":4224,"byteOffset":30400,"target":34963},{"buffer":0,"byteLength":1488,"byteOffset":34624,"target":34962},{"buffer":0,"byteLength":1488,"byteOffset":36112,"target":34962},{"buffer":0,"byteLength":992,"byteOffset":37600,"target":34962},{"buffer":0,"byteLength":992,"byteOffset":38592,"target":34962},{"buffer":0,"byteLength":648,"byteOffset":39584,"target":34963},{"buffer":0,"byteLength":53364,"byteOffset":40232,"target":34962},{"buffer":0,"byteLength":53364,"byteOffset":93596,"target":34962},{"buffer":0,"byteLength":35576,"byteOffset":146960,"target":34962},{"buffer":0,"byteLength":35576,"byteOffset":182536,"target":34962},{"buffer":0,"byteLength":26928,"byteOffset":218112,"target":34963},{"buffer":0,"byteLength":576,"byteOffset":245040,"target":34962},{"buffer":0,"byteLength":576,"byteOffset":245616,"target":34962},{"buffer":0,"byteLength":384,"byteOffset":246192,"target":34962},{"buffer":0,"byteLength":384,"byteOffset":246576,"target":34962},{"buffer":0,"byteLength":528,"byteOffset":246960,"target":34963},{"buffer":0,"byteLength":16608,"byteOffset":247488,"target":34962},{"buffer":0,"byteLength":16608,"byteOffset":264096,"target":34962},{"buffer":0,"byteLength":11072,"byteOffset":280704,"target":34962},{"buffer":0,"byteLength":11072,"byteOffset":291776,"target":34962},{"buffer":0,"byteLength":15120,"byteOffset":302848,"target":34963},{"buffer":0,"byteLength":1152,"byteOffset":317968,"target":34962},{"buffer":0,"byteLength":1152,"byteOffset":319120,"target":34962},{"buffer":0,"byteLength":768,"byteOffset":320272,"target":34962},{"buffer":0,"byteLength":768,"byteOffset":321040,"target":34962},{"buffer":0,"byteLength":1056,"byteOffset":321808,"target":34963}],"samplers":[{"magFilter":9729,"minFilter":9987},{"magFilter":9728,"minFilter":9984}],"buffers":[{"byteLength":322864,"uri":"inn.bin"}]}