{"asset":{"generator":"Khronos glTF Blender I/O v5.2.40","version":"2.0"},"extensionsUsed":["KHR_materials_emissive_strength"],"scene":0,"scenes":[{"name":"Scene","nodes":[0]}],"nodes":[{"mesh":0,"name":"lamp_post"}],"materials":[{"doubleSided":true,"name":"stone_wall","pbrMetallicRoughness":{"baseColorTexture":{"index":0},"metallicFactor":0.0,"roughnessFactor":1.0}},{"doubleSided":true,"name":"wood","pbrMetallicRoughness":{"baseColorTexture":{"index":1},"metallicFactor":0.0,"roughnessFactor":1.0}},{"doubleSided":true,"name":"palette","pbrMetallicRoughness":{"baseColorTexture":{"index":2},"metallicFactor":0.0,"roughnessFactor":1.0}},{"doubleSided":true,"emissiveFactor":[1,1,1],"emissiveTexture":{"index":3},"name":"palette_glow","pbrMetallicRoughness":{"baseColorTexture":{"index":4},"metallicFactor":0.0,"roughnessFactor":1.0}}],"meshes":[{"name":"Cylinder","primitives":[{"attributes":{"POSITION":0,"NORMAL":1,"TEXCOORD_0":2,"COLOR_0":3},"indices":4,"material":0},{"attributes":{"POSITION":5,"NORMAL":6,"TEXCOORD_0":7,"COLOR_0":8},"indices":9,"material":1},{"attributes":{"POSITION":10,"NORMAL":11,"TEXCOORD_0":12,"COLOR_0":13},"indices":14,"material":2},{"attributes":{"POSITION":15,"NORMAL":16,"TEXCOORD_0":17,"COLOR_0":18},"indices":19,"material":3}]}],"textures":[{"sampler":0,"source":0},{"sampler":0,"source":1},{"sampler":1,"source":2},{"sampler":1,"source":2},{"sampler":1,"source":2}],"images":[{"mimeType":"image/png","name":"stone_wall.png","uri":"../../textures/stone_wall.png"},{"mimeType":"image/png","name":"wood.png","uri":"../../textures/wood.png"},{"mimeType":"image/png","name":"palette.png","uri":"../../textures/palette.png"}],"accessors":[{"bufferView":0,"componentType":5126,"count":72,"max":[0.30000001192092896,0.25999999046325684,0.30000001192092896],"min":[-0.30000001192092896,0,-0.30000001192092896],"type":"VEC3"},{"bufferView":1,"componentType":5126,"count":72,"type":"VEC3"},{"bufferView":2,"componentType":5126,"count":72,"type":"VEC2"},{"bufferView":3,"componentType":5123,"count":72,"normalized":true,"type":"VEC4"},{"bufferView":4,"componentType":5123,"count":276,"type":"SCALAR"},{"bufferView":5,"componentType":5126,"count":72,"max":[0.10999999940395355,3.0999999046325684,0.10999999940395355],"min":[-0.10999999940395355,0.10000002384185791,-0.10999999940395355],"type":"VEC3"},{"bufferView":6,"componentType":5126,"count":72,"type":"VEC3"},{"bufferView":7,"componentType":5126,"count":72,"type":"VEC2"},{"bufferView":8,"componentType":5123,"count":72,"normalized":true,"type":"VEC4"},{"bufferView":9,"componentType":5123,"count":276,"type":"SCALAR"},{"bufferView":10,"componentType":5126,"count":281,"max":[0.17000000178813934,3.3499999046325684,0.7700000405311584],"min":[-0.17000000178813934,2.5411999225616455,-0.14578860998153687],"type":"VEC3"},{"bufferView":11,"componentType":5126,"count":281,"type":"VEC3"},{"bufferView":12,"componentType":5126,"count":281,"type":"VEC2"},{"bufferView":13,"componentType":5123,"count":281,"normalized":true,"type":"VEC4"},{"bufferView":14,"componentType":5123,"count":1434,"type":"SCALAR"},{"bufferView":15,"componentType":5126,"count":56,"max":[0.11999999731779099,2.864000082015991,0.7200000286102295],"min":[-0.11999999731779099,2.5759999752044678,0.48000001907348633],"type":"VEC3"},{"bufferView":16,"componentType":5126,"count":56,"type":"VEC3"},{"bufferView":17,"componentType":5126,"count":56,"type":"VEC2"},{"bufferView":18,"componentType":5123,"count":56,"normalized":true,"type":"VEC4"},{"bufferView":19,"componentType":5123,"count":324,"type":"SCALAR"}],"bufferViews":[{"buffer":0,"byteLength":864,"byteOffset":0,"target":34962},{"buffer":0,"byteLength":864,"byteOffset":864,"target":34962},{"buffer":0,"byteLength":576,"byteOffset":1728,"target":34962},{"buffer":0,"byteLength":576,"byteOffset":2304,"target":34962},{"buffer":0,"byteLength":552,"byteOffset":2880,"target":34963},{"buffer":0,"byteLength":864,"byteOffset":3432,"target":34962},{"buffer":0,"byteLength":864,"byteOffset":4296,"target":34962},{"buffer":0,"byteLength":576,"byteOffset":5160,"target":34962},{"buffer":0,"byteLength":576,"byteOffset":5736,"target":34962},{"buffer":0,"byteLength":552,"byteOffset":6312,"target":34963},{"buffer":0,"byteLength":3372,"byteOffset":6864,"target":34962},{"buffer":0,"byteLength":3372,"byteOffset":10236,"target":34962},{"buffer":0,"byteLength":2248,"byteOffset":13608,"target":34962},{"buffer":0,"byteLength":2248,"byteOffset":15856,"target":34962},{"buffer":0,"byteLength":2868,"byteOffset":18104,"target":34963},{"buffer":0,"byteLength":672,"byteOffset":20972,"target":34962},{"buffer":0,"byteLength":672,"byteOffset":21644,"target":34962},{"buffer":0,"byteLength":448,"byteOffset":22316,"target":34962},{"buffer":0,"byteLength":448,"byteOffset":22764,"target":34962},{"buffer":0,"byteLength":648,"byteOffset":23212,"target":34963}],"samplers":[{"magFilter":9729,"minFilter":9987},{"magFilter":9728,"minFilter":9984}],"buffers":[{"byteLength":23860,"uri":"lamp_post.bin"}]}