{"asset":{"generator":"Khronos glTF Blender I/O v5.2.40","version":"2.0"},"scene":0,"scenes":[{"name":"Scene","nodes":[0]}],"nodes":[{"mesh":0,"name":"market_stall"}],"materials":[{"doubleSided":true,"name":"wood","pbrMetallicRoughness":{"baseColorTexture":{"index":0},"metallicFactor":0.0,"roughnessFactor":1.0}},{"doubleSided":true,"name":"palette","pbrMetallicRoughness":{"baseColorTexture":{"index":1},"metallicFactor":0.0,"roughnessFactor":1.0}}],"meshes":[{"name":"Cube","primitives":[{"attributes":{"POSITION":0,"NORMAL":1,"TEXCOORD_0":2,"COLOR_0":3},"indices":4,"material":0},{"attributes":{"POSITION":5,"NORMAL":6,"TEXCOORD_0":7,"COLOR_0":8},"indices":9,"material":1}]}],"textures":[{"sampler":0,"source":0},{"sampler":1,"source":1}],"images":[{"mimeType":"image/png","name":"wood.png","uri":"../../textures/wood.png"},{"mimeType":"image/png","name":"palette.png","uri":"../../textures/palette.png"}],"accessors":[{"bufferView":0,"componentType":5126,"count":2024,"max":[1.4500000476837158,2.3499999046325684,0.8199999928474426],"min":[-1.4500000476837158,0,-0.699999988079071],"type":"VEC3"},{"bufferView":1,"componentType":5126,"count":2024,"type":"VEC3"},{"bufferView":2,"componentType":5126,"count":2024,"type":"VEC2"},{"bufferView":3,"componentType":5123,"count":2024,"normalized":true,"type":"VEC4"},{"bufferView":4,"componentType":5123,"count":6756,"type":"SCALAR"},{"bufferView":5,"componentType":5126,"count":1020,"max":[1.4451667070388794,2.8413074016571045,0.739618182182312],"min":[-1.4451667070388794,1.1299999952316284,-0.739618182182312],"type":"VEC3"},{"bufferView":6,"componentType":5126,"count":1020,"type":"VEC3"},{"bufferView":7,"componentType":5126,"count":1020,"type":"VEC2"},{"bufferView":8,"componentType":5123,"count":1020,"normalized":true,"type":"VEC4"},{"bufferView":9,"componentType":5123,"count":5544,"type":"SCALAR"}],"bufferViews":[{"buffer":0,"byteLength":24288,"byteOffset":0,"target":34962},{"buffer":0,"byteLength":24288,"byteOffset":24288,"target":34962},{"buffer":0,"byteLength":16192,"byteOffset":48576,"target":34962},{"buffer":0,"byteLength":16192,"byteOffset":64768,"target":34962},{"buffer":0,"byteLength":13512,"byteOffset":80960,"target":34963},{"buffer":0,"byteLength":12240,"byteOffset":94472,"target":34962},{"buffer":0,"byteLength":12240,"byteOffset":106712,"target":34962},{"buffer":0,"byteLength":8160,"byteOffset":118952,"target":34962},{"buffer":0,"byteLength":8160,"byteOffset":127112,"target":34962},{"buffer":0,"byteLength":11088,"byteOffset":135272,"target":34963}],"samplers":[{"magFilter":9729,"minFilter":9987},{"magFilter":9728,"minFilter":9984}],"buffers":[{"byteLength":146360,"uri":"market_stall.bin"}]}