{"asset":{"generator":"Khronos glTF Blender I/O v5.2.40","version":"2.0"},"scene":0,"scenes":[{"name":"Scene","nodes":[0]}],"nodes":[{"mesh":0,"name":"plaza_step"}],"materials":[{"doubleSided":true,"name":"stone_wall","pbrMetallicRoughness":{"baseColorTexture":{"index":0},"metallicFactor":0.0,"roughnessFactor":1.0}}],"meshes":[{"name":"Cube","primitives":[{"attributes":{"POSITION":0,"NORMAL":1,"TEXCOORD_0":2,"COLOR_0":3},"indices":4,"material":0}]}],"textures":[{"sampler":0,"source":0}],"images":[{"mimeType":"image/png","name":"stone_wall.png","uri":"../../textures/stone_wall.png"}],"accessors":[{"bufferView":0,"componentType":5126,"count":288,"max":[2,0.3799999952316284,0.5],"min":[-2,0,-0.5],"type":"VEC3"},{"bufferView":1,"componentType":5126,"count":288,"type":"VEC3"},{"bufferView":2,"componentType":5126,"count":288,"type":"VEC2"},{"bufferView":3,"componentType":5123,"count":288,"normalized":true,"type":"VEC4"},{"bufferView":4,"componentType":5123,"count":972,"type":"SCALAR"}],"bufferViews":[{"buffer":0,"byteLength":3456,"byteOffset":0,"target":34962},{"buffer":0,"byteLength":3456,"byteOffset":3456,"target":34962},{"buffer":0,"byteLength":2304,"byteOffset":6912,"target":34962},{"buffer":0,"byteLength":2304,"byteOffset":9216,"target":34962},{"buffer":0,"byteLength":1944,"byteOffset":11520,"target":34963}],"samplers":[{"magFilter":9729,"minFilter":9987}],"buffers":[{"byteLength":13464,"uri":"plaza_step.bin"}]}