{"asset":{"generator":"Khronos glTF Blender I/O v5.2.40","version":"2.0"},"scene":0,"scenes":[{"name":"Scene","nodes":[0]}],"nodes":[{"mesh":0,"name":"shop"}],"materials":[{"doubleSided":true,"name":"stone_wall","pbrMetallicRoughness":{"baseColorTexture":{"index":0},"metallicFactor":0.0,"roughnessFactor":1.0}},{"doubleSided":true,"name":"plaster","pbrMetallicRoughness":{"baseColorTexture":{"index":1},"metallicFactor":0.0,"roughnessFactor":1.0}},{"doubleSided":true,"name":"wood","pbrMetallicRoughness":{"baseColorTexture":{"index":2},"metallicFactor":0.0,"roughnessFactor":1.0}},{"doubleSided":true,"name":"roof_tiles","pbrMetallicRoughness":{"baseColorTexture":{"index":3},"metallicFactor":0.0,"roughnessFactor":1.0}},{"doubleSided":true,"name":"palette","pbrMetallicRoughness":{"baseColorTexture":{"index":4},"metallicFactor":0.0,"roughnessFactor":1.0}}],"meshes":[{"name":"Cube","primitives":[{"attributes":{"POSITION":0,"NORMAL":1,"TEXCOORD_0":2,"COLOR_0":3},"indices":4,"material":0},{"attributes":{"POSITION":5,"NORMAL":6,"TEXCOORD_0":7,"COLOR_0":8},"indices":9,"material":1},{"attributes":{"POSITION":10,"NORMAL":11,"TEXCOORD_0":12,"COLOR_0":13},"indices":14,"material":2},{"attributes":{"POSITION":15,"NORMAL":16,"TEXCOORD_0":17,"COLOR_0":18},"indices":19,"material":3},{"attributes":{"POSITION":20,"NORMAL":21,"TEXCOORD_0":22,"COLOR_0":23},"indices":24,"material":4}]}],"textures":[{"sampler":0,"source":0},{"sampler":0,"source":1},{"sampler":0,"source":2},{"sampler":0,"source":3},{"sampler":1,"source":4}],"images":[{"mimeType":"image/png","name":"stone_wall.png","uri":"../../textures/stone_wall.png"},{"mimeType":"image/png","name":"plaster.png","uri":"../../textures/plaster.png"},{"mimeType":"image/png","name":"wood.png","uri":"../../textures/wood.png"},{"mimeType":"image/png","name":"roof_tiles.png","uri":"../../textures/roof_tiles.png"},{"mimeType":"image/png","name":"palette.png","uri":"../../textures/palette.png"}],"accessors":[{"bufferView":0,"componentType":5126,"count":232,"max":[2.990000009536743,5.599999904632568,2.9499998092651367],"min":[-2.990000009536743,0,-2.509999990463257],"type":"VEC3"},{"bufferView":1,"componentType":5126,"count":232,"type":"VEC3"},{"bufferView":2,"componentType":5126,"count":232,"type":"VEC2"},{"bufferView":3,"componentType":5123,"count":232,"normalized":true,"type":"VEC4"},{"bufferView":4,"componentType":5123,"count":660,"type":"SCALAR"},{"bufferView":5,"componentType":5126,"count":124,"max":[2.9900002479553223,5.184592247009277,2.299999952316284],"min":[-2.9900002479553223,0.36000001430511475,-2.299999952316284],"type":"VEC3"},{"bufferView":6,"componentType":5126,"count":124,"type":"VEC3"},{"bufferView":7,"componentType":5126,"count":124,"type":"VEC2"},{"bufferView":8,"componentType":5123,"count":124,"normalized":true,"type":"VEC4"},{"bufferView":9,"componentType":5123,"count":324,"type":"SCALAR"},{"bufferView":10,"componentType":5126,"count":2327,"max":[3.390000104904175,5.34487771987915,3.7200000286102295],"min":[-3.390000104904175,0,-2.7746448516845703],"type":"VEC3"},{"bufferView":11,"componentType":5126,"count":2327,"type":"VEC3"},{"bufferView":12,"componentType":5126,"count":2327,"type":"VEC2"},{"bufferView":13,"componentType":5123,"count":2327,"normalized":true,"type":"VEC4"},{"bufferView":14,"componentType":5123,"count":6960,"type":"SCALAR"},{"bufferView":15,"componentType":5126,"count":48,"max":[3.3499999046325684,5.253244876861572,2.780121326446533],"min":[-3.3499999046325684,3.3467555046081543,-2.780121326446533],"type":"VEC3"},{"bufferView":16,"componentType":5126,"count":48,"type":"VEC3"},{"bufferView":17,"componentType":5126,"count":48,"type":"VEC2"},{"bufferView":18,"componentType":5123,"count":48,"normalized":true,"type":"VEC4"},{"bufferView":19,"componentType":5123,"count":264,"type":"SCALAR"},{"bufferView":20,"componentType":5126,"count":712,"max":[3,5.679999828338623,3.6545188426971436],"min":[-3,0.30000001192092896,-2.319999933242798],"type":"VEC3"},{"bufferView":21,"componentType":5126,"count":712,"type":"VEC3"},{"bufferView":22,"componentType":5126,"count":712,"type":"VEC2"},{"bufferView":23,"componentType":5123,"count":712,"normalized":true,"type":"VEC4"},{"bufferView":24,"componentType":5123,"count":3876,"type":"SCALAR"}],"bufferViews":[{"buffer":0,"byteLength":2784,"byteOffset":0,"target":34962},{"buffer":0,"byteLength":2784,"byteOffset":2784,"target":34962},{"buffer":0,"byteLength":1856,"byteOffset":5568,"target":34962},{"buffer":0,"byteLength":1856,"byteOffset":7424,"target":34962},{"buffer":0,"byteLength":1320,"byteOffset":9280,"target":34963},{"buffer":0,"byteLength":1488,"byteOffset":10600,"target":34962},{"buffer":0,"byteLength":1488,"byteOffset":12088,"target":34962},{"buffer":0,"byteLength":992,"byteOffset":13576,"target":34962},{"buffer":0,"byteLength":992,"byteOffset":14568,"target":34962},{"buffer":0,"byteLength":648,"byteOffset":15560,"target":34963},{"buffer":0,"byteLength":27924,"byteOffset":16208,"target":34962},{"buffer":0,"byteLength":27924,"byteOffset":44132,"target":34962},{"buffer":0,"byteLength":18616,"byteOffset":72056,"target":34962},{"buffer":0,"byteLength":18616,"byteOffset":90672,"target":34962},{"buffer":0,"byteLength":13920,"byteOffset":109288,"target":34963},{"buffer":0,"byteLength":576,"byteOffset":123208,"target":34962},{"buffer":0,"byteLength":576,"byteOffset":123784,"target":34962},{"buffer":0,"byteLength":384,"byteOffset":124360,"target":34962},{"buffer":0,"byteLength":384,"byteOffset":124744,"target":34962},{"buffer":0,"byteLength":528,"byteOffset":125128,"target":34963},{"buffer":0,"byteLength":8544,"byteOffset":125656,"target":34962},{"buffer":0,"byteLength":8544,"byteOffset":134200,"target":34962},{"buffer":0,"byteLength":5696,"byteOffset":142744,"target":34962},{"buffer":0,"byteLength":5696,"byteOffset":148440,"target":34962},{"buffer":0,"byteLength":7752,"byteOffset":154136,"target":34963}],"samplers":[{"magFilter":9729,"minFilter":9987},{"magFilter":9728,"minFilter":9984}],"buffers":[{"byteLength":161888,"uri":"shop.bin"}]}