{"asset":{"generator":"Khronos glTF Blender I/O v5.2.40","version":"2.0"},"extensionsUsed":["KHR_materials_emissive_strength"],"scene":0,"scenes":[{"name":"Scene","nodes":[0]}],"nodes":[{"mesh":0,"name":"shrine_pedestal"}],"materials":[{"doubleSided":true,"name":"stone_wall","pbrMetallicRoughness":{"baseColorTexture":{"index":0},"metallicFactor":0.0,"roughnessFactor":1.0}},{"doubleSided":true,"name":"dirt","pbrMetallicRoughness":{"baseColorTexture":{"index":1},"metallicFactor":0.0,"roughnessFactor":1.0}},{"doubleSided":true,"emissiveFactor":[1,1,1],"emissiveTexture":{"index":2},"name":"palette_glow","pbrMetallicRoughness":{"baseColorTexture":{"index":3},"metallicFactor":0.0,"roughnessFactor":1.0}},{"doubleSided":true,"name":"palette","pbrMetallicRoughness":{"baseColorTexture":{"index":4},"metallicFactor":0.0,"roughnessFactor":1.0}}],"meshes":[{"name":"Cylinder","primitives":[{"attributes":{"POSITION":0,"NORMAL":1,"TEXCOORD_0":2,"COLOR_0":3},"indices":4,"material":0},{"attributes":{"POSITION":5,"NORMAL":6,"TEXCOORD_0":7,"COLOR_0":8},"indices":9,"material":1},{"attributes":{"POSITION":10,"NORMAL":11,"TEXCOORD_0":12,"COLOR_0":13},"indices":14,"material":2},{"attributes":{"POSITION":15,"NORMAL":16,"TEXCOORD_0":17,"COLOR_0":18},"indices":19,"material":3}]}],"textures":[{"sampler":0,"source":0},{"sampler":0,"source":1},{"sampler":1,"source":2},{"sampler":1,"source":2},{"sampler":1,"source":2}],"images":[{"mimeType":"image/png","name":"stone_wall.png","uri":"../../textures/stone_wall.png"},{"mimeType":"image/png","name":"dirt.png","uri":"../../textures/dirt.png"},{"mimeType":"image/png","name":"palette.png","uri":"../../textures/palette.png"}],"accessors":[{"bufferView":0,"componentType":5126,"count":1344,"max":[2.299999952316284,2.5199999809265137,2.299999952316284],"min":[-2.299999952316284,0,-2.299999952316284],"type":"VEC3"},{"bufferView":1,"componentType":5126,"count":1344,"type":"VEC3"},{"bufferView":2,"componentType":5126,"count":1344,"type":"VEC2"},{"bufferView":3,"componentType":5123,"count":1344,"normalized":true,"type":"VEC4"},{"bufferView":4,"componentType":5123,"count":4992,"type":"SCALAR"},{"bufferView":5,"componentType":5126,"count":72,"max":[1.149999976158142,1.1799999475479126,1.149999976158142],"min":[-1.149999976158142,0.9199999570846558,-1.149999976158142],"type":"VEC3"},{"bufferView":6,"componentType":5126,"count":72,"type":"VEC3"},{"bufferView":7,"componentType":5126,"count":72,"type":"VEC2"},{"bufferView":8,"componentType":5123,"count":72,"normalized":true,"type":"VEC4"},{"bufferView":9,"componentType":5123,"count":276,"type":"SCALAR"},{"bufferView":10,"componentType":5126,"count":448,"max":[1.316934585571289,2.8559999465942383,1.316934585571289],"min":[-1.316934585571289,1.5,-1.316934585571289],"type":"VEC3"},{"bufferView":11,"componentType":5126,"count":448,"type":"VEC3"},{"bufferView":12,"componentType":5126,"count":448,"type":"VEC2"},{"bufferView":13,"componentType":5123,"count":448,"normalized":true,"type":"VEC4"},{"bufferView":14,"componentType":5123,"count":2592,"type":"SCALAR"},{"bufferView":15,"componentType":5126,"count":544,"max":[1.3462237119674683,2.8990001678466797,1.3462237119674683],"min":[-1.3462237119674683,2.6308000087738037,-1.3462237119674683],"type":"VEC3"},{"bufferView":16,"componentType":5126,"count":544,"type":"VEC3"},{"bufferView":17,"componentType":5126,"count":544,"type":"VEC2"},{"bufferView":18,"componentType":5123,"count":544,"normalized":true,"type":"VEC4"},{"bufferView":19,"componentType":5123,"count":2592,"type":"SCALAR"}],"bufferViews":[{"buffer":0,"byteLength":16128,"byteOffset":0,"target":34962},{"buffer":0,"byteLength":16128,"byteOffset":16128,"target":34962},{"buffer":0,"byteLength":10752,"byteOffset":32256,"target":34962},{"buffer":0,"byteLength":10752,"byteOffset":43008,"target":34962},{"buffer":0,"byteLength":9984,"byteOffset":53760,"target":34963},{"buffer":0,"byteLength":864,"byteOffset":63744,"target":34962},{"buffer":0,"byteLength":864,"byteOffset":64608,"target":34962},{"buffer":0,"byteLength":576,"byteOffset":65472,"target":34962},{"buffer":0,"byteLength":576,"byteOffset":66048,"target":34962},{"buffer":0,"byteLength":552,"byteOffset":66624,"target":34963},{"buffer":0,"byteLength":5376,"byteOffset":67176,"target":34962},{"buffer":0,"byteLength":5376,"byteOffset":72552,"target":34962},{"buffer":0,"byteLength":3584,"byteOffset":77928,"target":34962},{"buffer":0,"byteLength":3584,"byteOffset":81512,"target":34962},{"buffer":0,"byteLength":5184,"byteOffset":85096,"target":34963},{"buffer":0,"byteLength":6528,"byteOffset":90280,"target":34962},{"buffer":0,"byteLength":6528,"byteOffset":96808,"target":34962},{"buffer":0,"byteLength":4352,"byteOffset":103336,"target":34962},{"buffer":0,"byteLength":4352,"byteOffset":107688,"target":34962},{"buffer":0,"byteLength":5184,"byteOffset":112040,"target":34963}],"samplers":[{"magFilter":9729,"minFilter":9987},{"magFilter":9728,"minFilter":9984}],"buffers":[{"byteLength":117224,"uri":"shrine_pedestal.bin"}]}