{"asset":{"generator":"Khronos glTF Blender I/O v5.2.40","version":"2.0"},"scene":0,"scenes":[{"name":"Scene","nodes":[0]}],"nodes":[{"mesh":0,"name":"signpost"}],"materials":[{"doubleSided":true,"name":"wood","pbrMetallicRoughness":{"baseColorTexture":{"index":0},"metallicFactor":0.0,"roughnessFactor":1.0}},{"doubleSided":true,"name":"palette","pbrMetallicRoughness":{"baseColorTexture":{"index":1},"metallicFactor":0.0,"roughnessFactor":1.0}}],"meshes":[{"name":"Cylinder","primitives":[{"attributes":{"POSITION":0,"NORMAL":1,"TEXCOORD_0":2,"COLOR_0":3},"indices":4,"material":0},{"attributes":{"POSITION":5,"NORMAL":6,"TEXCOORD_0":7,"COLOR_0":8},"indices":9,"material":1}]}],"textures":[{"sampler":0,"source":0},{"sampler":1,"source":1}],"images":[{"mimeType":"image/png","name":"wood.png","uri":"../../textures/wood.png"},{"mimeType":"image/png","name":"palette.png","uri":"../../textures/palette.png"}],"accessors":[{"bufferView":0,"componentType":5126,"count":264,"max":[1.1030378341674805,2.4000000953674316,0.3164686858654022],"min":[-0.10000000149011612,0,-0.3164686858654022],"type":"VEC3"},{"bufferView":1,"componentType":5126,"count":264,"type":"VEC3"},{"bufferView":2,"componentType":5126,"count":264,"type":"VEC2"},{"bufferView":3,"componentType":5123,"count":264,"normalized":true,"type":"VEC4"},{"bufferView":4,"componentType":5123,"count":924,"type":"SCALAR"},{"bufferView":5,"componentType":5126,"count":197,"max":[1.0426585674285889,2.490000009536743,0.12999999523162842],"min":[-0.12999999523162842,1.5199999809265137,-0.12999999523162842],"type":"VEC3"},{"bufferView":6,"componentType":5126,"count":197,"type":"VEC3"},{"bufferView":7,"componentType":5126,"count":197,"type":"VEC2"},{"bufferView":8,"componentType":5123,"count":197,"normalized":true,"type":"VEC4"},{"bufferView":9,"componentType":5123,"count":972,"type":"SCALAR"}],"bufferViews":[{"buffer":0,"byteLength":3168,"byteOffset":0,"target":34962},{"buffer":0,"byteLength":3168,"byteOffset":3168,"target":34962},{"buffer":0,"byteLength":2112,"byteOffset":6336,"target":34962},{"buffer":0,"byteLength":2112,"byteOffset":8448,"target":34962},{"buffer":0,"byteLength":1848,"byteOffset":10560,"target":34963},{"buffer":0,"byteLength":2364,"byteOffset":12408,"target":34962},{"buffer":0,"byteLength":2364,"byteOffset":14772,"target":34962},{"buffer":0,"byteLength":1576,"byteOffset":17136,"target":34962},{"buffer":0,"byteLength":1576,"byteOffset":18712,"target":34962},{"buffer":0,"byteLength":1944,"byteOffset":20288,"target":34963}],"samplers":[{"magFilter":9729,"minFilter":9987},{"magFilter":9728,"minFilter":9984}],"buffers":[{"byteLength":22232,"uri":"signpost.bin"}]}