{"asset":{"generator":"Khronos glTF Blender I/O v5.2.40","version":"2.0"},"extensionsUsed":["KHR_materials_emissive_strength"],"scene":0,"scenes":[{"name":"Scene","nodes":[0]}],"nodes":[{"mesh":0,"name":"smithy"}],"materials":[{"doubleSided":true,"name":"stone_wall","pbrMetallicRoughness":{"baseColorTexture":{"index":0},"metallicFactor":0.0,"roughnessFactor":1.0}},{"doubleSided":true,"name":"wood","pbrMetallicRoughness":{"baseColorTexture":{"index":1},"metallicFactor":0.0,"roughnessFactor":1.0}},{"doubleSided":true,"name":"palette","pbrMetallicRoughness":{"baseColorTexture":{"index":2},"metallicFactor":0.0,"roughnessFactor":1.0}},{"doubleSided":true,"emissiveFactor":[1,1,1],"emissiveTexture":{"index":3},"name":"palette_glow","pbrMetallicRoughness":{"baseColorTexture":{"index":4},"metallicFactor":0.0,"roughnessFactor":1.0}},{"doubleSided":true,"name":"bark","pbrMetallicRoughness":{"baseColorTexture":{"index":5},"metallicFactor":0.0,"roughnessFactor":1.0}}],"meshes":[{"name":"Cube","primitives":[{"attributes":{"POSITION":0,"NORMAL":1,"TEXCOORD_0":2,"COLOR_0":3},"indices":4,"material":0},{"attributes":{"POSITION":5,"NORMAL":6,"TEXCOORD_0":7,"COLOR_0":8},"indices":9,"material":1},{"attributes":{"POSITION":10,"NORMAL":11,"TEXCOORD_0":12,"COLOR_0":13},"indices":14,"material":2},{"attributes":{"POSITION":15,"NORMAL":16,"TEXCOORD_0":17,"COLOR_0":18},"indices":19,"material":3},{"attributes":{"POSITION":20,"NORMAL":21,"TEXCOORD_0":22,"COLOR_0":23},"indices":24,"material":4}]}],"textures":[{"sampler":0,"source":0},{"sampler":0,"source":1},{"sampler":1,"source":2},{"sampler":1,"source":2},{"sampler":1,"source":2},{"sampler":0,"source":3}],"images":[{"mimeType":"image/png","name":"stone_wall.png","uri":"../../textures/stone_wall.png"},{"mimeType":"image/png","name":"wood.png","uri":"../../textures/wood.png"},{"mimeType":"image/png","name":"palette.png","uri":"../../textures/palette.png"},{"mimeType":"image/png","name":"bark.png","uri":"../../textures/bark.png"}],"accessors":[{"bufferView":0,"componentType":5126,"count":280,"max":[3.119999885559082,5.799999713897705,3.1499998569488525],"min":[-3.119999885559082,0,-2.7100000381469727],"type":"VEC3"},{"bufferView":1,"componentType":5126,"count":280,"type":"VEC3"},{"bufferView":2,"componentType":5126,"count":280,"type":"VEC2"},{"bufferView":3,"componentType":5123,"count":280,"normalized":true,"type":"VEC4"},{"bufferView":4,"componentType":5123,"count":792,"type":"SCALAR"},{"bufferView":5,"componentType":5126,"count":1410,"max":[3.0999999046325684,4.687137603759766,3.565000057220459],"min":[-3.0999999046325684,0.3999999761581421,-2.6499998569488525],"type":"VEC3"},{"bufferView":6,"componentType":5126,"count":1410,"type":"VEC3"},{"bufferView":7,"componentType":5126,"count":1410,"type":"VEC2"},{"bufferView":8,"componentType":5123,"count":1410,"normalized":true,"type":"VEC4"},{"bufferView":9,"componentType":5123,"count":4020,"type":"SCALAR"},{"bufferView":10,"componentType":5126,"count":880,"max":[3.490000009536743,5.949999809265137,3.75],"min":[-3.490000009536743,0.3999999761581421,-2.974928855895996],"type":"VEC3"},{"bufferView":11,"componentType":5126,"count":880,"type":"VEC3"},{"bufferView":12,"componentType":5126,"count":880,"type":"VEC2"},{"bufferView":13,"componentType":5123,"count":880,"normalized":true,"type":"VEC4"},{"bufferView":14,"componentType":5123,"count":4788,"type":"SCALAR"},{"bufferView":15,"componentType":5126,"count":24,"max":[2.3499999046325684,1.25,2.700000047683716],"min":[0.8500000238418579,0.75,2.3999998569488525],"type":"VEC3"},{"bufferView":16,"componentType":5126,"count":24,"type":"VEC3"},{"bufferView":17,"componentType":5126,"count":24,"type":"VEC2"},{"bufferView":18,"componentType":5123,"count":24,"normalized":true,"type":"VEC4"},{"bufferView":19,"componentType":5123,"count":132,"type":"SCALAR"},{"bufferView":20,"componentType":5126,"count":40,"max":[-2.299999952316284,0.5,3.8999998569488525],"min":[-2.8999998569488525,0,3.299999952316284],"type":"VEC3"},{"bufferView":21,"componentType":5126,"count":40,"type":"VEC3"},{"bufferView":22,"componentType":5126,"count":40,"type":"VEC2"},{"bufferView":23,"componentType":5123,"count":40,"normalized":true,"type":"VEC4"},{"bufferView":24,"componentType":5123,"count":132,"type":"SCALAR"}],"bufferViews":[{"buffer":0,"byteLength":3360,"byteOffset":0,"target":34962},{"buffer":0,"byteLength":3360,"byteOffset":3360,"target":34962},{"buffer":0,"byteLength":2240,"byteOffset":6720,"target":34962},{"buffer":0,"byteLength":2240,"byteOffset":8960,"target":34962},{"buffer":0,"byteLength":1584,"byteOffset":11200,"target":34963},{"buffer":0,"byteLength":16920,"byteOffset":12784,"target":34962},{"buffer":0,"byteLength":16920,"byteOffset":29704,"target":34962},{"buffer":0,"byteLength":11280,"byteOffset":46624,"target":34962},{"buffer":0,"byteLength":11280,"byteOffset":57904,"target":34962},{"buffer":0,"byteLength":8040,"byteOffset":69184,"target":34963},{"buffer":0,"byteLength":10560,"byteOffset":77224,"target":34962},{"buffer":0,"byteLength":10560,"byteOffset":87784,"target":34962},{"buffer":0,"byteLength":7040,"byteOffset":98344,"target":34962},{"buffer":0,"byteLength":7040,"byteOffset":105384,"target":34962},{"buffer":0,"byteLength":9576,"byteOffset":112424,"target":34963},{"buffer":0,"byteLength":288,"byteOffset":122000,"target":34962},{"buffer":0,"byteLength":288,"byteOffset":122288,"target":34962},{"buffer":0,"byteLength":192,"byteOffset":122576,"target":34962},{"buffer":0,"byteLength":192,"byteOffset":122768,"target":34962},{"buffer":0,"byteLength":264,"byteOffset":122960,"target":34963},{"buffer":0,"byteLength":480,"byteOffset":123224,"target":34962},{"buffer":0,"byteLength":480,"byteOffset":123704,"target":34962},{"buffer":0,"byteLength":320,"byteOffset":124184,"target":34962},{"buffer":0,"byteLength":320,"byteOffset":124504,"target":34962},{"buffer":0,"byteLength":264,"byteOffset":124824,"target":34963}],"samplers":[{"magFilter":9729,"minFilter":9987},{"magFilter":9728,"minFilter":9984}],"buffers":[{"byteLength":125088,"uri":"smithy.bin"}]}