{"asset":{"generator":"Khronos glTF Blender I/O v5.2.40","version":"2.0"},"scene":0,"scenes":[{"name":"Scene","nodes":[0]}],"nodes":[{"mesh":0,"name":"storage"}],"materials":[{"doubleSided":true,"name":"stone_wall","pbrMetallicRoughness":{"baseColorTexture":{"index":0},"metallicFactor":0.0,"roughnessFactor":1.0}},{"doubleSided":true,"name":"wood","pbrMetallicRoughness":{"baseColorTexture":{"index":1},"metallicFactor":0.0,"roughnessFactor":1.0}},{"doubleSided":true,"name":"roof_tiles","pbrMetallicRoughness":{"baseColorTexture":{"index":2},"metallicFactor":0.0,"roughnessFactor":1.0}},{"doubleSided":true,"name":"palette","pbrMetallicRoughness":{"baseColorTexture":{"index":3},"metallicFactor":0.0,"roughnessFactor":1.0}}],"meshes":[{"name":"Cube","primitives":[{"attributes":{"POSITION":0,"NORMAL":1,"TEXCOORD_0":2,"COLOR_0":3},"indices":4,"material":0},{"attributes":{"POSITION":5,"NORMAL":6,"TEXCOORD_0":7,"COLOR_0":8},"indices":9,"material":1},{"attributes":{"POSITION":10,"NORMAL":11,"TEXCOORD_0":12,"COLOR_0":13},"indices":14,"material":2},{"attributes":{"POSITION":15,"NORMAL":16,"TEXCOORD_0":17,"COLOR_0":18},"indices":19,"material":3}]}],"textures":[{"sampler":0,"source":0},{"sampler":0,"source":1},{"sampler":0,"source":2},{"sampler":1,"source":3}],"images":[{"mimeType":"image/png","name":"stone_wall.png","uri":"../../textures/stone_wall.png"},{"mimeType":"image/png","name":"wood.png","uri":"../../textures/wood.png"},{"mimeType":"image/png","name":"roof_tiles.png","uri":"../../textures/roof_tiles.png"},{"mimeType":"image/png","name":"palette.png","uri":"../../textures/palette.png"}],"accessors":[{"bufferView":0,"componentType":5126,"count":144,"max":[3.450000047683716,1.8399999141693115,2.81000018119812],"min":[-3.450000047683716,0,-2.75],"type":"VEC3"},{"bufferView":1,"componentType":5126,"count":144,"type":"VEC3"},{"bufferView":2,"componentType":5126,"count":144,"type":"VEC2"},{"bufferView":3,"componentType":5123,"count":144,"normalized":true,"type":"VEC4"},{"bufferView":4,"componentType":5123,"count":396,"type":"SCALAR"},{"bufferView":5,"componentType":5126,"count":2236,"max":[3.940000057220459,4.356765270233154,3.8012170791625977],"min":[-3.940000057220459,0,-3.5599231719970703],"type":"VEC3"},{"bufferView":6,"componentType":5126,"count":2236,"type":"VEC3"},{"bufferView":7,"componentType":5126,"count":2236,"type":"VEC2"},{"bufferView":8,"componentType":5123,"count":2236,"normalized":true,"type":"VEC4"},{"bufferView":9,"componentType":5123,"count":6768,"type":"SCALAR"},{"bufferView":10,"componentType":5126,"count":48,"max":[3.9000000953674316,4.266128063201904,3.2193117141723633],"min":[-3.9000000953674316,2.9338717460632324,-3.2193117141723633],"type":"VEC3"},{"bufferView":11,"componentType":5126,"count":48,"type":"VEC3"},{"bufferView":12,"componentType":5126,"count":48,"type":"VEC2"},{"bufferView":13,"componentType":5123,"count":48,"normalized":true,"type":"VEC4"},{"bufferView":14,"componentType":5123,"count":264,"type":"SCALAR"},{"bufferView":15,"componentType":5126,"count":552,"max":[3.3999998569488525,3.8952691555023193,3.815000057220459],"min":[-3.3999998569488525,0.43999993801116943,-3.583644390106201],"type":"VEC3"},{"bufferView":16,"componentType":5126,"count":552,"type":"VEC3"},{"bufferView":17,"componentType":5126,"count":552,"type":"VEC2"},{"bufferView":18,"componentType":5123,"count":552,"normalized":true,"type":"VEC4"},{"bufferView":19,"componentType":5123,"count":2904,"type":"SCALAR"}],"bufferViews":[{"buffer":0,"byteLength":1728,"byteOffset":0,"target":34962},{"buffer":0,"byteLength":1728,"byteOffset":1728,"target":34962},{"buffer":0,"byteLength":1152,"byteOffset":3456,"target":34962},{"buffer":0,"byteLength":1152,"byteOffset":4608,"target":34962},{"buffer":0,"byteLength":792,"byteOffset":5760,"target":34963},{"buffer":0,"byteLength":26832,"byteOffset":6552,"target":34962},{"buffer":0,"byteLength":26832,"byteOffset":33384,"target":34962},{"buffer":0,"byteLength":17888,"byteOffset":60216,"target":34962},{"buffer":0,"byteLength":17888,"byteOffset":78104,"target":34962},{"buffer":0,"byteLength":13536,"byteOffset":95992,"target":34963},{"buffer":0,"byteLength":576,"byteOffset":109528,"target":34962},{"buffer":0,"byteLength":576,"byteOffset":110104,"target":34962},{"buffer":0,"byteLength":384,"byteOffset":110680,"target":34962},{"buffer":0,"byteLength":384,"byteOffset":111064,"target":34962},{"buffer":0,"byteLength":528,"byteOffset":111448,"target":34963},{"buffer":0,"byteLength":6624,"byteOffset":111976,"target":34962},{"buffer":0,"byteLength":6624,"byteOffset":118600,"target":34962},{"buffer":0,"byteLength":4416,"byteOffset":125224,"target":34962},{"buffer":0,"byteLength":4416,"byteOffset":129640,"target":34962},{"buffer":0,"byteLength":5808,"byteOffset":134056,"target":34963}],"samplers":[{"magFilter":9729,"minFilter":9987},{"magFilter":9728,"minFilter":9984}],"buffers":[{"byteLength":139864,"uri":"storage.bin"}]}