{"asset":{"generator":"Khronos glTF Blender I/O v5.2.40","version":"2.0"},"extensionsUsed":["KHR_materials_emissive_strength"],"scene":0,"scenes":[{"name":"Scene","nodes":[0]}],"nodes":[{"mesh":0,"name":"town_hall"}],"materials":[{"doubleSided":true,"name":"stone_wall","pbrMetallicRoughness":{"baseColorTexture":{"index":0},"metallicFactor":0.0,"roughnessFactor":1.0}},{"doubleSided":true,"name":"plaster","pbrMetallicRoughness":{"baseColorTexture":{"index":1},"metallicFactor":0.0,"roughnessFactor":1.0}},{"doubleSided":true,"name":"wood","pbrMetallicRoughness":{"baseColorTexture":{"index":2},"metallicFactor":0.0,"roughnessFactor":1.0}},{"doubleSided":true,"name":"roof_tiles","pbrMetallicRoughness":{"baseColorTexture":{"index":3},"metallicFactor":0.0,"roughnessFactor":1.0}},{"doubleSided":true,"name":"palette","pbrMetallicRoughness":{"baseColorTexture":{"index":4},"metallicFactor":0.0,"roughnessFactor":1.0}},{"doubleSided":true,"emissiveFactor":[1,1,1],"emissiveTexture":{"index":5},"name":"palette_glow","pbrMetallicRoughness":{"baseColorTexture":{"index":6},"metallicFactor":0.0,"roughnessFactor":1.0}}],"meshes":[{"name":"Cube","primitives":[{"attributes":{"POSITION":0,"NORMAL":1,"TEXCOORD_0":2,"COLOR_0":3},"indices":4,"material":0},{"attributes":{"POSITION":5,"NORMAL":6,"TEXCOORD_0":7,"COLOR_0":8},"indices":9,"material":1},{"attributes":{"POSITION":10,"NORMAL":11,"TEXCOORD_0":12,"COLOR_0":13},"indices":14,"material":2},{"attributes":{"POSITION":15,"NORMAL":16,"TEXCOORD_0":17,"COLOR_0":18},"indices":19,"material":3},{"attributes":{"POSITION":20,"NORMAL":21,"TEXCOORD_0":22,"COLOR_0":23},"indices":24,"material":4},{"attributes":{"POSITION":25,"NORMAL":26,"TEXCOORD_0":27,"COLOR_0":28},"indices":29,"material":5}]}],"textures":[{"sampler":0,"source":0},{"sampler":0,"source":1},{"sampler":0,"source":2},{"sampler":0,"source":3},{"sampler":1,"source":4},{"sampler":1,"source":4},{"sampler":1,"source":4}],"images":[{"mimeType":"image/png","name":"stone_wall.png","uri":"../../textures/stone_wall.png"},{"mimeType":"image/png","name":"plaster.png","uri":"../../textures/plaster.png"},{"mimeType":"image/png","name":"wood.png","uri":"../../textures/wood.png"},{"mimeType":"image/png","name":"roof_tiles.png","uri":"../../textures/roof_tiles.png"},{"mimeType":"image/png","name":"palette.png","uri":"../../textures/palette.png"}],"accessors":[{"bufferView":0,"componentType":5126,"count":656,"max":[4.410000324249268,5.630000114440918,4.599999904632568],"min":[-6.25,0,-3.31000018119812],"type":"VEC3"},{"bufferView":1,"componentType":5126,"count":656,"type":"VEC3"},{"bufferView":2,"componentType":5126,"count":656,"type":"VEC2"},{"bufferView":3,"componentType":5123,"count":656,"normalized":true,"type":"VEC4"},{"bufferView":4,"componentType":5123,"count":1848,"type":"SCALAR"},{"bufferView":5,"componentType":5126,"count":124,"max":[4.289999961853027,6.9846954345703125,3.0802316665649414],"min":[-4.289999961853027,2,-3.0802316665649414],"type":"VEC3"},{"bufferView":6,"componentType":5126,"count":124,"type":"VEC3"},{"bufferView":7,"componentType":5126,"count":124,"type":"VEC2"},{"bufferView":8,"componentType":5123,"count":124,"normalized":true,"type":"VEC4"},{"bufferView":9,"componentType":5123,"count":324,"type":"SCALAR"},{"bufferView":10,"componentType":5126,"count":3811,"max":[4.840000152587891,7.699999809265137,4.480000019073486],"min":[-6.200000286102295,0,-3.7244884967803955],"type":"VEC3"},{"bufferView":11,"componentType":5126,"count":3811,"type":"VEC3"},{"bufferView":12,"componentType":5126,"count":3811,"type":"VEC2"},{"bufferView":13,"componentType":5123,"count":3811,"normalized":true,"type":"VEC4"},{"bufferView":14,"componentType":5123,"count":11496,"type":"SCALAR"},{"bufferView":15,"componentType":5126,"count":108,"max":[4.800000190734863,9.1202974319458,4.7811150550842285],"min":[-6.964644432067871,3.008521795272827,-3.8646445274353027],"type":"VEC3"},{"bufferView":16,"componentType":5126,"count":108,"type":"VEC3"},{"bufferView":17,"componentType":5126,"count":108,"type":"VEC2"},{"bufferView":18,"componentType":5123,"count":108,"normalized":true,"type":"VEC4"},{"bufferView":19,"componentType":5123,"count":480,"type":"SCALAR"},{"bufferView":20,"componentType":5126,"count":1108,"max":[4.300000190734863,9.65000057220459,3.870000123977661],"min":[-5.286540985107422,0.5,-3.119999885559082],"type":"VEC3"},{"bufferView":21,"componentType":5126,"count":1108,"type":"VEC3"},{"bufferView":22,"componentType":5126,"count":1108,"type":"VEC2"},{"bufferView":23,"componentType":5123,"count":1108,"normalized":true,"type":"VEC4"},{"bufferView":24,"componentType":5123,"count":5496,"type":"SCALAR"},{"bufferView":25,"componentType":5126,"count":96,"max":[3.299999952316284,3.0199999809265137,3.819999933242798],"min":[-3.299999952316284,2.7800002098083496,3.620000123977661],"type":"VEC3"},{"bufferView":26,"componentType":5126,"count":96,"type":"VEC3"},{"bufferView":27,"componentType":5126,"count":96,"type":"VEC2"},{"bufferView":28,"componentType":5123,"count":96,"normalized":true,"type":"VEC4"},{"bufferView":29,"componentType":5123,"count":528,"type":"SCALAR"}],"bufferViews":[{"buffer":0,"byteLength":7872,"byteOffset":0,"target":34962},{"buffer":0,"byteLength":7872,"byteOffset":7872,"target":34962},{"buffer":0,"byteLength":5248,"byteOffset":15744,"target":34962},{"buffer":0,"byteLength":5248,"byteOffset":20992,"target":34962},{"buffer":0,"byteLength":3696,"byteOffset":26240,"target":34963},{"buffer":0,"byteLength":1488,"byteOffset":29936,"target":34962},{"buffer":0,"byteLength":1488,"byteOffset":31424,"target":34962},{"buffer":0,"byteLength":992,"byteOffset":32912,"target":34962},{"buffer":0,"byteLength":992,"byteOffset":33904,"target":34962},{"buffer":0,"byteLength":648,"byteOffset":34896,"target":34963},{"buffer":0,"byteLength":45732,"byteOffset":35544,"target":34962},{"buffer":0,"byteLength":45732,"byteOffset":81276,"target":34962},{"buffer":0,"byteLength":30488,"byteOffset":127008,"target":34962},{"buffer":0,"byteLength":30488,"byteOffset":157496,"target":34962},{"buffer":0,"byteLength":22992,"byteOffset":187984,"target":34963},{"buffer":0,"byteLength":1296,"byteOffset":210976,"target":34962},{"buffer":0,"byteLength":1296,"byteOffset":212272,"target":34962},{"buffer":0,"byteLength":864,"byteOffset":213568,"target":34962},{"buffer":0,"byteLength":864,"byteOffset":214432,"target":34962},{"buffer":0,"byteLength":960,"byteOffset":215296,"target":34963},{"buffer":0,"byteLength":13296,"byteOffset":216256,"target":34962},{"buffer":0,"byteLength":13296,"byteOffset":229552,"target":34962},{"buffer":0,"byteLength":8864,"byteOffset":242848,"target":34962},{"buffer":0,"byteLength":8864,"byteOffset":251712,"target":34962},{"buffer":0,"byteLength":10992,"byteOffset":260576,"target":34963},{"buffer":0,"byteLength":1152,"byteOffset":271568,"target":34962},{"buffer":0,"byteLength":1152,"byteOffset":272720,"target":34962},{"buffer":0,"byteLength":768,"byteOffset":273872,"target":34962},{"buffer":0,"byteLength":768,"byteOffset":274640,"target":34962},{"buffer":0,"byteLength":1056,"byteOffset":275408,"target":34963}],"samplers":[{"magFilter":9729,"minFilter":9987},{"magFilter":9728,"minFilter":9984}],"buffers":[{"byteLength":276464,"uri":"town_hall.bin"}]}