{"asset":{"generator":"Khronos glTF Blender I/O v5.2.40","version":"2.0"},"scene":0,"scenes":[{"name":"Scene","nodes":[0]}],"nodes":[{"mesh":0,"name":"column"}],"materials":[{"doubleSided":true,"name":"cave_rock","pbrMetallicRoughness":{"baseColorTexture":{"index":0},"metallicFactor":0.0,"roughnessFactor":1.0}}],"meshes":[{"name":"Cube.15970","primitives":[{"attributes":{"POSITION":0,"NORMAL":1,"TEXCOORD_0":2,"COLOR_0":3},"indices":4,"material":0}]}],"textures":[{"sampler":0,"source":0}],"images":[{"mimeType":"image/png","name":"cave_rock.png","uri":"../../textures/cave_rock.png"}],"accessors":[{"bufferView":0,"componentType":5126,"count":104,"max":[0.3500000238418579,1.4000000953674316,0.3500000238418579],"min":[-0.3500000238418579,0,-0.3500000238418579],"type":"VEC3"},{"bufferView":1,"componentType":5126,"count":104,"type":"VEC3"},{"bufferView":2,"componentType":5126,"count":104,"type":"VEC2"},{"bufferView":3,"componentType":5123,"count":104,"normalized":true,"type":"VEC4"},{"bufferView":4,"componentType":5123,"count":132,"type":"SCALAR"}],"bufferViews":[{"buffer":0,"byteLength":1248,"byteOffset":0,"target":34962},{"buffer":0,"byteLength":1248,"byteOffset":1248,"target":34962},{"buffer":0,"byteLength":832,"byteOffset":2496,"target":34962},{"buffer":0,"byteLength":832,"byteOffset":3328,"target":34962},{"buffer":0,"byteLength":264,"byteOffset":4160,"target":34963}],"samplers":[{"magFilter":9729,"minFilter":9987}],"buffers":[{"byteLength":4424,"uri":"column.bin"}]}