{"asset":{"generator":"Khronos glTF Blender I/O v5.2.40","version":"2.0"},"scene":0,"scenes":[{"name":"Scene","nodes":[0]}],"nodes":[{"mesh":0,"name":"floor_tile_large_rocks"}],"materials":[{"doubleSided":true,"name":"dungeon_floor","pbrMetallicRoughness":{"baseColorTexture":{"index":0},"metallicFactor":0.0,"roughnessFactor":1.0}},{"doubleSided":true,"name":"cave_rock","pbrMetallicRoughness":{"baseColorTexture":{"index":1},"metallicFactor":0.0,"roughnessFactor":1.0}}],"meshes":[{"name":"Cube.15991","primitives":[{"attributes":{"POSITION":0,"NORMAL":1,"TEXCOORD_0":2,"COLOR_0":3},"indices":4,"material":0},{"attributes":{"POSITION":5,"NORMAL":6,"TEXCOORD_0":7,"COLOR_0":8},"indices":9,"material":1}]}],"textures":[{"sampler":0,"source":0},{"sampler":0,"source":1}],"images":[{"mimeType":"image/png","name":"dungeon_floor.png","uri":"../../textures/dungeon_floor.png"},{"mimeType":"image/png","name":"cave_rock.png","uri":"../../textures/cave_rock.png"}],"accessors":[{"bufferView":0,"componentType":5126,"count":551,"max":[2,0.5361738801002502,2],"min":[-2,-0.08531077206134796,-2],"type":"VEC3"},{"bufferView":1,"componentType":5126,"count":551,"type":"VEC3"},{"bufferView":2,"componentType":5126,"count":551,"type":"VEC2"},{"bufferView":3,"componentType":5123,"count":551,"normalized":true,"type":"VEC4"},{"bufferView":4,"componentType":5123,"count":630,"type":"SCALAR"},{"bufferView":5,"componentType":5126,"count":318,"max":[2,0.5361738801002502,2],"min":[-2,-0.10000000894069672,-2],"type":"VEC3"},{"bufferView":6,"componentType":5126,"count":318,"type":"VEC3"},{"bufferView":7,"componentType":5126,"count":318,"type":"VEC2"},{"bufferView":8,"componentType":5123,"count":318,"normalized":true,"type":"VEC4"},{"bufferView":9,"componentType":5123,"count":384,"type":"SCALAR"}],"bufferViews":[{"buffer":0,"byteLength":6612,"byteOffset":0,"target":34962},{"buffer":0,"byteLength":6612,"byteOffset":6612,"target":34962},{"buffer":0,"byteLength":4408,"byteOffset":13224,"target":34962},{"buffer":0,"byteLength":4408,"byteOffset":17632,"target":34962},{"buffer":0,"byteLength":1260,"byteOffset":22040,"target":34963},{"buffer":0,"byteLength":3816,"byteOffset":23300,"target":34962},{"buffer":0,"byteLength":3816,"byteOffset":27116,"target":34962},{"buffer":0,"byteLength":2544,"byteOffset":30932,"target":34962},{"buffer":0,"byteLength":2544,"byteOffset":33476,"target":34962},{"buffer":0,"byteLength":768,"byteOffset":36020,"target":34963}],"samplers":[{"magFilter":9729,"minFilter":9987}],"buffers":[{"byteLength":36788,"uri":"floor_tile_large_rocks.bin"}]}