{"asset":{"generator":"Khronos glTF Blender I/O v5.2.40","version":"2.0"},"scene":0,"scenes":[{"name":"Scene","nodes":[0]}],"nodes":[{"mesh":0,"name":"floor_dirt_large"}],"materials":[{"doubleSided":true,"name":"dungeon_floor","pbrMetallicRoughness":{"baseColorTexture":{"index":0},"metallicFactor":0.0,"roughnessFactor":1.0}},{"doubleSided":true,"name":"cave_rock","pbrMetallicRoughness":{"baseColorTexture":{"index":1},"metallicFactor":0.0,"roughnessFactor":1.0}}],"meshes":[{"name":"Cube.15972","primitives":[{"attributes":{"POSITION":0,"NORMAL":1,"TEXCOORD_0":2,"COLOR_0":3},"indices":4,"material":0},{"attributes":{"POSITION":5,"NORMAL":6,"TEXCOORD_0":7,"COLOR_0":8},"indices":9,"material":1}]}],"textures":[{"sampler":0,"source":0},{"sampler":0,"source":1}],"images":[{"mimeType":"image/png","name":"dungeon_floor.png","uri":"../../textures/dungeon_floor.png"},{"mimeType":"image/png","name":"cave_rock.png","uri":"../../textures/cave_rock.png"}],"accessors":[{"bufferView":0,"componentType":5126,"count":217,"max":[2.000000238418579,0.10860617458820343,2.0000123977661133],"min":[-1.999999761581421,0,-1.9999877214431763],"type":"VEC3"},{"bufferView":1,"componentType":5126,"count":217,"type":"VEC3"},{"bufferView":2,"componentType":5126,"count":217,"type":"VEC2"},{"bufferView":3,"componentType":5123,"count":217,"normalized":true,"type":"VEC4"},{"bufferView":4,"componentType":5123,"count":219,"type":"SCALAR"},{"bufferView":5,"componentType":5126,"count":85,"max":[2.000000238418579,0.10860616713762283,2.0000123977661133],"min":[-1.999999761581421,-0.09999999403953552,-1.9999877214431763],"type":"VEC3"},{"bufferView":6,"componentType":5126,"count":85,"type":"VEC3"},{"bufferView":7,"componentType":5126,"count":85,"type":"VEC2"},{"bufferView":8,"componentType":5123,"count":85,"normalized":true,"type":"VEC4"},{"bufferView":9,"componentType":5123,"count":93,"type":"SCALAR"}],"bufferViews":[{"buffer":0,"byteLength":2604,"byteOffset":0,"target":34962},{"buffer":0,"byteLength":2604,"byteOffset":2604,"target":34962},{"buffer":0,"byteLength":1736,"byteOffset":5208,"target":34962},{"buffer":0,"byteLength":1736,"byteOffset":6944,"target":34962},{"buffer":0,"byteLength":438,"byteOffset":8680,"target":34963},{"buffer":0,"byteLength":1020,"byteOffset":9120,"target":34962},{"buffer":0,"byteLength":1020,"byteOffset":10140,"target":34962},{"buffer":0,"byteLength":680,"byteOffset":11160,"target":34962},{"buffer":0,"byteLength":680,"byteOffset":11840,"target":34962},{"buffer":0,"byteLength":186,"byteOffset":12520,"target":34963}],"samplers":[{"magFilter":9729,"minFilter":9987}],"buffers":[{"byteLength":12708,"uri":"floor_dirt_large.bin"}]}