{"asset":{"generator":"Khronos glTF Blender I/O v5.2.40","version":"2.0"},"scene":0,"scenes":[{"name":"Scene","nodes":[0]}],"nodes":[{"mesh":0,"name":"floor_dirt_small_A"}],"materials":[{"doubleSided":true,"name":"cave_rock","pbrMetallicRoughness":{"baseColorTexture":{"index":0},"metallicFactor":0.0,"roughnessFactor":1.0}},{"doubleSided":true,"name":"dungeon_floor","pbrMetallicRoughness":{"baseColorTexture":{"index":1},"metallicFactor":0.0,"roughnessFactor":1.0}}],"meshes":[{"name":"Cube.15974","primitives":[{"attributes":{"POSITION":0,"NORMAL":1,"TEXCOORD_0":2,"COLOR_0":3},"indices":4,"material":0},{"attributes":{"POSITION":5,"NORMAL":6,"TEXCOORD_0":7,"COLOR_0":8},"indices":9,"material":1}]}],"textures":[{"sampler":0,"source":0},{"sampler":0,"source":1}],"images":[{"mimeType":"image/png","name":"cave_rock.png","uri":"../../textures/cave_rock.png"},{"mimeType":"image/png","name":"dungeon_floor.png","uri":"../../textures/dungeon_floor.png"}],"accessors":[{"bufferView":0,"componentType":5126,"count":58,"max":[0.9999876022338867,0.08640524744987488,0.9999996423721313],"min":[-1.0000123977661133,-0.09999999403953552,-1.0000003576278687],"type":"VEC3"},{"bufferView":1,"componentType":5126,"count":58,"type":"VEC3"},{"bufferView":2,"componentType":5126,"count":58,"type":"VEC2"},{"bufferView":3,"componentType":5123,"count":58,"normalized":true,"type":"VEC4"},{"bufferView":4,"componentType":5123,"count":66,"type":"SCALAR"},{"bufferView":5,"componentType":5126,"count":67,"max":[0.9999876022338867,0.08640525490045547,0.9999996423721313],"min":[-1.0000123977661133,0,-1.0000003576278687],"type":"VEC3"},{"bufferView":6,"componentType":5126,"count":67,"type":"VEC3"},{"bufferView":7,"componentType":5126,"count":67,"type":"VEC2"},{"bufferView":8,"componentType":5123,"count":67,"normalized":true,"type":"VEC4"},{"bufferView":9,"componentType":5123,"count":69,"type":"SCALAR"}],"bufferViews":[{"buffer":0,"byteLength":696,"byteOffset":0,"target":34962},{"buffer":0,"byteLength":696,"byteOffset":696,"target":34962},{"buffer":0,"byteLength":464,"byteOffset":1392,"target":34962},{"buffer":0,"byteLength":464,"byteOffset":1856,"target":34962},{"buffer":0,"byteLength":132,"byteOffset":2320,"target":34963},{"buffer":0,"byteLength":804,"byteOffset":2452,"target":34962},{"buffer":0,"byteLength":804,"byteOffset":3256,"target":34962},{"buffer":0,"byteLength":536,"byteOffset":4060,"target":34962},{"buffer":0,"byteLength":536,"byteOffset":4596,"target":34962},{"buffer":0,"byteLength":138,"byteOffset":5132,"target":34963}],"samplers":[{"magFilter":9729,"minFilter":9987}],"buffers":[{"byteLength":5272,"uri":"floor_dirt_small_A.bin"}]}