{"asset":{"generator":"Khronos glTF Blender I/O v5.2.40","version":"2.0"},"scene":0,"scenes":[{"name":"Scene","nodes":[0]}],"nodes":[{"mesh":0,"name":"floor_tile_large"}],"materials":[{"doubleSided":true,"name":"dungeon_floor","pbrMetallicRoughness":{"baseColorTexture":{"index":0},"metallicFactor":0.0,"roughnessFactor":1.0}},{"doubleSided":true,"name":"cave_rock","pbrMetallicRoughness":{"baseColorTexture":{"index":1},"metallicFactor":0.0,"roughnessFactor":1.0}}],"meshes":[{"name":"Cube.15990","primitives":[{"attributes":{"POSITION":0,"NORMAL":1,"TEXCOORD_0":2,"COLOR_0":3},"indices":4,"material":0},{"attributes":{"POSITION":5,"NORMAL":6,"TEXCOORD_0":7,"COLOR_0":8},"indices":9,"material":1}]}],"textures":[{"sampler":0,"source":0},{"sampler":0,"source":1}],"images":[{"mimeType":"image/png","name":"dungeon_floor.png","uri":"../../textures/dungeon_floor.png"},{"mimeType":"image/png","name":"cave_rock.png","uri":"../../textures/cave_rock.png"}],"accessors":[{"bufferView":0,"componentType":5126,"count":373,"max":[2,0.05000000819563866,2],"min":[-2,0.020000005140900612,-2],"type":"VEC3"},{"bufferView":1,"componentType":5126,"count":373,"type":"VEC3"},{"bufferView":2,"componentType":5126,"count":373,"type":"VEC2"},{"bufferView":3,"componentType":5123,"count":373,"normalized":true,"type":"VEC4"},{"bufferView":4,"componentType":5123,"count":468,"type":"SCALAR"},{"bufferView":5,"componentType":5126,"count":40,"max":[2,0.05000000447034836,2],"min":[-2,-0.10000000894069672,-2],"type":"VEC3"},{"bufferView":6,"componentType":5126,"count":40,"type":"VEC3"},{"bufferView":7,"componentType":5126,"count":40,"type":"VEC2"},{"bufferView":8,"componentType":5123,"count":40,"normalized":true,"type":"VEC4"},{"bufferView":9,"componentType":5123,"count":96,"type":"SCALAR"}],"bufferViews":[{"buffer":0,"byteLength":4476,"byteOffset":0,"target":34962},{"buffer":0,"byteLength":4476,"byteOffset":4476,"target":34962},{"buffer":0,"byteLength":2984,"byteOffset":8952,"target":34962},{"buffer":0,"byteLength":2984,"byteOffset":11936,"target":34962},{"buffer":0,"byteLength":936,"byteOffset":14920,"target":34963},{"buffer":0,"byteLength":480,"byteOffset":15856,"target":34962},{"buffer":0,"byteLength":480,"byteOffset":16336,"target":34962},{"buffer":0,"byteLength":320,"byteOffset":16816,"target":34962},{"buffer":0,"byteLength":320,"byteOffset":17136,"target":34962},{"buffer":0,"byteLength":192,"byteOffset":17456,"target":34963}],"samplers":[{"magFilter":9729,"minFilter":9987}],"buffers":[{"byteLength":17648,"uri":"floor_tile_large.bin"}]}