{"asset":{"generator":"Khronos glTF Blender I/O v5.2.40","version":"2.0"},"scene":0,"scenes":[{"name":"Scene","nodes":[0]}],"nodes":[{"mesh":0,"name":"floor_tile_small_broken_A"}],"materials":[{"doubleSided":true,"name":"dungeon_floor","pbrMetallicRoughness":{"baseColorTexture":{"index":0},"metallicFactor":0.0,"roughnessFactor":1.0}},{"doubleSided":true,"name":"cave_rock","pbrMetallicRoughness":{"baseColorTexture":{"index":1},"metallicFactor":0.0,"roughnessFactor":1.0}}],"meshes":[{"name":"Cube.15993","primitives":[{"attributes":{"POSITION":0,"NORMAL":1,"TEXCOORD_0":2,"COLOR_0":3},"indices":4,"material":0},{"attributes":{"POSITION":5,"NORMAL":6,"TEXCOORD_0":7,"COLOR_0":8},"indices":9,"material":1}]}],"textures":[{"sampler":0,"source":0},{"sampler":0,"source":1}],"images":[{"mimeType":"image/png","name":"dungeon_floor.png","uri":"../../textures/dungeon_floor.png"},{"mimeType":"image/png","name":"cave_rock.png","uri":"../../textures/cave_rock.png"}],"accessors":[{"bufferView":0,"componentType":5126,"count":168,"max":[1,0.05000000447034836,1],"min":[-1,0.020000005140900612,-1],"type":"VEC3"},{"bufferView":1,"componentType":5126,"count":168,"type":"VEC3"},{"bufferView":2,"componentType":5126,"count":168,"type":"VEC2"},{"bufferView":3,"componentType":5123,"count":168,"normalized":true,"type":"VEC4"},{"bufferView":4,"componentType":5123,"count":222,"type":"SCALAR"},{"bufferView":5,"componentType":5126,"count":28,"max":[1,0.05000000447034836,1],"min":[-1,-0.10000000894069672,-1],"type":"VEC3"},{"bufferView":6,"componentType":5126,"count":28,"type":"VEC3"},{"bufferView":7,"componentType":5126,"count":28,"type":"VEC2"},{"bufferView":8,"componentType":5123,"count":28,"normalized":true,"type":"VEC4"},{"bufferView":9,"componentType":5123,"count":60,"type":"SCALAR"}],"bufferViews":[{"buffer":0,"byteLength":2016,"byteOffset":0,"target":34962},{"buffer":0,"byteLength":2016,"byteOffset":2016,"target":34962},{"buffer":0,"byteLength":1344,"byteOffset":4032,"target":34962},{"buffer":0,"byteLength":1344,"byteOffset":5376,"target":34962},{"buffer":0,"byteLength":444,"byteOffset":6720,"target":34963},{"buffer":0,"byteLength":336,"byteOffset":7164,"target":34962},{"buffer":0,"byteLength":336,"byteOffset":7500,"target":34962},{"buffer":0,"byteLength":224,"byteOffset":7836,"target":34962},{"buffer":0,"byteLength":224,"byteOffset":8060,"target":34962},{"buffer":0,"byteLength":120,"byteOffset":8284,"target":34963}],"samplers":[{"magFilter":9729,"minFilter":9987}],"buffers":[{"byteLength":8404,"uri":"floor_tile_small_broken_A.bin"}]}