{"asset":{"generator":"Khronos glTF Blender I/O v5.2.40","version":"2.0"},"scene":0,"scenes":[{"name":"Scene","nodes":[0]}],"nodes":[{"mesh":0,"name":"floor_tile_small_weeds_A"}],"materials":[{"doubleSided":true,"name":"dungeon_floor","pbrMetallicRoughness":{"baseColorTexture":{"index":0},"metallicFactor":0.0,"roughnessFactor":1.0}},{"doubleSided":true,"name":"cave_rock","pbrMetallicRoughness":{"baseColorTexture":{"index":1},"metallicFactor":0.0,"roughnessFactor":1.0}},{"doubleSided":true,"name":"flat_39a688","pbrMetallicRoughness":{"baseColorFactor":[0.04167850688099861,0.38251274824142456,0.2501106858253479,1],"metallicFactor":0.0,"roughnessFactor":1.0}},{"doubleSided":true,"name":"flat_389087","pbrMetallicRoughness":{"baseColorFactor":[0.039911847561597824,0.27978721261024475,0.24510499835014343,1],"metallicFactor":0.0,"roughnessFactor":1.0}},{"doubleSided":true,"name":"flat_389b88","pbrMetallicRoughness":{"baseColorFactor":[0.04071219637989998,0.32873180508613586,0.24761034548282623,1],"metallicFactor":0.0,"roughnessFactor":1.0}},{"doubleSided":true,"name":"flat_43a689","pbrMetallicRoughness":{"baseColorFactor":[0.05771338939666748,0.3852171003818512,0.2513890564441681,1],"metallicFactor":0.0,"roughnessFactor":1.0}},{"doubleSided":true,"name":"flat_44b189","pbrMetallicRoughness":{"baseColorFactor":[0.059237152338027954,0.4439898431301117,0.25392279028892517,1],"metallicFactor":0.0,"roughnessFactor":1.0}},{"doubleSided":true,"name":"flat_2e8f87","pbrMetallicRoughness":{"baseColorFactor":[0.027451492846012115,0.2775060832500458,0.2438201755285263,1],"metallicFactor":0.0,"roughnessFactor":1.0}}],"meshes":[{"name":"Cube.15997","primitives":[{"attributes":{"POSITION":0,"NORMAL":1,"TEXCOORD_0":2,"COLOR_0":3},"indices":4,"material":0},{"attributes":{"POSITION":5,"NORMAL":6,"TEXCOORD_0":7,"COLOR_0":8},"indices":9,"material":1},{"attributes":{"POSITION":10,"NORMAL":11,"TEXCOORD_0":12,"COLOR_0":13},"indices":14,"material":2},{"attributes":{"POSITION":15,"NORMAL":16,"TEXCOORD_0":17,"COLOR_0":18},"indices":19,"material":3},{"attributes":{"POSITION":20,"NORMAL":21,"TEXCOORD_0":22,"COLOR_0":23},"indices":24,"material":4},{"attributes":{"POSITION":25,"NORMAL":26,"TEXCOORD_0":27,"COLOR_0":28},"indices":29,"material":5},{"attributes":{"POSITION":30,"NORMAL":31,"TEXCOORD_0":32,"COLOR_0":33},"indices":34,"material":6},{"attributes":{"POSITION":35,"NORMAL":36,"TEXCOORD_0":37,"COLOR_0":38},"indices":39,"material":7}]}],"textures":[{"sampler":0,"source":0},{"sampler":0,"source":1}],"images":[{"mimeType":"image/png","name":"dungeon_floor.png","uri":"../../textures/dungeon_floor.png"},{"mimeType":"image/png","name":"cave_rock.png","uri":"../../textures/cave_rock.png"}],"accessors":[{"bufferView":0,"componentType":5126,"count":168,"max":[1,0.05000000447034836,1],"min":[-1,0.020000005140900612,-1],"type":"VEC3"},{"bufferView":1,"componentType":5126,"count":168,"type":"VEC3"},{"bufferView":2,"componentType":5126,"count":168,"type":"VEC2"},{"bufferView":3,"componentType":5123,"count":168,"normalized":true,"type":"VEC4"},{"bufferView":4,"componentType":5123,"count":222,"type":"SCALAR"},{"bufferView":5,"componentType":5126,"count":28,"max":[1,0.05000000447034836,1],"min":[-1,-0.10000000894069672,-1],"type":"VEC3"},{"bufferView":6,"componentType":5126,"count":28,"type":"VEC3"},{"bufferView":7,"componentType":5126,"count":28,"type":"VEC2"},{"bufferView":8,"componentType":5123,"count":28,"normalized":true,"type":"VEC4"},{"bufferView":9,"componentType":5123,"count":60,"type":"SCALAR"},{"bufferView":10,"componentType":5126,"count":200,"max":[0.5763756036758423,0.19547580182552338,0.8707444071769714],"min":[-0.5448859333992004,0.06173938140273094,-0.8641803860664368],"type":"VEC3"},{"bufferView":11,"componentType":5126,"count":200,"type":"VEC3"},{"bufferView":12,"componentType":5126,"count":200,"type":"VEC2"},{"bufferView":13,"componentType":5123,"count":200,"normalized":true,"type":"VEC4"},{"bufferView":14,"componentType":5123,"count":204,"type":"SCALAR"},{"bufferView":15,"componentType":5126,"count":252,"max":[0.5233916640281677,0.1657394915819168,0.7392234802246094],"min":[-0.4108741581439972,0.019999999552965164,-0.7330096960067749],"type":"VEC3"},{"bufferView":16,"componentType":5126,"count":252,"type":"VEC3"},{"bufferView":17,"componentType":5126,"count":252,"type":"VEC2"},{"bufferView":18,"componentType":5123,"count":252,"normalized":true,"type":"VEC4"},{"bufferView":19,"componentType":5123,"count":252,"type":"SCALAR"},{"bufferView":20,"componentType":5126,"count":480,"max":[0.5763756036758423,0.19547580182552338,0.8707444071769714],"min":[-0.5186676979064941,0.02342689223587513,-0.8600277304649353],"type":"VEC3"},{"bufferView":21,"componentType":5126,"count":480,"type":"VEC3"},{"bufferView":22,"componentType":5126,"count":480,"type":"VEC2"},{"bufferView":23,"componentType":5123,"count":480,"normalized":true,"type":"VEC4"},{"bufferView":24,"componentType":5123,"count":480,"type":"SCALAR"},{"bufferView":25,"componentType":5126,"count":360,"max":[0.5763756036758423,0.19547580182552338,0.8707444071769714],"min":[-0.5448859333992004,0.0835300087928772,-0.8641803860664368],"type":"VEC3"},{"bufferView":26,"componentType":5126,"count":360,"type":"VEC3"},{"bufferView":27,"componentType":5126,"count":360,"type":"VEC2"},{"bufferView":28,"componentType":5123,"count":360,"normalized":true,"type":"VEC4"},{"bufferView":29,"componentType":5123,"count":360,"type":"SCALAR"},{"bufferView":30,"componentType":5126,"count":143,"max":[0.5696099400520325,0.19547580182552338,0.8619060516357422],"min":[-0.5355031490325928,0.10022072494029999,-0.8548987507820129],"type":"VEC3"},{"bufferView":31,"componentType":5126,"count":143,"type":"VEC3"},{"bufferView":32,"componentType":5126,"count":143,"type":"VEC2"},{"bufferView":33,"componentType":5123,"count":143,"normalized":true,"type":"VEC4"},{"bufferView":34,"componentType":5123,"count":144,"type":"SCALAR"},{"bufferView":35,"componentType":5126,"count":45,"max":[0.4788009226322174,0.07938635349273682,0.708793044090271],"min":[-0.37573254108428955,0.019999999552965164,-0.6968512535095215],"type":"VEC3"},{"bufferView":36,"componentType":5126,"count":45,"type":"VEC3"},{"bufferView":37,"componentType":5126,"count":45,"type":"VEC2"},{"bufferView":38,"componentType":5123,"count":45,"normalized":true,"type":"VEC4"},{"bufferView":39,"componentType":5123,"count":45,"type":"SCALAR"}],"bufferViews":[{"buffer":0,"byteLength":2016,"byteOffset":0,"target":34962},{"buffer":0,"byteLength":2016,"byteOffset":2016,"target":34962},{"buffer":0,"byteLength":1344,"byteOffset":4032,"target":34962},{"buffer":0,"byteLength":1344,"byteOffset":5376,"target":34962},{"buffer":0,"byteLength":444,"byteOffset":6720,"target":34963},{"buffer":0,"byteLength":336,"byteOffset":7164,"target":34962},{"buffer":0,"byteLength":336,"byteOffset":7500,"target":34962},{"buffer":0,"byteLength":224,"byteOffset":7836,"target":34962},{"buffer":0,"byteLength":224,"byteOffset":8060,"target":34962},{"buffer":0,"byteLength":120,"byteOffset":8284,"target":34963},{"buffer":0,"byteLength":2400,"byteOffset":8404,"target":34962},{"buffer":0,"byteLength":2400,"byteOffset":10804,"target":34962},{"buffer":0,"byteLength":1600,"byteOffset":13204,"target":34962},{"buffer":0,"byteLength":1600,"byteOffset":14804,"target":34962},{"buffer":0,"byteLength":408,"byteOffset":16404,"target":34963},{"buffer":0,"byteLength":3024,"byteOffset":16812,"target":34962},{"buffer":0,"byteLength":3024,"byteOffset":19836,"target":34962},{"buffer":0,"byteLength":2016,"byteOffset":22860,"target":34962},{"buffer":0,"byteLength":2016,"byteOffset":24876,"target":34962},{"buffer":0,"byteLength":504,"byteOffset":26892,"target":34963},{"buffer":0,"byteLength":5760,"byteOffset":27396,"target":34962},{"buffer":0,"byteLength":5760,"byteOffset":33156,"target":34962},{"buffer":0,"byteLength":3840,"byteOffset":38916,"target":34962},{"buffer":0,"byteLength":3840,"byteOffset":42756,"target":34962},{"buffer":0,"byteLength":960,"byteOffset":46596,"target":34963},{"buffer":0,"byteLength":4320,"byteOffset":47556,"target":34962},{"buffer":0,"byteLength":4320,"byteOffset":51876,"target":34962},{"buffer":0,"byteLength":2880,"byteOffset":56196,"target":34962},{"buffer":0,"byteLength":2880,"byteOffset":59076,"target":34962},{"buffer":0,"byteLength":720,"byteOffset":61956,"target":34963},{"buffer":0,"byteLength":1716,"byteOffset":62676,"target":34962},{"buffer":0,"byteLength":1716,"byteOffset":64392,"target":34962},{"buffer":0,"byteLength":1144,"byteOffset":66108,"target":34962},{"buffer":0,"byteLength":1144,"byteOffset":67252,"target":34962},{"buffer":0,"byteLength":288,"byteOffset":68396,"target":34963},{"buffer":0,"byteLength":540,"byteOffset":68684,"target":34962},{"buffer":0,"byteLength":540,"byteOffset":69224,"target":34962},{"buffer":0,"byteLength":360,"byteOffset":69764,"target":34962},{"buffer":0,"byteLength":360,"byteOffset":70124,"target":34962},{"buffer":0,"byteLength":90,"byteOffset":70484,"target":34963}],"samplers":[{"magFilter":9729,"minFilter":9987}],"buffers":[{"byteLength":70576,"uri":"floor_tile_small_weeds_A.bin"}]}