{"asset":{"generator":"Khronos glTF Blender I/O v5.2.40","version":"2.0"},"scene":0,"scenes":[{"name":"Scene","nodes":[0]}],"nodes":[{"mesh":0,"name":"pillar_decorated"}],"materials":[{"doubleSided":true,"name":"cave_rock","pbrMetallicRoughness":{"baseColorTexture":{"index":0},"metallicFactor":0.0,"roughnessFactor":1.0}},{"doubleSided":true,"name":"flat_8e5241","pbrMetallicRoughness":{"baseColorFactor":[0.2739535868167877,0.08586941659450531,0.05398278310894966,1],"metallicFactor":0.0,"roughnessFactor":1.0}},{"doubleSided":true,"name":"flat_9a5d4b","pbrMetallicRoughness":{"baseColorFactor":[0.3248084485530853,0.1113484799861908,0.07201363146305084,1],"metallicFactor":0.0,"roughnessFactor":1.0}},{"doubleSided":true,"name":"flat_834737","pbrMetallicRoughness":{"baseColorFactor":[0.22877536714076996,0.06475231051445007,0.03949536755681038,1],"metallicFactor":0.0,"roughnessFactor":1.0}},{"doubleSided":true,"name":"flat_9a5d41","pbrMetallicRoughness":{"baseColorFactor":[0.3238864541053772,0.11097016930580139,0.05441594496369362,1],"metallicFactor":0.0,"roughnessFactor":1.0}},{"doubleSided":true,"name":"flat_a45e4c","pbrMetallicRoughness":{"baseColorFactor":[0.3750888407230377,0.11235439032316208,0.07231898605823517,1],"metallicFactor":0.0,"roughnessFactor":1.0}},{"doubleSided":true,"name":"dungeon_floor","pbrMetallicRoughness":{"baseColorTexture":{"index":1},"metallicFactor":0.0,"roughnessFactor":1.0}},{"doubleSided":true,"name":"flat_ede1db","pbrMetallicRoughness":{"baseColorFactor":[0.8518717885017395,0.7588897347450256,0.7106032371520996,1],"metallicFactor":0.0,"roughnessFactor":1.0}},{"doubleSided":true,"name":"flat_ede1d2","pbrMetallicRoughness":{"baseColorFactor":[0.8510954976081848,0.7583534717559814,0.6492559909820557,1],"metallicFactor":0.0,"roughnessFactor":1.0}},{"doubleSided":true,"name":"flat_d8c3b6","pbrMetallicRoughness":{"baseColorFactor":[0.6890085935592651,0.5489587187767029,0.4708370566368103,1],"metallicFactor":0.0,"roughnessFactor":1.0}},{"doubleSided":true,"name":"flat_f7f2e9","pbrMetallicRoughness":{"baseColorFactor":[0.9306139945983887,0.8940551280975342,0.821961522102356,1],"metallicFactor":0.0,"roughnessFactor":1.0}},{"doubleSided":true,"name":"flat_f7f2e2","pbrMetallicRoughness":{"baseColorFactor":[0.9301462769508362,0.8943078517913818,0.7613762617111206,1],"metallicFactor":0.0,"roughnessFactor":1.0}},{"doubleSided":true,"name":"flat_d9cdb6","pbrMetallicRoughness":{"baseColorFactor":[0.6946602463722229,0.6150836944580078,0.47338801622390747,1],"metallicFactor":0.0,"roughnessFactor":1.0}},{"doubleSided":true,"name":"flat_e3d8c9","pbrMetallicRoughness":{"baseColorFactor":[0.7733258605003357,0.6871738433837891,0.589729368686676,1],"metallicFactor":0.0,"roughnessFactor":1.0}},{"doubleSided":true,"name":"flat_d8c3ac","pbrMetallicRoughness":{"baseColorFactor":[0.6879245638847351,0.5479431748390198,0.4176609218120575,1],"metallicFactor":0.0,"roughnessFactor":1.0}},{"doubleSided":true,"name":"flat_e3d7c0","pbrMetallicRoughness":{"baseColorFactor":[0.7723384499549866,0.6863992214202881,0.5319942831993103,1],"metallicFactor":0.0,"roughnessFactor":1.0}},{"doubleSided":true,"name":"flat_f6eada","pbrMetallicRoughness":{"baseColorFactor":[0.9273269772529602,0.8278340697288513,0.7061235308647156,1],"metallicFactor":0.0,"roughnessFactor":1.0}},{"doubleSided":true,"name":"flat_f6eae2","pbrMetallicRoughness":{"baseColorFactor":[0.9277806878089905,0.828026533126831,0.7670193314552307,1],"metallicFactor":0.0,"roughnessFactor":1.0}},{"doubleSided":true,"name":"flat_eeeada","pbrMetallicRoughness":{"baseColorFactor":[0.8559398055076599,0.827313244342804,0.7077308893203735,1],"metallicFactor":0.0,"roughnessFactor":1.0}}],"meshes":[{"name":"Cube.16005","primitives":[{"attributes":{"POSITION":0,"NORMAL":1,"TEXCOORD_0":2,"COLOR_0":3},"indices":4,"material":0},{"attributes":{"POSITION":5,"NORMAL":6,"TEXCOORD_0":7,"COLOR_0":8},"indices":9,"material":1},{"attributes":{"POSITION":10,"NORMAL":11,"TEXCOORD_0":12,"COLOR_0":13},"indices":14,"material":2},{"attributes":{"POSITION":15,"NORMAL":16,"TEXCOORD_0":17,"COLOR_0":18},"indices":19,"material":3},{"attributes":{"POSITION":20,"NORMAL":21,"TEXCOORD_0":22,"COLOR_0":23},"indices":24,"material":4},{"attributes":{"POSITION":25,"NORMAL":26,"TEXCOORD_0":27,"COLOR_0":28},"indices":29,"material":5},{"attributes":{"POSITION":30,"NORMAL":31,"TEXCOORD_0":32,"COLOR_0":33},"indices":34,"material":6},{"attributes":{"POSITION":35,"NORMAL":36,"TEXCOORD_0":37,"COLOR_0":38},"indices":39,"material":7},{"attributes":{"POSITION":40,"NORMAL":41,"TEXCOORD_0":42,"COLOR_0":43},"indices":44,"material":8},{"attributes":{"POSITION":45,"NORMAL":46,"TEXCOORD_0":47,"COLOR_0":48},"indices":49,"material":9},{"attributes":{"POSITION":50,"NORMAL":51,"TEXCOORD_0":52,"COLOR_0":53},"indices":19,"material":10},{"attributes":{"POSITION":54,"NORMAL":55,"TEXCOORD_0":56,"COLOR_0":57},"indices":58,"material":11},{"attributes":{"POSITION":59,"NORMAL":60,"TEXCOORD_0":61,"COLOR_0":62},"indices":19,"material":12},{"attributes":{"POSITION":63,"NORMAL":64,"TEXCOORD_0":65,"COLOR_0":66},"indices":67,"material":13},{"attributes":{"POSITION":68,"NORMAL":69,"TEXCOORD_0":70,"COLOR_0":71},"indices":72,"material":14},{"attributes":{"POSITION":73,"NORMAL":74,"TEXCOORD_0":75,"COLOR_0":76},"indices":77,"material":15},{"attributes":{"POSITION":78,"NORMAL":79,"TEXCOORD_0":80,"COLOR_0":81},"indices":19,"material":16},{"attributes":{"POSITION":82,"NORMAL":83,"TEXCOORD_0":84,"COLOR_0":85},"indices":19,"material":17},{"attributes":{"POSITION":86,"NORMAL":87,"TEXCOORD_0":88,"COLOR_0":89},"indices":90,"material":18}]}],"textures":[{"sampler":0,"source":0},{"sampler":0,"source":1}],"images":[{"mimeType":"image/png","name":"cave_rock.png","uri":"../../textures/cave_rock.png"},{"mimeType":"image/png","name":"dungeon_floor.png","uri":"../../textures/dungeon_floor.png"}],"accessors":[{"bufferView":0,"componentType":5126,"count":1782,"max":[1.116003155708313,4,0.9601638317108154],"min":[-1.1159993410110474,0,-0.7499999403953552],"type":"VEC3"},{"bufferView":1,"componentType":5126,"count":1782,"type":"VEC3"},{"bufferView":2,"componentType":5126,"count":1782,"type":"VEC2"},{"bufferView":3,"componentType":5123,"count":1782,"normalized":true,"type":"VEC4"},{"bufferView":4,"componentType":5123,"count":1914,"type":"SCALAR"},{"bufferView":5,"componentType":5126,"count":18,"max":[0.4389452338218689,2.4489586353302,0.7950211763381958],"min":[-0.43894171714782715,1.6502189636230469,0.7156420350074768],"type":"VEC3"},{"bufferView":6,"componentType":5126,"count":18,"type":"VEC3"},{"bufferView":7,"componentType":5126,"count":18,"type":"VEC2"},{"bufferView":8,"componentType":5123,"count":18,"normalized":true,"type":"VEC4"},{"bufferView":9,"componentType":5123,"count":18,"type":"SCALAR"},{"bufferView":10,"componentType":5126,"count":15,"max":[0.4389452338218689,2.5413331985473633,0.7950839400291443],"min":[-0.43894171714782715,1.870200276374817,0.7151196599006653],"type":"VEC3"},{"bufferView":11,"componentType":5126,"count":15,"type":"VEC3"},{"bufferView":12,"componentType":5126,"count":15,"type":"VEC2"},{"bufferView":13,"componentType":5123,"count":15,"normalized":true,"type":"VEC4"},{"bufferView":14,"componentType":5123,"count":15,"type":"SCALAR"},{"bufferView":15,"componentType":5126,"count":6,"max":[0.24955013394355774,2.040570020675659,0.7957040071487427],"min":[-0.24954365193843842,1.539830207824707,0.7685995697975159],"type":"VEC3"},{"bufferView":16,"componentType":5126,"count":6,"type":"VEC3"},{"bufferView":17,"componentType":5126,"count":6,"type":"VEC2"},{"bufferView":18,"componentType":5123,"count":6,"normalized":true,"type":"VEC4"},{"bufferView":19,"componentType":5123,"count":6,"type":"SCALAR"},{"bufferView":20,"componentType":5126,"count":6,"max":[0.24955013394355774,2.040614604949951,0.7950863242149353],"min":[-0.24954365193843842,1.6502189636230469,0.7685995697975159],"type":"VEC3"},{"bufferView":21,"componentType":5126,"count":6,"type":"VEC3"},{"bufferView":22,"componentType":5126,"count":6,"type":"VEC2"},{"bufferView":23,"componentType":5123,"count":6,"normalized":true,"type":"VEC4"},{"bufferView":24,"componentType":5123,"count":6,"type":"SCALAR"},{"bufferView":25,"componentType":5126,"count":3,"max":[0.42612552642822266,2.040687084197998,0.7701347470283508],"min":[0.24955013394355774,1.8701995611190796,0.7185685038566589],"type":"VEC3"},{"bufferView":26,"componentType":5126,"count":3,"type":"VEC3"},{"bufferView":27,"componentType":5126,"count":3,"type":"VEC2"},{"bufferView":28,"componentType":5123,"count":3,"normalized":true,"type":"VEC4"},{"bufferView":29,"componentType":5123,"count":3,"type":"SCALAR"},{"bufferView":30,"componentType":5126,"count":120,"max":[0.9990229606628418,2.848149538040161,0.6380641460418701],"min":[-0.9990191459655762,2.550537109375,0.5570986270904541],"type":"VEC3"},{"bufferView":31,"componentType":5126,"count":120,"type":"VEC3"},{"bufferView":32,"componentType":5126,"count":120,"type":"VEC2"},{"bufferView":33,"componentType":5123,"count":120,"normalized":true,"type":"VEC4"},{"bufferView":34,"componentType":5123,"count":120,"type":"SCALAR"},{"bufferView":35,"componentType":5126,"count":29,"max":[0.4500075876712799,3.7274699211120605,0.7554563283920288],"min":[-0.4499923288822174,0.9750000238418579,0.5600866079330444],"type":"VEC3"},{"bufferView":36,"componentType":5126,"count":29,"type":"VEC3"},{"bufferView":37,"componentType":5126,"count":29,"type":"VEC2"},{"bufferView":38,"componentType":5123,"count":29,"normalized":true,"type":"VEC4"},{"bufferView":39,"componentType":5123,"count":33,"type":"SCALAR"},{"bufferView":40,"componentType":5126,"count":27,"max":[0.4500075876712799,3.200000047683716,0.6528464555740356],"min":[-0.4499925673007965,0.9750000238418579,0.5600866079330444],"type":"VEC3"},{"bufferView":41,"componentType":5126,"count":27,"type":"VEC3"},{"bufferView":42,"componentType":5126,"count":27,"type":"VEC2"},{"bufferView":43,"componentType":5123,"count":27,"normalized":true,"type":"VEC4"},{"bufferView":44,"componentType":5123,"count":27,"type":"SCALAR"},{"bufferView":45,"componentType":5126,"count":6,"max":[0.4500075876712799,0.9750000238418579,0.6528464555740356],"min":[-0.4499923288822174,0.6000000238418579,0.5600866079330444],"type":"VEC3"},{"bufferView":46,"componentType":5126,"count":6,"type":"VEC3"},{"bufferView":47,"componentType":5126,"count":6,"type":"VEC2"},{"bufferView":48,"componentType":5123,"count":6,"normalized":true,"type":"VEC4"},{"bufferView":49,"componentType":5123,"count":6,"type":"SCALAR"},{"bufferView":50,"componentType":5126,"count":6,"max":[0.3102932572364807,1.2999999523162842,0.6528464555740356],"min":[-0.3102779984474182,0.9750000238418579,0.5600866079330444],"type":"VEC3"},{"bufferView":51,"componentType":5126,"count":6,"type":"VEC3"},{"bufferView":52,"componentType":5126,"count":6,"type":"VEC2"},{"bufferView":53,"componentType":5123,"count":6,"normalized":true,"type":"VEC4"},{"bufferView":54,"componentType":5126,"count":12,"max":[0.3102932572364807,2.5,0.6528464555740356],"min":[-0.3102782368659973,0.9750000238418579,0.5600866079330444],"type":"VEC3"},{"bufferView":55,"componentType":5126,"count":12,"type":"VEC3"},{"bufferView":56,"componentType":5126,"count":12,"type":"VEC2"},{"bufferView":57,"componentType":5123,"count":12,"normalized":true,"type":"VEC4"},{"bufferView":58,"componentType":5123,"count":12,"type":"SCALAR"},{"bufferView":59,"componentType":5126,"count":6,"max":[0.3102932572364807,0.9750000238418579,0.6528464555740356],"min":[-0.3102779984474182,0.5563410520553589,0.5600866079330444],"type":"VEC3"},{"bufferView":60,"componentType":5126,"count":6,"type":"VEC3"},{"bufferView":61,"componentType":5126,"count":6,"type":"VEC2"},{"bufferView":62,"componentType":5123,"count":6,"normalized":true,"type":"VEC4"},{"bufferView":63,"componentType":5126,"count":33,"max":[0.4500075876712799,3.200000047683716,0.6528464555740356],"min":[-0.4499928057193756,0.5563410520553589,0.5600866079330444],"type":"VEC3"},{"bufferView":64,"componentType":5126,"count":33,"type":"VEC3"},{"bufferView":65,"componentType":5126,"count":33,"type":"VEC2"},{"bufferView":66,"componentType":5123,"count":33,"normalized":true,"type":"VEC4"},{"bufferView":67,"componentType":5123,"count":33,"type":"SCALAR"},{"bufferView":68,"componentType":5126,"count":21,"max":[0.45000705122947693,3.450000047683716,0.7554563283920288],"min":[-0.4499928057193756,0.5656965374946594,0.5600866079330444],"type":"VEC3"},{"bufferView":69,"componentType":5126,"count":21,"type":"VEC3"},{"bufferView":70,"componentType":5126,"count":21,"type":"VEC2"},{"bufferView":71,"componentType":5123,"count":21,"normalized":true,"type":"VEC4"},{"bufferView":72,"componentType":5123,"count":21,"type":"SCALAR"},{"bufferView":73,"componentType":5126,"count":36,"max":[0.4500075876712799,3.7274699211120605,0.7554563283920288],"min":[-0.4499928057193756,1.2999999523162842,0.5600866079330444],"type":"VEC3"},{"bufferView":74,"componentType":5126,"count":36,"type":"VEC3"},{"bufferView":75,"componentType":5126,"count":36,"type":"VEC2"},{"bufferView":76,"componentType":5123,"count":36,"normalized":true,"type":"VEC4"},{"bufferView":77,"componentType":5123,"count":39,"type":"SCALAR"},{"bufferView":78,"componentType":5126,"count":6,"max":[0.3102932572364807,2.5,0.5600866079330444],"min":[-0.3102779984474182,1.399999976158142,0.5600866079330444],"type":"VEC3"},{"bufferView":79,"componentType":5126,"count":6,"type":"VEC3"},{"bufferView":80,"componentType":5126,"count":6,"type":"VEC2"},{"bufferView":81,"componentType":5123,"count":6,"normalized":true,"type":"VEC4"},{"bufferView":82,"componentType":5126,"count":6,"max":[0.3102930188179016,3.200000047683716,0.5600866079330444],"min":[-0.3102782368659973,2.5,0.5600866079330444],"type":"VEC3"},{"bufferView":83,"componentType":5126,"count":6,"type":"VEC3"},{"bufferView":84,"componentType":5126,"count":6,"type":"VEC2"},{"bufferView":85,"componentType":5123,"count":6,"normalized":true,"type":"VEC4"},{"bufferView":86,"componentType":5126,"count":6,"max":[0.3102927803993225,3.200000047683716,0.5600866079330444],"min":[-0.3102784752845764,2.5,0.5600866079330444],"type":"VEC3"},{"bufferView":87,"componentType":5126,"count":6,"type":"VEC3"},{"bufferView":88,"componentType":5126,"count":6,"type":"VEC2"},{"bufferView":89,"componentType":5123,"count":6,"normalized":true,"type":"VEC4"},{"bufferView":90,"componentType":5123,"count":6,"type":"SCALAR"}],"bufferViews":[{"buffer":0,"byteLength":21384,"byteOffset":0,"target":34962},{"buffer":0,"byteLength":21384,"byteOffset":21384,"target":34962},{"buffer":0,"byteLength":14256,"byteOffset":42768,"target":34962},{"buffer":0,"byteLength":14256,"byteOffset":57024,"target":34962},{"buffer":0,"byteLength":3828,"byteOffset":71280,"target":34963},{"buffer":0,"byteLength":216,"byteOffset":75108,"target":34962},{"buffer":0,"byteLength":216,"byteOffset":75324,"target":34962},{"buffer":0,"byteLength":144,"byteOffset":75540,"target":34962},{"buffer":0,"byteLength":144,"byteOffset":75684,"target":34962},{"buffer":0,"byteLength":36,"byteOffset":75828,"target":34963},{"buffer":0,"byteLength":180,"byteOffset":75864,"target":34962},{"buffer":0,"byteLength":180,"byteOffset":76044,"target":34962},{"buffer":0,"byteLength":120,"byteOffset":76224,"target":34962},{"buffer":0,"byteLength":120,"byteOffset":76344,"target":34962},{"buffer":0,"byteLength":30,"byteOffset":76464,"target":34963},{"buffer":0,"byteLength":72,"byteOffset":76496,"target":34962},{"buffer":0,"byteLength":72,"byteOffset":76568,"target":34962},{"buffer":0,"byteLength":48,"byteOffset":76640,"target":34962},{"buffer":0,"byteLength":48,"byteOffset":76688,"target":34962},{"buffer":0,"byteLength":12,"byteOffset":76736,"target":34963},{"buffer":0,"byteLength":72,"byteOffset":76748,"target":34962},{"buffer":0,"byteLength":72,"byteOffset":76820,"target":34962},{"buffer":0,"byteLength":48,"byteOffset":76892,"target":34962},{"buffer":0,"byteLength":48,"byteOffset":76940,"target":34962},{"buffer":0,"byteLength":12,"byteOffset":76988,"target":34963},{"buffer":0,"byteLength":36,"byteOffset":77000,"target":34962},{"buffer":0,"byteLength":36,"byteOffset":77036,"target":34962},{"buffer":0,"byteLength":24,"byteOffset":77072,"target":34962},{"buffer":0,"byteLength":24,"byteOffset":77096,"target":34962},{"buffer":0,"byteLength":6,"byteOffset":77120,"target":34963},{"buffer":0,"byteLength":1440,"byteOffset":77128,"target":34962},{"buffer":0,"byteLength":1440,"byteOffset":78568,"target":34962},{"buffer":0,"byteLength":960,"byteOffset":80008,"target":34962},{"buffer":0,"byteLength":960,"byteOffset":80968,"target":34962},{"buffer":0,"byteLength":240,"byteOffset":81928,"target":34963},{"buffer":0,"byteLength":348,"byteOffset":82168,"target":34962},{"buffer":0,"byteLength":348,"byteOffset":82516,"target":34962},{"buffer":0,"byteLength":232,"byteOffset":82864,"target":34962},{"buffer":0,"byteLength":232,"byteOffset":83096,"target":34962},{"buffer":0,"byteLength":66,"byteOffset":83328,"target":34963},{"buffer":0,"byteLength":324,"byteOffset":83396,"target":34962},{"buffer":0,"byteLength":324,"byteOffset":83720,"target":34962},{"buffer":0,"byteLength":216,"byteOffset":84044,"target":34962},{"buffer":0,"byteLength":216,"byteOffset":84260,"target":34962},{"buffer":0,"byteLength":54,"byteOffset":84476,"target":34963},{"buffer":0,"byteLength":72,"byteOffset":84532,"target":34962},{"buffer":0,"byteLength":72,"byteOffset":84604,"target":34962},{"buffer":0,"byteLength":48,"byteOffset":84676,"target":34962},{"buffer":0,"byteLength":48,"byteOffset":84724,"target":34962},{"buffer":0,"byteLength":12,"byteOffset":84772,"target":34963},{"buffer":0,"byteLength":72,"byteOffset":84784,"target":34962},{"buffer":0,"byteLength":72,"byteOffset":84856,"target":34962},{"buffer":0,"byteLength":48,"byteOffset":84928,"target":34962},{"buffer":0,"byteLength":48,"byteOffset":84976,"target":34962},{"buffer":0,"byteLength":144,"byteOffset":85024,"target":34962},{"buffer":0,"byteLength":144,"byteOffset":85168,"target":34962},{"buffer":0,"byteLength":96,"byteOffset":85312,"target":34962},{"buffer":0,"byteLength":96,"byteOffset":85408,"target":34962},{"buffer":0,"byteLength":24,"byteOffset":85504,"target":34963},{"buffer":0,"byteLength":72,"byteOffset":85528,"target":34962},{"buffer":0,"byteLength":72,"byteOffset":85600,"target":34962},{"buffer":0,"byteLength":48,"byteOffset":85672,"target":34962},{"buffer":0,"byteLength":48,"byteOffset":85720,"target":34962},{"buffer":0,"byteLength":396,"byteOffset":85768,"target":34962},{"buffer":0,"byteLength":396,"byteOffset":86164,"target":34962},{"buffer":0,"byteLength":264,"byteOffset":86560,"target":34962},{"buffer":0,"byteLength":264,"byteOffset":86824,"target":34962},{"buffer":0,"byteLength":66,"byteOffset":87088,"target":34963},{"buffer":0,"byteLength":252,"byteOffset":87156,"target":34962},{"buffer":0,"byteLength":252,"byteOffset":87408,"target":34962},{"buffer":0,"byteLength":168,"byteOffset":87660,"target":34962},{"buffer":0,"byteLength":168,"byteOffset":87828,"target":34962},{"buffer":0,"byteLength":42,"byteOffset":87996,"target":34963},{"buffer":0,"byteLength":432,"byteOffset":88040,"target":34962},{"buffer":0,"byteLength":432,"byteOffset":88472,"target":34962},{"buffer":0,"byteLength":288,"byteOffset":88904,"target":34962},{"buffer":0,"byteLength":288,"byteOffset":89192,"target":34962},{"buffer":0,"byteLength":78,"byteOffset":89480,"target":34963},{"buffer":0,"byteLength":72,"byteOffset":89560,"target":34962},{"buffer":0,"byteLength":72,"byteOffset":89632,"target":34962},{"buffer":0,"byteLength":48,"byteOffset":89704,"target":34962},{"buffer":0,"byteLength":48,"byteOffset":89752,"target":34962},{"buffer":0,"byteLength":72,"byteOffset":89800,"target":34962},{"buffer":0,"byteLength":72,"byteOffset":89872,"target":34962},{"buffer":0,"byteLength":48,"byteOffset":89944,"target":34962},{"buffer":0,"byteLength":48,"byteOffset":89992,"target":34962},{"buffer":0,"byteLength":72,"byteOffset":90040,"target":34962},{"buffer":0,"byteLength":72,"byteOffset":90112,"target":34962},{"buffer":0,"byteLength":48,"byteOffset":90184,"target":34962},{"buffer":0,"byteLength":48,"byteOffset":90232,"target":34962},{"buffer":0,"byteLength":12,"byteOffset":90280,"target":34963}],"samplers":[{"magFilter":9729,"minFilter":9987}],"buffers":[{"byteLength":90292,"uri":"pillar_decorated.bin"}]}