{"asset":{"generator":"Khronos glTF Blender I/O v5.2.40","version":"2.0"},"scene":0,"scenes":[{"name":"Scene","nodes":[0]}],"nodes":[{"mesh":0,"name":"rubble_large"}],"materials":[{"doubleSided":true,"name":"cave_rock","pbrMetallicRoughness":{"baseColorTexture":{"index":0},"metallicFactor":0.0,"roughnessFactor":1.0}},{"doubleSided":true,"name":"dungeon_floor","pbrMetallicRoughness":{"baseColorTexture":{"index":1},"metallicFactor":0.0,"roughnessFactor":1.0}}],"meshes":[{"name":"Cube.16007","primitives":[{"attributes":{"POSITION":0,"NORMAL":1,"TEXCOORD_0":2,"COLOR_0":3},"indices":4,"material":0},{"attributes":{"POSITION":5,"NORMAL":6,"TEXCOORD_0":7,"COLOR_0":8},"indices":9,"material":1}]}],"textures":[{"sampler":0,"source":0},{"sampler":0,"source":1}],"images":[{"mimeType":"image/png","name":"cave_rock.png","uri":"../../textures/cave_rock.png"},{"mimeType":"image/png","name":"dungeon_floor.png","uri":"../../textures/dungeon_floor.png"}],"accessors":[{"bufferView":0,"componentType":5126,"count":1452,"max":[4.060417175292969,3.4960880279541016,1.597455382347107],"min":[-4.068856716156006,0,-1.5856541395187378],"type":"VEC3"},{"bufferView":1,"componentType":5126,"count":1452,"type":"VEC3"},{"bufferView":2,"componentType":5126,"count":1452,"type":"VEC2"},{"bufferView":3,"componentType":5123,"count":1452,"normalized":true,"type":"VEC4"},{"bufferView":4,"componentType":5123,"count":1452,"type":"SCALAR"},{"bufferView":5,"componentType":5126,"count":910,"max":[3.9999899864196777,3.4960880279541016,1.4534982442855835],"min":[-4.008429527282715,0,-1.5354499816894531],"type":"VEC3"},{"bufferView":6,"componentType":5126,"count":910,"type":"VEC3"},{"bufferView":7,"componentType":5126,"count":910,"type":"VEC2"},{"bufferView":8,"componentType":5123,"count":910,"normalized":true,"type":"VEC4"},{"bufferView":9,"componentType":5123,"count":912,"type":"SCALAR"}],"bufferViews":[{"buffer":0,"byteLength":17424,"byteOffset":0,"target":34962},{"buffer":0,"byteLength":17424,"byteOffset":17424,"target":34962},{"buffer":0,"byteLength":11616,"byteOffset":34848,"target":34962},{"buffer":0,"byteLength":11616,"byteOffset":46464,"target":34962},{"buffer":0,"byteLength":2904,"byteOffset":58080,"target":34963},{"buffer":0,"byteLength":10920,"byteOffset":60984,"target":34962},{"buffer":0,"byteLength":10920,"byteOffset":71904,"target":34962},{"buffer":0,"byteLength":7280,"byteOffset":82824,"target":34962},{"buffer":0,"byteLength":7280,"byteOffset":90104,"target":34962},{"buffer":0,"byteLength":1824,"byteOffset":97384,"target":34963}],"samplers":[{"magFilter":9729,"minFilter":9987}],"buffers":[{"byteLength":99208,"uri":"rubble_large.bin"}]}