{"asset":{"generator":"Khronos glTF Blender I/O v5.2.40","version":"2.0"},"scene":0,"scenes":[{"name":"Scene","nodes":[0]}],"nodes":[{"mesh":0,"name":"rubble_half"}],"materials":[{"doubleSided":true,"name":"cave_rock","pbrMetallicRoughness":{"baseColorTexture":{"index":0},"metallicFactor":0.0,"roughnessFactor":1.0}},{"doubleSided":true,"name":"dungeon_floor","pbrMetallicRoughness":{"baseColorTexture":{"index":1},"metallicFactor":0.0,"roughnessFactor":1.0}}],"meshes":[{"name":"Cube.16006","primitives":[{"attributes":{"POSITION":0,"NORMAL":1,"TEXCOORD_0":2,"COLOR_0":3},"indices":4,"material":0},{"attributes":{"POSITION":5,"NORMAL":6,"TEXCOORD_0":7,"COLOR_0":8},"indices":9,"material":1}]}],"textures":[{"sampler":0,"source":0},{"sampler":0,"source":1}],"images":[{"mimeType":"image/png","name":"cave_rock.png","uri":"../../textures/cave_rock.png"},{"mimeType":"image/png","name":"dungeon_floor.png","uri":"../../textures/dungeon_floor.png"}],"accessors":[{"bufferView":0,"componentType":5126,"count":746,"max":[3.9996535778045654,3.4697048664093018,1.483696460723877],"min":[-1.1812772982011666e-12,-6.056272372489957e-09,-1.5163036584854126],"type":"VEC3"},{"bufferView":1,"componentType":5126,"count":746,"type":"VEC3"},{"bufferView":2,"componentType":5126,"count":746,"type":"VEC2"},{"bufferView":3,"componentType":5123,"count":746,"normalized":true,"type":"VEC4"},{"bufferView":4,"componentType":5123,"count":759,"type":"SCALAR"},{"bufferView":5,"componentType":5126,"count":406,"max":[3.973069906234741,3.5,1.3148937225341797],"min":[-1.1812772982011666e-12,-6.056272372489957e-09,-1.5163036584854126],"type":"VEC3"},{"bufferView":6,"componentType":5126,"count":406,"type":"VEC3"},{"bufferView":7,"componentType":5126,"count":406,"type":"VEC2"},{"bufferView":8,"componentType":5123,"count":406,"normalized":true,"type":"VEC4"},{"bufferView":9,"componentType":5123,"count":411,"type":"SCALAR"}],"bufferViews":[{"buffer":0,"byteLength":8952,"byteOffset":0,"target":34962},{"buffer":0,"byteLength":8952,"byteOffset":8952,"target":34962},{"buffer":0,"byteLength":5968,"byteOffset":17904,"target":34962},{"buffer":0,"byteLength":5968,"byteOffset":23872,"target":34962},{"buffer":0,"byteLength":1518,"byteOffset":29840,"target":34963},{"buffer":0,"byteLength":4872,"byteOffset":31360,"target":34962},{"buffer":0,"byteLength":4872,"byteOffset":36232,"target":34962},{"buffer":0,"byteLength":3248,"byteOffset":41104,"target":34962},{"buffer":0,"byteLength":3248,"byteOffset":44352,"target":34962},{"buffer":0,"byteLength":822,"byteOffset":47600,"target":34963}],"samplers":[{"magFilter":9729,"minFilter":9987}],"buffers":[{"byteLength":48424,"uri":"rubble_half.bin"}]}