{"asset":{"generator":"Khronos glTF Blender I/O v5.2.40","version":"2.0"},"scene":0,"scenes":[{"name":"Scene","nodes":[0]}],"nodes":[{"mesh":0,"name":"stairs_wide"}],"materials":[{"doubleSided":true,"name":"cave_rock","pbrMetallicRoughness":{"baseColorTexture":{"index":0},"metallicFactor":0.0,"roughnessFactor":1.0}}],"meshes":[{"name":"Cube.16017","primitives":[{"attributes":{"POSITION":0,"NORMAL":1,"TEXCOORD_0":2,"COLOR_0":3},"indices":4,"material":0}]}],"textures":[{"sampler":0,"source":0}],"images":[{"mimeType":"image/png","name":"cave_rock.png","uri":"../../textures/cave_rock.png"}],"accessors":[{"bufferView":0,"componentType":5126,"count":915,"max":[3.5,5.099999904632568,4],"min":[-3.500000238418579,0,-1.092784742695585e-07],"type":"VEC3"},{"bufferView":1,"componentType":5126,"count":915,"type":"VEC3"},{"bufferView":2,"componentType":5126,"count":915,"type":"VEC2"},{"bufferView":3,"componentType":5123,"count":915,"normalized":true,"type":"VEC4"},{"bufferView":4,"componentType":5123,"count":1074,"type":"SCALAR"}],"bufferViews":[{"buffer":0,"byteLength":10980,"byteOffset":0,"target":34962},{"buffer":0,"byteLength":10980,"byteOffset":10980,"target":34962},{"buffer":0,"byteLength":7320,"byteOffset":21960,"target":34962},{"buffer":0,"byteLength":7320,"byteOffset":29280,"target":34962},{"buffer":0,"byteLength":2148,"byteOffset":36600,"target":34963}],"samplers":[{"magFilter":9729,"minFilter":9987}],"buffers":[{"byteLength":38748,"uri":"stairs_wide.bin"}]}