{"asset":{"generator":"Khronos glTF Blender I/O v5.2.40","version":"2.0"},"scene":0,"scenes":[{"name":"Scene","nodes":[0]}],"nodes":[{"mesh":0,"name":"stairs"}],"materials":[{"doubleSided":true,"name":"cave_rock","pbrMetallicRoughness":{"baseColorTexture":{"index":0},"metallicFactor":0.0,"roughnessFactor":1.0}}],"meshes":[{"name":"Cube.16012","primitives":[{"attributes":{"POSITION":0,"NORMAL":1,"TEXCOORD_0":2,"COLOR_0":3},"indices":4,"material":0}]}],"textures":[{"sampler":0,"source":0}],"images":[{"mimeType":"image/png","name":"cave_rock.png","uri":"../../textures/cave_rock.png"}],"accessors":[{"bufferView":0,"componentType":5126,"count":912,"max":[2.5,5.099999904632568,4],"min":[-2.500000238418579,0,-1.092784742695585e-07],"type":"VEC3"},{"bufferView":1,"componentType":5126,"count":912,"type":"VEC3"},{"bufferView":2,"componentType":5126,"count":912,"type":"VEC2"},{"bufferView":3,"componentType":5123,"count":912,"normalized":true,"type":"VEC4"},{"bufferView":4,"componentType":5123,"count":1074,"type":"SCALAR"}],"bufferViews":[{"buffer":0,"byteLength":10944,"byteOffset":0,"target":34962},{"buffer":0,"byteLength":10944,"byteOffset":10944,"target":34962},{"buffer":0,"byteLength":7296,"byteOffset":21888,"target":34962},{"buffer":0,"byteLength":7296,"byteOffset":29184,"target":34962},{"buffer":0,"byteLength":2148,"byteOffset":36480,"target":34963}],"samplers":[{"magFilter":9729,"minFilter":9987}],"buffers":[{"byteLength":38628,"uri":"stairs.bin"}]}