{"asset":{"generator":"Khronos glTF Blender I/O v5.2.40","version":"2.0"},"scene":0,"scenes":[{"name":"Scene","nodes":[0]}],"nodes":[{"mesh":0,"name":"wall_cracked"}],"materials":[{"doubleSided":true,"name":"cave_rock","pbrMetallicRoughness":{"baseColorTexture":{"index":0},"metallicFactor":0.0,"roughnessFactor":1.0}},{"doubleSided":true,"name":"flat_389b88","pbrMetallicRoughness":{"baseColorFactor":[0.04071219637989998,0.32873180508613586,0.24761034548282623,1],"metallicFactor":0.0,"roughnessFactor":1.0}},{"doubleSided":true,"name":"flat_39a688","pbrMetallicRoughness":{"baseColorFactor":[0.04167850688099861,0.38251274824142456,0.2501106858253479,1],"metallicFactor":0.0,"roughnessFactor":1.0}},{"doubleSided":true,"name":"flat_389087","pbrMetallicRoughness":{"baseColorFactor":[0.039911847561597824,0.27978721261024475,0.24510499835014343,1],"metallicFactor":0.0,"roughnessFactor":1.0}},{"doubleSided":true,"name":"flat_43a689","pbrMetallicRoughness":{"baseColorFactor":[0.05771338939666748,0.3852171003818512,0.2513890564441681,1],"metallicFactor":0.0,"roughnessFactor":1.0}},{"doubleSided":true,"name":"flat_44b189","pbrMetallicRoughness":{"baseColorFactor":[0.059237152338027954,0.4439898431301117,0.25392279028892517,1],"metallicFactor":0.0,"roughnessFactor":1.0}},{"doubleSided":true,"name":"flat_2e8f87","pbrMetallicRoughness":{"baseColorFactor":[0.027451492846012115,0.2775060832500458,0.2438201755285263,1],"metallicFactor":0.0,"roughnessFactor":1.0}}],"meshes":[{"name":"Cube.16056","primitives":[{"attributes":{"POSITION":0,"NORMAL":1,"TEXCOORD_0":2,"COLOR_0":3},"indices":4,"material":0},{"attributes":{"POSITION":5,"NORMAL":6,"TEXCOORD_0":7,"COLOR_0":8},"indices":9,"material":1},{"attributes":{"POSITION":10,"NORMAL":11,"TEXCOORD_0":12,"COLOR_0":13},"indices":14,"material":2},{"attributes":{"POSITION":15,"NORMAL":16,"TEXCOORD_0":17,"COLOR_0":18},"indices":19,"material":3},{"attributes":{"POSITION":20,"NORMAL":21,"TEXCOORD_0":22,"COLOR_0":23},"indices":24,"material":4},{"attributes":{"POSITION":25,"NORMAL":26,"TEXCOORD_0":27,"COLOR_0":28},"indices":29,"material":5},{"attributes":{"POSITION":30,"NORMAL":31,"TEXCOORD_0":32,"COLOR_0":33},"indices":34,"material":6}]}],"textures":[{"sampler":0,"source":0}],"images":[{"mimeType":"image/png","name":"cave_rock.png","uri":"../../textures/cave_rock.png"}],"accessors":[{"bufferView":0,"componentType":5126,"count":1342,"max":[2,4,0.4999999701976776],"min":[-2,0,-0.4999999701976776],"type":"VEC3"},{"bufferView":1,"componentType":5126,"count":1342,"type":"VEC3"},{"bufferView":2,"componentType":5126,"count":1342,"type":"VEC2"},{"bufferView":3,"componentType":5123,"count":1342,"normalized":true,"type":"VEC4"},{"bufferView":4,"componentType":5123,"count":1578,"type":"SCALAR"},{"bufferView":5,"componentType":5126,"count":1494,"max":[1.8444397449493408,1.4573915004730225,0.6143175363540649],"min":[-1.8444398641586304,0.26891475915908813,-0.6143175363540649],"type":"VEC3"},{"bufferView":6,"componentType":5126,"count":1494,"type":"VEC3"},{"bufferView":7,"componentType":5126,"count":1494,"type":"VEC2"},{"bufferView":8,"componentType":5123,"count":1494,"normalized":true,"type":"VEC4"},{"bufferView":9,"componentType":5123,"count":1494,"type":"SCALAR"},{"bufferView":10,"componentType":5126,"count":654,"max":[1.84443998336792,1.4625271558761597,0.6203877925872803],"min":[-1.8444401025772095,0.26891475915908813,-0.6203877925872803],"type":"VEC3"},{"bufferView":11,"componentType":5126,"count":654,"type":"VEC3"},{"bufferView":12,"componentType":5126,"count":654,"type":"VEC2"},{"bufferView":13,"componentType":5123,"count":654,"normalized":true,"type":"VEC4"},{"bufferView":14,"componentType":5123,"count":654,"type":"SCALAR"},{"bufferView":15,"componentType":5126,"count":756,"max":[1.7204376459121704,1.334244728088379,0.5441741943359375],"min":[-1.7204376459121704,0.34021246433258057,-0.5441741943359375],"type":"VEC3"},{"bufferView":16,"componentType":5126,"count":756,"type":"VEC3"},{"bufferView":17,"componentType":5126,"count":756,"type":"VEC2"},{"bufferView":18,"componentType":5123,"count":756,"normalized":true,"type":"VEC4"},{"bufferView":19,"componentType":5123,"count":756,"type":"SCALAR"},{"bufferView":20,"componentType":5126,"count":984,"max":[1.84443998336792,1.4625271558761597,0.6296948194503784],"min":[-1.8444401025772095,0.26891475915908813,-0.6296948194503784],"type":"VEC3"},{"bufferView":21,"componentType":5126,"count":984,"type":"VEC3"},{"bufferView":22,"componentType":5126,"count":984,"type":"VEC2"},{"bufferView":23,"componentType":5123,"count":984,"normalized":true,"type":"VEC4"},{"bufferView":24,"componentType":5123,"count":984,"type":"SCALAR"},{"bufferView":25,"componentType":5126,"count":432,"max":[1.8346402645111084,1.4599632024765015,0.6296948194503784],"min":[-1.8346402645111084,0.29367512464523315,-0.6296948194503784],"type":"VEC3"},{"bufferView":26,"componentType":5126,"count":432,"type":"VEC3"},{"bufferView":27,"componentType":5126,"count":432,"type":"VEC2"},{"bufferView":28,"componentType":5123,"count":432,"normalized":true,"type":"VEC4"},{"bufferView":29,"componentType":5123,"count":432,"type":"SCALAR"},{"bufferView":30,"componentType":5126,"count":132,"max":[1.6769516468048096,1.3042044639587402,0.4450579583644867],"min":[-1.6769516468048096,0.34021246433258057,-0.4450579583644867],"type":"VEC3"},{"bufferView":31,"componentType":5126,"count":132,"type":"VEC3"},{"bufferView":32,"componentType":5126,"count":132,"type":"VEC2"},{"bufferView":33,"componentType":5123,"count":132,"normalized":true,"type":"VEC4"},{"bufferView":34,"componentType":5123,"count":132,"type":"SCALAR"}],"bufferViews":[{"buffer":0,"byteLength":16104,"byteOffset":0,"target":34962},{"buffer":0,"byteLength":16104,"byteOffset":16104,"target":34962},{"buffer":0,"byteLength":10736,"byteOffset":32208,"target":34962},{"buffer":0,"byteLength":10736,"byteOffset":42944,"target":34962},{"buffer":0,"byteLength":3156,"byteOffset":53680,"target":34963},{"buffer":0,"byteLength":17928,"byteOffset":56836,"target":34962},{"buffer":0,"byteLength":17928,"byteOffset":74764,"target":34962},{"buffer":0,"byteLength":11952,"byteOffset":92692,"target":34962},{"buffer":0,"byteLength":11952,"byteOffset":104644,"target":34962},{"buffer":0,"byteLength":2988,"byteOffset":116596,"target":34963},{"buffer":0,"byteLength":7848,"byteOffset":119584,"target":34962},{"buffer":0,"byteLength":7848,"byteOffset":127432,"target":34962},{"buffer":0,"byteLength":5232,"byteOffset":135280,"target":34962},{"buffer":0,"byteLength":5232,"byteOffset":140512,"target":34962},{"buffer":0,"byteLength":1308,"byteOffset":145744,"target":34963},{"buffer":0,"byteLength":9072,"byteOffset":147052,"target":34962},{"buffer":0,"byteLength":9072,"byteOffset":156124,"target":34962},{"buffer":0,"byteLength":6048,"byteOffset":165196,"target":34962},{"buffer":0,"byteLength":6048,"byteOffset":171244,"target":34962},{"buffer":0,"byteLength":1512,"byteOffset":177292,"target":34963},{"buffer":0,"byteLength":11808,"byteOffset":178804,"target":34962},{"buffer":0,"byteLength":11808,"byteOffset":190612,"target":34962},{"buffer":0,"byteLength":7872,"byteOffset":202420,"target":34962},{"buffer":0,"byteLength":7872,"byteOffset":210292,"target":34962},{"buffer":0,"byteLength":1968,"byteOffset":218164,"target":34963},{"buffer":0,"byteLength":5184,"byteOffset":220132,"target":34962},{"buffer":0,"byteLength":5184,"byteOffset":225316,"target":34962},{"buffer":0,"byteLength":3456,"byteOffset":230500,"target":34962},{"buffer":0,"byteLength":3456,"byteOffset":233956,"target":34962},{"buffer":0,"byteLength":864,"byteOffset":237412,"target":34963},{"buffer":0,"byteLength":1584,"byteOffset":238276,"target":34962},{"buffer":0,"byteLength":1584,"byteOffset":239860,"target":34962},{"buffer":0,"byteLength":1056,"byteOffset":241444,"target":34962},{"buffer":0,"byteLength":1056,"byteOffset":242500,"target":34962},{"buffer":0,"byteLength":264,"byteOffset":243556,"target":34963}],"samplers":[{"magFilter":9729,"minFilter":9987}],"buffers":[{"byteLength":243820,"uri":"wall_cracked.bin"}]}