{"asset":{"generator":"Khronos glTF Blender I/O v5.2.40","version":"2.0"},"scene":0,"scenes":[{"name":"Scene","nodes":[1]}],"nodes":[{"mesh":0,"name":"wall_doorway_door","translation":[-0.820098876953125,0,0]},{"children":[0],"mesh":1,"name":"wall_doorway"}],"materials":[{"doubleSided":true,"name":"flat_834737","pbrMetallicRoughness":{"baseColorFactor":[0.22877536714076996,0.06475231051445007,0.03949536755681038,1],"metallicFactor":0.0,"roughnessFactor":1.0}},{"doubleSided":true,"name":"flat_8e5241","pbrMetallicRoughness":{"baseColorFactor":[0.2739535868167877,0.08586941659450531,0.05398278310894966,1],"metallicFactor":0.0,"roughnessFactor":1.0}},{"doubleSided":true,"name":"flat_9a5d4b","pbrMetallicRoughness":{"baseColorFactor":[0.3248084485530853,0.1113484799861908,0.07201363146305084,1],"metallicFactor":0.0,"roughnessFactor":1.0}},{"doubleSided":true,"name":"flat_a45e4c","pbrMetallicRoughness":{"baseColorFactor":[0.3750888407230377,0.11235439032316208,0.07231898605823517,1],"metallicFactor":0.0,"roughnessFactor":1.0}},{"doubleSided":true,"name":"flat_a5684c","pbrMetallicRoughness":{"baseColorFactor":[0.3803785741329193,0.14103944599628448,0.07300883531570435,1],"metallicFactor":0.0,"roughnessFactor":1.0}},{"doubleSided":true,"name":"flat_834841","pbrMetallicRoughness":{"baseColorFactor":[0.22948068380355835,0.06495069712400436,0.05376459285616875,1],"metallicFactor":0.0,"roughnessFactor":1.0}},{"doubleSided":true,"name":"flat_783d2e","pbrMetallicRoughness":{"baseColorFactor":[0.1891181766986847,0.047609712928533554,0.028139334172010422,1],"metallicFactor":0.0,"roughnessFactor":1.0}},{"doubleSided":true,"name":"flat_995341","pbrMetallicRoughness":{"baseColorFactor":[0.3190761208534241,0.08661924302577972,0.05410318076610565,1],"metallicFactor":0.0,"roughnessFactor":1.0}},{"doubleSided":true,"name":"cave_rock","pbrMetallicRoughness":{"baseColorTexture":{"index":0},"metallicFactor":0.0,"roughnessFactor":1.0}}],"meshes":[{"name":"Cube.13134","primitives":[{"attributes":{"POSITION":0,"NORMAL":1,"TEXCOORD_0":2,"COLOR_0":3},"indices":4,"material":0},{"attributes":{"POSITION":5,"NORMAL":6,"TEXCOORD_0":7,"COLOR_0":8},"indices":9,"material":1},{"attributes":{"POSITION":10,"NORMAL":11,"TEXCOORD_0":12,"COLOR_0":13},"indices":14,"material":2},{"attributes":{"POSITION":15,"NORMAL":16,"TEXCOORD_0":17,"COLOR_0":18},"indices":19,"material":3},{"attributes":{"POSITION":20,"NORMAL":21,"TEXCOORD_0":22,"COLOR_0":23},"indices":24,"material":4},{"attributes":{"POSITION":25,"NORMAL":26,"TEXCOORD_0":27,"COLOR_0":28},"indices":29,"material":5},{"attributes":{"POSITION":30,"NORMAL":31,"TEXCOORD_0":32,"COLOR_0":33},"indices":34,"material":6},{"attributes":{"POSITION":35,"NORMAL":36,"TEXCOORD_0":37,"COLOR_0":38},"indices":39,"material":7},{"attributes":{"POSITION":40,"NORMAL":41,"TEXCOORD_0":42,"COLOR_0":43},"indices":44,"material":8}]},{"name":"Cube.13132","primitives":[{"attributes":{"POSITION":45,"NORMAL":46,"TEXCOORD_0":47,"COLOR_0":48},"indices":49,"material":8}]}],"textures":[{"sampler":0,"source":0}],"images":[{"mimeType":"image/png","name":"cave_rock.png","uri":"../../textures/cave_rock.png"}],"accessors":[{"bufferView":0,"componentType":5126,"count":72,"max":[1.820098876953125,2.0903682708740234,0.2000000774860382],"min":[-0.179901123046875,0,-0.2000000774860382],"type":"VEC3"},{"bufferView":1,"componentType":5126,"count":72,"type":"VEC3"},{"bufferView":2,"componentType":5126,"count":72,"type":"VEC2"},{"bufferView":3,"componentType":5123,"count":72,"normalized":true,"type":"VEC4"},{"bufferView":4,"componentType":5123,"count":84,"type":"SCALAR"},{"bufferView":5,"componentType":5126,"count":76,"max":[1.820098876953125,2.3213508129119873,0.2000000774860382],"min":[-0.179901123046875,0,-0.2000000774860382],"type":"VEC3"},{"bufferView":6,"componentType":5126,"count":76,"type":"VEC3"},{"bufferView":7,"componentType":5126,"count":76,"type":"VEC2"},{"bufferView":8,"componentType":5123,"count":76,"normalized":true,"type":"VEC4"},{"bufferView":9,"componentType":5123,"count":78,"type":"SCALAR"},{"bufferView":10,"componentType":5126,"count":208,"max":[1.820098876953125,2.75,0.2000000774860382],"min":[-0.179901123046875,0,-0.2000000774860382],"type":"VEC3"},{"bufferView":11,"componentType":5126,"count":208,"type":"VEC3"},{"bufferView":12,"componentType":5126,"count":208,"type":"VEC2"},{"bufferView":13,"componentType":5123,"count":208,"normalized":true,"type":"VEC4"},{"bufferView":14,"componentType":5123,"count":318,"type":"SCALAR"},{"bufferView":15,"componentType":5126,"count":24,"max":[1.6268970966339111,2.75,0.10000007599592209],"min":[0.013300657272338867,2.556798219680786,-0.10000007599592209],"type":"VEC3"},{"bufferView":16,"componentType":5126,"count":24,"type":"VEC3"},{"bufferView":17,"componentType":5126,"count":24,"type":"VEC2"},{"bufferView":18,"componentType":5123,"count":24,"normalized":true,"type":"VEC4"},{"bufferView":19,"componentType":5123,"count":24,"type":"SCALAR"},{"bufferView":20,"componentType":5126,"count":118,"max":[1.7981396913528442,2.75,0.2000000774860382],"min":[-0.15794193744659424,1.8415014743804932,-0.2000000774860382],"type":"VEC3"},{"bufferView":21,"componentType":5126,"count":118,"type":"VEC3"},{"bufferView":22,"componentType":5126,"count":118,"type":"VEC2"},{"bufferView":23,"componentType":5123,"count":118,"normalized":true,"type":"VEC4"},{"bufferView":24,"componentType":5123,"count":144,"type":"SCALAR"},{"bufferView":25,"componentType":5126,"count":28,"max":[1.7981396913528442,2.0903680324554443,0.2000000774860382],"min":[-0.15794193744659424,0,-0.2000000774860382],"type":"VEC3"},{"bufferView":26,"componentType":5126,"count":28,"type":"VEC3"},{"bufferView":27,"componentType":5126,"count":28,"type":"VEC2"},{"bufferView":28,"componentType":5123,"count":28,"normalized":true,"type":"VEC4"},{"bufferView":29,"componentType":5123,"count":30,"type":"SCALAR"},{"bufferView":30,"componentType":5126,"count":10,"max":[1.7981396913528442,0.4584985077381134,0.2000000774860382],"min":[-0.15794193744659424,0.3860511779785156,-0.2000000774860382],"type":"VEC3"},{"bufferView":31,"componentType":5126,"count":10,"type":"VEC3"},{"bufferView":32,"componentType":5126,"count":10,"type":"VEC2"},{"bufferView":33,"componentType":5123,"count":10,"normalized":true,"type":"VEC4"},{"bufferView":34,"componentType":5123,"count":12,"type":"SCALAR"},{"bufferView":35,"componentType":5126,"count":18,"max":[1.4601082801818848,2.3427984714508057,0.10000007599592209],"min":[0.22811579704284668,2.0903680324554443,-0.10000007599592209],"type":"VEC3"},{"bufferView":36,"componentType":5126,"count":18,"type":"VEC3"},{"bufferView":37,"componentType":5126,"count":18,"type":"VEC2"},{"bufferView":38,"componentType":5123,"count":18,"normalized":true,"type":"VEC4"},{"bufferView":39,"componentType":5123,"count":18,"type":"SCALAR"},{"bufferView":40,"componentType":5126,"count":1091,"max":[1.6722919940948486,1.4822570085525513,0.38677310943603516],"min":[1.1539409160614014,0.8268833160400391,-0.38677310943603516],"type":"VEC3"},{"bufferView":41,"componentType":5126,"count":1091,"type":"VEC3"},{"bufferView":42,"componentType":5126,"count":1091,"type":"VEC2"},{"bufferView":43,"componentType":5123,"count":1091,"normalized":true,"type":"VEC4"},{"bufferView":44,"componentType":5123,"count":1152,"type":"SCALAR"},{"bufferView":45,"componentType":5126,"count":1071,"max":[2,4,0.4999999701976776],"min":[-2,0,-0.4999999701976776],"type":"VEC3"},{"bufferView":46,"componentType":5126,"count":1071,"type":"VEC3"},{"bufferView":47,"componentType":5126,"count":1071,"type":"VEC2"},{"bufferView":48,"componentType":5123,"count":1071,"normalized":true,"type":"VEC4"},{"bufferView":49,"componentType":5123,"count":1344,"type":"SCALAR"}],"bufferViews":[{"buffer":0,"byteLength":864,"byteOffset":0,"target":34962},{"buffer":0,"byteLength":864,"byteOffset":864,"target":34962},{"buffer":0,"byteLength":576,"byteOffset":1728,"target":34962},{"buffer":0,"byteLength":576,"byteOffset":2304,"target":34962},{"buffer":0,"byteLength":168,"byteOffset":2880,"target":34963},{"buffer":0,"byteLength":912,"byteOffset":3048,"target":34962},{"buffer":0,"byteLength":912,"byteOffset":3960,"target":34962},{"buffer":0,"byteLength":608,"byteOffset":4872,"target":34962},{"buffer":0,"byteLength":608,"byteOffset":5480,"target":34962},{"buffer":0,"byteLength":156,"byteOffset":6088,"target":34963},{"buffer":0,"byteLength":2496,"byteOffset":6244,"target":34962},{"buffer":0,"byteLength":2496,"byteOffset":8740,"target":34962},{"buffer":0,"byteLength":1664,"byteOffset":11236,"target":34962},{"buffer":0,"byteLength":1664,"byteOffset":12900,"target":34962},{"buffer":0,"byteLength":636,"byteOffset":14564,"target":34963},{"buffer":0,"byteLength":288,"byteOffset":15200,"target":34962},{"buffer":0,"byteLength":288,"byteOffset":15488,"target":34962},{"buffer":0,"byteLength":192,"byteOffset":15776,"target":34962},{"buffer":0,"byteLength":192,"byteOffset":15968,"target":34962},{"buffer":0,"byteLength":48,"byteOffset":16160,"target":34963},{"buffer":0,"byteLength":1416,"byteOffset":16208,"target":34962},{"buffer":0,"byteLength":1416,"byteOffset":17624,"target":34962},{"buffer":0,"byteLength":944,"byteOffset":19040,"target":34962},{"buffer":0,"byteLength":944,"byteOffset":19984,"target":34962},{"buffer":0,"byteLength":288,"byteOffset":20928,"target":34963},{"buffer":0,"byteLength":336,"byteOffset":21216,"target":34962},{"buffer":0,"byteLength":336,"byteOffset":21552,"target":34962},{"buffer":0,"byteLength":224,"byteOffset":21888,"target":34962},{"buffer":0,"byteLength":224,"byteOffset":22112,"target":34962},{"buffer":0,"byteLength":60,"byteOffset":22336,"target":34963},{"buffer":0,"byteLength":120,"byteOffset":22396,"target":34962},{"buffer":0,"byteLength":120,"byteOffset":22516,"target":34962},{"buffer":0,"byteLength":80,"byteOffset":22636,"target":34962},{"buffer":0,"byteLength":80,"byteOffset":22716,"target":34962},{"buffer":0,"byteLength":24,"byteOffset":22796,"target":34963},{"buffer":0,"byteLength":216,"byteOffset":22820,"target":34962},{"buffer":0,"byteLength":216,"byteOffset":23036,"target":34962},{"buffer":0,"byteLength":144,"byteOffset":23252,"target":34962},{"buffer":0,"byteLength":144,"byteOffset":23396,"target":34962},{"buffer":0,"byteLength":36,"byteOffset":23540,"target":34963},{"buffer":0,"byteLength":13092,"byteOffset":23576,"target":34962},{"buffer":0,"byteLength":13092,"byteOffset":36668,"target":34962},{"buffer":0,"byteLength":8728,"byteOffset":49760,"target":34962},{"buffer":0,"byteLength":8728,"byteOffset":58488,"target":34962},{"buffer":0,"byteLength":2304,"byteOffset":67216,"target":34963},{"buffer":0,"byteLength":12852,"byteOffset":69520,"target":34962},{"buffer":0,"byteLength":12852,"byteOffset":82372,"target":34962},{"buffer":0,"byteLength":8568,"byteOffset":95224,"target":34962},{"buffer":0,"byteLength":8568,"byteOffset":103792,"target":34962},{"buffer":0,"byteLength":2688,"byteOffset":112360,"target":34963}],"samplers":[{"magFilter":9729,"minFilter":9987}],"buffers":[{"byteLength":115048,"uri":"wall_doorway.bin"}]}