{"asset":{"generator":"Khronos glTF Blender I/O v5.2.40","version":"2.0"},"scene":0,"scenes":[{"name":"Scene","nodes":[0]}],"nodes":[{"mesh":0,"name":"wall_pillar"}],"materials":[{"doubleSided":true,"name":"cave_rock","pbrMetallicRoughness":{"baseColorTexture":{"index":0},"metallicFactor":0.0,"roughnessFactor":1.0}}],"meshes":[{"name":"Cube.16066","primitives":[{"attributes":{"POSITION":0,"NORMAL":1,"TEXCOORD_0":2,"COLOR_0":3},"indices":4,"material":0}]}],"textures":[{"sampler":0,"source":0}],"images":[{"mimeType":"image/png","name":"cave_rock.png","uri":"../../textures/cave_rock.png"}],"accessors":[{"bufferView":0,"componentType":5126,"count":1342,"max":[2,4,0.7499999403953552],"min":[-2,0,-0.75],"type":"VEC3"},{"bufferView":1,"componentType":5126,"count":1342,"type":"VEC3"},{"bufferView":2,"componentType":5126,"count":1342,"type":"VEC2"},{"bufferView":3,"componentType":5123,"count":1342,"normalized":true,"type":"VEC4"},{"bufferView":4,"componentType":5123,"count":1620,"type":"SCALAR"}],"bufferViews":[{"buffer":0,"byteLength":16104,"byteOffset":0,"target":34962},{"buffer":0,"byteLength":16104,"byteOffset":16104,"target":34962},{"buffer":0,"byteLength":10736,"byteOffset":32208,"target":34962},{"buffer":0,"byteLength":10736,"byteOffset":42944,"target":34962},{"buffer":0,"byteLength":3240,"byteOffset":53680,"target":34963}],"samplers":[{"magFilter":9729,"minFilter":9987}],"buffers":[{"byteLength":56920,"uri":"wall_pillar.bin"}]}