{"asset":{"generator":"Khronos glTF Blender I/O v5.2.40","version":"2.0"},"scene":0,"scenes":[{"name":"Scene","nodes":[0]}],"nodes":[{"mesh":0,"name":"wall_endcap"}],"materials":[{"doubleSided":true,"name":"cave_rock","pbrMetallicRoughness":{"baseColorTexture":{"index":0},"metallicFactor":0.0,"roughnessFactor":1.0}}],"meshes":[{"name":"Cube.16060","primitives":[{"attributes":{"POSITION":0,"NORMAL":1,"TEXCOORD_0":2,"COLOR_0":3},"indices":4,"material":0}]}],"textures":[{"sampler":0,"source":0}],"images":[{"mimeType":"image/png","name":"cave_rock.png","uri":"../../textures/cave_rock.png"}],"accessors":[{"bufferView":0,"componentType":5126,"count":595,"max":[1.0669052600860596,4,0.49999991059303284],"min":[0,0,-0.5],"type":"VEC3"},{"bufferView":1,"componentType":5126,"count":595,"type":"VEC3"},{"bufferView":2,"componentType":5126,"count":595,"type":"VEC2"},{"bufferView":3,"componentType":5123,"count":595,"normalized":true,"type":"VEC4"},{"bufferView":4,"componentType":5123,"count":666,"type":"SCALAR"}],"bufferViews":[{"buffer":0,"byteLength":7140,"byteOffset":0,"target":34962},{"buffer":0,"byteLength":7140,"byteOffset":7140,"target":34962},{"buffer":0,"byteLength":4760,"byteOffset":14280,"target":34962},{"buffer":0,"byteLength":4760,"byteOffset":19040,"target":34962},{"buffer":0,"byteLength":1332,"byteOffset":23800,"target":34963}],"samplers":[{"magFilter":9729,"minFilter":9987}],"buffers":[{"byteLength":25132,"uri":"wall_endcap.bin"}]}