{"asset":{"generator":"Khronos glTF Blender I/O v5.2.40","version":"2.0"},"scene":0,"scenes":[{"name":"Scene","nodes":[0]}],"nodes":[{"mesh":0,"name":"wall_half"}],"materials":[{"doubleSided":true,"name":"cave_rock","pbrMetallicRoughness":{"baseColorTexture":{"index":0},"metallicFactor":0.0,"roughnessFactor":1.0}}],"meshes":[{"name":"Cube.16062","primitives":[{"attributes":{"POSITION":0,"NORMAL":1,"TEXCOORD_0":2,"COLOR_0":3},"indices":4,"material":0}]}],"textures":[{"sampler":0,"source":0}],"images":[{"mimeType":"image/png","name":"cave_rock.png","uri":"../../textures/cave_rock.png"}],"accessors":[{"bufferView":0,"componentType":5126,"count":699,"max":[2.000000238418579,4,0.5],"min":[-1.6292068494294654e-07,0,-0.5000006556510925],"type":"VEC3"},{"bufferView":1,"componentType":5126,"count":699,"type":"VEC3"},{"bufferView":2,"componentType":5126,"count":699,"type":"VEC2"},{"bufferView":3,"componentType":5123,"count":699,"normalized":true,"type":"VEC4"},{"bufferView":4,"componentType":5123,"count":816,"type":"SCALAR"}],"bufferViews":[{"buffer":0,"byteLength":8388,"byteOffset":0,"target":34962},{"buffer":0,"byteLength":8388,"byteOffset":8388,"target":34962},{"buffer":0,"byteLength":5592,"byteOffset":16776,"target":34962},{"buffer":0,"byteLength":5592,"byteOffset":22368,"target":34962},{"buffer":0,"byteLength":1632,"byteOffset":27960,"target":34963}],"samplers":[{"magFilter":9729,"minFilter":9987}],"buffers":[{"byteLength":29592,"uri":"wall_half.bin"}]}