{"asset":{"generator":"Khronos glTF Blender I/O v5.2.40","version":"2.0"},"scene":0,"scenes":[{"name":"Scene","nodes":[0]}],"nodes":[{"mesh":0,"name":"wall_window_open"}],"materials":[{"doubleSided":true,"name":"cave_rock","pbrMetallicRoughness":{"baseColorTexture":{"index":0},"metallicFactor":0.0,"roughnessFactor":1.0}},{"doubleSided":true,"name":"flat_9a5d4b","pbrMetallicRoughness":{"baseColorFactor":[0.3248084485530853,0.1113484799861908,0.07201363146305084,1],"metallicFactor":0.0,"roughnessFactor":1.0}},{"doubleSided":true,"name":"flat_823d38","pbrMetallicRoughness":{"baseColorFactor":[0.22509202361106873,0.04806920140981674,0.039614953100681305,1],"metallicFactor":0.0,"roughnessFactor":1.0}},{"doubleSided":true,"name":"flat_834737","pbrMetallicRoughness":{"baseColorFactor":[0.22877536714076996,0.06475231051445007,0.03949536755681038,1],"metallicFactor":0.0,"roughnessFactor":1.0}},{"doubleSided":true,"name":"flat_8e5241","pbrMetallicRoughness":{"baseColorFactor":[0.2739535868167877,0.08586941659450531,0.05398278310894966,1],"metallicFactor":0.0,"roughnessFactor":1.0}},{"doubleSided":true,"name":"flat_9a5d41","pbrMetallicRoughness":{"baseColorFactor":[0.3238864541053772,0.11097016930580139,0.05441594496369362,1],"metallicFactor":0.0,"roughnessFactor":1.0}},{"doubleSided":true,"name":"flat_a5684c","pbrMetallicRoughness":{"baseColorFactor":[0.3803785741329193,0.14103944599628448,0.07300883531570435,1],"metallicFactor":0.0,"roughnessFactor":1.0}}],"meshes":[{"name":"Cube.16072","primitives":[{"attributes":{"POSITION":0,"NORMAL":1,"TEXCOORD_0":2,"COLOR_0":3},"indices":4,"material":0},{"attributes":{"POSITION":5,"NORMAL":6,"TEXCOORD_0":7,"COLOR_0":8},"indices":9,"material":1},{"attributes":{"POSITION":10,"NORMAL":11,"TEXCOORD_0":12,"COLOR_0":13},"indices":14,"material":2},{"attributes":{"POSITION":15,"NORMAL":16,"TEXCOORD_0":17,"COLOR_0":18},"indices":19,"material":3},{"attributes":{"POSITION":20,"NORMAL":21,"TEXCOORD_0":22,"COLOR_0":23},"indices":24,"material":4},{"attributes":{"POSITION":25,"NORMAL":26,"TEXCOORD_0":27,"COLOR_0":28},"indices":29,"material":5},{"attributes":{"POSITION":30,"NORMAL":31,"TEXCOORD_0":32,"COLOR_0":33},"indices":34,"material":6}]}],"textures":[{"sampler":0,"source":0}],"images":[{"mimeType":"image/png","name":"cave_rock.png","uri":"../../textures/cave_rock.png"}],"accessors":[{"bufferView":0,"componentType":5126,"count":1152,"max":[2,4,0.4999999701976776],"min":[-2,0,-0.4999999701976776],"type":"VEC3"},{"bufferView":1,"componentType":5126,"count":1152,"type":"VEC3"},{"bufferView":2,"componentType":5126,"count":1152,"type":"VEC2"},{"bufferView":3,"componentType":5123,"count":1152,"normalized":true,"type":"VEC4"},{"bufferView":4,"componentType":5123,"count":1404,"type":"SCALAR"},{"bufferView":5,"componentType":5126,"count":119,"max":[1.0292444229125977,2.9000000953674316,0.47233912348747253],"min":[-1.0292081832885742,0.9211997389793396,-0.47233936190605164],"type":"VEC3"},{"bufferView":6,"componentType":5126,"count":119,"type":"VEC3"},{"bufferView":7,"componentType":5126,"count":119,"type":"VEC2"},{"bufferView":8,"componentType":5123,"count":119,"normalized":true,"type":"VEC4"},{"bufferView":9,"componentType":5123,"count":126,"type":"SCALAR"},{"bufferView":10,"componentType":5126,"count":12,"max":[0.9000000357627869,0.9211997389793396,0.35163792967796326],"min":[-0.9000000357627869,0.7927192449569702,-0.35163792967796326],"type":"VEC3"},{"bufferView":11,"componentType":5126,"count":12,"type":"VEC3"},{"bufferView":12,"componentType":5126,"count":12,"type":"VEC2"},{"bufferView":13,"componentType":5123,"count":12,"normalized":true,"type":"VEC4"},{"bufferView":14,"componentType":5123,"count":12,"type":"SCALAR"},{"bufferView":15,"componentType":5126,"count":48,"max":[1.0292444229125977,1.1250113248825073,0.47233912348747253],"min":[-1.0292080640792847,0.7927192449569702,-0.47233936190605164],"type":"VEC3"},{"bufferView":16,"componentType":5126,"count":48,"type":"VEC3"},{"bufferView":17,"componentType":5126,"count":48,"type":"VEC2"},{"bufferView":18,"componentType":5123,"count":48,"normalized":true,"type":"VEC4"},{"bufferView":19,"componentType":5123,"count":54,"type":"SCALAR"},{"bufferView":20,"componentType":5126,"count":111,"max":[1.0292444229125977,2.9000000953674316,0.47233912348747253],"min":[-1.0292081832885742,0.7927192449569702,-0.47233936190605164],"type":"VEC3"},{"bufferView":21,"componentType":5126,"count":111,"type":"VEC3"},{"bufferView":22,"componentType":5126,"count":111,"type":"VEC2"},{"bufferView":23,"componentType":5123,"count":111,"normalized":true,"type":"VEC4"},{"bufferView":24,"componentType":5123,"count":120,"type":"SCALAR"},{"bufferView":25,"componentType":5126,"count":36,"max":[0.9000000357627869,2.9000000953674316,0.37442073225975037],"min":[-0.9000000357627869,0.7927192449569702,-0.37442073225975037],"type":"VEC3"},{"bufferView":26,"componentType":5126,"count":36,"type":"VEC3"},{"bufferView":27,"componentType":5126,"count":36,"type":"VEC2"},{"bufferView":28,"componentType":5123,"count":36,"normalized":true,"type":"VEC4"},{"bufferView":29,"componentType":5123,"count":36,"type":"SCALAR"},{"bufferView":30,"componentType":5126,"count":46,"max":[1.0292444229125977,2.9000000953674316,0.47233912348747253],"min":[-1.0292081832885742,2.7750110626220703,-0.47233936190605164],"type":"VEC3"},{"bufferView":31,"componentType":5126,"count":46,"type":"VEC3"},{"bufferView":32,"componentType":5126,"count":46,"type":"VEC2"},{"bufferView":33,"componentType":5123,"count":46,"normalized":true,"type":"VEC4"},{"bufferView":34,"componentType":5123,"count":60,"type":"SCALAR"}],"bufferViews":[{"buffer":0,"byteLength":13824,"byteOffset":0,"target":34962},{"buffer":0,"byteLength":13824,"byteOffset":13824,"target":34962},{"buffer":0,"byteLength":9216,"byteOffset":27648,"target":34962},{"buffer":0,"byteLength":9216,"byteOffset":36864,"target":34962},{"buffer":0,"byteLength":2808,"byteOffset":46080,"target":34963},{"buffer":0,"byteLength":1428,"byteOffset":48888,"target":34962},{"buffer":0,"byteLength":1428,"byteOffset":50316,"target":34962},{"buffer":0,"byteLength":952,"byteOffset":51744,"target":34962},{"buffer":0,"byteLength":952,"byteOffset":52696,"target":34962},{"buffer":0,"byteLength":252,"byteOffset":53648,"target":34963},{"buffer":0,"byteLength":144,"byteOffset":53900,"target":34962},{"buffer":0,"byteLength":144,"byteOffset":54044,"target":34962},{"buffer":0,"byteLength":96,"byteOffset":54188,"target":34962},{"buffer":0,"byteLength":96,"byteOffset":54284,"target":34962},{"buffer":0,"byteLength":24,"byteOffset":54380,"target":34963},{"buffer":0,"byteLength":576,"byteOffset":54404,"target":34962},{"buffer":0,"byteLength":576,"byteOffset":54980,"target":34962},{"buffer":0,"byteLength":384,"byteOffset":55556,"target":34962},{"buffer":0,"byteLength":384,"byteOffset":55940,"target":34962},{"buffer":0,"byteLength":108,"byteOffset":56324,"target":34963},{"buffer":0,"byteLength":1332,"byteOffset":56432,"target":34962},{"buffer":0,"byteLength":1332,"byteOffset":57764,"target":34962},{"buffer":0,"byteLength":888,"byteOffset":59096,"target":34962},{"buffer":0,"byteLength":888,"byteOffset":59984,"target":34962},{"buffer":0,"byteLength":240,"byteOffset":60872,"target":34963},{"buffer":0,"byteLength":432,"byteOffset":61112,"target":34962},{"buffer":0,"byteLength":432,"byteOffset":61544,"target":34962},{"buffer":0,"byteLength":288,"byteOffset":61976,"target":34962},{"buffer":0,"byteLength":288,"byteOffset":62264,"target":34962},{"buffer":0,"byteLength":72,"byteOffset":62552,"target":34963},{"buffer":0,"byteLength":552,"byteOffset":62624,"target":34962},{"buffer":0,"byteLength":552,"byteOffset":63176,"target":34962},{"buffer":0,"byteLength":368,"byteOffset":63728,"target":34962},{"buffer":0,"byteLength":368,"byteOffset":64096,"target":34962},{"buffer":0,"byteLength":120,"byteOffset":64464,"target":34963}],"samplers":[{"magFilter":9729,"minFilter":9987}],"buffers":[{"byteLength":64584,"uri":"wall_window_open.bin"}]}